<?xml version="1.0" encoding="UTF-8"?>
<svg width="30px" height="32px" viewBox="0 0 30 32" version="1.1" xmlns="http://www.w3.org/2000/svg" xmlns:xlink="http://www.w3.org/1999/xlink">
    <!-- Generator: Sketch 58 (84663) - https://sketch.com -->
    <title>icon/action/circle_24px</title>
    <desc>Created with Sketch.</desc>
    <defs>
        <path d="M24.5,22.46 C23.2966667,22.46 22.22,22.935 21.3966667,23.6791667 L10.1075,17.1083333 C10.1866667,16.7441667 10.25,16.38 10.25,16 C10.25,15.62 10.1866667,15.2558333 10.1075,14.8916667 L21.27,8.38416667 C22.125,9.17583333 23.2491667,9.66666667 24.5,9.66666667 C27.1283333,9.66666667 29.25,7.545 29.25,4.91666667 C29.25,2.28833333 27.1283333,0.166666667 24.5,0.166666667 C21.8716667,0.166666667 19.75,2.28833333 19.75,4.91666667 C19.75,5.29666667 19.8133333,5.66083333 19.8925,6.025 L8.73,12.5325 C7.875,11.7408333 6.75083333,11.25 5.5,11.25 C2.87166667,11.25 0.75,13.3716667 0.75,16 C0.75,18.6283333 2.87166667,20.75 5.5,20.75 C6.75083333,20.75 7.875,20.2591667 8.73,19.4675 L20.0033333,26.0541667 C19.9241667,26.3866667 19.8766667,26.735 19.8766667,27.0833333 C19.8766667,29.6325 21.9508333,31.7066667 24.5,31.7066667 C27.0491667,31.7066667 29.1233333,29.6325 29.1233333,27.0833333 C29.1233333,24.5341667 27.0491667,22.46 24.5,22.46 Z M24.5,3.33333333 C25.3708333,3.33333333 26.0833333,4.04583333 26.0833333,4.91666667 C26.0833333,5.7875 25.3708333,6.5 24.5,6.5 C23.6291667,6.5 22.9166667,5.7875 22.9166667,4.91666667 C22.9166667,4.04583333 23.6291667,3.33333333 24.5,3.33333333 Z M5.5,17.5833333 C4.62916667,17.5833333 3.91666667,16.8708333 3.91666667,16 C3.91666667,15.1291667 4.62916667,14.4166667 5.5,14.4166667 C6.37083333,14.4166667 7.08333333,15.1291667 7.08333333,16 C7.08333333,16.8708333 6.37083333,17.5833333 5.5,17.5833333 Z M24.5,28.6983333 C23.6291667,28.6983333 22.9166667,27.9858333 22.9166667,27.115 C22.9166667,26.2441667 23.6291667,25.5316667 24.5,25.5316667 C25.3708333,25.5316667 26.0833333,26.2441667 26.0833333,27.115 C26.0833333,27.9858333 25.3708333,28.6983333 24.5,28.6983333 Z" id="path-1"></path>
    </defs>
    <g id="Web-PC" stroke="none" stroke-width="1" fill="none" fill-rule="evenodd">
        <g id="Article" transform="translate(-1286.000000, -1553.000000)">
            <g id="Share" transform="translate(1278.000000, 1550.000000)">
                <g id="Group-2" transform="translate(4.000000, 0.000000)">
                    <g id="icon/action/circle_24px" transform="translate(4.000000, 3.000000)">
                        <mask id="mask-2" fill="white">
                            <use xlink:href="#path-1"></use>
                        </mask>
                        <g id="icon/social/share_24px" fill-rule="nonzero"></g>
                        <g id="✱-/-Color-/-Icons-/-Black-/-Normal" mask="url(#mask-2)" fill="#37474F">
                            <g transform="translate(-4.000000, -3.000000)" id="Rectangle">
                                <rect x="0" y="0" width="38" height="38"></rect>
                            </g>
                        </g>
                    </g>
                </g>
            </g>
        </g>
    </g>
</svg>