<?xml version="1.0" encoding="UTF-8"?>
<svg width="20px" height="20px" viewBox="0 0 20 20" version="1.1" xmlns="http://www.w3.org/2000/svg" xmlns:xlink="http://www.w3.org/1999/xlink">
    <!-- Generator: Sketch 58 (84663) - https://sketch.com -->
    <title>Shape</title>
    <desc>Created with Sketch.</desc>
    <g id="Web-PC" stroke="none" stroke-width="1" fill="none" fill-rule="evenodd">
        <g id="Home" transform="translate(-1275.000000, -4019.000000)" fill="#6F6F6F" fill-rule="nonzero">
            <g id="Section-/-Lists-Copy-2" transform="translate(92.000000, 3766.000000)">
                <g id="Card-/-Wide-Copy" transform="translate(885.000000, 107.000000)">
                    <g id="clock" transform="translate(298.000000, 146.000000)">
                        <path d="M9.99660877,0.666666667 C12.5730365,0.666666667 14.9057481,1.71389831 16.5991005,3.39977401 C18.2856705,5.09288136 19.3333333,7.42463277 19.3333333,10 C19.3333333,12.5753672 18.2856705,14.9071186 16.5991005,16.600226 C14.905296,18.2861017 12.5730365,19.3333333 9.99660877,19.3333333 C7.42018103,19.3333333 5.08792158,18.2861017 3.40135165,16.600226 C1.70754709,14.9071186 0.666666667,12.5758192 0.666666667,10 C0.666666667,7.42463277 1.70709493,5.09288136 3.40089948,3.39977401 C5.08792158,1.71389831 7.42018103,0.666666667 9.99660877,0.666666667 L9.99660877,0.666666667 Z M14.7551777,9.49062147 C15.0350669,9.49062147 15.2575313,9.72022599 15.2575313,10 C15.2575313,10.279774 15.0350669,10.5093785 14.7551777,10.5093785 L10.011078,10.5093785 L9.99660877,10.5093785 C9.80986524,10.5093785 9.64482555,10.4018079 9.55891448,10.2512994 L9.55167987,10.2440678 L9.55167987,10.2440678 L9.54444525,10.2296045 L9.54444525,10.2296045 L9.54444525,10.2223729 L9.54444525,10.2223729 L9.53721064,10.2079096 L9.53721064,10.2079096 L9.52997602,10.1934463 L9.52997602,10.1934463 L9.52997602,10.1862147 L9.52997602,10.1862147 L9.5227414,10.1717514 L9.5227414,10.1717514 L9.51550679,10.1645198 L9.51550679,10.1645198 L9.51550679,10.1500565 L9.51550679,10.1500565 L9.50827217,10.1355932 L9.50827217,10.1355932 L9.50827217,10.1283616 L9.50827217,10.1283616 L9.50103755,10.1138983 L9.50103755,10.1138983 L9.50103755,10.099435 L9.50103755,10.099435 L9.50103755,10.0922034 L9.50103755,10.0849718 L9.49380294,10.0777401 L9.49380294,10.0777401 L9.49380294,10.0632768 L9.49380294,10.0632768 L9.49380294,10.0488136 L9.49380294,10.0488136 L9.49380294,10.0361582 L9.49380294,10.0361582 L9.49380294,10.0289266 L9.49380294,10.0289266 L9.49380294,10.0144633 L9.49380294,10.0144633 L9.49380294,10 L9.49380294,10 L9.49380294,3.92361582 C9.49380294,3.64384181 9.71626739,3.42146893 9.99615661,3.42146893 C10.2760458,3.42146893 10.5057449,3.64384181 10.5057449,3.92361582 L10.5057449,9.49062147 L14.7551777,9.49062147 Z M15.881517,4.11751412 C14.374456,2.61107345 12.2931473,1.68542373 9.99660877,1.68542373 C7.70007025,1.68542373 5.61876156,2.61062147 4.11170054,4.11751412 C2.61187414,5.6239548 1.67860863,7.70440678 1.67860863,10 C1.67860863,12.2955932 2.61142197,14.3760452 4.11170054,15.8829379 C5.61876156,17.3893785 7.70007025,18.3150282 9.99660877,18.3150282 C12.2931473,18.3150282 14.374456,17.3893785 15.881517,15.8829379 C17.388578,14.3764972 18.3218435,12.2960452 18.3218435,10 C18.3218435,7.70440678 17.3890302,5.6239548 15.881517,4.11751412 L15.881517,4.11751412 Z" id="Shape"></path>
                    </g>
                </g>
            </g>
        </g>
    </g>
</svg>