<?xml version="1.0" encoding="UTF-8"?>
<svg width="970px" height="1080px" viewBox="0 0 970 1080" version="1.1" xmlns="http://www.w3.org/2000/svg" xmlns:xlink="http://www.w3.org/1999/xlink">
    <!-- Generator: Sketch 58 (84663) - https://sketch.com -->
    <title>Group 241</title>
    <desc>Created with Sketch.</desc>
    <defs>
        <path d="M0.0851330666,5.50609529 L0.0851330666,1096.13099 L997.875377,1096.13099 C993.823607,1013.5037 950.931985,905.912892 894.532436,832.180094 L894.532436,832.180094 C818.469794,732.739273 721.275939,731.900571 706.078001,573.884353 L706.078001,573.884353 C686.375394,369.043676 605.771608,321.666159 383.881709,270.007011 L383.881709,270.007011 C161.991809,218.347863 283.575316,111.990793 152.873046,32.9826846 L152.873046,32.9826846 C112.425253,8.52967485 75.4699467,0.0879622867 43.7214535,0.0879622867 L43.7214535,0.0879622867 C27.7940142,0.0879622867 13.1766371,2.21510368 0.0851330666,5.50609529" id="path-1"></path>
        <linearGradient x1="65.4465764%" y1="125.809879%" x2="21.549666%" y2="40.7395603%" id="linearGradient-3">
            <stop stop-color="#26213F" offset="0%"></stop>
            <stop stop-color="#5046AF" offset="100%"></stop>
        </linearGradient>
        <path d="M894.423171,465.37782 C950.815846,539.09422 993.702239,646.653633 997.753515,729.25914 L0.0818613685,729.25914 L0.0818613685,0.637916883 C5.6557856,1.46424537 11.2053961,2.39082695 16.7063791,3.4753831 C162.804586,32.2814373 289.245137,88.3229141 441.640602,61.3882509 C509.913576,49.3183865 573.737136,29.9938441 638.897951,15.7457536 C677.255911,58.5781264 697.40896,117.915803 705.991709,207.150166" id="path-4"></path>
        <linearGradient x1="0.000121090823%" y1="50.0001487%" x2="99.9999976%" y2="50.0001487%" id="linearGradient-6">
            <stop stop-color="#26213F" offset="0%"></stop>
            <stop stop-color="#6469D4" offset="100%"></stop>
        </linearGradient>
        <path d="M894.423171,182.846387 C950.815846,256.562787 993.702239,364.1222 997.753515,446.727707 L0.0818613685,446.727707 L0.0818613685,2.275384 C89.5716101,-3.23853589 179.733026,2.84652281 262.764438,25.8530878 C403.024309,64.7178686 540.937904,140.287432 686.22768,156.595268 C747.814376,163.515769 809.568229,160.872733 871.346396,156.021091" id="path-7"></path>
        <linearGradient x1="0.000121090823%" y1="50.000036%" x2="99.9999976%" y2="50.000036%" id="linearGradient-9">
            <stop stop-color="#26213F" offset="0%"></stop>
            <stop stop-color="#6469D4" offset="100%"></stop>
        </linearGradient>
        <polygon id="path-10" points="0.739137608 0.350163577 125.495354 0.350163577 125.495354 69.1382919 0.739137608 69.1382919"></polygon>
    </defs>
    <g id="Web-PC" stroke="none" stroke-width="1" fill="none" fill-rule="evenodd">
        <g id="Sign-In" transform="translate(0.000000, -0.000000)">
            <g id="Group-241" transform="translate(-29.918358, -13.000000)">
                <g id="Group-3" transform="translate(0.918358, 0.000000)">
                    <mask id="mask-2" fill="white">
                        <use xlink:href="#path-1"></use>
                    </mask>
                    <g id="Clip-2"></g>
                    <path d="M0.0851330666,5.50609529 L0.0851330666,1096.13099 L997.875377,1096.13099 C993.823607,1013.5037 950.931985,905.912892 894.532436,832.180094 L894.532436,832.180094 C818.469794,732.739273 721.275939,731.900571 706.078001,573.884353 L706.078001,573.884353 C686.375394,369.043676 605.771608,321.666159 383.881709,270.007011 L383.881709,270.007011 C161.991809,218.347863 283.575316,111.990793 152.873046,32.9826846 L152.873046,32.9826846 C112.425253,8.52967485 75.4699467,0.0879622867 43.7214535,0.0879622867 L43.7214535,0.0879622867 C27.7940142,0.0879622867 13.1766371,2.21510368 0.0851330666,5.50609529" id="Fill-1" fill="url(#linearGradient-3)" mask="url(#mask-2)"></path>
                </g>
                <g id="Group-240" transform="translate(0.918358, 154.000000)">
                    <g id="Group-6" transform="translate(0.106976, 212.760283)">
                        <mask id="mask-5" fill="white">
                            <use xlink:href="#path-4"></use>
                        </mask>
                        <g id="Clip-5"></g>
                        <path d="M894.423171,465.37782 C818.369802,365.963211 721.187794,365.124731 705.991709,207.150166 C697.40896,117.915803 677.255911,58.5781264 638.897951,15.7457536 C573.737136,29.9938441 509.913576,49.3183865 441.640602,61.3882509 C289.245137,88.3229141 162.804586,32.2814373 16.7063791,3.4753831 C11.2053961,2.39082695 5.6557856,1.46424537 0.0818613685,0.637916883 L0.0818613685,729.25914 L997.753515,729.25914 C993.702239,646.653633 950.815846,539.09422 894.423171,465.37782" id="Fill-4" fill="url(#linearGradient-6)" mask="url(#mask-5)"></path>
                    </g>
                    <g id="Group-9" transform="translate(0.106976, 495.291715)">
                        <mask id="mask-8" fill="white">
                            <use xlink:href="#path-7"></use>
                        </mask>
                        <g id="Clip-8"></g>
                        <path d="M894.423171,182.846387 C886.904148,173.021584 879.178458,164.168933 871.346396,156.021091 C809.568229,160.872733 747.814376,163.515769 686.22768,156.595268 C540.937904,140.287432 403.024309,64.7178686 262.764438,25.8530878 C179.733026,2.84652281 89.5716101,-3.23853589 0.0818613685,2.275384 L0.0818613685,446.727707 L997.753515,446.727707 C993.702239,364.1222 950.815846,256.562787 894.423171,182.846387" id="Fill-7" fill="url(#linearGradient-9)" mask="url(#mask-8)"></path>
                    </g>
                    <path d="M410.279524,875.612384 C394.153438,864.00733 378.972548,830.455963 363.682247,817.432175 C348.467926,804.469147 325.202718,803.202312 311.015653,790.093461 C297.384764,777.491952 285.689856,747.923366 284.662601,729.786671 C282.924169,699.173023 292.926232,664.816594 303.399375,636.122944 C315.954381,601.730059 334.533115,565.957934 358.008028,537.832386 C382.762452,508.178737 437.462282,459.717001 437.462282,459.717001 C437.462282,459.717001 371.784799,468.521045 284.659562,490.695206 C240.554443,501.920514 155.784598,518.170628 119.022228,478.242557 C92.5476071,449.491186 91.4534889,398.00363 82.5516219,362.760112 C70.6743613,315.723186 57.8184728,298.197123 19.6823762,271.614865 C11.9779607,266.243729 5.60776158,260.605253 0.188837423,254.602219 L0.188837423,942.019423 L537.929683,942.019423 C489.302209,875.609346 460.934156,912.068053 410.279524,875.612384" id="Fill-11" fill="#FFFFFF"></path>
                    <path d="M304.923542,561.683507 C322.949139,544.020735 353.043467,516.034934 371.652594,498.873428 L369.759161,496.874442 L371.567495,497.017226 C369.759161,496.874442 325.186003,511.049621 276.558528,527.254166 C258.472147,533.278465 208.163986,545.357443 189.74633,549.224782 C144.75072,558.672876 130.603165,513.513416 92.2360873,511.049621 C67.3661735,509.454685 44.9276333,515.138732 24.8171335,496.865328 C12.7909513,485.937741 5.99222255,472.0056 0.190357032,457.414218 L0.190357032,942.019423 L263.620581,942.019423 C260.447638,931.216393 255.916166,921.473615 248.233025,912.013369 C232.939684,893.199206 202.483689,870.52378 195.922019,845.724812 C189.846624,822.75774 208.744476,802.032693 209.695751,780.417519 C210.534575,761.308673 198.721138,750.818554 197.544961,732.411479 C195.192607,695.624672 230.81831,657.847485 250.217633,628.518899 C263.374404,608.629294 288.049808,578.222228 304.923542,561.683507" id="Fill-13" fill="#D1D6DD"></path>
                    <path d="M132.636401,906.445981 C121.102572,868.325504 124.13875,843.757421 136.189246,804.834919 C143.638367,780.783291 166.778966,753.165084 163.19269,727.25118 C159.901218,703.476008 146.127486,686.597033 157.427295,661.375786 C167.991614,637.78593 196.18947,618.139363 215.315264,602.1414 C229.265271,590.475586 276.555489,551.55916 276.555489,545.483215 C221.414973,554.569791 157.907491,601.445705 100.290013,590.141409 C82.4346121,586.638627 67.6913697,576.543445 51.6078326,569.726235 C33.3725298,561.997633 27.0205659,565.743453 7.63643902,570.333829 C5.20810453,570.911044 2.70378961,571.38193 0.190357032,571.84674 L0.190357032,942.020638 L140.428954,942.020638 C138.426109,928.741661 135.569245,916.143189 132.636401,906.445981" id="Fill-15" fill="#BAB3CF"></path>
                    <path d="M37.49462,394.593506 C26.6415756,381.463389 18.9523562,362.874036 12.147549,347.052276 C8.40627273,338.354561 5.06313387,330.489251 0.191268797,322.942927 L0.191268797,346.274555 C7.87137051,359.094799 9.98970486,374.412255 15.0803936,388.517561 C22.8364757,410.011216 40.8195235,420.16412 51.9309014,438.89322 C58.000218,449.119035 65.5374765,463.558517 70.8986556,471.703321 C70.7558124,443.176761 55.0005107,415.777288 37.49462,394.593506" id="Fill-17" fill="#D1D6DD"></path>
                    <path d="M118.516198,758.13703 C132.821793,731.891986 133.964539,693.327965 124.846887,669.024185 C123.163161,673.483929 122.567474,684.214047 119.528257,694.087458 C117.248844,712.315292 114.382863,716.984656 109.644723,729.789709 C103.013151,747.70767 92.0142245,763.517279 86.8384377,782.219037 C79.4865714,808.776992 79.4926499,846.216963 94.2510883,870.210869 C92.9533426,850.017467 90.4490277,831.355202 93.4396173,810.772939 C96.6095208,788.972449 108.365213,776.7598 118.516198,758.13703" id="Fill-19" fill="#D1D6DD"></path>
                    <path d="M187.918241,913.580963 C172.722155,898.433633 155.77548,882.566303 157.599011,859.435181 C146.618319,886.81035 157.061069,915.826025 173.232744,942.019423 L211.466095,942.019423 C205.7007,932.80829 198.029716,923.660956 187.918241,913.580963" id="Fill-21" fill="#BAB3CF"></path>
                    <path d="M0.19005311,621.451968 L0.19005311,643.270686 C11.0279014,642.438281 22.0997695,644.188153 32.9133041,644.719799 C47.8632132,645.45195 80.0211697,647.757771 104.334907,624.972978 C86.099604,628.01095 70.2014591,631.99677 57.6464531,632.561833 C43.3864463,633.208921 29.8224202,628.253988 16.3100608,624.59627 C10.7239797,623.083359 5.3658399,622.059563 0.19005311,621.451968" id="Fill-23" fill="#D1D6DD"></path>
                    <path d="M26.7980952,846.668406 C30.7581952,804.957045 60.4695819,765.697328 60.3393254,724.168245 C45.8539867,752.087211 24.4214274,788.254273 0.189749188,812.934761 L0.189749188,942.021246 L7.21338,942.021246 C8.7208317,938.190362 10.2191657,934.368593 11.7174998,930.592393 C23.0142699,902.08406 23.9594664,876.555978 26.7980952,846.668406" id="Fill-25" fill="#D1D6DD"></path>
                    <path d="M49.393459,679.885544 C31.9635487,686.180223 15.6520703,700.394896 0.191572719,712.416153 L0.191572719,762.931558 C2.71108373,757.754853 5.4007909,752.751312 8.18775301,748.012075 C21.1773671,725.901712 33.7445299,699.71439 49.393459,679.885544" id="Fill-27" fill="#D1D6DD"></path>
                    <path d="M0.19005311,543.592077 C5.10142801,543.151571 10.0523127,542.291825 14.8633935,542.018408 C23.6163388,541.52018 33.6883044,540.879168 42.0279163,543.898913 C56.2058642,549.02701 70.5418515,557.569788 86.6284278,552.061944 C76.9485212,549.437136 67.2959676,546.520683 58.539983,541.429041 C46.4773302,534.417401 40.4809547,531.245758 26.0720263,530.796138 C18.0728068,530.550062 8.54486103,531.030062 0.19005311,529.097911 L0.19005311,543.592077 Z" id="Fill-29" fill="#BAB3CF"></path>
                    <path d="M467.624081,733.82444 C456.567409,724.124195 468.095159,714.28724 480.176047,712.950532 C477.854085,721.286728 475.571633,729.638114 473.29526,737.989501 C471.350161,736.771274 469.441532,735.419376 467.624081,733.82444 M479.088008,761.679609 C483.364186,763.781886 485.306246,766.701378 485.904972,771.422387 C486.865364,778.974786 479.088008,779.087191 473.590064,779.400102 C473.146338,779.427444 472.745161,779.409216 472.316632,779.41833 C473.930456,773.196563 475.58379,766.986947 477.237124,760.777331 C477.854085,761.078091 478.474086,761.375812 479.088008,761.679609 M517.132928,718.294325 C514.379397,706.977878 505.59606,699.562188 495.03478,696.029026 C495.995173,692.614345 496.943408,689.193588 497.909879,685.781945 C499.620959,679.730304 490.193307,677.32423 488.491345,683.345491 C487.491443,686.875615 486.509776,690.411815 485.512913,693.941939 C465.830942,691.733333 444.419658,701.52168 443.942501,723.595587 C443.562599,741.112536 455.169369,749.533796 468.338297,756.363158 C466.435747,763.496317 464.539275,770.626438 462.688392,777.771749 C455.08731,774.666941 450.70172,767.804162 443.222206,761.852774 C433.490633,754.108982 421.941608,765.938847 429.685533,775.821371 C435.642399,783.422378 439.936812,788.179842 446.781129,792.232498 C450.267112,794.295281 454.008388,795.793001 457.877311,796.82895 C456.461036,802.485654 455.160251,802.0573 453.786525,807.726157 C452.309465,813.829443 460.612607,815.870961 463.205059,810.162611 C464.989079,806.240588 468.532807,798.645657 467.499473,798.454265 C470.979376,798.7611 474.489672,798.812746 477.95134,798.618316 C496.007329,797.600595 509.091159,783.674529 504.550569,765.224923 C501.198312,751.608731 491.916543,747.471012 482.090754,742.704434 C484.692324,733.134821 487.315168,723.574322 489.980562,714.022936 C493.989289,715.569264 497.210859,718.652806 498.453899,723.759638 C501.417136,735.944945 520.090086,730.461405 517.132928,718.294325" id="Fill-31" fill="#F7B61E"></path>
                    <path d="M304.513856,157.460925 C303.851306,152.448271 299.249931,148.921185 294.235223,149.583463 L282.130021,151.184474 C277.115313,151.843714 273.586782,156.446242 274.249331,161.455859 L285.74669,248.429971 L316.008175,244.431999 L304.513856,157.460925 Z" id="Fill-33" fill="#F7B61E"></path>
                    <path d="M354.221771,172.440256 C353.559222,167.430639 348.954808,163.900515 343.943139,164.562793 L331.837937,166.163805 C326.82019,166.823045 323.294698,171.428611 323.957247,176.438227 L332.655487,242.234634 L362.916972,238.236662 L354.221771,172.440256 Z" id="Fill-35" fill="#EF3236"></path>
                    <path d="M401.11598,177.790733 C400.453431,172.778078 395.852056,169.250992 390.837348,169.91327 L378.732146,171.511244 C373.717438,172.173522 370.188907,176.773012 370.851456,181.785666 L378.048322,236.238284 L408.312846,232.24335 L401.11598,177.790733 Z" id="Fill-37" fill="#00A79D"></path>
                    <polygon id="Fill-39" fill="#D1D3D4" points="378.048626 236.239195 408.31315 232.244261 404.927462 206.634154 373.735977 203.605296"></polygon>
                    <polygon id="Fill-41" fill="#D1D3D4" points="332.654879 242.233418 362.919403 238.238485 358.141754 202.092689 326.947229 199.066869"></polygon>
                    <polygon id="Fill-43" fill="#F76D25" points="285.745778 248.431186 316.007263 244.433214 309.792064 197.402364 278.600578 194.373505"></polygon>
                    <path d="M424.917609,224.664216 L270.574006,245.045973 C262.763218,246.078884 264.565474,258.151786 272.367144,257.121913 L426.710747,236.737119 C434.521535,235.707246 432.71928,223.634344 424.917609,224.664216" id="Fill-45" fill="#FFFFFF"></path>
                    <polygon id="Fill-47" fill="#1C2F93" points="605.29849 787.505109 596.688387 803.202312 610.136923 803.287375"></polygon>
                    <path d="M235.527577,326.452697 C215.347176,286.515512 189.161281,250.968197 163.078719,214.609743 C160.346463,210.818353 154.860676,209.238608 150.937047,211.125189 C147.812732,212.635061 144.718809,214.187465 141.649199,215.76721 C141.463807,215.861388 141.275375,215.949489 141.089983,216.046704 C141.093022,216.049742 141.096062,216.055818 141.099101,216.058856 C121.462719,226.199608 102.923494,233.636564 85.086329,246.894276 C81.5973077,249.497818 80.4606405,259.222368 82.5577003,263.396542 C102.741141,303.330689 125.988113,341.666862 152.070675,378.025316 C154.799892,381.816706 160.288718,383.396451 164.212347,381.50987 C179.289903,374.221775 193.695793,366.125578 207.618446,357.14837 C207.621486,357.154446 207.621486,357.160522 207.624525,357.16356 C208.168545,356.814193 208.697369,356.440522 209.238349,356.085079 C211.937174,354.326093 214.623842,352.530652 217.289235,350.701792 C218.264824,350.033438 219.243452,349.362046 220.216001,348.681541 C223.519631,346.372682 226.808063,344.030405 230.063065,341.609141 C231.950419,340.199522 235.916597,336.508385 236.287382,334.047628 C236.60346,331.957503 236.491009,328.366619 235.527577,326.452697" id="Fill-49" fill="#26224F"></path>
                    <path d="M234.614901,322.65675 C236.71196,326.830924 235.575293,332.423831 232.086272,335.027374 C211.294987,350.484577 189.561546,363.65115 166.235554,374.928103 C162.314964,376.814684 156.826138,375.234938 154.096921,371.443549 C128.014359,335.085095 104.764348,296.748922 84.5839464,256.814774 C82.4868866,252.6406 83.6235538,247.044655 87.1125751,244.441113 C107.90386,228.986947 129.637301,215.820375 152.963293,204.543421 C156.883883,202.656841 162.36967,204.236586 165.101926,208.027976 C191.184488,244.386429 214.434499,282.719565 234.614901,322.65675" id="Fill-51" fill="#262262"></path>
                    <path d="M218.696089,306.823142 C220.63511,310.37757 219.620011,315.080351 216.437951,317.261615 C197.49451,330.197301 177.955383,342.033242 157.720276,352.83931 C154.313313,354.649941 149.675468,353.373993 147.417329,350.010957 C128.720066,322.079839 111.414763,293.209988 95.595638,263.559377 C93.693088,259.980645 94.6808336,255.247484 97.7990704,253.060144 C116.350452,240.07585 135.564383,228.437378 155.662726,218.001943 C159.045374,216.252071 163.698416,217.564475 165.993025,220.903207 C184.972936,248.639895 202.573042,277.333544 218.696089,306.823142" id="Fill-53" fill="#1C75BC"></path>
                    <path d="M130.644802,224.337938 C131.167547,225.167305 130.96392,226.203253 130.194998,226.652873 C125.83676,229.198694 121.52715,231.808312 117.250972,234.49388 C116.497246,234.967804 115.485187,234.667044 114.992834,233.822488 C114.497441,232.977932 114.701069,231.905527 115.448716,231.431604 C119.694502,228.761226 123.979799,226.166798 128.313722,223.639205 C129.076566,223.195661 130.125096,223.508572 130.644802,224.337938" id="Fill-55" fill="#1C75BC"></path>
                    <path d="M199.000442,341.825141 C201.042796,345.294505 200.115835,349.729945 196.900343,351.674247 C193.687891,353.621588 189.317497,352.391209 187.187005,348.976528 C185.053475,345.564885 186.029064,341.205394 189.332693,339.206409 C192.639361,337.204385 196.955049,338.355776 199.000442,341.825141" id="Fill-57" fill="#1C75BC"></path>
                    <path d="M155.662118,218.001032 C135.563775,228.436467 116.349844,240.077977 97.7984625,253.062271 C94.683265,255.246573 93.6924802,259.982772 95.5950301,263.558466 C118.109551,247.688098 141.499366,233.512919 165.992417,220.905333 C163.700847,217.563564 159.044766,216.251159 155.662118,218.001032" id="Fill-59" fill="#1CB0D9"></path>
                    <path d="M152.962685,204.542206 C149.646899,206.143218 146.367584,207.783723 143.115621,209.463722 C155.865137,231.230794 195.757902,320.009461 209.650163,350.583615 C217.26948,345.674252 224.736837,340.494509 232.088703,335.029197 C235.577725,332.425654 236.711353,326.829709 234.614293,322.655535 C214.433891,282.721388 191.186919,244.388252 165.104357,208.026761 C162.372101,204.238409 156.886314,202.655625 152.962685,204.542206" id="Fill-61" fill="#1C75BC"></path>
                    <path d="M179.688041,268.904689 C187.465398,281.727971 183.368533,298.427705 170.539997,306.198839 C157.711462,313.97301 141.001846,309.877823 133.227529,297.054542 C125.450172,284.23126 129.547037,267.531526 142.378611,259.757355 C155.204108,251.986221 171.910684,256.07837 179.688041,268.904689" id="Fill-63" fill="#FFFFFF"></path>
                    <path d="M163.908729,298.671958 C163.112455,299.154996 162.155101,299.376768 161.167356,299.246135 L141.008228,296.618289 C138.689306,296.314492 137.054207,294.190949 137.358129,291.872976 C137.665089,289.558041 139.789502,287.923612 142.105386,288.224371 L158.422943,290.35399 L167.546672,249.332248 C168.048143,247.050731 170.309321,245.61377 172.597851,246.121112 C174.880303,246.628453 176.317853,248.888704 175.813343,251.170222 L165.84775,295.971201 C165.589417,297.137782 164.866083,298.091705 163.908729,298.671958" id="Fill-65" fill="#00A79D"></path>
                    <path d="M726.724636,652.819641 C728.06797,657.76546 721.612673,662.431785 716.503749,663.823177 L641.45636,683.943668 C636.347436,685.335059 631.113904,682.448985 629.767531,677.503166 L599.691438,567.036414 C598.348104,562.090595 601.399478,556.953384 606.508402,555.558954 L689.782952,532.91087 L726.724636,652.819641 Z" id="Fill-67" fill="#F7B61E"></path>
                    <path d="M725.151537,654.392095 L650.107187,674.515624 C644.995224,675.907016 639.758653,673.020942 638.415319,668.075123 L608.339226,557.605333 C608.117363,556.779004 608.056579,555.955714 608.065697,555.135461 L606.509618,555.560777 C601.397654,556.955207 598.34628,562.08938 599.692654,567.035199 L629.765707,677.501951 C631.11208,682.44777 636.345612,685.336882 641.457576,683.945491 L716.504964,663.821961 C721.273496,662.524747 727.206048,658.374877 726.88693,653.808804 C726.300361,654.036652 725.716831,654.237159 725.151537,654.392095" id="Fill-69" fill="#F78E1E"></path>
                    <path d="M671.555855,675.874509 L716.505876,663.822873 C721.6148,662.431482 728.070097,657.765156 726.723724,652.819337 L697.589789,558.253332 L613.245435,571.350031 C613.245435,571.350031 625.87946,639.418841 671.555855,675.874509" id="Fill-71" fill="#F1F2F2"></path>
                    <path d="M609.183521,558.903762 C609.183521,558.903762 633.558042,653.211539 687.808068,667.356339 C687.808068,667.356339 740.48378,656.750777 764.855262,625.705737 C764.855262,625.705737 719.254848,596.626265 697.241798,534.542261 C697.241798,534.542261 650.06707,547.903264 609.183521,558.903762" id="Fill-73" fill="#FFFFFF"></path>
                    <path d="M687.806853,552.222349 L697.240583,534.544388 C697.240583,534.544388 693.702934,526.290217 684.269204,529.43148 C674.832435,532.575782 615.081426,548.294251 615.081426,548.294251 C615.081426,548.294251 596.210926,554.187917 599.356516,564.799555 C599.353477,564.799555 600.012987,561.336267 603.593185,560.917026 C608.677795,560.318546 610.32809,564.70234 613.276131,572.282081 C616.704368,581.086125 655.961935,573.04765 655.961935,573.04765 L687.806853,552.222349 Z" id="Fill-75" fill="#FFFFFF"></path>
                    <path d="M637.29324,558.894648 C637.29324,564.107809 633.068728,568.324514 627.85951,568.324514 C622.647253,568.324514 618.42578,564.107809 618.42578,558.894648 C618.42578,553.684525 622.647253,549.464782 627.85951,549.464782 C633.068728,549.464782 637.29324,553.684525 637.29324,558.894648" id="Fill-77" fill="#F7B61E"></path>
                    <path d="M662.059821,551.821945 C662.059821,557.029029 657.835309,561.251811 652.626091,561.251811 C647.413833,561.251811 643.189321,557.029029 643.189321,551.821945 C643.189321,546.611822 647.413833,542.392078 652.626091,542.392078 C657.835309,542.392078 662.059821,546.611822 662.059821,551.821945" id="Fill-79" fill="#F7B61E"></path>
                    <path d="M687.976137,544.959773 C687.976137,550.166857 683.751625,554.389639 678.542407,554.389639 C673.33015,554.389639 669.108677,550.166857 669.108677,544.959773 C669.108677,539.74965 673.33015,535.529906 678.542407,535.529906 C683.751625,535.529906 687.976137,539.74965 687.976137,544.959773" id="Fill-81" fill="#F7B61E"></path>
                    <path d="M631.608081,555.257588 C632.34661,557.903662 630.960727,560.610495 628.502001,561.294039 C626.046313,561.977583 623.459939,560.376571 622.724449,557.727459 L619.657879,546.714809 C618.919349,544.062659 620.308271,541.36494 622.763959,540.681396 C625.216607,540.00089 627.802981,541.595826 628.541511,544.244938 L631.608081,555.257588 Z" id="Fill-83" fill="#262262"></path>
                    <path d="M656.233641,548.080985 C656.969132,550.727059 655.583249,553.430855 653.127561,554.117437 C650.671874,554.797942 648.0855,553.203007 647.35001,550.547819 L644.2804,539.535169 C643.54491,536.886057 644.933832,534.1853 647.38952,533.501756 C649.842168,532.82125 652.431581,534.416186 653.167071,537.065297 L656.233641,548.080985 Z" id="Fill-85" fill="#262262"></path>
                    <path d="M682.139624,541.381952 C682.875115,544.028026 681.489232,546.731822 679.033544,547.418404 C676.574818,548.098909 673.991483,546.503974 673.255993,543.848786 L670.186383,532.839174 C669.450893,530.187024 670.839815,527.486267 673.295502,526.805761 C675.748151,526.122217 678.334525,527.717153 679.073054,530.366265 L682.139624,541.381952 Z" id="Fill-87" fill="#262262"></path>
                    <path d="M700.30381,572.378689 C700.80832,574.040459 699.9543,575.769066 698.395181,576.239952 L638.832604,594.315887 C637.273485,594.786773 635.601916,593.829812 635.097406,592.165003 C634.592896,590.503232 635.446916,588.771588 637.006034,588.300702 L696.568612,570.221728 C698.12773,569.75388 699.79626,570.71388 700.30381,572.378689" id="Fill-89" fill="#D1D3D4"></path>
                    <path d="M713.257561,594.507887 C713.762071,596.169658 712.908051,597.898264 711.348932,598.36915 L651.786355,616.448124 C650.227237,616.919009 648.555667,615.95901 648.051157,614.294201 C647.546647,612.63243 648.400667,610.900786 649.959785,610.4299 L709.522363,592.353965 C711.081481,591.883079 712.750012,592.843078 713.257561,594.507887" id="Fill-91" fill="#D1D3D4"></path>
                    <path d="M732.203433,615.815314 C732.707943,617.477085 731.850883,619.205691 730.297843,619.676577 L670.732227,637.752513 C669.173108,638.223398 667.501539,637.266437 666.997029,635.601628 C666.492519,633.939857 667.346539,632.208213 668.905657,631.737327 L728.468235,613.658354 C730.027353,613.190506 731.695883,614.150505 732.203433,615.815314" id="Fill-93" fill="#D1D3D4"></path>
                    <path d="M764.85587,625.706345 C764.85587,625.706345 721.8783,598.291682 699.227015,539.877549 C701.792114,563.394493 705.800842,630.661278 672.761512,661.062267 C677.496612,663.808594 682.505242,665.977707 687.805637,667.356946 C687.805637,667.356946 740.481348,656.751385 764.85587,625.706345" id="Fill-95" fill="#F1F2F2"></path>
                    <path d="M152.688244,149.412121 C154.928147,157.951862 149.819223,166.68907 141.275983,168.925018 C132.732744,171.164004 123.994995,166.057172 121.755092,157.514394 C119.515189,148.977691 124.624113,140.243521 133.167352,138.004535 C141.713631,135.765549 150.45138,140.872381 152.688244,149.412121" id="Fill-97" fill="#1C75BC"></path>
                    <path d="M194.486293,138.463269 C196.726196,147.003009 191.620311,155.73718 183.077072,157.973127 C174.533833,160.212113 165.796083,155.105281 163.55618,146.565541 C161.316277,138.025801 166.42824,129.29163 174.97148,127.055682 C183.514719,124.816697 192.249429,129.923528 194.486293,138.463269" id="Fill-99" fill="#1C75BC"></path>
                    <polygon id="Fill-101" fill="#1C75BC" points="91.2954496 96.8649203 124.954779 148.419312 187.039907 132.154008 193.714028 69.489751"></polygon>
                    <polygon id="Fill-103" fill="#FFFFFF" points="104.037064 100.030184 130.377959 140.377495 178.968962 127.645353 184.193376 78.6064024"></polygon>
                    <path d="M199.727727,68.0099547 C200.53312,71.0843827 198.718707,74.2256462 195.673411,75.0246329 L93.1484603,101.883347 C90.1001255,102.682334 86.9758103,100.832208 86.1704178,97.7577804 C85.361986,94.6803143 87.1763986,91.5390509 90.2247334,90.7400641 L192.749684,63.8813502 C195.798019,63.0823635 198.919295,64.9324886 199.727727,68.0099547" id="Fill-105" fill="#1C75BC"></path>
                    <path d="M208.984878,44.5397951 C211.85086,45.9159966 213.05439,49.3580194 211.671546,52.2258653 L200.241051,71.2769902 C198.858207,74.1448361 195.411735,75.3448352 192.548792,73.9625578 C189.68585,72.5802803 188.47928,69.1382576 189.862124,66.2704117 L201.286541,47.2253627 C202.672424,44.3605548 206.115857,43.1544797 208.984878,44.5397951" id="Fill-107" fill="#1C75BC"></path>
                    <path d="M201.511444,51.5058658 C200.459874,48.5013111 202.049385,45.217263 205.055171,44.1691625 L213.798998,41.808658 C216.804784,40.7605575 220.093217,42.3403031 221.141747,45.3478958 C222.187238,48.3494125 220.603806,51.6304227 217.59802,52.6845991 L208.854192,55.0451037 C205.851446,56.0871282 202.563013,54.5073826 201.511444,51.5058658" id="Fill-109" fill="#1C75BC"></path>
                    <polyline id="Fill-111" fill="#1C75BC" points="115.074892 92.7156576 137.63804 141.280684 144.324318 139.530812 120.90715 89.4012297 115.056657 90.9354058"></polyline>
                    <polyline id="Fill-113" fill="#1C75BC" points="168.997291 78.5893897 173.164057 131.972641 166.47778 133.725551 162.289738 78.55901 168.143271 77.0278719"></polyline>
                    <polygon id="Fill-115" fill="#1C75BC" points="137.717668 83.6582467 152.065812 138.393395 157.499932 136.968586 143.367573 83.071918"></polygon>
                    <polyline id="Fill-117" fill="#1C75BC" points="112.669352 121.030472 185.820269 101.863904 185.464681 107.317064 116.912099 125.277557"></polyline>
                    <path d="M144.204269,151.635917 C145.216328,155.494142 142.909563,159.43743 139.052796,160.446037 C135.19299,161.457682 131.248086,159.151861 130.236027,155.293636 C129.227007,151.438449 131.533773,147.495161 135.390539,146.483516 C139.250345,145.474909 143.19221,147.78073 144.204269,151.635917" id="Fill-119" fill="#FFFFFF"></path>
                    <path d="M185.73973,140.749343 C186.751789,144.607568 184.445024,148.550856 180.588257,149.559463 C176.728451,150.571108 172.783547,148.265287 171.771488,144.407062 C170.762468,140.551875 173.069234,136.608587 176.926,135.596942 C180.785806,134.588335 184.727671,136.894156 185.73973,140.749343" id="Fill-121" fill="#FFFFFF"></path>
                    <path d="M336.100743,337.736941 C335.605351,339.632636 333.669369,340.7658 331.772898,340.267572 C329.879466,339.772383 328.745838,337.837194 329.24123,335.944538 L338.20996,301.651905 C338.705352,299.759248 340.644373,298.623047 342.537805,299.121274 C344.434277,299.616464 345.567905,301.551652 345.072512,303.444309 L336.100743,337.736941 Z" id="Fill-123" fill="#00A79D"></path>
                    <path d="M319.106049,318.639639 C317.209577,318.14445 316.075949,316.209261 316.574381,314.313567 C317.069773,312.42091 319.005755,311.287746 320.899187,311.782936 L355.20587,320.747992 C357.099302,321.243182 358.235969,323.181408 357.737538,325.074065 C357.242145,326.96976 355.306164,328.102923 353.412732,327.607734 L319.106049,318.639639 Z" id="Fill-125" fill="#00A79D"></path>
                    <path d="M802.484113,506.771548 C801.988721,508.667243 800.05274,509.800407 798.156268,509.305217 C796.262836,508.810028 795.129208,506.871801 795.6246,504.979144 L804.59333,470.68955 C805.088722,468.793855 807.027743,467.660692 808.921175,468.155881 C810.817647,468.651071 811.951275,470.589297 811.455882,472.481954 L802.484113,506.771548 Z" id="Fill-127" fill="#F7B61E"></path>
                    <path d="M785.489419,487.677284 C783.592947,487.179057 782.459319,485.243868 782.957751,483.351211 C783.453143,481.455517 785.389125,480.322353 787.282557,480.817542 L821.58924,489.782599 C823.482672,490.280826 824.61934,492.216015 824.120908,494.108672 C823.625516,496.004366 821.689534,497.13753 819.796102,496.642341 L785.489419,487.677284 Z" id="Fill-129" fill="#F7B61E"></path>
                    <path d="M354.013889,752.384325 C353.518497,754.276982 351.582515,755.410146 349.686044,754.914956 C347.792612,754.419767 346.658984,752.484578 347.154376,750.588883 L356.123106,716.296251 C356.618498,714.403594 358.557519,713.270431 360.450951,713.76562 C362.347422,714.26081 363.48105,716.195998 362.985658,718.091693 L354.013889,752.384325 Z" id="Fill-131" fill="#FFFFFF"></path>
                    <path d="M337.019195,733.284289 C335.122723,732.792137 333.989095,730.853911 334.487527,728.958216 C334.982919,727.065559 336.9189,725.932396 338.812333,726.427585 L373.119016,735.39568 C375.012448,735.887831 376.149115,737.826058 375.650684,739.721752 C375.155291,741.614409 373.21931,742.747573 371.325878,742.252383 L337.019195,733.284289 Z" id="Fill-133" fill="#FFFFFF"></path>
                    <path d="M882.328602,903.775907 C881.836249,905.668564 879.897229,906.801728 878.000757,906.306538 C876.107325,905.811349 874.973697,903.87616 875.469089,901.980466 L884.440858,867.687833 C884.933212,865.795176 886.872232,864.662013 888.768704,865.157202 C890.662136,865.652392 891.795764,867.58758 891.300371,869.483275 L882.328602,903.775907 Z" id="Fill-135" fill="#1C75BC"></path>
                    <path d="M865.333908,884.675871 C863.440476,884.183719 862.306848,882.245493 862.80224,880.349798 C863.297633,878.457142 865.233614,877.323978 867.130085,877.819167 L901.436768,886.787262 C903.330201,887.279413 904.463829,889.21764 903.968436,891.113335 C903.473044,893.005991 901.537063,894.139155 899.640591,893.643966 L865.333908,884.675871 Z" id="Fill-137" fill="#1C75BC"></path>
                    <path d="M310.805947,27.1917576 C305.104375,27.1917576 300.481726,22.5710016 300.481726,16.8748033 C300.481726,11.1755671 305.104375,6.5548111 310.805947,6.5548111 C316.507518,6.5548111 321.130167,11.1755671 321.130167,16.8748033 C321.130167,22.5710016 316.507518,27.1917576 310.805947,27.1917576 M310.805947,0.165955156 C301.575844,0.165955156 294.090253,7.64544319 294.090253,16.8748033 C294.090253,26.1011255 301.575844,33.5836515 310.805947,33.5836515 C320.036049,33.5836515 327.521641,26.1011255 327.521641,16.8748033 C327.521641,7.64544319 320.036049,0.165955156 310.805947,0.165955156" id="Fill-139" fill="#EF3236"></path>
                    <polygon id="Fill-141" fill="#F7B61E" points="521.470802 196.4132 521.720018 223.448116 498.172164 210.147873"></polygon>
                    <polygon id="Fill-143" fill="#EF3236" points="529.669699 863.638216 545.859608 895.798192 565.629716 865.704037"></polygon>
                    <path d="M582.504361,653.834323 C582.504361,661.666216 576.155436,668.012541 568.320335,668.012541 C560.488272,668.012541 554.139347,661.666216 554.139347,653.834323 C554.139347,646.005469 560.488272,639.659144 568.320335,639.659144 C576.155436,639.659144 582.504361,646.005469 582.504361,653.834323" id="Fill-145" fill="#00A79D"></path>
                    <path d="M56.0876387,171.803801 C56.0876387,178.168353 50.927048,183.323792 44.5629273,183.323792 C38.1988066,183.323792 33.0412551,178.168353 33.0412551,171.803801 C33.0412551,165.442286 38.1988066,160.286847 44.5629273,160.286847 C50.927048,160.286847 56.0876387,165.442286 56.0876387,171.803801" id="Fill-147" fill="#77C9E1"></path>
                    <path d="M260.347344,654.849006 C260.347344,654.849006 222.86164,673.079879 234.006449,723.710726 C245.151259,774.341574 256.296068,782.440809 244.139199,819.91116 C231.982331,857.381512 262.374502,883.708581 305.935601,908.01236 C305.935601,908.01236 261.359404,884.720225 267.437838,832.06305 C273.516272,779.405874 256.296068,753.078806 251.229693,729.786671 C246.163318,706.494537 244.139199,681.179113 260.347344,654.849006" id="Fill-149" fill="#D1D6DD"></path>
                    <path d="M360.230304,392.034622 C360.230304,392.034622 263.972218,355.354143 203.227386,464.544947 C203.227386,464.544947 258.787314,441.517116 313.383811,511.49681 L360.230304,392.034622 Z" id="Fill-151" fill="#F7B61E"></path>
                    <path d="M460.57796,554.278449 C460.57796,554.278449 450.384425,656.749258 325.512111,662.263178 C325.512111,662.263178 370.945368,622.86979 332.730251,542.779724 L460.57796,554.278449 Z" id="Fill-153" fill="#F7B61E"></path>
                    <path d="M256.61944,466.675781 C273.903468,473.167928 293.69789,486.267665 313.382899,511.498026 L360.229392,392.035837 C360.229392,392.035837 358.506156,391.379635 355.393998,390.510775 C344.27958,394.627228 292.427497,415.978098 256.61944,466.675781" id="Fill-155" fill="#F76D25"></path>
                    <path d="M332.729036,542.779116 C345.113846,568.732514 348.684926,590.384143 347.894729,607.834257 C376.110821,602.068185 417.088586,589.089967 459.668018,559.873787 C460.373116,556.337587 460.576744,554.277841 460.576744,554.277841 L332.729036,542.779116 Z" id="Fill-157" fill="#F76D25"></path>
                    <path d="M561.275733,514.749264 C434.26381,593.232243 309.485711,572.291499 293.02835,545.69405 C276.577068,519.087488 313.609929,398.151883 440.618813,319.662828 C567.624658,241.173774 738.197681,237.588966 752.962197,261.461353 C769.416519,288.064877 688.281578,436.260209 561.275733,514.749264" id="Fill-159" fill="#65CCA7"></path>
                    <path d="M580.069036,263.078162 C533.885093,274.260939 484.634579,292.461431 440.617597,319.663436 C413.483466,336.430006 390.494828,355.140878 371.217074,374.45023 C380.280019,405.835523 394.716301,438.639549 414.495526,470.62636 C434.27779,502.610134 457.190448,530.182771 481.227617,552.3144 C507.121747,543.710862 534.140387,531.516441 561.274518,514.749871 C605.233754,487.578246 643.692008,452.067387 674.518787,416.128173 C665.431528,389.081105 652.441914,361.23505 635.595533,333.993552 C618.910231,307.019395 600.000222,283.168274 580.069036,263.078162" id="Fill-161" fill="#6292F4"></path>
                    <path d="M753.516551,262.511276 C733.159874,318.516298 662.86886,419.279766 565.756755,479.294911 C466.851512,540.418915 365.761071,539.130815 318.078793,523.014371 C309.08575,529.090316 300.11702,535.214868 291.136133,541.318155 C291.667996,542.946508 292.266722,544.459418 293.029566,545.692835 C309.483887,572.293322 434.265025,593.231027 561.276949,514.748048 C686.720636,437.228107 767.402734,291.712267 753.516551,262.511276" id="Fill-163" fill="#D1D3D4"></path>
                    <path d="M725.44239,278.471264 C731.855138,288.842902 738.827102,298.126946 745.884165,306.010484 C754.707012,284.784171 757.417994,268.661652 752.962501,261.461657 C748.950735,254.975586 733.417296,250.521918 710.395226,249.042426 C714.236797,258.533052 719.278858,268.509753 725.44239,278.471264" id="Fill-165" fill="#F7B61E"></path>
                    <path d="M755.009718,269.183575 C754.936777,267.934969 754.787855,266.777501 754.559914,265.711173 C754.541679,265.629148 754.520404,265.55016 754.502169,265.468135 C754.259031,264.401807 753.939914,263.426618 753.532659,262.560795 C753.52658,262.545606 753.520502,262.536492 753.511384,262.521302 C749.873441,272.534459 744.612556,283.990653 737.914122,296.373428 C740.540005,299.748616 743.187163,302.996208 745.861674,305.988611 C746.101773,305.411396 746.366185,304.818991 746.594126,304.247853 C746.797753,303.752663 747.001381,303.254436 747.195891,302.765322 C747.955695,300.842286 748.657754,298.967857 749.311186,297.142035 C749.475304,296.692415 749.630304,296.245833 749.785304,295.802289 C750.426579,293.955202 751.016187,292.156723 751.541971,290.415964 C751.645305,290.078749 751.736481,289.753686 751.836775,289.419509 C752.365599,287.614954 752.845795,285.855968 753.243933,284.179007 C753.283443,284.011919 753.316874,283.856982 753.356384,283.689893 C754.195208,280.077744 754.733149,276.769392 754.948934,273.816483 C754.951973,273.734458 754.96413,273.646357 754.970208,273.561293 C755.067463,272.118257 755.07962,270.766359 755.021875,269.496486 C755.015796,269.390157 755.012757,269.286866 755.009718,269.183575" id="Fill-167" fill="#F76D25"></path>
                    <path d="M325.038905,551.026907 C283.371238,576.779799 244.195729,575.871445 244.195729,575.871445 C244.195729,575.871445 260.899266,540.436535 302.563894,514.683643 C344.2346,488.939865 362.722158,493.660874 366.730885,500.146946 C370.78824,506.708966 366.706572,525.274015 325.038905,551.026907" id="Fill-169" fill="#F7B61E"></path>
                    <path d="M328.735808,548.69496 C329.140024,548.433694 329.516887,548.18458 329.911985,547.929391 C330.696103,547.419011 331.483261,546.902556 332.233947,546.404328 C332.683751,546.106607 333.109242,545.805848 333.549928,545.508127 C334.218556,545.058507 334.887184,544.599773 335.531498,544.156229 C335.984341,543.834204 336.41591,543.527369 336.862675,543.211419 C337.458361,542.786103 338.057087,542.369901 338.631499,541.947623 C339.072186,541.628636 339.491598,541.318763 339.920127,541.005851 C340.473265,540.589649 341.023363,540.179523 341.558265,539.775473 C341.971599,539.462561 342.366697,539.152688 342.767874,538.845853 C343.281502,538.447879 343.795129,538.049904 344.287482,537.658006 C344.682581,537.345095 345.062483,537.035222 345.445424,536.728386 C345.916503,536.342564 346.390621,535.962817 346.843464,535.583071 C347.205131,535.279274 347.563758,534.975476 347.919347,534.674717 C348.363073,534.29497 348.80072,533.9213 349.229249,533.547629 C349.569642,533.243832 349.903956,532.952187 350.23523,532.651427 C350.642485,532.289909 351.040623,531.931428 351.429643,531.563833 C351.74876,531.275226 352.064839,530.977505 352.377878,530.685859 C352.751702,530.330416 353.119447,529.974974 353.484153,529.619531 C353.775918,529.340037 354.067683,529.054468 354.35337,528.768899 C354.69984,528.419532 355.037193,528.076241 355.371507,527.73295 C355.638958,527.453457 355.912488,527.173963 356.167782,526.900546 C356.4869,526.563331 356.7969,526.226116 357.103861,525.891939 C357.353077,525.618521 357.599253,525.35118 357.836312,525.086876 C358.134156,524.746623 358.416803,524.42156 358.696411,524.087383 C358.918274,523.832194 359.143176,523.570928 359.349843,523.321814 C359.626411,522.990675 359.881706,522.671688 360.140039,522.343587 C360.334549,522.094473 360.541216,521.84536 360.729647,521.602322 C360.975824,521.283335 361.206804,520.967386 361.437785,520.654474 C361.614059,520.408399 361.799452,520.171437 361.969648,519.928399 C362.197589,519.621564 362.401217,519.305615 362.613962,518.998779 C362.768962,518.770932 362.93004,518.546122 363.075923,518.327388 C363.297786,517.990173 363.489256,517.662072 363.692884,517.343084 C363.811413,517.145616 363.9421,516.957262 364.05759,516.76587 C364.352394,516.267642 364.628963,515.775491 364.890335,515.301567 C365.030139,515.040301 365.154747,514.785112 365.279355,514.535998 C365.397885,514.305112 365.522493,514.077264 365.628865,513.852454 C365.756512,513.585113 365.865924,513.335999 365.981414,513.074733 C366.072591,512.874227 366.166807,512.673721 366.248865,512.470177 C366.361316,512.202835 366.461611,511.947646 366.558866,511.692456 C366.628768,511.504102 366.704748,511.324861 366.768572,511.148659 C366.862787,510.893469 366.944846,510.632203 367.026905,510.38309 C367.078572,510.216001 367.136317,510.042837 367.184944,509.884862 C367.260925,509.629673 367.324748,509.380559 367.388572,509.125369 C367.428082,508.976509 367.47367,508.827648 367.507101,508.666635 C367.564846,508.423598 367.613474,508.18056 367.659062,507.937522 C367.686415,507.800813 367.710729,507.658028 367.732003,507.527396 C367.777592,507.284358 367.807984,507.047396 367.841415,506.804358 C367.856611,506.679801 367.868768,506.567396 367.880925,506.44284 C367.905239,506.205878 367.920435,505.968916 367.932592,505.734992 C367.93867,505.634739 367.944749,505.522334 367.944749,505.422081 C367.956905,505.185119 367.953106,504.954233 367.947788,504.732461 C367.944749,504.638284 367.944749,504.556259 367.93867,504.459044 C367.929553,504.234234 367.914356,504.003348 367.887003,503.79069 C367.880925,503.711702 367.868768,503.641829 367.86269,503.56588 C367.832298,503.344108 367.801905,503.125374 367.759356,502.912716 C367.750239,502.851956 367.735043,502.800311 367.725925,502.739551 C367.677298,502.520817 367.62867,502.302083 367.564846,502.092463 C367.555729,502.049931 367.546611,502.016514 367.534454,501.986134 C367.467592,501.761324 367.39769,501.545628 367.312591,501.345122 C367.312591,501.339046 367.312591,501.33297 367.312591,501.326894 C361.352687,509.830179 350.037681,520.493462 330.121691,532.806364 C298.726578,552.20078 273.282252,564.595707 244.196944,575.869623 C244.196944,575.869623 283.372453,576.777976 325.04012,551.028122 C326.307474,550.244326 327.535318,549.466605 328.735808,548.69496" id="Fill-171" fill="#F76D25"></path>
                    <path d="M560.416547,461.537354 C513.181034,490.723155 458.645321,488.125689 438.607763,455.728751 C418.573243,423.331814 440.619725,373.402737 487.852198,344.213898 C535.09075,315.018984 589.626462,317.622526 609.664021,350.019464 C629.69854,382.419439 607.652059,432.345478 560.416547,461.537354" id="Fill-173" fill="#ACDBE1"></path>
                    <path d="M578.634222,448.216453 C572.257944,426.868621 562.322744,404.679271 548.874208,383.082325 C537.039496,364.079808 523.594,347.32539 509.400855,333.25654 C502.149283,336.206411 494.918986,339.84894 487.852806,344.214506 C440.617293,373.403345 418.570812,423.332421 438.608371,455.729359 C458.645929,488.126296 513.181642,490.723763 560.417154,461.537962 C567.000099,457.467079 573.075494,452.98607 578.634222,448.216453" id="Fill-175" fill="#262262"></path>
                    <path d="M464.845932,476.762761 C490.730945,486.803259 527.353511,481.972883 560.417154,461.536443 C597.811682,438.426587 619.393163,402.329399 616.834142,372.210941 C610.640218,396.809403 591.204424,422.395207 562.3349,440.237219 C535.529005,456.803282 506.376834,463.116189 482.506823,459.573913 L508.066639,333.814008 C501.474577,336.575524 494.906829,339.914256 488.469767,343.84843 L464.967501,454.755689 C459.667106,452.519741 454.8773,449.615439 450.674063,446.091391 L465.505442,361.222595 C448.911317,376.658532 437.772586,394.780038 433.3718,412.391164 C433.365721,412.33648 433.359643,412.287873 433.353564,412.233189 C433.238074,412.707113 433.168172,413.171922 433.061799,413.642808 C432.794348,414.785086 432.551211,415.921287 432.341505,417.057489 C432.186505,417.908121 432.061897,418.752678 431.940328,419.600272 C431.77925,420.74255 431.627289,421.875713 431.523955,423.002801 C431.444936,423.853433 431.405426,424.694952 431.362877,425.53647 C431.305132,426.642292 431.250426,427.739 431.256041,428.83267 C431.259544,429.704568 431.31121,430.564314 431.35072,431.430137 C431.399348,432.475199 431.438857,433.514186 431.542191,434.547096 C431.639446,435.458488 431.794446,436.35469 431.93425,437.256968 C432.083171,438.216967 432.210819,439.167852 432.411407,440.112662 C432.618074,441.090889 432.90376,442.050888 433.168172,443.020001 C433.399152,443.855444 433.587584,444.696962 433.861113,445.517215 C434.231898,446.63215 434.696898,447.716707 435.149742,448.804301 C435.411114,449.445313 435.629938,450.104553 435.921703,450.733413 C436.714938,452.434678 437.60239,454.102525 438.608371,455.72784 C439.213175,456.699991 439.85141,457.656952 440.516999,458.577458 C441.067097,459.336951 441.647588,460.066064 442.237196,460.789102 C442.352686,460.931886 442.45602,461.074671 442.574549,461.217456 C443.990824,462.91872 445.51955,464.498466 447.145532,465.993148 C447.163767,466.0053 447.178963,466.017452 447.19112,466.029604 C451.129945,469.629601 455.664457,472.609852 460.679166,474.976433 C460.685244,474.982509 460.691322,474.982509 460.70044,474.988585 C462.016421,475.611369 463.365833,476.188584 464.745638,476.726305 C464.779069,476.738457 464.81554,476.756685 464.845932,476.762761" id="Fill-177" fill="#77C9E1"></path>
                    <path d="M378.801136,424.016573 C379.223587,422.230245 378.925744,420.389233 377.959273,418.827716 C376.026331,415.70468 371.631623,414.662656 368.504268,416.600882 C366.94515,417.560881 365.854071,419.070753 365.43162,420.854043 C365.00613,422.643409 365.307012,424.48442 366.273483,426.048976 C367.531719,428.087456 369.719955,429.305682 372.120937,429.305682 C373.39133,429.305682 374.640448,428.95024 375.728488,428.278848 C377.287606,427.315811 378.378685,425.8029 378.801136,424.016573" id="Fill-179" fill="#FFFFFF"></path>
                    <path d="M388.346102,444.778076 C386.419238,441.661116 382.030608,440.613016 378.894136,442.548204 C375.669527,444.538076 374.669624,448.776048 376.660312,451.999336 C377.924626,454.037816 380.112862,455.256043 382.513844,455.256043 C383.784237,455.256043 385.027276,454.9006 386.118355,454.229208 C389.339926,452.236298 390.339828,447.998327 388.346102,444.778076" id="Fill-181" fill="#FFFFFF"></path>
                    <path d="M392.363339,469.419981 C390.801181,470.383019 389.710102,471.898967 389.29069,473.685295 C388.868239,475.471622 389.169122,477.315672 390.132553,478.871113 C391.393828,480.909593 393.575986,482.12782 395.976968,482.12782 C397.2504,482.12782 398.502557,481.769339 399.584519,481.100985 C401.146676,480.13491 402.237755,478.622 402.660206,476.835672 C403.082658,475.052382 402.781775,473.208333 401.818343,471.649853 C399.894519,468.529855 395.499811,467.472641 392.363339,469.419981" id="Fill-183" fill="#FFFFFF"></path>
                    <path d="M410.143063,496.144721 C406.927571,498.134593 405.927669,502.375602 407.918356,505.598891 C409.179631,507.634332 411.364828,508.852559 413.76581,508.852559 C415.039242,508.852559 416.285321,508.494079 417.370321,507.822687 C420.588852,505.832815 421.591794,501.594843 419.601107,498.368517 C417.671204,495.248519 413.285613,494.200418 410.143063,496.144721" id="Fill-185" fill="#FFFFFF"></path>
                    <path d="M429.61168,521.513309 C428.049522,522.473308 426.958444,523.983181 426.535992,525.769509 C426.113541,527.555836 426.411384,529.402924 427.377855,530.961403 C428.64217,533.002921 430.827367,534.224186 433.231388,534.224186 C434.50178,534.224186 435.74482,533.868743 436.835899,533.200389 C440.05443,531.198365 441.051293,526.957356 439.063645,523.737105 C437.133742,520.623183 432.739035,519.575083 429.61168,521.513309" id="Fill-187" fill="#FFFFFF"></path>
                    <path d="M683.81788,376.05428 C681.884938,372.934282 677.487191,371.889219 674.365915,373.827446 C672.803757,374.787445 671.712678,376.300355 671.290227,378.083645 C670.867776,379.869973 671.165619,381.714022 672.13209,383.27554 C673.393365,385.317057 675.578562,386.532246 677.982583,386.532246 C679.252976,386.532246 680.502094,386.179842 681.590134,385.50845 C684.808665,383.51554 685.808567,379.27453 683.81788,376.05428" id="Fill-189" fill="#FFFFFF"></path>
                    <path d="M673.361757,355.85632 C673.781169,354.07303 673.483326,352.228981 672.519894,350.670501 C670.586952,347.547466 666.195283,346.502403 663.06489,348.440629 C661.502732,349.403667 660.408614,350.919615 659.989202,352.702905 C659.56979,354.489233 659.870673,356.330244 660.834104,357.888724 C662.09234,359.930241 664.280577,361.148468 666.681558,361.148468 C667.95499,361.148468 669.201069,360.793025 670.28607,360.121633 C671.848227,359.155558 672.939306,357.642648 673.361757,355.85632" id="Fill-191" fill="#FFFFFF"></path>
                    <path d="M654.328052,332.273148 C657.549622,330.280238 658.549525,326.039229 656.555798,322.818978 C654.631974,319.702018 650.237266,318.65088 647.103833,320.589106 C645.541675,321.555181 644.450597,323.068092 644.031185,324.854419 C643.608733,326.640747 643.906577,328.481758 644.876087,330.040238 C646.134323,332.081756 648.322559,333.299983 650.723541,333.299983 C651.993933,333.299983 653.240013,332.94454 654.328052,332.273148 Z" id="Fill-193" fill="#FFFFFF"></path>
                    <path d="M633.334052,305.697269 C634.607484,305.697269 635.853563,305.341826 636.941603,304.670435 C638.500721,303.707397 639.594839,302.191449 640.014251,300.405121 C640.436702,298.621832 640.13582,296.777782 639.169349,295.22234 C637.245524,292.102343 632.869052,291.048166 629.714344,292.989431 C626.495813,294.985379 625.495911,299.226388 627.489637,302.443601 C628.747873,304.48208 630.93307,305.697269 633.334052,305.697269" id="Fill-195" fill="#FFFFFF"></path>
                    <path d="M614.144435,283.302552 C615.414828,283.302552 616.666985,282.947109 617.751986,282.275717 C619.311104,281.31268 620.402183,279.796732 620.824634,278.010404 C621.247085,276.227114 620.946203,274.386103 619.982771,272.824585 C618.052868,269.704588 613.673356,268.653449 610.524727,270.594713 C607.306196,272.587623 606.306294,276.828633 608.296981,280.045846 C609.558256,282.084325 611.743453,283.302552 614.144435,283.302552" id="Fill-197" fill="#FFFFFF"></path>
                    <path d="M570.94713,282.913995 C570.94713,282.913995 513.202004,288.230447 517.001026,305.698788 C520.800047,323.16713 575.636642,305.95094 583.863803,302.660816 C595.260867,298.103857 599.819693,281.395009 570.94713,282.913995" id="Fill-199" fill="#1C75BC"></path>
                    <path d="M506.363766,314.053212 C506.363766,319.087133 502.279058,323.16713 497.246114,323.16713 C492.210132,323.16713 488.128463,319.087133 488.128463,314.053212 C488.128463,309.019292 492.210132,304.939295 497.246114,304.939295 C502.279058,304.939295 506.363766,309.019292 506.363766,314.053212" id="Fill-201" fill="#1C75BC"></path>
                    <path d="M577.945535,346.787061 C579.586713,355.363257 562.697783,365.792616 540.23189,370.082233 C517.759918,374.377926 498.217752,370.905524 496.579614,362.332366 C494.938437,353.75617 511.824327,343.326811 534.29326,339.034156 C556.765231,334.744539 576.307397,338.213903 577.945535,346.787061" id="Fill-203" fill="#FFFFFF"></path>
                    <path d="M642.787233,790.377346 C641.544193,790.39817 640.361938,789.650829 639.893898,788.42045 C633.478111,771.611349 628.068304,737.209349 653.524787,727.320749 C661.530085,724.215941 669.389501,724.349612 676.881171,727.730875 C695.879317,736.297958 705.817557,762.807305 706.230891,763.931354 C706.811381,765.505024 706.00295,767.251858 704.428635,767.829073 C702.85736,768.415402 701.106771,767.601225 700.529319,766.030593 C700.435104,765.775404 691.037844,740.769853 674.370778,733.259985 C668.337931,730.547076 662.241262,730.458975 655.72518,732.98353 C629.478501,743.182003 645.407038,785.826021 645.574195,786.257414 C646.169882,787.821969 645.382724,789.577917 643.817528,790.176398 C643.477135,790.307031 643.130665,790.370828 642.787233,790.377346" id="Fill-205" fill="#D1D3D4"></path>
                    <path d="M716.026592,735.88935 L602.05291,778.958685 L593.722415,794.807787 L671.474708,793.914623 L709.592569,765.19667 C718.895613,790.150575 742.802095,847.793063 770.240147,863.040647 C770.240147,863.040647 784.004761,853.674578 787.013586,837.922691 L716.026592,735.88935 Z" id="Fill-207" fill="#1C4FA2"></path>
                    <path d="M705.451636,753.550299 L703.846929,769.526996 L709.594088,765.197885 C718.894093,790.15179 742.803614,847.791241 770.238627,863.038824 C770.238627,863.038824 784.006281,853.672755 787.015106,837.920868 L716.025072,735.890565 L705.451636,753.550299 Z" id="Fill-209" fill="#1C2F93"></path>
                    <path d="M787.014802,837.922387 C787.014802,837.922387 774.496267,832.071252 769.274892,837.481881 C764.050477,842.895548 770.238323,863.040343 770.238323,863.040343 C770.238323,863.040343 784.005977,853.674274 787.014802,837.922387" id="Fill-211" fill="#D1D3D4"></path>
                    <path d="M593.723327,794.806268 L705.451028,753.550603 C705.451028,753.550603 740.572221,819.006756 770.241059,863.039128 C770.241059,863.039128 706.186518,907.232512 620.659909,912.31504 C620.659909,912.31504 600.561566,865.071531 593.723327,794.806268" id="Fill-213" fill="#1C75BC"></path>
                    <path d="M628.25005,798.992865 C627.00701,799.016594 625.824754,798.269253 625.356715,797.038874 C618.940927,780.229773 613.528082,745.824735 638.984565,735.939173 C646.992902,732.831327 654.852317,732.968036 662.343987,736.346261 C681.342134,744.916381 691.280374,771.422691 691.693707,772.549778 C692.274198,774.12041 691.465766,775.867244 689.891452,776.447497 C688.320176,777.030788 686.569587,776.219649 685.989097,774.645979 C685.894881,774.393828 676.497622,749.385239 659.833594,741.878409 C653.800748,739.162462 647.704078,739.07436 641.184958,741.601954 C614.941318,751.797389 630.869855,794.441407 631.033972,794.872799 C631.632698,796.440393 630.845541,798.193303 629.280344,798.794822 C628.939952,798.925455 628.593481,798.986214 628.25005,798.992865" id="Fill-215" fill="#FFFFFF"></path>
                    <path d="M635.563014,797.087785 C635.629877,800.860947 632.624091,803.977907 628.849383,804.044742 C625.071636,804.114615 621.956439,801.103985 621.886537,797.333861 C621.819674,793.560699 624.82546,790.440702 628.603207,790.376904 C632.377914,790.310069 635.496151,793.314623 635.563014,797.087785" id="Fill-217" fill="#1C2F93"></path>
                    <path d="M695.430121,773.727296 C695.496984,777.500458 692.491198,780.617418 688.71649,780.684253 C684.938743,780.754127 681.823546,777.746534 681.756683,773.973372 C681.68982,770.20021 684.695606,767.083251 688.470314,767.016415 C692.248061,766.94958 695.363258,769.954135 695.430121,773.727296" id="Fill-219" fill="#1C2F93"></path>
                    <path d="M613.52565,892.368625 C617.631633,905.176716 620.661732,912.312913 620.661732,912.312913 C706.188342,907.233424 770.239843,863.040039 770.239843,863.040039 C740.571005,819.007667 705.452851,753.551514 705.452851,753.551514 C705.452851,753.551514 741.707672,872.017248 613.52565,892.368625" id="Fill-221" fill="#D1D3D4"></path>
                    <path d="M666.283117,858.808447 C657.320465,866.406416 646.756147,868.672744 642.683596,863.872747 C638.614084,859.075789 642.580262,849.029214 651.539874,841.431245 C660.502526,833.836314 671.066845,831.566949 675.139396,836.363907 C679.208907,841.166942 675.245768,851.213516 666.283117,858.808447" id="Fill-223" fill="#FFFFFF"></path>
                    <path d="M637.202975,868.352542 C636.619446,872.222918 633.002777,874.884182 629.130815,874.300892 C625.258852,873.717601 622.593459,870.105452 623.176988,866.235075 C623.763557,862.36166 627.377186,859.697358 631.252188,860.283687 C635.121112,860.870016 637.789544,864.482165 637.202975,868.352542" id="Fill-225" fill="#FFFFFF"></path>
                    <path d="M500.445498,30.0368187 C485.753923,39.1507359 490.315788,58.3902151 490.315788,58.3902151 C490.315788,58.3902151 461.698519,59.1193285 451.945671,85.0696887 C485.787354,85.8139919 526.157275,83.496019 561.226802,72.5684323 C561.226802,72.5684323 545.021696,15.8586016 500.445498,30.0368187" id="Fill-229" fill="#1C75BC"></path>
                    <path d="M452.12073,24.0292283 C445.577296,30.7856789 436.964154,33.0550443 432.882486,29.1056802 C428.797778,25.1532781 430.788465,16.473791 437.331899,9.71734037 C443.878373,2.96088976 452.491515,0.691524381 456.570144,4.64392647 C460.654852,8.59329058 458.664165,17.2727777 452.12073,24.0292283" id="Fill-231" fill="#FFFFFF"></path>
                    <path d="M965.95175,721.62212 C965.95175,721.62212 955.056157,674.442409 912.002607,682.259112 C898.295738,684.75025 889.94093,690.914295 884.877594,697.938088 C879.802101,693.053028 873.182686,690.072777 865.912879,690.072777 C849.966107,690.072777 837.040316,704.320868 837.040316,721.898576 C837.040316,723.326423 837.152767,724.720852 837.319924,726.094016 C826.269331,729.417558 817.106091,737.650463 816.522561,755.680829 C816.522561,755.680829 920.868003,775.780054 998.87255,748.979062 C998.87255,748.979062 998.623335,709.060105 965.95175,721.62212" id="Fill-233" fill="#F7B61E"></path>
                    <g id="Group-237" transform="translate(873.377196, 693.771623)">
                        <mask id="mask-11" fill="white">
                            <use xlink:href="#path-10"></use>
                        </mask>
                        <g id="Clip-236"></g>
                        <path d="M0.739137608,68.3794794 C37.1823903,70.3936551 84.892021,69.1572003 125.495962,55.2068311 C125.495962,55.2068311 125.246746,15.2878738 92.5751619,27.8498897 C92.5751619,27.8498897 88.9281014,12.1374965 77.5766253,0.350163577 C41.8050396,5.49345084 36.3496448,42.0888663 36.3496448,42.0888663 C16.6494393,43.6382322 6.24619907,55.7840459 0.739137608,68.3794794" id="Fill-235" fill="#F76D25" mask="url(#mask-11)"></path>
                    </g>
                    <path d="M872.845941,719.791438 C866.305546,726.547889 857.692404,728.817254 853.607697,724.86789 C849.522989,720.91245 851.516715,712.239039 858.06015,705.47955 C864.603584,698.7231 873.216726,696.453734 877.298394,700.406136 C881.383102,704.358539 879.389376,713.03195 872.845941,719.791438" id="Fill-238" fill="#FFFFFF"></path>
                </g>
            </g>
        </g>
    </g>
</svg>