<?xml version="1.0" encoding="UTF-8"?>
<svg width="76px" height="57px" viewBox="0 0 76 57" version="1.1" xmlns="http://www.w3.org/2000/svg" xmlns:xlink="http://www.w3.org/1999/xlink">
    <!-- Generator: Sketch 59 (86127) - https://sketch.com -->
    <title>icon3</title>
    <desc>Created with Sketch.</desc>
    <g id="Web-PC" stroke="none" stroke-width="1" fill="none" fill-rule="evenodd">
        <g id="Home" transform="translate(-1071.000000, -1098.000000)" fill="#FF8888" fill-rule="nonzero">
            <g id="Icon3" transform="translate(981.000000, 1019.000000)">
                <g id="Workshops" transform="translate(83.000000, 65.000000)">
                    <path d="M81.3843001,32.4869601 L45.4073653,14.4984193 C44.9669894,14.2783047 44.4485982,14.2783047 44.008369,14.4984193 L8.03143408,32.4869601 C7.50145792,32.7519481 7.16666667,33.2936559 7.16666667,33.8859564 C7.16666667,34.4785501 7.50145792,35.0201112 8.03143408,35.2849526 L19.9412333,41.2397789 L19.9412333,53.1934251 C19.9412333,60.5758435 30.8201159,66.3589481 44.7080137,66.3589481 C58.5959116,66.3589481 69.4746476,60.5761368 69.4746476,53.1934251 L69.4746476,41.2397789 L73.6314557,39.1613749 L73.6314557,50.5696471 C71.7152413,51.2226587 70.332816,53.0388609 70.332816,55.1732835 C70.332816,57.108415 71.4690238,58.7825179 73.109105,59.565164 L69.7862689,68.3320608 C69.6041354,68.8127641 69.6696858,69.3522722 69.9618033,69.7751973 C70.2539208,70.1981224 70.7350641,70.4506456 71.2490559,70.4506456 L79.1434131,70.4506456 C79.6574049,70.4506456 80.1385482,70.1981224 80.4308123,69.7751973 C80.7227831,69.3522722 80.7883336,68.8127641 80.6063467,68.3322074 L77.2835106,59.5653106 C78.9232985,58.7826646 80.0595064,57.1085617 80.0595064,55.1734301 C80.0595064,53.0388609 78.676641,51.222512 76.7601334,50.5696471 L76.7601334,37.597256 L81.3847401,35.2850993 C81.9147162,35.0201112 82.2493608,34.4784034 82.2493608,33.886103 C82.2493608,33.2936559 81.9142763,32.7519481 81.3843001,32.4869601 Z M60.4149001,59.9979143 C56.2456271,62.0824774 50.667386,63.2307102 44.7078671,63.2307102 C38.7483482,63.2307102 33.1702537,62.0826241 29.0008341,59.9979143 C25.2316096,58.1132287 23.0696178,55.6331632 23.0696178,53.1935717 L23.0696178,42.8041911 L44.008369,53.2736401 C44.2286302,53.3837707 44.4682487,53.4387627 44.7078671,53.4387627 C44.9474855,53.4387627 45.187104,53.3837707 45.4073653,53.2736401 L66.3461164,42.8041911 L66.3461164,53.1935717 L66.3461164,53.1935717 C66.3461164,55.6331632 64.1842712,58.1132287 60.4149001,59.9979143 Z M73.5144327,67.3225544 L75.1960145,62.8860938 L76.8774497,67.3225544 L73.5144327,67.3225544 Z M76.9305353,55.1735767 C76.9306819,56.1302908 76.1524352,56.9083908 75.1960145,56.9083908 C74.2393005,56.9083908 73.4612004,56.1301441 73.4612004,55.1735767 C73.4612004,54.2195023 74.2353411,53.4434553 75.1882423,53.4392026 C75.1907353,53.4392026 75.1930816,53.4394959 75.1955746,53.4394959 C75.1982142,53.4394959 75.2007072,53.4392026 75.2032001,53.4392026 C76.156248,53.4433087 76.9305353,54.2193557 76.9305353,55.1735767 Z M74.8780875,35.0404949 L44.84806,32.3287298 C43.987692,32.2504212 43.2271894,32.885542 43.1494674,33.7459101 C43.0717453,34.6064248 43.7062796,35.3667807 44.5666477,35.4445028 L69.556769,37.7010808 L44.7078671,50.1257517 L12.2285696,33.8859564 L44.7078671,17.6464543 L77.1871646,33.886103 L74.8780875,35.0404949 Z" id="icon3"></path>
                </g>
            </g>
        </g>
    </g>
</svg>