<?xml version="1.0" encoding="UTF-8"?>
<svg width="738px" height="723px" viewBox="0 0 738 723" version="1.1" xmlns="http://www.w3.org/2000/svg" xmlns:xlink="http://www.w3.org/1999/xlink">
    <!-- Generator: Sketch 58 (84663) - https://sketch.com -->
    <title>Group 121</title>
    <desc>Created with Sketch.</desc>
    <defs>
        <polygon id="path-1" points="0.626159314 0.170859896 27.6948992 0.170859896 27.6948992 27.2797645 0.626159314 27.2797645"></polygon>
        <polygon id="path-3" points="0 0.447207205 25.5539304 0.447207205 25.5539304 26.0124311 0 26.0124311"></polygon>
        <path d="M0.0414561634,124.957896 L97.8600748,244.843513 C97.8600748,244.843513 274.714309,125.604877 276.200008,0.505482997 L276.200008,0.505482997 C276.143986,0.621493421 274.501426,0.456401664 271.400057,0.289078938 L271.400057,0.289078938 C269.020249,0.161913666 265.775464,0.0347483945 261.732927,0.0347483945 L261.732927,0.0347483945 C225.251504,0.0347483945 123.544969,10.4199123 0.0414561634,124.957896" id="path-5"></path>
    </defs>
    <g id="Web-PC" stroke="none" stroke-width="1" fill="none" fill-rule="evenodd">
        <g id="Article-Input" transform="translate(-1091.000000, -194.000000)">
            <g id="Group-121" transform="translate(1091.000000, 194.000000)">
                <path d="M437.558949,193.408598 C554.84624,145.191845 408.422666,34 352.004517,27.4350718 C309.369641,22.4739926 200.969997,64.4444821 199.736327,59.7181 C216.842625,-33.7364013 25.9094405,151.28871 18.3019498,160.806543 C-41,235 64.2155404,292.745127 62.2642598,296.85848 C18.3019498,389.532234 9.53438589,459.808053 18.3019498,483.560174 C86,666.960295 184.98097,639.974561 367.783153,666.960295 C550.585336,693.94603 714.11637,609.865604 733.414894,479.183417 C752.713417,348.501231 721.343051,197.216737 437.558949,193.408598 Z" id="Path" fill="#DACAF1" fill-rule="nonzero"></path>
                <g id="Group-91" transform="translate(136.000000, 235.000000)">
                    <path d="M118.754098,352.131316 C97.6344336,318.748232 116.663329,272.676404 147.092157,247.511177 C177.523217,222.343714 216.674366,210.908427 251.617202,192.535554 C293.479434,170.529665 331.43012,137.622494 378.161143,130.432428 C415.868613,124.634349 455.573135,137.403529 484.28606,162.555351 C513.001217,187.711642 530.727008,224.493137 534.68318,262.490106 C542.530814,337.845027 492.202866,415.284576 420.215269,438.613187 C348.227672,461.944032 262.131292,428.719586 224.397046,363.050473" id="Fill-1" fill="#EDEDEB"></path>
                    <path d="M162.825136,336.59157 C162.825136,336.59157 195.882487,204.180868 331.708815,222.171671 C467.535143,240.162474 460.943755,357.042367 460.943755,357.042367 L387.764621,362.49636 L390.029434,445.074861 C349.311882,449.668638 287.311778,436.517388 213.320434,425.258613 L216.00474,365.376408 L162.825136,336.59157 Z" id="Fill-3" fill="#827DDC"></path>
                    <path d="M461.066925,354.581703 C461.066925,354.581703 461.028993,355.455325 460.944201,357.043931 C460.09406,372.936701 454.332731,460.312303 430.486366,458.361735 C404.254694,456.219015 386.261142,444.057572 387.762836,362.49569 L461.028993,355.455325" id="Fill-5" fill="#F5AC8E"></path>
                    <path d="M401.467144,439.916023 C401.467144,439.916023 451.402978,327.189744 477.788612,297.216244 L508.344627,324.086264 C508.344627,324.086264 461.908142,462.636897 431.42353,458.300068 C400.936687,453.95877 401.467144,439.916023 401.467144,439.916023" id="Fill-7" fill="#F5AC8E"></path>
                    <polygon id="Fill-9" fill="#F5AC8E" points="166.370517 338.509516 148.28548 392.356803 208.045316 428.481406 216.004517 365.375067"></polygon>
                    <path d="M294.694623,203.786509 L289.886078,238.93918 C289.886078,238.93918 333.894862,265.123261 359.972571,231.098926 L379.528063,99.4791758 C353.24284,71.9947162 325.016347,67.5662796 294.694623,88.0215456 C294.694623,88.0215456 250.895586,189.960492 294.694623,203.786509" id="Fill-11" fill="#F5AD8C"></path>
                    <path d="M293.504871,122.353548 C294.874916,119.900257 296.465863,117.335249 299.065378,116.041573 C302.867587,114.149098 306.431043,115.827078 307.321349,119.889085 C307.43961,120.434261 308.356692,120.465541 308.448177,119.889085 C309.072953,116.037105 305.154714,113.181635 301.597953,113.443051 C296.89205,113.787137 293.931057,117.815629 292.427132,121.897745 C292.19061,122.532294 293.181326,122.930004 293.504871,122.353548" id="Fill-13" fill="#222221"></path>
                    <path d="M318.032243,144.23208 C318.215213,144.390718 317.967534,145.07889 317.253504,146.178179 C316.510466,147.223845 315.37025,148.924168 312.799743,149.965364 C311.505563,150.423401 309.941392,150.586507 308.267884,150.014519 C307.444519,149.715119 306.592146,149.185584 305.936131,148.381226 C305.28681,147.574634 304.907481,146.560249 304.786989,145.572677 C304.570549,143.590828 305.12169,141.856991 305.572422,140.310836 C306.029847,138.733401 306.565369,137.117982 307.134362,135.473518 C311.757705,122.259706 318.407108,112.958202 319.20816,113.483269 C320.100698,114.01057 315.011004,123.868422 310.539392,136.67782 C309.983787,138.279833 309.437108,139.841627 308.948444,141.365439 C308.42631,142.887015 308.038056,144.225377 308.096071,145.239762 C308.154086,146.234038 308.578041,146.817197 309.383556,147.235016 C310.191302,147.623789 311.224414,147.688585 312.074556,147.516541 C313.830623,147.127769 315.251989,145.943575 316.224854,145.219653 C317.21334,144.462216 317.840347,144.064506 318.032243,144.23208" id="Fill-15" fill="#F18474"></path>
                    <path d="M308.509762,161.115998 C314.331337,162.1706 322.339628,160.510495 325.396568,154.792852 C325.791516,154.059992 324.90121,153.445552 324.296516,153.941573 C322.114262,155.731269 320.358195,157.603635 317.678351,158.702924 C314.895866,159.8469 311.859008,160.258016 308.875702,159.786573 C308.014404,159.650279 307.630613,160.957361 308.509762,161.115998" id="Fill-17" fill="#F18474"></path>
                    <path d="M322.64733,153.012316 C323.814322,152.911771 324.847434,153.367574 325.650718,154.218853 C326.447307,155.063429 326.576725,156.095688 326.980599,157.127947 C327.163569,157.588218 327.7638,157.717809 328.051643,157.266475 C328.953106,155.845443 328.009248,153.975311 326.93374,152.934115 C325.731046,151.77003 324.091009,151.28965 322.459897,151.62033 C321.685621,151.774499 321.848509,153.079346 322.64733,153.012316" id="Fill-19" fill="#F18474"></path>
                    <path d="M340.591793,127.395978 C341.99977,124.466775 345.465046,122.518441 348.702725,123.193208 C352.194778,123.919364 353.986546,126.792709 354.669337,130.074936 C354.836688,130.874825 356.0193,130.655861 356.048307,129.887253 C356.191113,125.856526 352.993599,122.160949 349.068666,121.405746 C344.880434,120.599154 341.236651,123.094898 339.480584,126.745788 C339.123569,127.489819 340.232546,128.144477 340.591793,127.395978" id="Fill-21" fill="#222221"></path>
                    <path d="M296.108849,88.9063392 C303.008162,85.4453663 309.954334,81.9642844 317.366856,79.810393 C324.779378,77.6587358 332.763125,76.8901273 340.211349,78.9099591 C348.692684,81.2135505 355.819595,86.904382 362.263714,92.8834417 C366.351535,96.6750951 370.434893,100.904677 371.878572,106.29164 C373.592244,112.68405 371.282804,119.371391 369.395087,125.714646 C367.413654,132.364004 365.874028,139.145188 364.782901,146.002338 C364.428117,148.243368 364.122423,150.54696 364.597699,152.765646 C365.072975,154.984333 366.483184,157.131522 368.623043,157.88449 L373.067878,156.50591 C382.700587,144.581306 390.380871,131.0815 395.71155,116.70137 C398.094625,110.270976 400.031431,103.373608 398.857744,96.6147683 C397.681826,89.8559283 392.580975,83.3518017 385.770916,82.623411 C381.370707,82.1542023 376.879013,84.0667864 372.568057,83.0814481 C367.801908,81.988862 364.568692,77.728 361.297543,74.0882809 C349.879759,61.3727245 333.207162,53.5391731 316.14408,52.8733436 C309.485751,52.6119273 302.63999,53.443097 296.70908,56.4795478 C290.775938,59.5159985 285.864751,64.9945689 284.626356,71.5500851 C283.38796,78.1056013 286.433744,85.5481454 292.44052,88.4326618 L296.108849,88.9063392 Z" id="Fill-23" fill="#2A2A8C"></path>
                    <path d="M371.610588,144.389154 C373.725901,141.245455 378.436267,140.41652 381.723036,142.295589 C385.012036,144.172424 386.703394,148.290289 386.136633,152.03949 C385.56764,155.786457 382.977051,159.059746 379.674663,160.916472 C376.158066,162.893852 371.454394,163.24911 368.252416,160.793584" id="Fill-25" fill="#F5AD8C"></path>
                    <path d="M295.324308,102.965843 C298.129107,103.216088 300.873659,102.072113 303.638293,101.703449 C306.713084,101.294567 309.732092,101.555983 312.811346,101.701214 C315.582674,101.830805 316.202987,97.4403522 313.469592,96.8281465 C307.991644,95.6037352 298.21836,95.8137619 294.353674,100.6198 C293.588323,101.573858 294.085913,102.856361 295.324308,102.965843" id="Fill-27" fill="#2A2A8C"></path>
                    <path d="M347.348969,105.384503 C349.582544,105.829134 352.311477,107.667985 354.170186,108.934849 C356.318969,110.400567 357.829589,112.315386 359.770857,113.973257 C361.957574,115.841154 365.400537,113.508517 363.872066,110.804981 C362.381529,108.170709 359.351365,105.972131 356.655902,104.676221 C355.314865,104.032735 353.882343,103.509902 352.438663,103.154644 C350.776313,102.747997 349.339328,103.051865 347.690365,102.848541 C346.257843,102.674264 345.929835,105.100743 347.348969,105.384503" id="Fill-29" fill="#2A2A8C"></path>
                    <path d="M382.192064,149.645408 C382.703042,146.944107 380.295422,144.955556 377.682519,145.185691 C374.391288,145.476154 372.63299,148.528245 372.017139,151.450745 C371.860945,152.199245 372.655303,152.947744 373.376027,152.491941 C375.17449,151.361372 377.724915,151.4999 378.64646,153.680604 C379.637176,156.028881 377.624504,157.666643 375.377542,157.291276 C374.473848,157.139342 373.719654,158.439721 374.699213,158.908929 C377.818631,160.408163 381.248206,157.534818 380.786318,154.203436 C380.212863,150.094508 375.636378,149.013094 372.443325,150.898866 C372.894057,151.245187 373.347019,151.593742 373.797751,151.940063 C374.163691,150.293363 374.801855,148.539416 376.330325,147.614405 C378.29837,146.423509 380.380213,147.509392 380.962594,149.645408 C381.123251,150.221865 382.071572,150.282192 382.192064,149.645408" id="Fill-31" fill="#F18474"></path>
                    <path d="M299.593091,113.784903 C298.617994,114.801522 297.892807,116.088494 297.698681,117.484949 C297.506785,118.879169 297.890576,120.378403 298.86121,121.401725 C299.827382,122.422812 301.400479,122.883083 302.719203,122.396 C303.72777,122.022868 304.502046,121.15148 304.921539,120.161673 C305.57086,118.622221 305.370039,116.718575 304.294531,115.440539 C303.221255,114.164739 301.277755,113.650843 299.769367,114.368062" id="Fill-33" fill="#222221"></path>
                    <path d="M345.810681,121.615997 C344.837816,122.632615 344.110398,123.919588 343.918502,125.313808 C343.726607,126.710263 344.110398,128.209496 345.078801,129.232818 C346.047204,130.253906 347.620301,130.714177 348.939025,130.227094 C349.947592,129.853961 350.721868,128.982573 351.14136,127.992766 C351.790681,126.453315 351.58986,124.547434 350.514353,123.271633 C349.441077,121.993598 347.497577,121.481937 345.989189,122.196922" id="Fill-35" fill="#222221"></path>
                    <path d="M452.581796,338.282509 C453.465408,338.872371 441.632595,357.647423 429.143766,381.923389 C416.572378,406.170308 408.117819,426.69037 407.124871,426.306065 C406.680834,426.134022 408.227154,420.769402 411.444751,412.348223 C414.657886,403.931512 419.627087,392.496225 425.939557,380.265518 C432.25649,368.043748 438.70061,357.372601 443.703281,349.880902 C448.705953,342.384734 452.184617,338.018858 452.581796,338.282509" id="Fill-37" fill="#F18474"></path>
                    <path d="M418.828266,396.573649 C419.107184,397.554519 416.099334,399.239201 412.622901,401.397562 C409.119692,403.517938 406.256878,405.437225 405.509378,404.74235 C404.779729,404.096629 406.763393,400.740669 410.737416,398.31419 C414.69805,395.874305 418.587281,395.628529 418.828266,396.573649" id="Fill-39" fill="#F18474"></path>
                    <path d="M517.835422,307.525654 C514.626751,312.327223 508.345519,324.086487 508.345519,324.086487 L465.695624,315.283238 L481.406512,284.407069 L477.727027,254.942996 C483.626699,251.455211 490.258251,274.39058 490.258251,274.39058 C490.258251,274.39058 516.121751,262.392243 518.560609,270.415712 C519.74099,274.294504 516.679587,276.975697 516.679587,276.975697 C516.679587,276.975697 522.672975,274.768182 523.962691,278.021362 C525.047124,280.756179 521.057482,284.07192 521.057482,284.07192 C521.057482,284.07192 526.231967,282.974866 527.820684,288.019977 C529.230893,292.499803 517.835422,307.525654 517.835422,307.525654" id="Fill-41" fill="#F5AC8E"></path>
                    <path d="M515.353499,277.067528 C515.500768,277.315538 514.019156,278.582402 511.388402,280.329646 C508.72641,282.0255 504.942051,284.33356 499.93938,285.383694 C498.658589,285.604892 497.03194,285.540097 495.800238,284.601679 C495.208932,284.157048 494.711343,283.55378 494.450275,282.80528 C494.173589,282.056781 494.247223,281.174221 494.535066,280.535204 C495.130835,279.232591 496.025604,278.611448 496.719551,277.992539 C497.455895,277.382568 498.183313,276.866438 498.866104,276.437448 C501.630738,274.721484 503.618865,274.323774 503.712581,274.576253 C503.844231,274.875653 502.11494,275.769384 499.760872,277.681968 C499.174029,278.162348 498.551484,278.707524 497.922246,279.330901 C497.290775,279.954279 496.603522,280.640217 496.389313,281.270297 C496.282208,281.583103 496.286671,281.835582 496.396007,282.105936 C496.503111,282.376289 496.735171,282.666752 497.04979,282.885716 C497.654484,283.328113 498.551484,283.413017 499.595753,283.243208 C503.969186,282.329368 507.86288,280.327411 510.629746,278.997987 C513.412231,277.614938 515.195074,276.803877 515.353499,277.067528" id="Fill-43" fill="#F18474"></path>
                    <path d="M519.121122,284.209108 C519.281779,284.45265 518.105861,285.587688 515.990548,287.160654 C513.873003,288.709043 510.764742,290.764624 506.817496,292.071706 C505.826779,292.409089 504.746809,292.650396 503.642294,292.643693 C502.557861,292.645928 501.299384,292.313013 500.455936,291.437157 C499.594637,290.581409 499.335801,289.392747 499.41613,288.46997 C499.48307,287.522615 499.81554,286.716023 500.241727,286.07924 C501.105257,284.843657 502.087048,284.260498 502.731906,283.885131 C503.394615,283.525404 503.805182,283.409219 503.894436,283.525404 C503.985921,283.646058 503.738242,283.999081 503.258503,284.546491 C502.792152,285.093902 502.053578,285.837933 501.564913,286.854551 C501.0941,287.790735 501.002615,289.319014 501.843831,290.002719 C502.618107,290.74675 504.41657,290.626096 506.145861,290.009422 C509.778488,288.811822 512.880055,287.062344 515.176107,285.86251 C517.467697,284.642567 518.956003,283.954395 519.121122,284.209108" id="Fill-45" fill="#F18474"></path>
                    <path d="M524.167751,292.507176 C524.370804,292.688157 523.690244,293.943848 521.954259,295.41627 C520.216043,296.864114 517.429095,298.490704 513.827707,298.946507 C512.906162,299.026943 511.953378,298.997897 511.016214,298.687325 C510.085744,298.39016 509.193207,297.717627 508.73355,296.844005 C507.829856,295.0342 508.418931,293.367392 509.048169,292.341836 C509.715341,291.302874 510.453916,290.728651 510.960431,290.362222 C511.478102,290.006964 511.817266,289.875138 511.92214,289.980152 C512.031475,290.085165 511.888669,290.422549 511.571819,290.943147 C511.263893,291.463745 510.75961,292.169793 510.404826,293.047883 C510.058968,293.879053 509.945169,295.072184 510.456147,295.840792 C510.922498,296.609401 512.158662,296.942316 513.622423,296.788147 C516.60796,296.41278 519.294498,295.181666 521.07511,294.160578 C522.880266,293.12385 523.935692,292.283743 524.167751,292.507176" id="Fill-47" fill="#F18474"></path>
                    <path d="M488.812787,284.658655 C492.420869,285.018381 495.906227,286.586879 498.342854,289.330633 C500.768324,292.058747 501.301615,295.072854 502.25663,298.435516 C502.47307,299.188485 503.805182,299.327013 503.923443,298.435516 C505.065891,289.976354 496.412742,283.514679 488.812787,283.253263 C487.895704,283.219748 487.931406,284.569282 488.812787,284.658655" id="Fill-49" fill="#F18474"></path>
                    <path d="M303.399763,118.646352 C304.216434,118.67093 305.149136,118.827333 305.945725,118.626243 C306.380837,118.516761 306.387531,117.844229 305.945725,117.736981 C305.144673,117.544829 304.216434,117.710169 303.399763,117.74145 C302.819613,117.763793 302.817382,118.628478 303.399763,118.646352" id="Fill-51" fill="#F2E7E2"></path>
                    <path d="M349.582544,126.433876 C350.374671,126.474094 351.211425,126.742214 352.003551,126.650606 C352.556925,126.585811 352.811298,125.69208 352.148589,125.575895 C351.30291,125.430663 350.434917,125.642925 349.582544,125.633987 C349.067104,125.629519 349.071566,126.407064 349.582544,126.433876" id="Fill-53" fill="#F2E7E2"></path>
                    <path d="M369.00014,156.69985 C370.591087,146.631971 375.069393,137.283546 382.316796,130.068903 C387.620699,124.789188 393.596237,120.528326 396.097572,113.186327 C396.588468,111.745186 394.368281,111.175432 393.841684,112.562949 C390.374177,121.716988 381.216744,126.554307 375.71202,134.311891 C370.990498,140.970186 368.582878,148.475291 367.826453,156.543447 C367.763975,157.207042 368.895266,157.367914 369.00014,156.69985" id="Fill-55" fill="#4444AD"></path>
                    <path d="M302.216704,55.6106179 C295.094257,69.7293318 313.444824,77.0869715 324.081637,78.865496 C325.1326,79.0397735 325.603413,77.4980877 324.530137,77.2344371 C314.553801,74.7878487 297.84104,69.8924377 302.596033,55.7714895 C302.669667,55.5502911 302.323809,55.4005911 302.216704,55.6106179" id="Fill-57" fill="#4444AD"></path>
                    <path d="M368.270044,155.73976 C364.62626,139.762085 372.984872,127.287836 378.915783,113.189231 C382.706835,104.169252 385.00735,94.1929809 381.314477,84.7685886 C380.850357,83.5821608 378.953716,84.0401979 379.35982,85.3092958 C387.479678,110.691253 357.421253,131.16216 366.804051,156.144173 C367.143216,157.049075 368.490947,156.711692 368.270044,155.73976" id="Fill-59" fill="#4444AD"></path>
                    <path d="M363.06432,92.4660694 C362.294507,83.7142096 357.709096,75.6326479 351.15341,69.8636149 C343.647171,63.2522406 331.713947,62.7204707 325.615686,54.8936223 C324.984216,54.0825615 323.690037,55.1259923 324.207708,55.9817397 C328.373626,62.8679363 336.962066,63.4198151 343.499902,66.9790984 C353.507477,72.4286226 359.146081,81.8909985 362.082529,92.600129 C362.227566,93.1274303 363.115641,93.0447602 363.06432,92.4660694" id="Fill-61" fill="#4444AD"></path>
                    <path d="M354.611769,148.563324 C353.482709,151.572963 351.061701,153.831867 348.23459,155.112137 C345.389627,156.385704 342.13856,156.671697 338.947739,155.581346 C331.720418,153.746963 327.141701,147.211556 328.719261,140.977783 C330.29459,134.750713 337.430425,131.189195 344.657746,133.021343 C348.540284,134.285973 351.695403,136.703515 353.487172,139.521001 C355.29456,142.342957 355.740828,145.558154 354.611769,148.563324" id="Fill-63" fill="#F18474"></path>
                    <path d="M136.585208,0.404860099 C102.604081,36.2635782 72.487641,76.6713866 54.3758276,122.656076 C36.2640142,168.642999 30.8619321,220.734105 45.8989545,267.818083 C63.7139993,323.600298 108.688954,367.719323 160.35794,395.159096 C212.031387,422.59887 270.235977,435.095462 328.088014,443.704325 C333.445469,444.499745 339.311671,445.170043 343.926089,442.332448 C353.480701,436.453933 349.258999,420.353371 339.574969,414.689351 C329.89094,409.025331 317.928708,409.963749 306.75191,409.058846 C278.51426,406.77313 251.689051,390.871422 236.100887,367.187554 C228.404984,355.499788 222.31788,341.146469 209.422947,335.739397 C194.372537,329.422954 177.380857,338.331217 161.080895,337.591655 C133.787104,336.351603 115.677522,309.700548 102.088641,285.965289 C89.5752679,264.1091 76.823141,241.580378 73.1994396,216.64752 C70.3723276,197.211108 73.2797679,177.452952 76.1849769,158.027711 C84.1687231,104.609415 102.575074,43.3463956 136.585208,0.404860099" id="Fill-65" fill="#EDEDEB"></path>
                    <g id="Group-69" transform="translate(261.067164, 459.803577)">
                        <mask id="mask-2" fill="white">
                            <use xlink:href="#path-1"></use>
                        </mask>
                        <g id="Clip-68"></g>
                        <path d="M11.5907127,27.0639285 C18.5458097,28.4089935 26.094444,23.3169617 27.4689515,16.3592666 C28.8412276,9.4038059 23.7961604,1.81826487 16.8544515,0.408404371 C9.91497388,-0.9992218 2.31725,4.01907721 0.875802239,10.961132 C-0.565645522,17.9031868 4.40801866,25.5356487 11.3363396,27.0147733" id="Fill-67" fill="#EDEDEB" mask="url(#mask-2)"></path>
                    </g>
                    <path d="M287.312001,436.516494 C256.354344,432.727075 224.350187,447.185407 197.585225,432.479065 C188.795963,427.650683 182.392008,419.120022 173.366225,414.745209 C158.909351,407.736125 141.850732,412.935404 125.787292,412.915295 C98.098553,412.884015 71.2108664,395.208252 60.1701799,369.779373 C56.9391948,362.334595 55.113956,353.298975 59.378053,346.390436 C64.1508963,338.659663 75.1000978,336.72697 83.6706873,339.7165 C92.2435082,342.70603 98.9152246,349.438058 105.00456,356.181258 C111.089434,362.924457 117.122986,370.058664 125.149128,374.299417 C143.488538,383.985226 167.714232,376.379576 185.38424,387.240641 C198.160911,395.094301 204.451068,410.922275 217.348232,418.579315 C233.045732,427.898694 287.115643,417.299045 287.312001,436.516494" id="Fill-70" fill="#F08299"></path>
                    <path d="M92.3963552,34.6713966 C91.1825045,44.7258693 80.6483328,50.582041 71.2052881,54.2016511 C61.7600119,57.8212613 50.9558478,61.9346578 47.3834672,71.4082053 C45.1342731,77.3671561 46.3481239,84.3449601 43.4473776,90.0156827 C39.4465791,97.8335938 28.7450567,100.979527 26.0317433,109.33591 C23.5170194,117.082323 30.164191,125.740341 38.1836388,127.112218 C46.2030866,128.481861 54.3541836,123.981926 59.3970194,117.589515 C64.4376239,111.197105 66.9032582,103.178105 68.8467582,95.2685861 C70.7389373,87.5690944 72.2941836,79.6215923 76.3039075,72.7845509 C79.2314299,67.7885952 83.3594149,63.5858256 86.2891687,58.5921042 C89.216691,53.5983828 94.9824821,39.8505672 92.3963552,34.6713966" id="Fill-72" fill="#FDE17E"></path>
                    <g id="Group-76" transform="translate(0.000000, 179.838407)">
                        <mask id="mask-4" fill="white">
                            <use xlink:href="#path-3"></use>
                        </mask>
                        <g id="Clip-75"></g>
                        <path d="M3.80934925,3.92428461 C2.99267761,4.71523646 -2.26882985,12.8481877 1.13396866,19.233895 C4.53453582,25.6173679 13.7254388,28.0371443 19.8036179,24.1181343 C25.8795657,20.1991243 27.4682821,10.7792006 22.9855134,5.1040094 C18.5005134,-0.571181823 8.93920746,-1.17221586 3.80934925,3.92428461" id="Fill-74" fill="#FDE17E" mask="url(#mask-4)"></path>
                    </g>
                    <path d="M74.3146649,164.779624 C79.6498067,161.664972 85.7302172,165.396298 88.2203963,171.055849 C90.7105754,176.713166 89.6350679,183.279854 87.8946201,189.214227 C86.1541724,195.146366 83.7688664,201.033818 83.7487843,207.216202 C83.6885381,223.365919 99.0000157,234.944203 105.428516,249.755558 C107.673247,254.925792 108.862553,260.59428 111.903874,265.335522 C116.007314,271.73687 122.92671,275.642474 128.728202,280.553525 C134.527463,285.466811 139.641702,292.750718 137.930262,300.161981 C135.96668,308.659128 125.457053,312.866366 116.993568,310.797379 C108.532314,308.728392 101.929769,302.206391 96.3402545,295.51458 C81.3590157,277.568464 70.2513888,256.145734 65.8266351,233.179084 C61.4041127,210.212435 63.8920604,185.710802 74.3146649,164.779624" id="Fill-77" fill="#59D2E5"></path>
                    <path d="M165.185228,345.260536 C161.139802,348.285815 159.767526,352.863952 159.769755,356.233317 C159.771989,359.604917 161.648549,362.813411 164.312772,364.873461 C166.976996,366.931276 170.346325,367.930021 173.704496,368.169094 C178.463951,368.506477 183.696451,367.132366 186.514638,363.275917 C189.335056,359.417234 188.982504,353.753214 186.237951,349.838673 C183.493399,345.921897 178.736175,343.707679 173.972257,343.368061 C171.216549,343.17144 168.37828,343.564682 165.926034,344.836014 C163.473787,346.105112 161.445496,348.308159 160.711384,350.973711" id="Fill-79" fill="#F08299"></path>
                    <path d="M452.337687,380.992121 C463.347135,388.807798 511.747202,352.430716 530.635523,324.300536 C549.523844,296.170356 555.001792,257.299764 537.601777,228.222229 C533.658993,221.637667 528.642934,215.618389 525.876068,208.459605 C523.109202,201.30082 523.12259,192.31659 528.50459,186.846957 C534.390874,180.865663 544.630508,181.422011 551.781963,185.810229 C558.933419,190.196214 563.721881,197.489058 568.273822,204.542829 C578.236769,219.986499 588.311284,235.667008 593.874023,253.190836 C599.436762,270.714665 600.032531,290.606881 591.397232,306.8348 C583.230516,322.177925 568.119859,332.301662 555.887635,344.641851 C545.404784,355.219156 536.905598,367.612969 526.599023,378.357849 C516.292449,389.107198 503.500157,398.444451 488.748747,400.412894 C473.999568,402.38357 457.311351,395.034868 452.337687,380.992121" id="Fill-81" fill="#5046AF"></path>
                    <path d="M421.719864,122.741874 C427.947543,119.2027 435.875506,121.218063 442.221446,124.536039 C448.571849,127.85178 454.411275,132.42098 461.366372,134.132474 C468.321469,135.843969 477.104036,133.453239 479.460334,126.683227 C481.158387,121.807925 478.891342,116.257856 475.209625,112.642715 C471.525678,109.032042 466.650193,106.951883 461.897431,104.95216 C454.027484,101.640887 445.731349,98.2603503 437.243319,99.1719558 C428.75529,100.083561 420.253872,106.92954 420.684521,115.46467" id="Fill-83" fill="#5046AF"></path>
                    <path d="M525.013207,128.144477 C522.250804,136.145603 526.494819,145.967706 534.275513,149.27451 C542.058439,152.583549 552.173118,148.695819 555.600461,140.95611 C559.025573,133.218635 554.982379,122.989884 547.130282,119.84842 C539.282648,116.706956 527.434215,120.033869 525.013207,128.144477" id="Fill-85" fill="#5046AF"></path>
                    <path d="M277.35597,290.586995 C275.550813,308.264992 273.792515,325.920646 272.429164,343.638861 C272.319828,345.064362 273.607313,346.172589 274.995209,345.649756 C283.266799,342.519464 291.498224,339.279689 299.678328,335.914792 C307.816037,332.570004 315.799784,328.470014 324.075836,325.518467 C325.72703,324.930839 325.985866,322.553515 324.615821,321.541365 C317.214455,316.073966 309.623425,310.861281 302.085948,305.588268 C294.557396,300.319725 287.153799,294.769656 279.395418,289.847433 C276.215754,287.829835 272.62106,292.267209 275.765022,294.575269 C290.54544,305.420694 306.29203,315.434949 321.797634,325.21013 L322.333157,321.230793 C314.73097,325.57656 306.220627,328.771648 298.174403,332.219215 C290.043388,335.700297 281.843201,339.004867 273.582769,342.16644 C274.435142,342.834504 275.291978,343.504802 276.146582,344.172866 C277.442993,326.405495 278.33553,308.642594 279.190134,290.850646 C279.245918,289.677624 277.480925,289.382693 277.35597,290.586995" id="Fill-87" fill="#EDEDEB"></path>
                    <path d="M289.447396,323.909975 C305.43274,331.694371 321.41362,339.429612 337.590859,346.814064 C338.989911,347.453082 340.197068,346.199624 340.18379,344.861262 C340.092195,336.004389 339.882449,327.147515 339.53659,318.297345 C339.197426,309.485159 338.099605,300.56349 338.171008,291.753537 C338.186628,289.832016 335.754463,289.335995 334.464747,290.189508 C319.188971,300.311011 303.678904,310.680524 289.152859,321.854394 C286.089225,324.211609 289.616978,328.695904 292.783254,326.582231 C300.427837,321.483496 307.706478,315.763618 315.114538,310.3275 C322.531523,304.88021 330.006523,299.495481 337.282934,293.860508 C336.049001,293.337675 334.812837,292.819312 333.576672,292.298713 C335.047128,300.929919 335.109605,310.025866 335.578187,318.766554 C336.049001,327.605553 336.33015,336.44902 336.452874,345.301424 C337.318635,344.651235 338.184396,343.998812 339.047926,343.348622 C322.859531,336.037904 306.53056,329.104786 290.165889,322.200715 C289.059143,321.733741 288.378583,323.391611 289.447396,323.909975" id="Fill-89" fill="#EDEDEB"></path>
                </g>
                <text id="SLOGAN" font-family="LucidaGrande, Lucida Grande" font-size="8.3237" font-weight="normal" fill="#EDEDEB">
                    <tspan x="403" y="586">S</tspan>
                    <tspan x="407.48293" y="586" letter-spacing="-0.3246243">L</tspan>
                    <tspan x="411.596529" y="586">OGAN</tspan>
                </text>
                <g id="Group-112" transform="translate(222.000000, 0.000000)">
                    <path d="M82.7523589,503.699523 C87.8946946,491.59902 93.5778583,480.316509 97.6050156,467.745715 C101.781906,454.718004 104.892785,441.396083 109.965841,428.653666 C118.632498,406.888807 132.31634,388.47616 153.719273,378.080738 C158.580021,375.720371 155.167441,367.489175 150.009462,369.303471 C127.88021,377.091122 112.410741,397.246741 102.751821,417.772351 C97.1267627,429.730208 93.1331278,442.345579 89.396498,454.989925 C87.2465949,462.26048 85.4274462,469.646936 83.5658357,476.999959 C81.5589615,484.923571 80.5801075,492.974229 77.3597226,500.556825 C75.8109878,504.205475 81.1879803,507.381607 82.7523589,503.699523" id="Fill-92" fill="#5046AF"></path>
                    <path d="M122.996667,184.645416 C108.139541,172.78563 88.1400785,167.572316 69.3630665,170.663751 C50.5882893,173.752957 33.3287245,185.100104 23.0798103,201.092205 C29.084789,200.561735 35.0852981,200.031265 41.088042,199.503025 C36.0797958,204.59375 30.926286,209.916278 28.5841879,216.651906 C26.2420897,223.389762 27.5874553,231.966432 33.5700857,235.864715 C38.3950761,239.007414 44.719635,238.352127 50.322345,237.028182 C55.9295246,235.704237 61.6618545,233.81416 67.3249048,234.863955 C72.9857202,235.911521 78.3671824,241.30983 76.9078407,246.866389 C74.4897584,256.060453 57.7464385,255.688233 56.4994053,265.111871 C55.7797912,270.548071 61.2841688,274.802972 66.536011,276.421128 C85.3174927,282.207259 105.909184,269.438096 115.136782,252.130966 C124.36885,234.821607 124.804642,214.295996 124.011278,194.708738" id="Fill-94" fill="#FCBC00"></path>
                    <path d="M43.4138259,272.817277 C45.6218344,269.088387 40.926464,264.953844 37.6211557,264.340907 C33.1313893,263.50954 28.5969264,266.656697 28.0560984,271.24147 C27.4951569,276.000095 31.9044696,279.860488 36.5327952,279.454835 C41.5745637,279.011291 44.6139277,273.931709 43.387008,269.277841 C43.0584885,268.027448 41.5522154,267.026688 40.3297654,266.884041 C37.8178204,266.59206 35.5919332,268.807551 35.8332945,271.118883 C35.8377641,271.159002 35.491366,271.807602 35.7684845,271.47773 C35.8511731,271.455441 35.9204527,271.471043 35.9785582,271.524536 C36.1707533,271.651581 36.045603,271.604775 35.607577,271.388575 C35.6455691,271.361829 35.8198855,271.517849 35.8042417,271.537909 C35.942801,271.348456 36.4769245,271.02527 37.1451376,271.187978 C38.6871679,271.562427 39.6324995,273.136005 41.0761974,273.726654 C42.0438773,274.121163 42.9154596,273.659788 43.4138259,272.817277" id="Fill-96" fill="#FCBC00"></path>
                    <path d="M61.0915268,291.678818 C60.8255824,293.490884 63.6526379,293.905453 63.9163474,292.088929 C64.1822918,290.276862 61.3574711,289.862293 61.0915268,291.678818" id="Fill-98" fill="#FCBC00"></path>
                    <path d="M207.16716,201.839543 C207.16716,201.839543 226.29504,309.076886 112.073059,301.505434 C112.073059,301.505434 166.799489,277.41587 159.402214,242.262224 L207.16716,201.839543 Z" id="Fill-100" fill="#827DDC"></path>
                    <path d="M339.984462,0.857732944 C339.984462,0.857732944 221.657104,-17.9561097 66.9668856,127.488423 L162.181667,244.392349 C162.181667,244.392349 338.52512,125.850208 339.984462,0.857732944" id="Fill-102" fill="#EDEDEB"></path>
                    <polygon id="Fill-104" fill="#39297F" points="162.182561 244.391681 64.6279162 124.616977 56.8998862 129.286448 156.854735 251.247667"></polygon>
                    <path d="M156.534261,145.191845 L111.804209,171.358711 L48.4088865,235.467531 C48.4088865,235.467531 99.5618297,210.230102 123.181711,189.74684 C130.527585,183.374518 150.133718,162.07772 156.534261,145.191845" id="Fill-106" fill="#5A39B5"></path>
                    <path d="M110.292572,90.040607 C110.292572,90.040607 3.3695347,58.1277296 0.162558715,172.247805 C0.162558715,172.247805 29.3672711,120.183766 63.7612505,130.842195 L110.292572,90.040607 Z" id="Fill-108" fill="#827DDC"></path>
                    <path d="M156.534261,145.191845 C156.534261,145.191845 93.7289326,146.355312 86.0657126,150.937857 L110.418617,180.83807 L156.534261,145.191845 Z" id="Fill-110" fill="#9797DB"></path>
                </g>
                <g id="Group-115" transform="translate(287.000000, 0.000000)">
                    <mask id="mask-6" fill="white">
                        <use xlink:href="#path-5"></use>
                    </mask>
                    <g id="Clip-114"></g>
                    <path d="M191.597614,9.66316734 C191.597614,9.66316734 219.180529,65.6448895 250.915782,86.2412016 L300.97466,38.8063243 L264.473068,-31.371058 L191.84187,7.98324717" id="Fill-113" fill="#827DDC" mask="url(#mask-6)"></path>
                </g>
                <g id="Group-120" transform="translate(420.000000, 54.000000)" fill="#3C34B7">
                    <path d="M32.1791701,4.06031638 C11.809889,1.66658344 -0.161215663,20.3342091 0.574915254,38.2970254 C1.27513735,55.448111 18.6707189,68.9202233 35.8890006,66.2340927 C53.9174752,63.421402 66.5730918,47.5271898 63.5500175,29.5949225 C60.4349269,11.1258654 40.5638808,-4.39521247 21.0474342,2.12700062 C15.9932671,3.81592432 16.8146815,11.0451287 22.3132203,11.2196945 C34.5469082,11.6081033 44.9941321,13.7443517 51.6327762,24.8227311 C58.7225248,36.6561073 51.1502513,51.6665803 38.972671,56.2685701 C5.30141438,68.9856855 -3.27630625,8.39827543 32.1791701,7.69128412 C34.6501461,7.64327854 34.5087551,4.33307537 32.1791701,4.06031638" id="Fill-116"></path>
                    <path d="M32.1791701,5.87580025 C21.9675979,4.55128257 12.1240912,11.7477559 7.69608416,20.7902621 C4.51366452,27.2862903 3.55534775,34.8493517 5.36649912,41.8276179 C7.1754062,48.8037019 11.8166219,55.1098899 18.2016598,58.7452218 C28.9047341,64.8332025 43.8428054,62.2801783 52.0726593,53.263857 C60.3025132,44.2475357 61.2473641,29.8305862 54.6042314,19.6512205 C47.9610988,9.47185484 34.4571362,4.16287376 22.3132203,6.59151985" id="Fill-118"></path>
                </g>
            </g>
        </g>
    </g>
</svg>