<?xml version="1.0" encoding="UTF-8"?>
<svg width="769px" height="695px" viewBox="0 0 769 695" version="1.1" xmlns="http://www.w3.org/2000/svg" xmlns:xlink="http://www.w3.org/1999/xlink">
    <!-- Generator: Sketch 58 (84663) - https://sketch.com -->
    <title>Asset 1</title>
    <desc>Created with Sketch.</desc>
    <g id="Web" stroke="none" stroke-width="1" fill="none" fill-rule="evenodd">
        <g id="Home" transform="translate(-1060.000000, -235.000000)">
            <g id="Asset-1" transform="translate(1060.000000, 235.000000)">
                <path d="M468.558949,152.408598 C466.560662,152.408598 461.578632,152.052441 454.598315,151.586697 C405.067819,148.201975 356.715508,134.927737 312.391465,112.546421 C274.971492,93.7796923 225.096442,85.7798604 198.105883,92.9851885 L197.859519,92.9851885 C193.143645,94.2447483 188.120641,93.5710022 183.902563,91.1131123 C179.684485,88.6552224 176.619307,84.6159552 175.385636,79.8895731 C168.980169,56.5475976 137.938288,40 105.171859,40 C65.7809726,40 34,62.1091247 34,89.3140327 C34,100.82064 39.7484963,111.423157 49.3019498,119.806543 C76.6167372,143.36747 90.9816368,178.611795 87.9263704,214.571676 C86.9967774,224.044269 87.495072,233.602901 89.4045551,242.927245 C90.3259045,247.338514 91.617041,251.66423 93.2642598,255.85848 C103.775796,282.296281 144.453251,314.898336 146.944266,339.774525 C166.105921,529.852725 215.98097,598.974561 398.783153,625.960295 C581.585336,652.94603 745.11637,568.865604 764.414894,438.183417 C783.713417,307.501231 752.343051,156.216737 468.558949,152.408598 Z" id="Path" fill="#E1E1FF" fill-rule="nonzero"></path>
                <path d="M242.979342,14.4546022 C239.220185,14.0217303 235.733488,12.2639136 233.134547,9.49135291 C226.951864,3.26071715 218.52016,-0.163847325 209.780505,0.00603202805 C193.372513,0.00603202805 180,11.2009166 180,24.9877202 C180,38.7745238 193.345167,49.9969819 209.780505,49.9969819 C217.325432,50.0997025 224.674976,47.5775877 230.591308,42.8554176 C233.327824,40.7564324 236.789414,39.8614789 240.189983,40.373793 C247.124883,40.8473972 253.191167,35.7101344 253.926463,28.7409849 C254.66176,21.7718355 249.803155,15.4627051 242.924648,14.4546022 L242.979342,14.4546022 Z" id="Path" fill="#E1E1FF" fill-rule="nonzero"></path>
                <path d="M281,62 C281,65.8677043 276.733051,69 271.5,69 C266.266949,69 262,65.8677043 262,62 C262,58.1322957 266.240113,55 271.5,55 C276.759887,55 281,58.1322957 281,62 Z" id="Path" fill="#E1E1FF" fill-rule="nonzero"></path>
                <path d="M655,143.541254 C655,150.444444 645.824983,156 634.486306,156 C623.147629,156 614,150.49945 614,143.541254 C614,136.583058 623.175017,131 634.486306,131 C645.797595,131 655,136.665567 655,143.541254 Z" id="Path" fill="#E1E1FF" fill-rule="nonzero"></path>
                <path d="M673,121.5 C673,125.089851 670.089851,128 666.5,128 C662.910149,128 660,125.089851 660,121.5 C660,117.910149 662.910149,115 666.5,115 C670.089851,115 673,117.910149 673,121.5 L673,121.5 Z" id="Path" fill="#E1E1FF" fill-rule="nonzero"></path>
                <path d="M77.1788411,495.55611 C75.3451702,481.840399 72.4441388,459.895262 59.0063422,443.134663 C38.069653,416.773067 0.301507834,412 0.301507834,412 C0.301507834,412 -3.69425245,450.102244 17.4066461,476.216958 C28.9560354,490.591022 52.9853336,500.905237 66.4778666,505.266833 C72.2460387,507.097437 76.1301041,512.507528 76.0293758,518.571072 C74.7157011,610.19202 60.593699,654 60.593699,654 L74.0862321,652.436409 C85.6903578,553.408978 79.7514538,514.620948 77.1788411,495.55611 Z" id="Path" fill="#E1E1FF" fill-rule="nonzero"></path>
                <path d="M115.881224,479.885278 C119.506815,468.603994 125.176912,450.696324 138.997775,438.456678 C160.533241,419.289447 193,421.041879 193,421.041879 C193,421.041879 190.682893,453.735699 169.038387,472.683876 C157.18025,483.061562 135.399444,488.15457 123.350487,489.770093 C118.233253,490.453427 114.167407,494.42614 113.346036,499.545381 C100.779138,576.953612 106.122114,616 106.122114,616 L95,612.659425 C100.124896,527.392629 110.892629,495.602408 115.881224,479.885278 Z" id="Path" fill="#E1E1FF" fill-rule="nonzero"></path>
                <path d="M97.1530297,420.697824 C100.105369,407.00899 104.725234,385.462764 119.541606,369.556339 C142.668268,344.916437 180.994012,343 180.994012,343 C180.994012,343 181.978125,381.547758 158.714781,406.18766 C145.975982,419.68485 120.99044,428.089795 107.130845,431.42987 C101.198827,432.805537 96.8673007,437.911092 96.4696177,443.99622 C92.8952455,499.629124 93.4617654,555.451351 98.1644795,611 L84.7149317,608.262233 C80.9424975,507.950455 93.1345673,439.643171 97.1530297,420.697824 Z" id="Path" fill="#B0B0FF" fill-rule="nonzero"></path>
                <path d="M67.9925668,566.132101 C66.8419569,559.250795 64.1056738,552.72314 59.9952324,547.053724 C58.0633182,544.35867 55.7187953,541.977174 53.0458245,539.994725 C41.298016,531.818277 25,534.380231 25,534.380231 C25,534.380231 27.7577015,550.460577 39.477933,558.746043 C45.7580282,562.804132 53.1274286,564.902711 60.6295037,564.769359 C62.3359697,564.776488 63.9688395,565.457085 65.1651022,566.659844 C66.3613649,567.862603 67.021876,569.48784 66.9997942,571.174243 C66.3744193,585.842745 64.9937813,600.470265 62.8632419,615 L70.253882,613.773533 C71.7523901,597.866553 70.9912377,581.830579 67.9925668,566.132101 L67.9925668,566.132101 Z" id="Path" fill="#B0B0FF" fill-rule="nonzero"></path>
                <path d="M138.85393,509 C138.85393,509 123.650474,515.376181 118.197061,528.678214 C115.194929,536.016318 116.764851,547.339536 117.508498,551.626968 C117.687714,552.820421 117.687714,554.033859 117.508498,555.227312 L112,605 L121.116565,605 C119.442527,590.850517 119.221038,576.567425 120.455545,562.373032 C120.771358,558.7971 122.618628,555.531225 125.523364,553.413398 C130.150502,550.08789 137.09121,544.26138 139.845459,537.555397 C145.216245,524.253364 138.85393,509 138.85393,509 Z" id="Path" fill="#B0B0FF" fill-rule="nonzero"></path>
                <path d="M73.6290619,687 L109.398222,687 C110.547251,687.013603 111.68174,686.740116 112.699571,686.203634 C127.047838,678.383981 135.989728,663.292145 136,646.877914 L136,612.135162 C136,608.205213 132.840619,605.015115 128.933476,605 L54.0665236,605 C50.1593811,605.015115 47,608.205213 47,612.135162 L47,646.877914 C47.0102725,663.292145 55.9521624,678.383981 70.3004292,686.203634 C71.3291859,686.737056 72.4717045,687.010222 73.6290619,687 Z" id="Path" fill="#8888EA" fill-rule="nonzero"></path>
                <rect id="Rectangle" fill="#E1E1FF" fill-rule="nonzero" x="47" y="625" width="89" height="21"></rect>
                <rect id="Rectangle" fill="#FFF0F2" fill-rule="nonzero" x="47" y="625" width="89" height="5"></rect>
                <polygon id="Rectangle" fill="#FFFFFF" fill-rule="nonzero" transform="translate(295.789860, 178.885848) rotate(10.620000) translate(-295.789860, -178.885848) " points="292.570067 111.250735 299.003456 111.25103 299.009654 246.520962 292.576265 246.520667"></polygon>
                <path d="M389.831566,161.3039 C362.516552,143.656132 327.170925,169.867855 300.620732,148.772616 C299.393898,147.827422 298.793776,146.277141 299.063776,144.750567 L308.869866,92.4092026 C309.095485,91.0477146 309.993456,89.8930064 311.256121,89.3406986 C312.518785,88.7883908 313.974684,88.9134822 315.125004,89.6731146 C342.440017,107.320883 377.785645,81.0817981 404.363153,102.204398 C405.661545,103.18121 406.261522,104.833918 405.892794,106.417973 C402.651412,123.874215 399.39182,141.330457 396.114019,158.786699 C395.82022,160.110174 394.892853,161.202909 393.636135,161.706441 C392.379416,162.209972 390.955528,162.059318 389.831566,161.3039 Z" id="Path" fill="#FFA50A" fill-rule="nonzero"></path>
                <path d="M352.954836,110.111111 C359.040077,110.111111 364.103062,114.891145 364.111111,120.854117 C364.111111,123.541881 363.080806,126.141125 361.108737,128.152924 C359.380829,129.918948 358.443915,132.387076 358.368838,135.096937 L358.363939,135.45173 L358.35589,139.81331 C358.35589,141.514876 356.997718,142.901367 355.28118,142.994964 L355.095939,143 L350.894225,143 C349.153365,143 347.735163,141.672184 347.639426,139.994371 L347.634275,139.81331 L347.642324,135.45173 C347.642324,132.683495 346.612019,129.995732 344.728492,127.983933 C342.587388,125.634152 341.557083,122.527934 341.983694,119.341245 C342.667881,114.56121 346.982285,110.111111 352.954836,110.111111 Z M356.713841,137.881984 L349.42926,137.881984 L349.42926,139.81331 C349.42926,140.611324 350.039538,141.251424 350.832899,141.320083 L350.974718,141.326183 L355.176432,141.326183 C355.989854,141.326183 356.645323,140.72324 356.715642,139.951217 L356.72189,139.81331 L356.713841,139.81331 L356.713841,137.881984 Z M352.962885,111.792975 C347.964294,111.792975 344.221388,115.575157 343.617694,119.598755 C343.279625,122.286518 344.052354,124.885762 345.935881,126.897561 C347.994634,129.156966 349.264536,132.108299 349.359175,135.093399 L349.364866,135.45173 L349.364866,136.208167 L356.649447,136.208167 L356.649447,135.45173 C356.649447,132.176522 357.768294,129.158823 359.909397,126.978033 C361.535348,125.296169 362.396619,123.115379 362.396619,120.854117 C362.396619,115.905092 358.194905,111.792975 352.962885,111.792975 Z M373,120.777778 L373,122.555556 L368.555556,122.555556 L368.555556,120.777778 L373,120.777778 Z M337.444444,120.777778 L337.444444,122.555556 L333,122.555556 L333,120.777778 L337.444444,120.777778 Z M366.36965,108.333333 L367.666667,109.392889 L364.510592,111.888889 L363.222222,110.829333 L366.36965,108.333333 Z M339.63035,108.333333 L342.777778,110.829333 L341.489408,111.888889 L338.333333,109.392889 L339.63035,108.333333 Z M353.444444,103 L353.444444,106.555556 L351.666667,106.555556 L351.666667,103 L353.444444,103 Z" id="Combined-Shape" fill="#FFFFFF" fill-rule="nonzero" transform="translate(353.000000, 123.000000) rotate(10.000000) translate(-353.000000, -123.000000) "></path>
                <path d="M292.29547,213.461834 C291.158001,214.024965 290.290287,215.031631 289.887792,216.25507 C289.798416,216.659664 289.798416,217.079501 289.887792,217.484094 C290.028046,218.518304 289.67156,219.558144 288.930193,220.277331 C288.302669,220.902507 287.825128,221.667262 287.534834,222.51192 C286.991357,224.03082 286.859034,225.671214 287.151795,227.260422 C287.424054,228.483159 287.424054,229.752689 287.151795,230.975426 C286.979096,231.732709 287.086265,232.528422 287.452754,233.210015 C287.84336,233.996375 288.528618,234.588244 289.352932,234.851231 C290.177247,235.114219 291.070673,235.02601 291.83035,234.606634 C292.94073,234.011214 293.612844,232.813132 293.554029,231.534074 C293.520024,230.885822 293.725,230.248065 294.128588,229.746402 L294.265388,229.550876 C294.722181,228.821846 294.906706,227.949324 294.785228,227.092828 C294.596305,226.220613 294.902903,225.313956 295.578667,224.746509 C296.372167,224.106544 296.946826,223.226522 297.220265,222.232596 C297.36622,221.636567 297.36622,221.013022 297.220265,220.416993 C297.045545,219.537376 297.348808,218.629908 298.013705,218.042742 C298.743408,217.459396 299.109242,216.520344 298.971304,215.584694 C298.697704,213.126646 294.046508,212.428337 292.29547,213.461834 Z" id="Path" fill="#FAB9AF" fill-rule="nonzero"></path>
                <path d="M273.047021,222.712013 L273.047021,222.712013 C273.728301,221.372203 274.585803,220.127461 275.597199,219.010197 L279.117553,215.116436 C281.69545,212.730822 283.053697,210.646837 286.019664,210.345207 C290.898265,209.824211 297.772657,209.550003 297.994412,212.127563 C298.216166,214.705123 291.785283,216.21327 288.126333,216.679425 C286.899035,216.846477 285.899185,217.73774 285.603874,218.927935 C285.603874,218.927935 287.43335,233.241621 279.838255,233.790038 L277.981061,239 L269,237.546695 L270.884914,228.71718 C271.337408,226.63064 272.064296,224.611737 273.047021,222.712013 L273.047021,222.712013 Z" id="Path" fill="#FAB9AF" fill-rule="nonzero"></path>
                <path d="M196.784017,289.51091 C196.784017,289.51091 176.429863,281.315188 168.909453,294.53762 C161.389043,307.760051 172.533419,343.220208 145.421795,348.028365 C118.310171,352.836522 115.449146,380.128277 117.547231,392.039393 C123.759744,426.434106 173.350855,460.82882 207.683162,424.467133 C242.01547,388.105446 199.508803,363.545599 196.211812,345.24182 C192.91482,326.938041 214.386137,302.460151 196.784017,289.51091 Z" id="Path" fill="#5046AF" fill-rule="nonzero"></path>
                <path d="M212.471649,352.563548 C212.471649,338.434733 240.81919,323.53775 211.123076,294.703993 C210.282617,293.844759 208.925185,293.761672 207.985581,294.511951 C205.508612,296.514677 197.664874,297.474887 193.701723,300.986515 C186.298336,307.543382 174.766666,325.677648 178.427077,334.840802 C186.21577,354.4291 173.060309,370.91729 172.014477,393.002137 C171.161299,415.690544 208.233278,438.214344 226.177547,431.931823 C231.941504,429.965814 236.399612,425.348175 238.149567,419.531387 C239.587697,415.238923 239.189535,410.545588 237.048692,406.554825 L237.048692,406.554825 C230.085655,393.550828 212.967042,399.778481 212.471649,352.563548 Z" id="Path" fill="#41378C" fill-rule="nonzero"></path>
                <path d="M258.631493,556.485837 C265.182448,520.887123 265.742157,484.458228 260.287896,448.678128 C258.786229,439.321579 251.152043,432.121233 241.653363,431.10257 L241.653363,431.10257 C235.145312,430.481912 228.686878,432.699227 223.958968,437.177425 C219.231058,441.655624 216.701326,447.951751 217.028173,454.427143 C217.460272,461.526251 218.382659,468.58763 219.788844,475.561615 C226.083175,507.400204 236.960221,660.296612 237.043042,660.323988 C237.053773,661.05998 236.979675,661.794779 236.822188,662.514089 C236.351532,664.324782 235.463177,666.002314 234.227157,667.41444 C231.935799,670.562709 233.343742,672.698058 238.06449,676.393853 C242.01225,679.48737 239.941747,684.907869 243.972327,685.537523 C249.49367,686.413563 253.358611,686.00292 253.827925,684.661483 C254.518093,682.745145 252.916903,682.553511 248.306582,680.199153 C244.690102,678.364943 244.248394,667.250182 244.220788,662.952109 C244.211866,661.889501 244.285703,660.827796 244.441641,659.776463 L258.631493,556.485837 Z" id="Path" fill="#FAB9AF" fill-rule="nonzero"></path>
                <path d="M211.448531,563.907371 C220.282726,537.803156 235.708378,454.225794 232.590427,430.781357 L211.557933,429.026452 C200.945019,428.521387 191.341012,435.29412 188.228002,445.478688 C183.633126,460.724427 179.229704,486.417337 183.359622,523.818755 C183.359622,523.818755 186.532274,544.164688 183.359622,557.271636 C180.460474,569.144667 163.913454,643.04263 160.877554,656.533464 C160.399922,658.03365 159.843009,659.507294 159.209177,660.948147 C158.400053,662.503063 157.238466,663.846061 155.817721,664.869263 C152.836523,667.364519 153.657036,669.777514 157.294646,674.493822 C160.330545,678.469779 157.021141,683.240928 160.740802,684.831311 C165.882686,687.052363 169.629697,687.57335 170.39551,686.366853 C171.544229,684.666788 170.039954,684.11838 166.10149,680.663411 C164.542514,679.319811 164.679266,674.576083 165.198925,670.18882 C165.793655,665.417776 167.190039,660.782164 169.328842,656.478623 C177.971584,639.148934 204.063911,585.624324 211.448531,563.907371 Z" id="Path" fill="#FAB9AF" fill-rule="nonzero"></path>
                <path d="M255.731136,578.261378 C230.542446,584.579541 204.18869,584.579541 179,578.261378 C181.316103,568.073848 183.168986,560.043998 183.959186,556.766508 C187.119985,543.711174 183.959186,523.445363 183.959186,523.445363 C179.844696,486.19123 184.231668,460.626811 188.809378,445.413796 C191.910759,435.269334 201.478887,428.523272 212.052155,429.026347 L233.006076,430.774342 C233.003434,430.819824 233.003434,430.865422 233.006076,430.910904 L241.78002,431.730276 C251.20149,432.671116 258.815003,439.843096 260.336094,449.210221 C265.719537,484.906877 265.167095,521.250816 258.701197,556.766508 L255.731136,578.261378 Z" id="Path" fill="#6469D4" fill-rule="nonzero"></path>
                <path d="M192.558818,521.647899 C189.817358,528.00723 187.295215,534.448793 184.964974,541 C184.869706,535.240896 184.43029,529.492632 183.649073,523.78595 C179.509468,486.397472 183.923219,460.740863 188.528872,445.472987 C191.649184,435.291943 201.275717,428.521553 211.913525,429.026442 L219.562199,429.656893 L219.562199,429.656893 L232.995353,430.780741 C232.992694,430.826387 232.992694,430.872149 232.995353,430.917795 L241.822854,431.740122 C251.27009,432.719343 258.887922,439.909249 260.409953,449.283103 C260.958245,452.654645 261.479123,456.574405 262,460.877917 C226.936726,459.562194 205.334021,491.715188 192.558818,521.647899 Z" id="Path" fill="#5159BF" fill-rule="nonzero"></path>
                <path d="M272.554425,296.392562 C275.749901,279.957696 279,237.473567 279,237.473567 C277.333983,235.172685 270.45142,232.351367 268.321103,235.200077 L254.883718,293.434286 C240.381175,311.813945 228.473249,328.550117 222.874338,336.76755 C220.711131,339.904467 217.267499,341.91242 213.479094,342.245839 C205.597191,342.826047 197.771813,344.016558 190.072918,345.806727 C154.294515,355.092426 168.988241,368.322494 168.988241,368.322494 C173.392455,372.66399 177.006431,377.74388 179.667138,383.333005 L193.596134,413.134896 C195.016346,417.791441 190.864959,431.62412 189.226253,436.253274 L186.058089,446.03202 C185.807293,446.728975 185.848727,447.4981 186.172938,448.163898 C186.497149,448.829695 187.076476,449.335362 187.77873,449.565516 C203.892667,455.043805 236.366347,455.975114 257.123282,449.346384 C258.201841,448.989694 259.072175,448.179826 259.507487,447.127823 C259.942798,446.075819 259.899968,444.885882 259.390158,443.868096 L244.013639,401.849621 C239.916875,392.974793 240.681604,390.893043 243.576651,385.606495 C245.205865,382.657379 245.608296,379.182431 244.696433,375.937315 C243.671846,373.040116 242.295934,370.280263 240.599669,367.719882 C237.659301,362.941902 238.053726,356.821469 241.582892,352.462848 C253.463507,337.808425 269.577444,311.622205 272.554425,296.392562 Z" id="Path" fill="#B0B0FF" fill-rule="nonzero"></path>
                <path d="M187.563831,292.425482 C176.915291,295.42905 175.040931,304.219312 178.735322,318.520709 C180.317421,323.425177 183.125095,327.830222 186.884715,331.306543 C188.992284,333.401908 190.169035,336.276712 190.144473,339.270134 L190.144473,347.977729 C190.579107,355.858653 195.197096,359 200.738683,359 C203.56116,358.904085 206.221655,357.639337 208.100302,355.500429 C210.273473,353.020418 209.458534,349.217734 208.100302,346.18661 L206.877893,344.092378 C206.042096,342.725771 205.789908,341.073208 206.179248,339.514219 C206.568587,337.95523 207.565995,336.623789 208.942406,335.825675 C211.206285,334.632514 213.247173,333.047175 214.972956,331.141209 C216.358353,329.432757 217.227622,316.839812 211.523047,303.778421 C205.519661,290.276139 198.212372,289.421913 187.563831,292.425482 Z" id="Path" fill="#FAB9AF" fill-rule="nonzero"></path>
                <path d="M211.775653,319.451741 C212.082528,320.137127 212.074202,320.930146 211.75301,321.608405 C211.431818,322.286665 210.832346,322.777132 210.122707,322.942261 L210.122707,322.942261 C208.882492,323.221851 207.644393,322.461272 207.281705,321.197001 L205.034731,310.805991 C204.95261,310.419923 205.017399,310.015795 205.215522,309.678284 C205.427716,309.352479 205.750673,309.122252 206.119477,309.03388 C206.64959,308.90081 207.197408,309.168816 207.436669,309.678284 L211.775653,319.451741 Z" id="Path" fill="#FA968C" fill-rule="nonzero"></path>
                <path d="M184.061775,318.94996 C184.939509,322.109786 185.976832,326.119313 183.18404,326.915908 C180.391249,327.712503 175.975979,322.667403 175.204636,319.481023 C174.433294,316.294644 175.896185,315.020092 178.688976,314.170391 C181.481767,313.32069 183.157442,315.763581 184.061775,318.94996 Z" id="Path" fill="#FAB9AF" fill-rule="nonzero"></path>
                <path d="M173.020183,302.653849 C181.774016,285.883613 200.634799,280.420996 210.051383,286.265997 C215.160087,289.352376 222.284658,302.653849 210.935051,302.981606 C208.167336,303.024623 205.454916,302.213099 203.175344,300.659994 C202.358054,300.138239 201.36382,299.961231 200.413882,300.168358 L193.013165,302.681162 C187.044752,304.79574 183.862115,311.22469 185.833365,317.184412 L186.551345,319.342146 C186.68861,319.837092 186.521258,320.365745 186.12312,320.694884 C185.724981,321.024023 185.169278,321.093115 184.701165,320.871679 L184.259332,320.052286 C183.097494,317.939659 181.094694,316.404438 178.736408,315.818757 C173.848621,314.453103 167.773406,312.732379 173.020183,302.653849 Z" id="Path" fill="#5046AF" fill-rule="nonzero"></path>
                <path d="M190.258652,504.974708 C188.513811,502.203903 187.068865,499.433098 186.25097,498.491025 C185.666781,497.958999 185.047362,497.468338 184.397077,497.022498 C183.388341,496.246673 181.670763,495.221475 181.316342,494.030029 L179.407923,489.097997 C178.535502,486.715105 176.681609,485.329703 174.364242,486.327192 L174.364242,486.327192 C171.801507,487.296974 171.447087,489.956946 172.701191,492.422963 L173.982558,495.914176 C174.816966,497.947619 175.207624,500.140758 175.12761,502.342443 C175.854215,506.858521 177.85221,511.064077 180.880132,514.45086 C182.488657,516.528963 185.978339,516.833752 190.640336,517 C192.930439,517 196.50191,516.501255 194.320859,514.5894 C192.139808,512.677545 185.460339,512.234216 184.887814,505.168664 C184.887814,504.808459 184.887814,503.921802 185.242234,503.755554 C186.414549,503.256809 187.586864,505.833657 188.650127,506.914271 C190.095073,508.438214 191.621809,508.687586 192.303387,508.216549 C192.984965,507.745512 191.485493,506.748023 190.258652,504.974708 Z" id="Path" fill="#FAB9AF" fill-rule="nonzero"></path>
                <path d="M359.922006,475 L323.288022,505.595957 C306.632733,519.535522 297.004976,540.154045 297,561.893612 L297,686 L297,686 C311.141566,686 322.605571,674.517441 322.605571,660.352987 L322.605571,645.888946 C322.617945,613.955963 336.752397,583.668892 361.205014,563.178696 L395,534.824802 L359.922006,475 Z" id="Path" fill="#827DDC" fill-rule="nonzero"></path>
                <path d="M492.070234,475 L528.697324,505.595957 C545.361897,519.535522 554.995021,540.154045 555,561.893612 L555,686 L555,686 C540.850551,686 529.380156,674.517441 529.380156,660.352987 L529.380156,645.888946 C529.381312,613.964893 515.259693,583.679343 490.813824,563.178696 L457,534.824802 L492.070234,475 Z" id="Path" fill="#827DDC" fill-rule="nonzero"></path>
                <path d="M492.070234,475 L528.697324,505.595957 C545.361897,519.535522 554.995021,540.154045 555,561.893612 L555,686 L555,686 C540.850551,686 529.380156,674.517441 529.380156,660.352987 L529.380156,645.888946 C529.381312,613.964893 515.259693,583.679343 490.813824,563.178696 L457,534.824802 L492.070234,475 Z" id="Path" fill="#000000" fill-rule="nonzero" opacity="0.21" style="mix-blend-mode: overlay;"></path>
                <path d="M473.123807,622 L379.012848,622 C375.866282,622.023314 372.862134,620.694663 370.769013,618.35367 C368.675893,616.012678 367.696868,612.886462 368.082423,609.774863 L376.416872,541 L475.555826,541 L483.917601,609.774863 C484.300182,612.862874 483.338873,615.966471 481.276221,618.302588 C479.213569,620.638705 476.246563,621.984236 473.123807,622 Z" id="Path" fill="#6469D4" fill-rule="nonzero"></path>
                <path d="M472.984863,622 L447,622 L447,541 L475.511932,541 L483.917184,609.775096 C484.303483,612.877236 483.326482,615.994361 481.234755,618.333397 C479.143028,620.672432 476.138232,622.007879 472.984863,622 Z" id="Path" fill="#6469D4" fill-rule="nonzero"></path>
                <path d="M459.456085,557 C475.87347,557.011618 490.005781,545.369682 493.190072,529.210535 C501.273652,485.706897 505.224715,441.531821 504.990139,397.279245 C504.990139,259.154255 443.640717,115 426.486917,115 C406.191894,115 348.011009,259.072038 348.011009,397.279245 C347.762746,441.532398 351.713925,485.708774 359.811076,529.210535 C362.985573,545.37556 377.123838,557.0224 393.545063,557 L459.456085,557 Z" id="Path" fill="#FFFFFF" fill-rule="nonzero"></path>
                <path d="M480,230 C460.851064,162.907505 436.395137,115 426.492401,115 C414.784195,115 390.492401,162.907505 372,230 L480,230 Z" id="Path" fill="#FFFFFF" fill-rule="nonzero"></path>
                <path d="M475,213 C456.873149,154.959562 435.54261,115 426.56133,115 C415.882369,115 394.68874,154.959562 377,213 L475,213 Z" id="Path" fill="#827DDC" fill-rule="nonzero"></path>
                <path d="M387,213 L397.502926,213 C407.320283,180.938861 411.762774,158.301004 419.907341,137.064277 C420.175399,136.325466 419.844397,135.503038 419.139776,135.15714 C418.435155,134.811242 417.583586,135.053146 417.165063,135.718094 C409.020496,149.646969 399.038602,173.631009 387,213 Z" id="Path" fill="#928DEB" fill-rule="nonzero"></path>
                <path d="M482,373.999187 C482,396.651225 468.353272,417.072283 447.424461,425.73829 C426.495649,434.404297 402.407263,429.608238 386.393759,413.586923 C370.380256,397.565608 365.595946,373.474886 374.272158,352.550303 C382.948371,331.62572 403.376082,317.988962 426.028117,318 C440.877513,318 455.118318,323.900773 465.615867,334.403442 C476.113415,344.906111 482.007237,359.149792 482,373.999187 Z" id="Path" fill="#000000" fill-rule="nonzero" opacity="0.39" style="mix-blend-mode: overlay;"></path>
                <path d="M482,367.999187 C482,390.651225 468.353272,411.072283 447.424461,419.73829 C426.495649,428.404297 402.407263,423.608238 386.393759,407.586923 C370.380256,391.565608 365.595946,367.474886 374.272158,346.550303 C382.948371,325.62572 403.376082,311.988962 426.028117,312 C440.877513,312 455.118318,317.900773 465.615867,328.403442 C476.113415,338.906111 482.007237,353.149792 482,367.999187 Z" id="Path" fill="#827DDC" fill-rule="nonzero"></path>
                <path d="M425.602301,312 L425,312 L425,424 L425.602301,424 C455.916217,423.055121 480,398.261943 480,368 C480,337.738057 455.916217,312.944879 425.602301,312 L425.602301,312 Z" id="Path" fill="#000000" fill-rule="nonzero" opacity="0.21" style="mix-blend-mode: overlay;"></path>
                <path d="M464,368.5 C464,389.762963 446.762963,407 425.5,407 C404.237037,407 387,389.762963 387,368.5 C387,347.237037 404.237037,330 425.5,330 C446.762963,330 464,347.237037 464,368.5 L464,368.5 Z" id="Path" fill="#D2F0FF" fill-rule="nonzero"></path>
                <path d="M378,622 L474,622 L474,637.964671 C474,644.6116 468.621277,650 461.986286,650 L390.041143,650 C383.406152,650 378.027429,644.6116 378.027429,637.964671 L378.027429,622 L378,622 Z" id="Path" fill="#B0B0FF" fill-rule="nonzero"></path>
                <path d="M453,622 L474,622 L474,637.964671 C474,644.6116 468.552798,650 461.833333,650 L453,650 L453,622 L453,622 Z" id="Path" fill="#9797EF" fill-rule="nonzero"></path>
                <path d="M427.122825,685.288704 L426.526258,686 L426.526258,686 C420.732895,679.482099 417.401316,671.113084 417.116757,662.363086 L412.018814,500.023449 C411.63916,487.938775 417.023677,476.40269 426.499141,469 L426.499141,469 C435.990393,476.414136 441.37672,487.974453 440.979467,500.078164 L435.556124,662.800807 C435.291413,671.032225 432.325132,678.941994 427.122825,685.288704 Z" id="Path" fill="#827DDC" fill-rule="nonzero"></path>
                <path d="M426.617102,685.288704 L426,686 L426,686 L426,469 L426,469 C435.817955,476.414136 441.389687,487.974453 440.97876,500.078164 L435.368738,662.800807 C435.08698,671.035482 432.008591,678.945603 426.617102,685.288704 L426.617102,685.288704 Z" id="Path" fill="#000000" fill-rule="nonzero" opacity="0.21" style="mix-blend-mode: overlay;"></path>
                <path d="M447.153166,336 C447.153166,336.737987 447.153166,337.503307 447.153166,338.268626 C447.153166,365.682083 424.904919,387.90508 397.460316,387.90508 C395.955302,387.90508 394.450287,387.90508 393,387.686417 C401.168424,401.037584 416.651557,408.076291 432.09561,405.45947 C447.539663,402.84265 459.832857,391.097558 463.13648,375.802582 C466.440103,360.507607 460.088517,344.74449 447.098438,336 L447.153166,336 Z" id="Path" fill="#AFE6FF" fill-rule="nonzero"></path>
                <path d="M169.586958,354.743532 C173.037864,351.175455 181.473412,350.132479 189.169481,351.72439 C196.427339,353.233961 180.733932,404.147669 166.108663,428.136122 C164.537846,430.70854 164.092148,433.815251 164.876197,436.726953 L180.460051,492.059586 C178.570269,495.847237 174.982422,496.478512 171.586292,497 L145.34845,439.36184 C142.879496,433.923862 142.338371,427.803808 143.814714,422.015499 C148.361146,404.120222 159.124687,365.557548 169.586958,354.743532 Z" id="Path" fill="#B0B0FF" fill-rule="nonzero"></path>
                <path d="M630.185863,652.05179 L634.367647,668.308716 C634.559499,668.915382 634.839393,669.49091 635.198465,670.017071 L638.161717,674.398175 C639.044209,675.723713 639.242636,677.387098 638.696518,678.88134 C638.1504,680.375582 636.924447,681.523626 635.392323,681.975556 C635.392323,681.975556 629.410432,684.069668 623.234684,686.081118 C617.058936,688.092569 609,686.411768 609,684.758521 C609,681.093824 612.434048,684.01456 618.222081,680.156984 C620.160657,678.861941 622.154621,677.401573 623.927033,676.134084 C628.911941,672.248954 624.563993,662.357028 621.51766,656.846205 C620.437596,654.862309 621.51766,649.875015 623.816257,649.406595 L625.256342,649.1035 C627.428195,648.612557 629.602746,649.913131 630.185863,652.05179 L630.185863,652.05179 Z" id="Path" fill="#FAB9AF" fill-rule="nonzero"></path>
                <path d="M626.650387,512.799143 C625.448205,509.847167 624.553558,506.732698 623.854616,505.595239 C623.357345,504.946842 622.815606,504.331587 622.233068,503.75364 C621.394337,502.805758 619.912578,501.424558 619.744832,500.178771 L618.822227,494.951878 C618.430819,492.406138 616.865188,490.672868 614.26512,491.052021 L614.26512,491.052021 C611.469349,491.458256 610.490829,494.003996 611.245687,496.685148 L611.804842,500.341265 C612.214586,502.515043 612.147909,504.74799 611.609138,506.895192 C611.302864,511.48466 612.391459,516.060485 614.740401,520.057211 C615.942583,522.440457 619.437297,523.496669 624.190108,524.634127 C626.538556,525.202857 630.340805,525.392433 628.523554,523.036269 C626.706302,520.680105 619.940536,518.865588 620.86314,511.824179 C620.86314,511.472108 621.086802,510.578391 621.534125,510.497144 C622.82018,510.280485 623.491165,513.042884 624.329897,514.342837 C625.504121,516.130271 627.125668,516.699 627.824611,516.374012 C628.523554,516.049024 627.517076,514.911566 626.650387,512.799143 Z" id="Path" fill="#FAB9AF" fill-rule="nonzero"></path>
                <path d="M640.219425,347.747191 C632.89763,370.845269 614.128699,414.031014 586.781247,429.384121 C568.066957,439.865832 523.0707,455 523.0707,455 C522.172898,453.876383 521.360139,452.687154 520.639208,451.442239 C519.952157,450.172712 519.402629,448.833214 519,447.4466 C519,447.4466 575.00627,418.656103 582.519307,410.309049 C590.032343,401.961994 615.112224,348.759784 622.59794,340.412729 C631.367703,330.615203 644.317445,334.747679 640.219425,347.747191 Z" id="Path" fill="#B0B0FF" fill-rule="nonzero"></path>
                <polygon id="Path" fill="#FAB9AF" fill-rule="nonzero" points="616 459 633.82049 334.580033 681.946812 328 707 458.126303"></polygon>
                <path d="M719.659259,648.483671 L724.5579,664.415422 C724.778583,665.119392 725.105057,665.787163 725.526558,666.396713 L728.98605,671.472074 C730.035134,672.981826 730.286711,674.891849 729.663245,676.613465 C729.039778,678.335082 727.6161,679.661654 725.830993,680.184327 C725.830993,680.184327 718.828981,682.599873 711.605562,684.933997 C704.382142,687.26812 695,685.31397 695,683.414102 C695,679.180111 699.040687,682.545591 705.793615,677.985908 C708.063042,676.493154 710.415496,674.946119 712.491192,673.344802 C718.303138,668.866541 713.238442,657.521615 709.723598,651.116345 C709.13101,650.017051 709.10305,648.707775 709.648188,647.585114 C710.193325,646.462453 711.247427,645.658485 712.491192,645.416741 L714.179424,645.063908 C716.627573,644.668843 718.987333,646.141482 719.659259,648.483671 L719.659259,648.483671 Z" id="Path" fill="#FAB9AF" fill-rule="nonzero"></path>
                <path d="M670,460.454423 L617.002127,456 C617.002127,456 598.251977,523.280918 593.277447,553.150147 C589.669546,574.793724 622.44131,658.471291 622.44131,658.471291 C625.693887,659.892334 628.837134,658.088702 632.199041,657.26887 C632.199041,657.26887 622.249982,583.483948 625.639222,565.365651 C629.165125,546.591487 657.454346,508.551261 659.285628,498.576633 C661.739785,485.581487 665.324874,472.825579 670,460.454423 L670,460.454423 Z" id="Path" fill="#5046AF" fill-rule="nonzero"></path>
                <path d="M659.088794,460.878805 C653.620631,490.326038 641.371948,534.318834 664.939727,575.681924 C688.507506,617.045014 713.2236,659.996885 713.2236,659.996885 C716.422323,660.066197 719.538603,658.97683 722,656.928894 C722,656.928894 717.871538,638.192236 711.8839,616.305409 C705.076038,591.268413 696.409001,561.82118 698.869674,546.453834 C703.490271,517.69142 708.794388,479.341536 707.208621,460.741842 C705.622854,442.142147 661.959579,445.401888 659.088794,460.878805 Z" id="Path" fill="#5046AF" fill-rule="nonzero"></path>
                <path d="M617.631257,461.272279 C615.762343,460.388828 614.712811,458.357082 615.068897,456.311909 L634.559195,334.604692 L682.262722,328 L707.91359,456.558557 C708.145262,457.71501 707.90666,458.916575 707.251065,459.894943 C706.595469,460.873312 705.577482,461.547001 704.424418,461.765576 C686.525272,465.136806 668.361634,466.88862 650.151433,467 C632.242166,467 622.183537,463.492114 617.631257,461.272279 Z" id="Path" fill="#D2F0FF" fill-rule="nonzero"></path>
                <path d="M671.355438,360.297921 C677.24254,376.138726 686.568369,407.381835 681.203954,434.842883 C673.666263,473.513082 663.955296,489.162043 676.527284,498.178695 C689.099273,507.195346 713.252896,492.149323 713.940642,487.2162 C714.628387,482.283078 709.236462,420.591641 703.129282,394.034998 C697.022101,367.478355 679.910992,329 679.910992,329 L670.9703,329.794781 C670.9703,329.794781 668.549436,352.761207 671.355438,360.297921 Z" id="Path" fill="#B0B0FF" fill-rule="nonzero"></path>
                <path d="M642.677042,333 C640.327145,347.279419 640.062322,361.830181 641.891033,376.18734 C644.736926,402.001092 651.404447,480.648088 628.149435,492.513645 C620.804321,496.295277 604,476.893858 604,473.331451 C604,467.165746 609.583371,446.476379 614.841497,427.677829 C619.096785,412.578702 623.40628,362.102129 624.951194,342.728113 C625.302078,338.274063 628.697501,334.680931 633.082317,334.123529 L642.677042,333 Z" id="Path" fill="#B0B0FF" fill-rule="nonzero"></path>
                <path d="M676.993547,280.127116 C676.559376,284.617836 677.800763,289.11053 680.478985,292.741236 C684.877275,298.080106 678.487306,303.059364 676.993547,306.572507 C675.499788,310.08565 677.353156,315.590496 673.176163,318.052462 C668.999171,320.514428 657.104424,321.17833 655.223394,316.83531 C653.342364,312.492291 663.577379,277.637487 676.993547,280.127116 Z" id="Path" fill="#41378C" fill-rule="nonzero"></path>
                <path d="M630.021697,290.03482 C629.397851,313.511425 651.151084,318 663.817867,318 C676.484649,318 677,289.8716 677,279.751904 C677,269.632209 667.154085,268 654.433055,268 C644.478646,268 635.039587,275.752992 631.13377,283.206746 C630.280848,285.376922 629.90164,287.705245 630.021697,290.03482 L630.021697,290.03482 Z" id="Path" fill="#41378C" fill-rule="nonzero"></path>
                <path d="M653.34126,277 C663.869637,277 667.811029,284.644072 668,298.777355 C667.779982,303.640954 666.359398,308.369512 663.869637,312.525685 C662.443493,315.020632 662.082541,318.001561 662.870791,320.774683 L665.192433,328.748715 C666.758191,336.145316 663.302724,340.214822 658.227507,341.699642 C655.571523,342.371933 652.761045,341.90477 650.452705,340.407299 C647.753121,338.675009 647.618142,334.907967 648.104067,331.828341 L648.697976,329.546118 C649.117072,328.075851 648.930988,326.495197 648.182503,325.167532 C647.434019,323.839867 646.187528,322.879414 644.729588,322.506973 C636.630836,320.692193 635.443019,312.085739 633.283352,298.694865 C631.015702,284.809052 642.785887,277 653.34126,277 Z" id="Path" fill="#FAB9AF" fill-rule="nonzero"></path>
                <path d="M628.67538,270.719123 L634.75679,272.604612 C636.998145,273.283342 639.384171,273.283342 641.625525,272.604612 L653.896941,269 C661.254361,269 673.390031,273.242351 671.869678,284.056186 L670.512221,291.736783 C669.918976,294.761322 667.440263,297.021628 664.430811,297.282339 L664.430811,297.282339 C664.085652,298.419385 662.987492,299.136085 661.832181,298.978303 C660.67687,298.820521 659.801673,297.834318 659.761157,296.6446 L659.761157,296.6446 C659.737728,293.184071 657.370134,290.201804 654.059836,289.463104 C649.826261,288.383046 645.397564,288.383046 641.16399,289.463104 C637.186722,290.706381 632.875253,290.098772 629.376292,287.801881 C625.87733,285.504989 623.545579,281.751661 623.001208,277.540157 C623.001208,276.985602 623.001208,276.403318 623.001208,275.821035 C622.969006,274.332606 623.581964,272.905608 624.676089,271.92183 C625.770214,270.938051 627.233841,270.497895 628.67538,270.719123 L628.67538,270.719123 Z" id="Path" fill="#41378C" fill-rule="nonzero"></path>
                <path d="M663,299 C663,302.333333 664.264368,305 667.568966,305 C670.873563,305 673,300.444444 673,297.138889 C673,293.833333 670.873563,293 667.568966,293 C664.264368,293 663,295.694444 663,299 Z" id="Path" fill="#FAB9AF" fill-rule="nonzero"></path>
                <path d="M636.057317,309.081116 C635.896658,309.792679 636.077784,310.536375 636.549886,311.103583 C637.021988,311.670792 637.734213,312.000417 638.486771,312 L638.486771,312 C639.811905,312.002847 640.91166,311.009421 641,309.729756 L641,299.459631 C641.000396,299.07296 640.839255,298.702558 640.553203,298.432618 C640.282883,298.159883 639.910458,298.004014 639.519987,298.000192 C638.95032,297.990114 638.455578,298.377739 638.347147,298.919098 L636.057317,309.081116 Z" id="Path" fill="#FA968C" fill-rule="nonzero"></path>
                <path d="M658.324173,352 C658.964941,352.006371 659.529048,352.416675 659.722465,353.017145 C661.428381,358.294806 669.035087,382.539062 670.741003,395.623264 C672.111329,406.288537 667.720693,425.062717 665.147837,434.60099 C664.155995,438.382233 661.669465,441.617849 658.240276,443.589507 L656.53436,444.579068 C655.834535,444.98811 654.997307,445.104963 654.209295,444.903582 C653.421283,444.702201 652.747987,444.199324 652.339485,443.507043 L650.941193,441.115603 C649.881912,439.317582 649.707142,437.145029 650.465774,435.205722 C653.262358,427.646572 660.673303,407.552977 660.058055,394.221385 C659.834328,389.520968 655.219966,360.961125 654.017435,353.676853 C653.951723,353.254044 654.07836,352.824213 654.363764,352.501344 C654.649168,352.178475 655.064502,351.995191 655.499624,352 L658.324173,352 Z" id="Path" fill="#AFE6FF" fill-rule="nonzero"></path>
                <path d="M656.847655,348.055023 C657.476306,348.077441 658.019549,348.510181 658.193898,349.127423 C659.70169,354.406928 666.486756,378.852138 667.832999,391.968409 C668.936919,402.664907 664.305842,421.335657 661.640281,430.822268 C660.610051,434.581091 658.146443,437.760756 654.801365,439.648941 L653.132023,440.611351 C652.45081,441.005002 651.643847,441.104445 650.890499,440.887576 C650.137151,440.670707 649.499839,440.155497 649.120218,439.456459 L647.827825,437.036686 C646.851173,435.207187 646.732517,433.025966 647.504727,431.097243 C650.520311,423.590446 657.951574,403.599819 657.628476,390.318563 C657.628476,385.616504 653.697445,356.964189 652.72815,349.649874 C652.681997,349.228358 652.814551,348.806805 653.09238,348.491541 C653.370209,348.176278 653.766789,347.997401 654.182093,348 L656.847655,348.055023 Z" id="Path" fill="#5159BF" fill-rule="nonzero"></path>
                <path d="M653.317343,348.999726 L657.656827,348.999726 C658.010661,349.007215 658.352407,348.860756 658.605072,348.593347 C658.857737,348.325938 659,347.960071 659,347.578172 L659,342.895406 C659,342.094909 658.398641,341.445978 657.656827,341.445978 L653.756458,341 C652.85688,341.164145 652.152112,341.924665 652,342.895406 L652,347.578172 C652,348.363275 652.589795,348.999726 653.317343,348.999726 L653.317343,348.999726 Z" id="Path" fill="#5159BF" fill-rule="nonzero"></path>
                <path d="M665.038991,327 L673,328.382414 C671.868835,336.201179 669.172189,343.719931 665.067022,350.501034 C664.847009,350.813588 664.485706,351 664.099928,351 C663.71415,351 663.352847,350.813588 663.132833,350.501034 L657.526489,342.759517 C656.879272,341.870821 656.824321,340.689261 657.38633,339.745855 L665.038991,327 Z" id="Path" fill="#FFFFFF" fill-rule="nonzero"></path>
                <path d="M649.032984,331 L641,333.610941 C641.273729,339.686111 643.337156,345.552679 646.939883,350.498729 C647.161886,350.812727 647.526455,351 647.915721,351 C648.304986,351 648.669556,350.812727 648.891559,350.498729 L653.530324,343.388082 C654.089132,342.558799 654.153859,341.499432 653.700035,340.610485 L649.032984,331 Z" id="Path" fill="#FFFFFF" fill-rule="nonzero"></path>
                <path d="M664,427.60161 L664,411.39839 C664,407.649572 660.959351,404.610555 657.20852,404.610555 L652.16968,404.610555 C648.968258,404.629694 646.11268,402.60211 645.076964,399.574419 C644.282077,397.292856 643.367987,395.054539 642.338464,392.868694 C640.93606,389.988141 641.519173,386.535323 643.789869,384.274419 L647.349919,380.716279 C648.625874,379.443008 649.342867,377.714882 649.342867,375.912791 C649.342867,374.110699 648.625874,372.382573 647.349919,371.109302 L635.902989,359.668515 C634.629035,358.393245 632.89998,357.676637 631.096921,357.676637 C629.293863,357.676637 627.564808,358.393245 626.290854,359.668515 L622.730804,363.226655 C620.468685,365.496132 617.014013,366.078933 614.131913,364.677281 C611.950102,363.636501 609.709924,362.722633 607.422588,361.94025 C604.399544,360.88075 602.378009,358.025767 602.383748,354.823971 L602.383748,349.787835 C602.383748,346.039017 599.343099,343 595.592268,343 L579.407732,343 C577.60652,343 575.87908,343.715145 574.605431,344.988111 C573.331781,346.261077 572.616252,347.98759 572.616252,349.787835 L572.616252,354.823971 C572.621991,358.025767 570.600456,360.88075 567.577412,361.94025 C565.290076,362.722633 563.049898,363.636501 560.868087,364.677281 C557.976368,366.074846 554.516721,365.493059 552.241811,363.226655 L548.681761,359.668515 C547.412488,358.394902 545.687966,357.67897 543.889386,357.67897 C542.090807,357.67897 540.366284,358.394902 539.097011,359.668515 L527.650081,371.109302 C526.374126,372.382573 525.657133,374.110699 525.657133,375.912791 C525.657133,377.714882 526.374126,379.443008 527.650081,380.716279 L531.210131,384.274419 C533.465395,386.543273 534.046753,389.985693 532.661536,392.868694 C531.609026,395.04438 530.694389,397.284037 529.923036,399.574419 C528.880231,402.596813 526.029072,404.621261 522.83032,404.610555 L517.79148,404.610555 C514.040649,404.610555 511,407.649572 511,411.39839 L511,427.60161 C511.015009,431.344197 514.046884,434.374445 517.79148,434.389445 L522.83032,434.389445 C526.029072,434.378739 528.880231,436.403187 529.923036,439.425581 C530.694389,441.715963 531.609026,443.95562 532.661536,446.131306 C534.046753,449.014307 533.465395,452.456727 531.210131,454.725581 L527.650081,458.283721 C526.374126,459.556992 525.657133,461.285118 525.657133,463.087209 C525.657133,464.889301 526.374126,466.617427 527.650081,467.890698 L539.097011,479.331485 C540.366284,480.605098 542.090807,481.32103 543.889386,481.32103 C545.687966,481.32103 547.412488,480.605098 548.681761,479.331485 L552.241811,475.773345 C554.508687,473.491386 557.978867,472.907828 560.868087,474.322719 C563.049898,475.363499 565.290076,476.277367 567.577412,477.05975 C570.600456,478.11925 572.621991,480.974233 572.616252,484.176029 L572.616252,489.212165 C572.616252,492.960983 575.656901,496 579.407732,496 L595.592268,496 C599.343099,496 602.383748,492.960983 602.383748,489.212165 L602.383748,484.176029 C602.378009,480.974233 604.399544,478.11925 607.422588,477.05975 C609.709924,476.277367 611.950102,475.363499 614.131913,474.322719 C617.012753,472.912346 620.47274,473.496043 622.730804,475.773345 L626.290854,479.331485 C627.564808,480.606755 629.293863,481.323363 631.096921,481.323363 C632.89998,481.323363 634.629035,480.606755 635.902989,479.331485 L647.349919,467.890698 C648.625874,466.617427 649.342867,464.889301 649.342867,463.087209 C649.342867,461.285118 648.625874,459.556992 647.349919,458.283721 L643.789869,454.725581 C641.519173,452.464677 640.93606,449.011859 642.338464,446.131306 C643.367987,443.945461 644.282077,441.707144 645.076964,439.425581 C646.11268,436.39789 648.968258,434.370306 652.16968,434.389445 L657.20852,434.389445 C660.953116,434.374445 663.984991,431.344197 664,427.60161 L664,427.60161 Z M590.443888,456.230948 C575.040726,457.488878 560.487907,449.009641 553.993912,434.993276 C547.499917,420.976912 550.443791,404.399889 561.367336,393.473345 C572.290881,382.5468 588.874411,379.591058 602.903566,386.070193 C616.932721,392.549328 625.428316,407.087453 624.182209,422.483363 C622.726086,440.474057 608.443055,454.76101 590.443888,456.230948 L590.443888,456.230948 Z" id="Shape" fill="#6E64C3" fill-rule="nonzero"></path>
                <path d="M685.998994,429.942629 L685.998994,408.920149 C685.998994,404.039539 682.059162,400.083023 677.200448,400.083023 L670.697964,400.083023 C666.55771,400.096159 662.862981,397.475066 661.490664,393.551234 C660.479473,390.570182 659.284119,387.655404 657.911565,384.823886 C656.081305,381.081062 656.840673,376.581705 659.796739,373.653979 L664.386728,369.01586 C666.038494,367.367278 666.967341,365.124934 666.967341,362.785961 C666.967341,360.446987 666.038494,358.204643 664.386728,356.556061 L649.578549,341.681147 C646.147266,338.255149 640.605932,338.255149 637.17465,341.681147 L632.557339,346.319266 C629.628188,349.263579 625.160441,350.013397 621.437544,348.185492 C618.615598,346.834781 615.724616,345.634701 612.776671,344.590263 C608.85966,343.221084 606.237835,339.507542 606.246865,335.34147 L606.246865,328.809681 C606.231809,323.939793 602.29745,320 597.449386,320 L576.521221,320 C571.677596,320 567.751063,323.944229 567.751063,328.809681 L567.751063,335.34147 C567.818473,339.540851 565.213897,343.316292 561.275899,344.727486 C558.324234,345.762132 555.432726,346.96243 552.615027,348.322714 C548.883766,350.155166 544.405839,349.405481 541.46791,346.456489 L536.877921,341.81837 C533.437293,338.38918 527.887328,338.38918 524.4467,341.81837 L509.638521,356.693284 C506.227892,360.14003 506.227892,365.706336 509.638521,369.153082 L514.255831,373.791201 C517.180771,376.735134 517.936561,381.213289 516.141005,384.961109 C514.771023,387.797342 513.56684,390.711403 512.534585,393.688457 C511.172498,397.607998 507.487458,400.229999 503.354607,400.220245 L496.797479,400.220245 C491.938766,400.220245 488,404.176762 488,409.057371 L488,430.079851 C488,432.421087 488.927734,434.666033 490.578372,436.31896 C492.229009,437.971887 494.466759,438.896826 496.797479,438.889532 L503.299964,438.889532 C507.437312,438.892155 511.120197,441.523632 512.479942,445.448766 C513.512197,448.425819 514.71638,451.339881 516.086363,454.176114 C517.881918,457.923933 517.126128,462.402089 514.201188,465.346021 L509.583878,469.956696 C506.170073,473.412829 506.170073,478.987806 509.583878,482.443939 L524.392057,497.318853 C527.832685,500.748042 533.382651,500.748042 536.823278,497.318853 L541.413267,492.680734 C544.352758,489.737921 548.821017,488.978854 552.560384,490.787064 C555.372422,492.167961 558.264602,493.377703 561.221257,494.409737 C565.133051,495.785884 567.751821,499.4951 567.751063,503.65853 L567.751063,510.190319 C567.751063,512.526791 568.675059,514.767568 570.319782,516.419704 C571.964506,518.07184 574.19523,519 576.521221,519 L597.449386,519 C602.29745,519 606.231809,515.060207 606.246865,510.190319 L606.246865,503.65853 C606.237835,499.492458 608.85966,495.778916 612.776671,494.409737 C615.729565,493.367826 618.621177,492.158322 621.437544,490.787064 C625.168549,488.983416 629.626614,489.742612 632.557339,492.680734 L637.17465,497.318853 C640.605932,500.744851 646.147266,500.744851 649.578549,497.318853 L664.386728,482.443939 C666.040139,480.790659 666.969653,478.543775 666.969653,476.200317 C666.969653,473.856859 666.040139,471.609975 664.386728,469.956696 L659.796739,465.346021 C656.840673,462.418295 656.081305,457.918938 657.911565,454.176114 C659.284119,451.344596 660.479473,448.429818 661.490664,445.448766 C662.860637,441.519343 666.553213,438.888771 670.697964,438.889532 L677.200448,438.889532 C679.555036,438.897188 681.81379,437.95346 683.468434,436.270712 C685.123079,434.587963 686.034616,432.307552 685.998994,429.942629 L685.998994,429.942629 Z M590.864937,467.157358 C570.949598,468.760843 552.151314,457.720765 543.773733,439.501081 C535.396153,421.281397 539.216452,399.747133 553.343887,385.556031 C567.471323,371.364929 588.908975,367.527414 607.046919,375.942749 C625.184864,384.358083 636.175412,403.241084 634.57912,423.246173 C632.698538,446.67063 614.184303,465.2683 590.864937,467.157358 Z" id="Shape" fill="#827DDC" fill-rule="nonzero"></path>
                <ellipse id="Oval" stroke="#41378C" stroke-width="2.96" transform="translate(586.965862, 419.315653) rotate(-48.410000) translate(-586.965862, -419.315653) " cx="586.965862" cy="419.315653" rx="63.6853235" ry="63.6834104"></ellipse>
                <path d="M523,420 C523.060711,384.63595 551.696713,356 587,356" id="Path" stroke="#5046AF" stroke-width="2.96" stroke-linecap="round"></path>
                <path d="M588.488496,356.140591 C590.219432,354.630844 590.5031,351.995867 589.135133,350.134011 L587.518539,347.891923 C585.490765,345.392792 584.350608,342.25946 584.285351,339.006614 C584.285351,336.792206 582.911246,330.536505 580.674957,330.924027 C578.438669,331.311548 580.809673,338.951253 578.842817,338.757493 C577.95369,338.757493 574.720502,333.221474 572.349497,329.955223 C571.056222,328.156017 568.631331,327.187214 568.200239,328.8757 C567.930807,329.872183 566.96085,330.038264 565.721461,330.924027 C564.482072,331.80979 565.20954,337.373488 565.236483,338.840533 C565.263426,340.307578 564.589845,341.221021 567.364999,344.376552 C570.928334,347.553762 574.720152,350.449955 578.708101,353.040421 L582.77653,355.80843 C584.368205,357.342682 586.828185,357.402287 588.488496,355.94683 L588.488496,356.140591 Z" id="Path" fill="#FAB9AF" fill-rule="nonzero"></path>
                <path d="M586.608878,347.523479 C586.608878,347.523479 625.357199,384.53313 634.461546,387.614994 C643.565893,390.696859 669.53522,337.105139 674.197084,331.568692 C681.902872,322.404917 698.54847,331.868697 695.669084,348.805316 C692.049283,370.214731 640.82362,411.533538 634.461546,411.997181 C628.099472,412.460825 580,355.569055 580,355.569055 C581.13355,352.170365 583.486327,349.30612 586.608878,347.523479 L586.608878,347.523479 Z" id="Path" fill="#B0B0FF" fill-rule="nonzero"></path>
                <path d="M757.564143,695 L37.4358569,695 C36.2571812,695.007363 35.1246534,694.535655 34.2911876,693.690129 C33.4577219,692.844603 33,691.695688 33,690.499957 L33,690.499957 C33,688.014699 34.9860481,686 37.4358569,686 L757.564143,686 C760.013952,686 762,688.014699 762,690.499957 L762,690.499957 C762,691.695688 761.542278,692.844603 760.708812,693.690129 C759.875347,694.535655 758.742819,695.007363 757.564143,695 L757.564143,695 Z" id="Path" fill="#D2F0FF" fill-rule="nonzero"></path>
            </g>
        </g>
    </g>
</svg>