<?xml version="1.0" encoding="UTF-8"?>
<svg width="144px" height="211px" viewBox="0 0 144 211" version="1.1" xmlns="http://www.w3.org/2000/svg" xmlns:xlink="http://www.w3.org/1999/xlink">
    <!-- Generator: Sketch 58 (84663) - https://sketch.com -->
    <title>Path Copy</title>
    <desc>Created with Sketch.</desc>
    <g id="Web-PC" stroke="none" stroke-width="1" fill="none" fill-rule="evenodd" opacity="0.432012649">
        <g id="Home" transform="translate(0.000000, -4323.000000)" fill="#BAB3FF" fill-rule="nonzero">
            <path d="M72.4183302,4335.97985 C99.6684558,4344.07516 127.552305,4366.32131 138.5791,4396.4078 C149.605895,4426.49428 143.775636,4464.42111 121.405184,4482.84271 C99.0981043,4501.26431 60.2508323,4500.11694 25.6495101,4514.45902 C-9.01518448,4528.80109 -24.3663878,4537.38218 -44.5188062,4532.72897 C-64.734597,4528.01202 -89.751603,4509.93329 -105.784816,4476.85091 C-121.81803,4443.70478 -143.87162,4416.61419 -144,4389.26863 C-144.125109,4361.92307 -122.325009,4334.32254 -96.0254691,4326.03601 C-69.7259293,4317.74948 -38.8635778,4328.77694 -10.1558874,4331.32664 C18.551803,4333.8126 45.1682047,4327.8208 72.4183302,4335.97985 Z" id="Path-Copy" transform="translate(0.000000, 4428.500000) rotate(180.000000) translate(-0.000000, -4428.500000) "></path>
        </g>
    </g>
</svg>