<?xml version="1.0" encoding="UTF-8"?>
<svg width="187px" height="313px" viewBox="0 0 187 313" version="1.1" xmlns="http://www.w3.org/2000/svg" xmlns:xlink="http://www.w3.org/1999/xlink">
    <!-- Generator: Sketch 58 (84663) - https://sketch.com -->
    <title>Group 2</title>
    <desc>Created with Sketch.</desc>
    <g id="Web-PC" stroke="none" stroke-width="1" fill="none" fill-rule="evenodd">
        <g id="Home" transform="translate(-1729.000000, -2621.000000)" fill="#C7E3FF">
            <g id="Group-2" transform="translate(1729.000000, 2621.000000)">
                <circle id="Oval" cx="9.5" cy="9.5" r="9.5"></circle>
                <circle id="Oval-Copy-32" cx="9.5" cy="177.5" r="9.5"></circle>
                <circle id="Oval-Copy-16" cx="177.5" cy="9.5" r="9.5"></circle>
                <circle id="Oval-Copy-33" cx="177.5" cy="177.5" r="9.5"></circle>
                <circle id="Oval-Copy-4" cx="9.5" cy="51.5" r="9.5"></circle>
                <circle id="Oval-Copy-34" cx="9.5" cy="219.5" r="9.5"></circle>
                <circle id="Oval-Copy-17" cx="177.5" cy="51.5" r="9.5"></circle>
                <circle id="Oval-Copy-35" cx="177.5" cy="219.5" r="9.5"></circle>
                <circle id="Oval-Copy" cx="51.5" cy="9.5" r="9.5"></circle>
                <circle id="Oval-Copy-36" cx="51.5" cy="177.5" r="9.5"></circle>
                <circle id="Oval-Copy-5" cx="51.5" cy="51.5" r="9.5"></circle>
                <circle id="Oval-Copy-38" cx="51.5" cy="219.5" r="9.5"></circle>
                <circle id="Oval-Copy-2" cx="93.5" cy="9.5" r="9.5"></circle>
                <circle id="Oval-Copy-40" cx="93.5" cy="177.5" r="9.5"></circle>
                <circle id="Oval-Copy-6" cx="93.5" cy="51.5" r="9.5"></circle>
                <circle id="Oval-Copy-42" cx="93.5" cy="219.5" r="9.5"></circle>
                <circle id="Oval-Copy-3" cx="135.5" cy="9.5" r="9.5"></circle>
                <circle id="Oval-Copy-44" cx="135.5" cy="177.5" r="9.5"></circle>
                <circle id="Oval-Copy-7" cx="135.5" cy="51.5" r="9.5"></circle>
                <circle id="Oval-Copy-46" cx="135.5" cy="219.5" r="9.5"></circle>
                <circle id="Oval-Copy-11" cx="9.5" cy="93.5" r="9.5"></circle>
                <circle id="Oval-Copy-48" cx="9.5" cy="261.5" r="9.5"></circle>
                <circle id="Oval-Copy-24" cx="177.5" cy="93.5" r="9.5"></circle>
                <circle id="Oval-Copy-49" cx="177.5" cy="261.5" r="9.5"></circle>
                <circle id="Oval-Copy-10" cx="51.5" cy="93.5" r="9.5"></circle>
                <circle id="Oval-Copy-50" cx="51.5" cy="261.5" r="9.5"></circle>
                <circle id="Oval-Copy-9" cx="93.5" cy="93.5" r="9.5"></circle>
                <circle id="Oval-Copy-52" cx="93.5" cy="261.5" r="9.5"></circle>
                <circle id="Oval-Copy-8" cx="135.5" cy="93.5" r="9.5"></circle>
                <circle id="Oval-Copy-54" cx="135.5" cy="261.5" r="9.5"></circle>
                <circle id="Oval-Copy-15" cx="9.5" cy="135.5" r="9.5"></circle>
                <circle id="Oval-Copy-56" cx="9.5" cy="303.5" r="9.5"></circle>
                <circle id="Oval-Copy-28" cx="177.5" cy="135.5" r="9.5"></circle>
                <circle id="Oval-Copy-57" cx="177.5" cy="303.5" r="9.5"></circle>
                <circle id="Oval-Copy-14" cx="51.5" cy="135.5" r="9.5"></circle>
                <circle id="Oval-Copy-58" cx="51.5" cy="303.5" r="9.5"></circle>
                <circle id="Oval-Copy-13" cx="93.5" cy="135.5" r="9.5"></circle>
                <circle id="Oval-Copy-60" cx="93.5" cy="303.5" r="9.5"></circle>
                <circle id="Oval-Copy-12" cx="135.5" cy="135.5" r="9.5"></circle>
                <circle id="Oval-Copy-62" cx="135.5" cy="303.5" r="9.5"></circle>
            </g>
        </g>
    </g>
</svg>