<?xml version="1.0" encoding="UTF-8"?>
<svg width="64px" height="219px" viewBox="0 0 64 219" version="1.1" xmlns="http://www.w3.org/2000/svg" xmlns:xlink="http://www.w3.org/1999/xlink">
    <!-- Generator: Sketch 58 (84663) - https://sketch.com -->
    <title>Path</title>
    <desc>Created with Sketch.</desc>
    <g id="Web-PC" stroke="none" stroke-width="1" fill="none" fill-rule="evenodd">
        <g id="Home" transform="translate(0.000000, -1310.000000)" fill="#B3C2FF" fill-rule="nonzero">
            <path d="M-22.7740649,1291.05995 C12.8468961,1322.2751 49.8686814,1350.58885 60.5749814,1387.10658 C71.2812815,1423.6243 55.7721552,1468.44606 29.5567289,1500.76175 C3.44136141,1532.97739 -33.3803061,1552.88705 -69.8017382,1560.29065 C-106.323229,1567.69424 -142.344426,1562.69181 -186.770568,1556.78895 C-231.19671,1550.98613 -283.92774,1544.38292 -305.640516,1515.46889 C-327.253234,1486.6549 -317.8477,1435.63013 -297.935983,1397.51163 C-278.124325,1359.29307 -247.906543,1333.88074 -217.688762,1301.76515 C-187.47098,1269.54951 -157.253199,1230.53057 -125.034239,1228.1294 C-92.7152215,1225.62819 -58.3950259,1259.8448 -22.7740649,1291.05995 Z" id="Path"></path>
        </g>
    </g>
</svg>