<?xml version="1.0" encoding="UTF-8"?>
<svg width="69px" height="59px" viewBox="0 0 69 59" version="1.1" xmlns="http://www.w3.org/2000/svg" xmlns:xlink="http://www.w3.org/1999/xlink">
    <!-- Generator: Sketch 59 (86127) - https://sketch.com -->
    <title>icon4</title>
    <desc>Created with Sketch.</desc>
    <g id="Web-PC" stroke="none" stroke-width="1" fill="none" fill-rule="evenodd">
        <g id="Home" transform="translate(-777.000000, -1098.000000)" fill="#829AE0" fill-rule="nonzero">
            <g id="Icon4" transform="translate(684.000000, 1019.000000)">
                <g id="Chat" transform="translate(83.000000, 65.000000)">
                    <path d="M72.4841388,24.6130954 C75.9431399,24.6130954 78.7631287,27.4330842 78.7631287,30.8920852 L78.7631287,30.8920852 L78.7631287,55.8691288 C78.7631287,59.3281299 75.9431399,62.1481186 72.4841388,62.1481186 L72.4841388,62.1481186 L70.6921263,62.1481186 L70.6921263,69.6773498 C70.6921263,70.7470007 70.053114,71.6638444 69.052921,72.0389168 C68.761198,72.1500493 68.4555834,72.2056156 68.1638605,72.2056156 C67.4553904,72.2056156 66.7608118,71.9000011 66.2746069,71.3304467 L66.2746069,71.3304467 L58.3286286,62.1759018 L33.546067,62.1759018 C32.6014402,62.1759018 31.8374039,61.4118654 31.8374039,60.4672386 C31.8374039,59.5226118 32.6014402,58.7585755 33.546067,58.7585755 L33.546067,58.7585755 L59.1065566,58.7585755 C59.6066531,58.7585755 60.0789665,58.966949 60.3984726,59.3420214 L60.3984726,59.3420214 L67.2886915,67.3018913 L67.2886915,60.4533471 C67.2886915,59.5087203 68.0527279,58.7446839 68.9973547,58.7446839 L68.9973547,58.7446839 L72.4841388,58.7446839 C74.0677779,58.7446839 75.3596939,57.4527678 75.3596939,55.8691288 L75.3596939,55.8691288 L75.3596939,30.8920852 C75.3596939,29.3084462 74.0677779,28.0165302 72.4841388,28.0165302 C71.5395121,28.0165302 70.7754757,27.2524938 70.7754757,26.307867 C70.7754757,25.3771318 71.5395121,24.6130954 72.4841388,24.6130954 Z M59.3149301,14.3333333 C62.7739311,14.3333333 65.5939199,17.1533221 65.5939199,20.6123232 L65.5939199,20.6123232 L65.5939199,45.5893667 C65.5939199,49.0483678 62.7739311,51.8683565 59.3288217,51.854465 L59.3288217,51.854465 L31.1845001,51.854465 L23.2524134,61.036793 C22.7662084,61.5924558 22.0716299,61.9119619 21.3492682,61.9119619 L21.3492682,61.9119619 L21.1822902,61.906616 C19.8580026,61.8215223 18.8210024,60.7311785 18.8210024,59.3975877 L18.8210024,59.3975877 L18.8210024,51.8683565 L17.0289898,51.8683565 C13.5699888,51.8683565 10.75,49.0483678 10.75,45.5893667 L10.75,45.5893667 L10.75,20.6123232 C10.75,17.1533221 13.5699888,14.3333333 17.0289898,14.3333333 L17.0289898,14.3333333 Z M59.3149301,17.7367681 L17.0289898,17.7367681 C15.4453508,17.7367681 14.1534347,19.0286841 14.1534347,20.6123232 L14.1534347,20.6123232 L14.1534347,45.5754752 C14.1534347,47.1591142 15.4453508,48.4510302 17.0289898,48.4510302 L17.0289898,48.4510302 L20.5018824,48.4510302 C21.4465092,48.4510302 22.2105456,49.2150666 22.2105456,50.1596934 L22.2105456,50.1596934 L22.2105456,57.0082376 L29.1007645,49.0483678 C29.4341622,48.6732954 29.892584,48.4649218 30.3926805,48.4649218 L30.3926805,48.4649218 L59.3149301,48.4649218 C60.8985691,48.4649218 62.1904852,47.1730058 62.1904852,45.5893667 L62.1904852,45.5893667 L62.1904852,20.6123232 C62.1904852,19.0286841 60.8985691,17.7367681 59.3149301,17.7367681 L59.3149301,17.7367681 Z M38.17196,31.6700132 C39.2920869,31.6700132 40.2001292,32.5780555 40.2001292,33.6981825 C40.2001292,34.8183094 39.2920869,35.7263517 38.17196,35.7263517 C37.051833,35.7263517 36.1437907,34.8183094 36.1437907,33.6981825 C36.1437907,32.5780555 37.051833,31.6700132 38.17196,31.6700132 Z M44.9649379,31.6700132 C46.0850649,31.6700132 46.9931072,32.5780555 46.9931072,33.6981825 C46.9931072,34.8183094 46.0850649,35.7263517 44.9649379,35.7263517 C43.8448109,35.7263517 42.9367686,34.8183094 42.9367686,33.6981825 C42.9367686,32.5780555 43.8448109,31.6700132 44.9649379,31.6700132 Z M31.378982,31.6700132 C32.499109,31.6700132 33.4071513,32.5780555 33.4071513,33.6981825 C33.4071513,34.8183094 32.499109,35.7263517 31.378982,35.7263517 C30.2588551,35.7263517 29.3508128,34.8183094 29.3508128,33.6981825 C29.3508128,32.5780555 30.2588551,31.6700132 31.378982,31.6700132 Z" id="icon4"></path>
                </g>
            </g>
        </g>
    </g>
</svg>