<?xml version="1.0" encoding="UTF-8"?>
<svg width="72px" height="72px" viewBox="0 0 72 72" version="1.1" xmlns="http://www.w3.org/2000/svg" xmlns:xlink="http://www.w3.org/1999/xlink">
    <!-- Generator: Sketch 59 (86127) - https://sketch.com -->
    <title>icon2</title>
    <desc>Created with Sketch.</desc>
    <g id="Web-PC" stroke="none" stroke-width="1" fill="none" fill-rule="evenodd">
        <g id="Home" transform="translate(-1367.000000, -1091.000000)" fill="#74D4C6" fill-rule="nonzero">
            <g id="Icon2" transform="translate(1277.000000, 1019.000000)">
                <g id="Cup" transform="translate(83.000000, 65.000000)">
                    <path d="M76.733724,12.3391418 L67.5369975,12.3391418 C67.5703506,11.3205032 67.588941,10.2958502 67.588941,9.26627604 C67.588941,8.10656996 66.6484909,7.16666667 65.4893316,7.16666667 L20.5106684,7.16666667 C19.3515091,7.16666667 18.411059,8.10656996 18.411059,9.26627604 C18.411059,10.2958502 18.4296494,11.3205032 18.4630025,12.3391418 L9.26627604,12.3391418 C8.10656996,12.3391418 7.16666667,13.2790451 7.16666667,14.4387512 C7.16666667,23.8465321 9.62550605,32.7223028 14.0899099,39.4317575 C18.5029169,46.0646642 24.3812764,49.8691127 30.7315012,50.2392782 C32.1711553,51.8057836 33.6928252,53.0830459 35.277921,54.057396 L35.277921,63.3891753 L31.7556076,63.3891753 C27.4973374,63.3891753 24.0335286,66.8535308 24.0335286,71.1112543 L24.0335286,74.6335678 L23.8842596,74.6335678 C22.7245535,74.6335678 21.7846502,75.5740179 21.7846502,76.7331772 C21.7846502,77.8928833 22.7245535,78.8327866 23.8842596,78.8327866 L62.1157404,78.8327866 C63.2754465,78.8327866 64.2153498,77.8928833 64.2153498,76.7331772 C64.2153498,75.5740179 63.2754465,74.6335678 62.1157404,74.6335678 L61.9664714,74.6335678 L61.9664714,71.1112543 C61.9664714,66.8535308 58.5026626,63.3891753 54.2443924,63.3891753 L50.722079,63.3891753 L50.722079,54.057396 C52.3071748,53.0835927 53.8293915,51.8057836 55.2690455,50.2392782 C61.6187236,49.8691127 67.4970831,46.0646642 71.9106369,39.4317575 C76.3750407,32.7223028 78.8333333,23.8465321 78.8333333,14.4387512 C78.8333333,13.2790451 77.89343,12.3391418 76.733724,12.3391418 Z M17.5859782,37.1057841 C13.9034601,31.5718918 11.7398783,24.3337071 11.410174,16.5383606 L18.6975682,16.5383606 C19.4548492,26.1211089 21.7042745,34.978836 25.2200266,42.0097936 C25.7799224,43.1295852 26.3655166,44.1875916 26.9729818,45.1838124 C23.4807408,43.8649954 20.2487641,41.1081645 17.5859782,37.1057841 Z M57.7672526,71.1112543 L57.7672526,74.6341146 L28.2327474,74.6341146 L28.2327474,71.1112543 C28.2327474,69.1691157 29.8129221,67.5883941 31.7556076,67.5883941 L54.2443924,67.5883941 C56.1870779,67.5883941 57.7672526,69.1691157 57.7672526,71.1112543 Z M46.5228602,63.3891753 L39.4771398,63.3891753 L39.4771398,55.8819784 C40.6313782,56.1859843 41.8074875,56.3440017 43,56.3440017 C44.1925125,56.3440017 45.3686218,56.1859843 46.5228602,55.8819784 L46.5228602,63.3891753 Z M47.823087,50.8866577 C47.7284953,50.9254787 47.6377308,50.9725011 47.550794,51.0244446 C46.0668513,51.7625884 44.5419006,52.144783 43,52.144783 C41.4586461,52.144783 39.9342422,51.7625884 38.4508464,51.0255382 C38.3628159,50.9725011 38.2715047,50.9254787 38.1758194,50.8855642 C36.5294851,50.0151012 34.9367345,48.7006581 33.4303741,46.9734014 C33.351092,46.8602193 33.261968,46.7557856 33.163002,46.6606471 C31.667577,44.8852743 30.2607294,42.7014619 28.9758123,40.1316273 C25.1172333,32.4150161 22.8885853,22.2685445 22.6348825,11.3658854 L63.3651175,11.3658854 C63.1108678,22.2685445 60.8822199,32.4155629 57.0241877,40.1316273 C55.7392706,42.7014619 54.332423,44.8852743 52.8375448,46.6606471 C52.738032,46.7557856 52.6478144,46.8607661 52.569079,46.9739482 C51.0627186,48.7017517 49.4694214,50.0156479 47.823087,50.8866577 Z M68.4140218,37.1057841 C65.7512359,41.1081645 62.5192592,43.8649954 59.0270182,45.1838124 C59.6344834,44.1875916 60.2200776,43.1295852 60.7799734,42.0097936 C64.2957255,34.978836 66.5446039,26.1211089 67.3024318,16.5383606 L74.589826,16.5383606 C74.2601217,24.3337071 72.0965399,31.5718918 68.4140218,37.1057841 Z" id="icon2"></path>
                </g>
            </g>
        </g>
    </g>
</svg>