<svg xmlns="http://www.w3.org/2000/svg" viewBox="0 0 241 195"><defs><style>.cls-1{fill:#b77649;}.cls-1,.cls-10,.cls-11,.cls-12,.cls-13,.cls-2,.cls-3,.cls-4,.cls-5,.cls-6,.cls-7,.cls-8,.cls-9{fill-rule:evenodd;}.cls-2{fill:#f8b1e4;}.cls-3{fill:#f8a4e0;}.cls-4{fill:#353460;}.cls-5{fill:#9da1f1;}.cls-6{fill:#ffd04f;}.cls-7{fill:#8e93f1;}.cls-8{fill:#ccd7f0;}.cls-9{fill:#470ca7;}.cls-10{fill:#653ce9;}.cls-11{fill:#5232e2;}.cls-12{fill:#152244;}.cls-13{fill:#5852f9;}</style></defs><title>Asset 1</title><g id="Layer_2" data-name="Layer 2"><g id="Layer_1-2" data-name="Layer 1"><path id="Fill-152" class="cls-1" d="M113,24.56s9.74-5.45,13.11-7.72S143.29-.3,144,0s-5.27,6.9-5.27,6.9,4.32,5.42,3.79,6-9.38,6.42-11.69,6.38S117.34,30,117.34,30Z"/><path id="Fill-154" class="cls-2" d="M76.33,55.56A136.08,136.08,0,0,0,121,27.41L115.73,21S92,41.79,76,36.22c0,0-25,23.24.29,19.34"/><path id="Fill-156" class="cls-1" d="M117,29.62l.3.38s3.27-3.1,6.7-6c-2.38,1.81-4.68,3.73-7,5.62"/><path id="Fill-158" class="cls-3" d="M103,39.14C94.38,43,87.76,42.93,80.59,37.86A16.64,16.64,0,0,1,76,37s-25,23.56.29,19.6A135.67,135.67,0,0,0,121,28l-.82-1c-5.42,4.51-10.7,9.24-17.16,12.14"/><polygon id="Fill-160" class="cls-4" points="160 135.57 167.6 146 183 135.83 170.48 138.52 165.23 131 160 135.57"/><path id="Fill-162" class="cls-5" d="M89,100.34,57.72,91.53a14.27,14.27,0,0,0-15.39,5.35L0,155l44.81-38.3a9.47,9.47,0,0,1,10.95-1l8.44,5Z"/><path id="Fill-164" class="cls-6" d="M64.1,165.35C54.74,171.76,5,181,5,181s26.38-43,35.74-49.38a20.64,20.64,0,0,1,28.62,5.24,20.43,20.43,0,0,1-5.26,28.49"/><path id="Fill-166" class="cls-5" d="M110,131l-3,32.46A14.37,14.37,0,0,1,96.54,176L27,195l51.87-28.39a9.52,9.52,0,0,0,4.83-9.92L82.07,147Z"/><path id="Fill-168" class="cls-7" d="M79.19,166.58,73,170a32.77,32.77,0,0,0,6.3-2.94c6-3.64,9.83-9.63,15.7-13.44,3.92-2.54,8.73-4.82,13.43-5.19L110,131,82.36,147l1.6,9.67a9.53,9.53,0,0,1-4.77,9.91"/><path id="Fill-170" class="cls-8" d="M241,19.34c-49-9-100.89,30.49-100.89,30.49l-96.06,76.7,0,1.37A36.79,36.79,0,0,0,69.84,164l106.78-61.13S232,68.41,241,19.34"/><path id="Fill-172" class="cls-5" d="M192.63,90C209.68,75.78,234.25,50.53,240,19.34c-31.24-5.74-63.62,8.19-83,19A65.33,65.33,0,0,0,192.63,90"/><path id="Fill-174" class="cls-9" d="M164.25,35c-2.57,1.29-5,2.57-7.25,3.81h0A64.8,64.8,0,0,0,192.81,90c2-1.62,4.06-3.41,6.19-5.31A64.76,64.76,0,0,1,164.25,35"/><path id="Fill-176" class="cls-5" d="M97.75,118.36s-7.88-8.14-37.5,15.4C48,143.5,14,176,14,176s42.51-20.15,56-28.12c32.57-19.27,27.76-29.52,27.76-29.52"/><path id="Fill-178" class="cls-9" d="M144.51,104.35a15,15,0,1,1,3.84-20.86,15,15,0,0,1-3.84,20.86"/><path id="Fill-180" class="cls-10" d="M142.81,101.88a12,12,0,1,1,3.07-16.69,12,12,0,0,1-3.07,16.69"/><path id="Fill-182" class="cls-1" d="M64.57,24.12c0,3.41-1.51,9,.43,11.82s4.22-.74,7.33-2.23c-.58-1.4,1.78-6.61,3.15-7.27a4.11,4.11,0,0,1,1.36-.27,3.32,3.32,0,0,0,.44-.06c2.36-.39,3.74-2.81,4.47-5.05a25.58,25.58,0,0,0,1-11.46l-.34-.38L80.2,6.76c-2.4-1.11-5.22-.83-7.79-.25s-5.51,1.65-7.13,3.86c-1.49,2-.69,11.25-.71,13.75"/><path id="Fill-184" class="cls-2" d="M91.62,70.84A19.65,19.65,0,0,1,93,74.52a.31.31,0,0,1,0,.18c-2.41,4.58-6.92,6.75-11.57,7.68a40,40,0,0,1-12,.31c-.1-.17-.19-.36-.29-.53-.24-1.57-1.57-3.42-2.11-5A146.44,146.44,0,0,1,60.47,53.6c-1.38-8.14-3.29-18.54,2.29-25.6l1.63.56.06,0,3.62,1.24L73,31.53c.78,5.55,13.84,11,16.72,15.72,1.39,2.27.31,5.45-.24,7.81a22.52,22.52,0,0,0-.74,4.21c-.18,3.95,1.65,7.88,2.87,11.57"/><path id="Fill-186" class="cls-11" d="M163.12,135.62c1.61-1,3.24-2,4.88-2.93-2.26-2.14-3.77-5-5.3-7.77a141.9,141.9,0,0,1-7.94-17.11c-2.22-5.81-4.23-11.7-6.57-17.47a56.06,56.06,0,0,0-5.59-11A11.21,11.21,0,0,0,136.31,76c-8.86-1.26-26.12,1.94-32.19,1.66a28,28,0,0,1-11.43-3.54L92.51,74s-3.8,2.69-12.44,5.19a93.34,93.34,0,0,1-11,2.47.08.08,0,0,0,0,.06s0,0,0,0c-.48,1,4.79,15,5.39,15.78,4,5.55,9.78,7.39,16.41,6.38a112.44,112.44,0,0,0,22.82-6.59c6.25-2.44,15-7.91,20.69-1.39,4,4.66,4.92,11.08,7.54,16.47a71.2,71.2,0,0,0,13.66,19.12l5.51,5.51c.69-.47,1.38-.94,2.07-1.38"/><path id="Fill-188" class="cls-12" d="M63.53,34.35c3.66-2.75,5.64-3.19,5.11-9.16s-2.81-9.08,1.12-9.31,3.25,2.84,7.6.36,8.14,1.43,10-2.2.22-16-14-13.78S56.43,9.85,56.16,13.89s-6.37,6.78-7.74,10.34c-1.15,3,.13,12.56-2.76,16.13-3.22,4-4.76,14.31,2.79,17.63,7.91,3.49,14.73-2.61,13.07-10.07a20.13,20.13,0,0,1,2-13.57"/><path id="Fill-190" class="cls-13" d="M136.46,76.28a44.58,44.58,0,0,0-7.42-.23,9.16,9.16,0,0,0,7.64,9.8A9.54,9.54,0,0,0,145,83.34a37.32,37.32,0,0,0-2.37-3.86,11.1,11.1,0,0,0-6.17-3.2"/><path id="Fill-192" class="cls-13" d="M88.25,79S91.33,86.71,85,90"/><path id="Fill-194" class="cls-1" d="M116.81,59s11,3.11,15.06,3.92c3.24.64,11.64,1.46,14.94,1.77a1.33,1.33,0,0,1,1.18,1.5c-.29,2.07-.87,5.76-1.48,5.81-.84.07-11.42-2.16-13.06-3.86s-17.45-2-17.45-2Z"/><path id="Fill-196" class="cls-2" d="M69.63,55.68A137.88,137.88,0,0,0,121.17,67l.83-8.11S90.5,57,83.16,42c0,0-34.18-1.15-13.53,13.66"/><path id="Fill-198" class="cls-1" d="M138.72,64s5.45-1,5.28-1.79-5.24.75-7.24.53a13.71,13.71,0,0,0-4.76.74Z"/><path id="Fill-200" class="cls-3" d="M89.15,62.76,90,66c-6.89-.87-20-10-20-10l18.87,6.61Z"/></g></g></svg>