<?xml version="1.0" encoding="UTF-8"?>
<svg width="16px" height="29px" viewBox="0 0 16 29" version="1.1" xmlns="http://www.w3.org/2000/svg" xmlns:xlink="http://www.w3.org/1999/xlink">
    <!-- Generator: Sketch 58 (84663) - https://sketch.com -->
    <title>icon / social / facebook</title>
    <desc>Created with Sketch.</desc>
    <g id="Web-PC" stroke="none" stroke-width="1" fill="none" fill-rule="evenodd">
        <g id="Home" transform="translate(-1554.000000, -5200.000000)">
            <g id="icon-/-social-/-facebook" transform="translate(1540.000000, 5193.000000)">
                <rect id="Background" x="0" y="0" width="44" height="44"></rect>
                <path d="M28.966745,7.33920775 L25.4025909,7.33333333 C21.3983859,7.33333333 18.8106928,10.0605318 18.8106928,14.2815948 L18.8106928,17.4852085 L15.2270952,17.4852085 C14.9174299,17.4852085 14.6666667,17.7430955 14.6666667,18.0611952 L14.6666667,22.7028665 C14.6666667,23.0209662 14.9177158,23.2785594 15.2270952,23.2785594 L18.8106928,23.2785594 L18.8106928,34.9909737 C18.8106928,35.3090734 19.061456,35.5666667 19.3711214,35.5666667 L24.0466969,35.5666667 C24.3563622,35.5666667 24.6071254,35.3087797 24.6071254,34.9909737 L24.6071254,23.2785594 L28.7971868,23.2785594 C29.1068522,23.2785594 29.3576154,23.0209662 29.3576154,22.7028665 L29.359331,18.0611952 C29.359331,17.9084603 29.3001428,17.7621873 29.1952054,17.654098 C29.0902681,17.5460088 28.9473016,17.4852085 28.7986164,17.4852085 L24.6071254,17.4852085 L24.6071254,14.7694652 C24.6071254,13.4641695 24.9099284,12.8015352 26.5651942,12.8015352 L28.9661732,12.800654 C29.2755526,12.800654 29.5263158,12.5427671 29.5263158,12.2249611 L29.5263158,7.9149007 C29.5263158,7.59738842 29.2758385,7.33979519 28.966745,7.33920775 Z" id="Path" fill="#FFFFFF" fill-rule="nonzero"></path>
            </g>
        </g>
    </g>
</svg>