<?xml version="1.0" encoding="UTF-8"?>
<svg width="34px" height="26px" viewBox="0 0 34 26" version="1.1" xmlns="http://www.w3.org/2000/svg" xmlns:xlink="http://www.w3.org/1999/xlink">
    <!-- Generator: Sketch 58 (84663) - https://sketch.com -->
    <title>icon / social / facebook copy</title>
    <desc>Created with Sketch.</desc>
    <g id="Web-PC" stroke="none" stroke-width="1" fill="none" fill-rule="evenodd">
        <g id="Home" transform="translate(-1743.000000, -5202.000000)">
            <g id="icon-/-social-/-facebook-copy" transform="translate(1738.000000, 5193.000000)">
                <rect id="Background" x="0" y="0" width="44" height="44"></rect>
                <path d="M38.5,18.3333333 L38.5,32.0656645 C38.5,32.827202 38.211749,33.4781224 37.6345375,34.0202431 C37.0575194,34.5623639 36.3638207,34.8333333 35.5536993,34.8333333 L35.5536993,34.8333333 L8.44649422,34.8333333 C7.63617929,34.8333333 6.94241606,34.5623639 6.36546253,34.0202431 C5.78838001,33.4783042 5.5,32.8271414 5.5,32.0656645 L5.5,32.0656645 L5.5,18.3333333 C6.04018846,18.8982317 6.66016356,19.400128 7.3601188,19.8379924 C11.8042412,22.6743577 14.8549676,24.6636481 16.512427,25.805076 C17.2121243,26.2891621 17.7799833,26.6670534 18.2156815,26.9378411 C18.6515088,27.2088106 19.2316873,27.4855351 19.9558946,27.7678934 C20.6801019,28.0506758 21.3554181,28.1916429 21.9815207,28.1916429 L21.9815207,28.1916429 L22.0188018,28.1916429 C22.6450334,28.1916429 23.3199626,28.0506758 24.0441699,27.7678934 C24.7686352,27.4855351 25.3484267,27.2088106 25.784383,26.9378411 C26.2203392,26.6670534 26.7880047,26.2891621 27.4877665,25.805076 C29.5745387,24.3866813 32.6318441,22.3975121 36.6581992,19.8379924 C37.358348,19.3884363 37.9720021,18.88654 38.5,18.3333333 L38.5,18.3333333 Z M35.5535,9.16666667 C36.351239,9.16666667 37.0419076,9.45506077 37.6250542,10.0321715 C38.2082654,10.6091532 38.5,11.3028858 38.5,12.1133049 C38.5,13.0831115 38.1993644,14.0100879 37.5974481,14.8937182 C36.9959834,15.7777354 36.2472646,16.5329397 35.3510983,17.1588149 C30.7352031,20.3633371 27.8621688,22.3584877 26.7328986,23.1440729 C26.6101547,23.2301848 26.3490577,23.4171153 25.9501882,23.7058964 C25.5510607,23.994613 25.2197875,24.2279213 24.955788,24.4058858 C24.6917885,24.5837213 24.3726413,24.7831009 23.9982819,25.0042826 C23.6241161,25.2248193 23.2707837,25.3910442 22.939446,25.5009578 C22.6079148,25.6117099 22.3008936,25.6666667 22.0185761,25.6666667 L22.0185761,25.6666667 L21.9814884,25.6666667 C21.6991709,25.6666667 21.3922787,25.6117744 21.0607475,25.5009578 C20.7292808,25.3910442 20.3762709,25.2250128 20.0017826,25.0042826 C19.6271652,24.7833589 19.308018,24.5837858 19.0440185,24.4058858 C18.7802125,24.2279213 18.4486813,23.994613 18.0496828,23.7058964 C17.6507488,23.4173733 17.3899743,23.2301848 17.2672304,23.1440729 C16.1500217,22.3584877 14.5417727,21.2383239 12.4424189,19.7835173 C10.3431296,18.3287106 9.08479436,17.4537883 8.66734881,17.1592019 C7.90631047,16.6436273 7.18790679,15.9345429 6.51284728,15.0321422 C5.83772326,14.129806 5.5,13.2916505 5.5,12.5181919 C5.5,11.5606409 5.75471145,10.7626065 6.26413435,10.1241532 C6.77362175,9.48582883 7.50105546,9.16666667 8.44630648,9.16666667 L8.44630648,9.16666667 Z" id="Combined-Shape" fill="#FFFFFF" fill-rule="nonzero"></path>
            </g>
        </g>
    </g>
</svg>