<?xml version="1.0" encoding="utf-8"?>
<!-- Generator: Adobe Illustrator 23.0.2, SVG Export Plug-In . SVG Version: 6.00 Build 0)  -->
<svg version="1.1" id="Layer_1" xmlns="http://www.w3.org/2000/svg" xmlns:xlink="http://www.w3.org/1999/xlink" x="0px" y="0px"
	 viewBox="0 0 1920 564" style="enable-background:new 0 0 1920 564;" xml:space="preserve">
<style type="text/css">
	.st0{fill-rule:evenodd;clip-rule:evenodd;fill:#152244;}
	.st1{fill-rule:evenodd;clip-rule:evenodd;fill:#FFD04F;}
	.st2{fill-rule:evenodd;clip-rule:evenodd;fill:#FEFEFE;}
	.st3{filter:url(#Adobe_OpacityMaskFilter);}
	.st4{fill-rule:evenodd;clip-rule:evenodd;fill:#FFFFFF;}
	.st5{mask:url(#mask-2_1_);fill-rule:evenodd;clip-rule:evenodd;fill:#FEFEFE;}
	.st6{fill:none;stroke:#FEFEFE;stroke-width:2;}
	.st7{fill-rule:evenodd;clip-rule:evenodd;fill:#E5A8A1;}
	.st8{fill-rule:evenodd;clip-rule:evenodd;fill:#E58277;}
	.st9{fill-rule:evenodd;clip-rule:evenodd;fill:#6233F9;}
	.st10{fill-rule:evenodd;clip-rule:evenodd;fill:#470CA7;}
	.st11{fill-rule:evenodd;clip-rule:evenodd;fill:#CCD7F0;}
	.st12{fill:none;stroke:#FEFEFE;stroke-width:0.5;}
	.st13{fill-rule:evenodd;clip-rule:evenodd;fill:#9DA1F1;}
	.st14{filter:url(#Adobe_OpacityMaskFilter_1_);}
	.st15{mask:url(#mask-4_1_);fill-rule:evenodd;clip-rule:evenodd;fill:#FFD04F;}
	.st16{fill-rule:evenodd;clip-rule:evenodd;fill:#7278D8;}
	.st17{fill:none;stroke:#470CA7;stroke-width:0.75;}
	.st18{fill:none;stroke:#FDFDFD;stroke-width:0.75;}
	.st19{fill:none;stroke:#5232E2;}
</style>
<title>Group</title>
<desc>Created with Sketch.</desc>
<g id="Web-PC">
	<g id="Courses" transform="translate(0.000000, -3063.000000)">
		<g id="Group" transform="translate(0.000000, 3063.000000)">
			<path id="Rectangle" class="st0" d="M0,297c399.4,99.3,713.1,129,941.3,89s554.4-36.7,978.7,10v168H0V297z"/>
			<g id="Group-237" transform="translate(718.000000, 0.000000)">
				<path id="Fill-1" class="st0" d="M926.3,331.5c-21.1-3.6-67.3-3.8-75.3-8.5c-17.1-10,0.9-38.9,11.7-55.2
					c13-19.6,62.6-85.2,89.1-116.1c-4.2-4.5-8.4-9-12.5-13.6c-26.2,29.5-60.2,55.4-71.8,66.1c-20.6,18.9-41.3,32.5-70.1,30.8
					c-27.9-1.6-52.4-17.6-78.9-24.6c-26.2-7-54.3-4.6-80.4,2.4c-70.2,18.9-128.5,62.5-203.1,28.6c-5.7-2.6-17-13.4-34.5-14.5
					c-16.1-0.9-28.8,6.2-33.8,9.1c-50.8,29.3-90.3,66.2-138.4,91c-19.9,10.2-107.5,68.3-135.6,71.2S8.9,401.9,0,408
					c17.9,0,64.4,18.8,82.6,19c286.2,3.4,602.9-19.2,886.2-19c1.4-4.3,2.7-8.6,3.8-12.9c5.9-22.3-6.6-49.6-28.5-59.1
					C938.4,333.6,932.3,332.5,926.3,331.5z"/>
				<path id="Fill-3" class="st1" d="M664.2,294.6C667,291.8,697,267,697,267s-24.8,30-27.6,32.8c-2.9,2.8-6.3,4-7.8,2.6
					C660.2,300.9,661.3,297.5,664.2,294.6"/>
				<path id="Fill-5" class="st1" d="M427.5,309c1.3-1.3,15.5-13,15.5-13s-11.7,14.2-13,15.5c-1.3,1.3-3,1.9-3.7,1.2
					C425.6,312,426.2,310.4,427.5,309"/>
				<path id="Fill-7" class="st1" d="M565.5,387c1.3-1.3,15.5-13,15.5-13s-11.7,14.2-13,15.5c-1.3,1.3-3,1.9-3.7,1.2
					C563.6,390,564.2,388.4,565.5,387"/>
				<path id="Fill-9" class="st1" d="M816.5,380c1.3-1.3,15.5-13,15.5-13s-11.7,14.2-13,15.5c-1.3,1.3-3,1.9-3.7,1.2
					C814.6,383,815.2,381.4,816.5,380"/>
				<polygon id="Fill-11" class="st2" points="399.5,255 401,261 407,262.5 401,264 399.5,270 398,264 392,262.5 398,261 				"/>
				<path id="Fill-13" class="st2" d="M404,353c0,1.1-0.9,2-2,2c-1.1,0-2-0.9-2-2c0-1.1,0.9-2,2-2C403.1,351,404,351.9,404,353"/>
				<path id="Fill-15" class="st2" d="M489,294c0,1.1-0.9,2-2,2c-1.1,0-2-0.9-2-2c0-1.1,0.9-2,2-2C488.1,292,489,292.9,489,294"/>
				<path id="Fill-17" class="st2" d="M444,270c0,0.6-0.4,1-1,1s-1-0.4-1-1s0.4-1,1-1S444,269.4,444,270"/>
				<path id="Fill-19" class="st2" d="M430,390c0,0.6-0.4,1-1,1s-1-0.4-1-1s0.4-1,1-1S430,389.4,430,390"/>
				<path id="Fill-21" class="st2" d="M399.9,389.5c0,0.2-0.2,0.4-0.4,0.4c-0.2,0-0.4-0.2-0.4-0.4c0-0.2,0.2-0.4,0.4-0.4
					C399.7,389.1,399.9,389.3,399.9,389.5"/>
				<path id="Fill-23" class="st2" d="M521.9,277.5c0,0.2-0.2,0.4-0.4,0.4c-0.2,0-0.4-0.2-0.4-0.4c0-0.2,0.2-0.4,0.4-0.4
					C521.7,277.1,521.9,277.3,521.9,277.5"/>
				<path id="Fill-25" class="st2" d="M597.9,391.5c0,0.2-0.2,0.4-0.4,0.4c-0.2,0-0.4-0.2-0.4-0.4c0-0.2,0.2-0.4,0.4-0.4
					C597.7,391.1,597.9,391.3,597.9,391.5"/>
				<path id="Fill-27" class="st2" d="M623.9,368.5c0,0.2-0.2,0.4-0.4,0.4c-0.2,0-0.4-0.2-0.4-0.4c0-0.2,0.2-0.4,0.4-0.4
					C623.7,368.1,623.9,368.3,623.9,368.5"/>
				<path id="Fill-29" class="st2" d="M595.9,353.5c0,0.2-0.2,0.4-0.4,0.4c-0.2,0-0.4-0.2-0.4-0.4c0-0.2,0.2-0.4,0.4-0.4
					C595.7,353.1,595.9,353.3,595.9,353.5"/>
				<path id="Fill-31" class="st2" d="M616.8,264.7c-0.1,0.2-0.3,0.2-0.5,0.1c-0.2-0.1-0.2-0.3-0.1-0.5c0.1-0.2,0.3-0.2,0.5-0.1
					C616.9,264.3,616.9,264.5,616.8,264.7"/>
				<path id="Fill-33" class="st2" d="M650.8,258.7c-0.1,0.2-0.3,0.2-0.5,0.1c-0.2-0.1-0.2-0.3-0.1-0.5c0.1-0.2,0.3-0.2,0.5-0.1
					C650.9,258.3,650.9,258.5,650.8,258.7"/>
				<path id="Fill-35" class="st2" d="M635.8,230.7c-0.1,0.2-0.3,0.2-0.5,0.1c-0.2-0.1-0.2-0.3-0.1-0.5c0.1-0.2,0.3-0.2,0.5-0.1
					C635.9,230.3,635.9,230.5,635.8,230.7"/>
				<path id="Fill-37" class="st2" d="M777.6,254.1c0.2,0,0.3,0.2,0.3,0.4c0,0.2-0.2,0.3-0.4,0.3c-0.2,0-0.3-0.2-0.3-0.4
					C777.2,254.2,777.4,254.1,777.6,254.1"/>
				<path id="Fill-39" class="st2" d="M760.6,242.1c0.2,0,0.3,0.2,0.3,0.4c0,0.2-0.2,0.3-0.4,0.3c-0.2,0-0.3-0.2-0.3-0.4
					C760.2,242.2,760.4,242.1,760.6,242.1"/>
				<path id="Fill-41" class="st2" d="M747.6,256.1c0.2,0,0.3,0.2,0.3,0.4s-0.2,0.3-0.4,0.3c-0.2,0-0.3-0.2-0.3-0.4
					C747.2,256.2,747.4,256.1,747.6,256.1"/>
				<path id="Fill-43" class="st2" d="M755.6,368.1c0.2,0,0.3,0.2,0.3,0.4c0,0.2-0.2,0.3-0.4,0.3c-0.2,0-0.3-0.2-0.3-0.4
					C755.2,368.2,755.4,368.1,755.6,368.1"/>
				<path id="Fill-45" class="st2" d="M730.6,351.1c0.2,0,0.3,0.2,0.3,0.4c0,0.2-0.2,0.3-0.4,0.3c-0.2,0-0.3-0.2-0.3-0.4
					C730.2,351.2,730.4,351.1,730.6,351.1"/>
				<path id="Fill-47" class="st2" d="M718.6,382.1c0.2,0,0.3,0.2,0.3,0.4c0,0.2-0.2,0.3-0.4,0.3c-0.2,0-0.3-0.2-0.3-0.4
					C718.2,382.2,718.4,382.1,718.6,382.1"/>
				<path id="Fill-49" class="st2" d="M932.6,360.1c0.2,0,0.3,0.2,0.3,0.4c0,0.2-0.2,0.3-0.4,0.3c-0.2,0-0.3-0.2-0.3-0.4
					C932.2,360.2,932.4,360.1,932.6,360.1"/>
				<path id="Fill-51" class="st2" d="M907.6,343.1c0.2,0,0.3,0.2,0.3,0.4c0,0.2-0.2,0.3-0.4,0.3c-0.2,0-0.3-0.2-0.3-0.4
					C907.2,343.2,907.4,343.1,907.6,343.1"/>
				<path id="Fill-53" class="st2" d="M895.6,374.1c0.2,0,0.3,0.2,0.3,0.4c0,0.2-0.2,0.3-0.4,0.3c-0.2,0-0.3-0.2-0.3-0.4
					C895.2,374.2,895.4,374.1,895.6,374.1"/>
				<path id="Fill-55" class="st2" d="M393,306c0,0.6-0.4,1-1,1s-1-0.4-1-1c0-0.6,0.4-1,1-1S393,305.4,393,306"/>
				<path id="Fill-57" class="st1" d="M276.5,375c1.3-1.3,15.5-13,15.5-13s-11.7,14.2-13,15.5c-1.3,1.3-3,1.9-3.7,1.2
					C274.6,378,275.2,376.4,276.5,375"/>
				<polygon id="Fill-59" class="st2" points="358.5,344 360,350 366,351.5 360,353 358.5,359 357,353 351,351.5 357,350 				"/>
				<path id="Fill-61" class="st2" d="M330,375c0,1.1-0.9,2-2,2s-2-0.9-2-2s0.9-2,2-2S330,373.9,330,375"/>
				<g id="Group-65" transform="translate(325.000000, 411.000000)">
					<g id="Clip-64">
					</g>
					<defs>
						<filter id="Adobe_OpacityMaskFilter" filterUnits="userSpaceOnUse" x="0.3" y="0.2" width="0.8" height="0.8">
							<feColorMatrix  type="matrix" values="1 0 0 0 0  0 1 0 0 0  0 0 1 0 0  0 0 0 1 0"/>
						</filter>
					</defs>
					<mask maskUnits="userSpaceOnUse" x="0.3" y="0.2" width="0.8" height="0.8" id="mask-2_1_">
						<g class="st3">
							<polygon id="path-1_1_" class="st4" points="0.2,0.1 1.2,0.1 1.2,1 0.2,1 							"/>
						</g>
					</mask>
					<path id="Fill-63" class="st5" d="M1,0.6C1,0.8,0.9,1,0.7,1C0.5,1,0.3,0.8,0.3,0.6c0-0.2,0.2-0.4,0.4-0.4C0.9,0.2,1,0.4,1,0.6"
						/>
				</g>
				<path id="Fill-66" class="st2" d="M336,295c0,0.6-0.4,1-1,1s-1-0.4-1-1c0-0.6,0.4-1,1-1S336,294.4,336,295"/>
				<polygon id="Fill-68" class="st2" points="677.5,228 679,234 685,235.5 679,237 677.5,243 676,237 670,235.5 676,234 				"/>
				<polygon id="Fill-70" class="st2" points="626.5,383 628,389 634,390.5 628,392 626.5,398 625,392 619,390.5 625,389 				"/>
				<polygon id="Fill-72" class="st2" points="295.5,330 297,336 303,337.5 297,339 295.5,345 294,339 288,337.5 294,336 				"/>
				<polygon id="Fill-74" class="st2" points="913.5,355 915,361 921,362.5 915,364 913.5,370 912,364 906,362.5 912,361 				"/>
				<path id="Fill-76" class="st2" d="M759,382c0,1.1-0.9,2-2,2c-1.1,0-2-0.9-2-2c0-1.1,0.9-2,2-2C758.1,380,759,380.9,759,382"/>
				<path id="Fill-78" class="st2" d="M737,241c0,1.1-0.9,2-2,2s-2-0.9-2-2s0.9-2,2-2S737,239.9,737,241"/>
				<path id="Fill-80" class="st2" d="M694,366c0,1.1-0.9,2-2,2c-1.1,0-2-0.9-2-2c0-1.1,0.9-2,2-2C693.1,364,694,364.9,694,366"/>
				<path id="Fill-82" class="st2" d="M695,335c0,1.1-0.9,2-2,2c-1.1,0-2-0.9-2-2s0.9-2,2-2C694.1,333,695,333.9,695,335"/>
				<path id="Fill-84" class="st2" d="M621,317c0,1.1-0.9,2-2,2c-1.1,0-2-0.9-2-2c0-1.1,0.9-2,2-2C620.1,315,621,315.9,621,317"/>
				<path id="Fill-86" class="st2" d="M815,257c0,1.1-0.9,2-2,2c-1.1,0-2-0.9-2-2c0-1.1,0.9-2,2-2C814.1,255,815,255.9,815,257"/>
				<path id="Fill-88" class="st2" d="M839,341c0,1.1-0.9,2-2,2c-1.1,0-2-0.9-2-2c0-1.1,0.9-2,2-2C838.1,339,839,339.9,839,341"/>
				<path id="Fill-90" class="st2" d="M642,272c0,1.1-0.9,2-2,2c-1.1,0-2-0.9-2-2s0.9-2,2-2C641.1,270,642,270.9,642,272"/>
				<path id="Fill-92" class="st2" d="M880,382c0,1.1-0.9,2-2,2c-1.1,0-2-0.9-2-2c0-1.1,0.9-2,2-2C879.1,380,880,380.9,880,382"/>
				<path id="Fill-94" class="st2" d="M836,280c0,0.6-0.4,1-1,1s-1-0.4-1-1c0-0.6,0.4-1,1-1S836,279.4,836,280"/>
				<path id="Fill-96" class="st2" d="M672,385c0,0.6-0.4,1-1,1s-1-0.4-1-1s0.4-1,1-1S672,384.4,672,385"/>
				<path id="Fill-98" class="st2" d="M647,347c0,0.6-0.4,1-1,1s-1-0.4-1-1c0-0.6,0.4-1,1-1S647,346.4,647,347"/>
				<path id="Fill-100" class="st2" d="M581,257c0,0.6-0.4,1-1,1s-1-0.4-1-1s0.4-1,1-1S581,256.4,581,257"/>
				<path id="Fill-102" class="st2" d="M959,390c0,0.6-0.4,1-1,1s-1-0.4-1-1s0.4-1,1-1S959,389.4,959,390"/>
				<path id="Fill-104" class="st2" d="M537,391c0,0.6-0.4,1-1,1s-1-0.4-1-1s0.4-1,1-1S537,390.4,537,391"/>
				<path id="Stroke-106" class="st6" d="M459,336.8c11.9-2.4,27-3.8,43.5-3.8c21,0,39.8,2.3,52.5,6"/>
				<path id="Fill-108" class="st7" d="M532,350c0,16-13,29-29,29c-16,0-29-13-29-29c0-16,13-29,29-29C519,321,532,334,532,350"/>
				<path id="Stroke-110" class="st6" d="M555.4,339.1c10.4,2.9,16.6,6.6,16.6,10.6c0,9-31.1,16.3-69.5,16.3s-69.5-7.3-69.5-16.3
					c0-5.1,10-9.7,25.7-12.7"/>
				<path id="Fill-112" class="st8" d="M521,332.9c2.1,2.5,2.6,5.5,1.3,6.6c-1.4,1.1-4.2,0-6.2-2.5c-2.1-2.5-2.6-5.5-1.3-6.6
					C516.1,329.3,518.9,330.4,521,332.9"/>
				<path id="Fill-114" class="st8" d="M517.9,346.5c1.1,1.3,1.5,2.7,0.7,3.3s-2.3,0-3.5-1.3c-1.1-1.3-1.5-2.7-0.7-3.3
					C515.2,344.7,516.7,345.2,517.9,346.5"/>
				<path id="Fill-116" class="st8" d="M505.9,326.5c1.1,1.3,1.5,2.7,0.7,3.3c-0.8,0.6-2.3,0-3.5-1.3c-1.1-1.3-1.5-2.7-0.7-3.3
					C503.2,324.7,504.7,325.2,505.9,326.5"/>
				<path id="Stroke-118" class="st6" d="M745,298.1c9.2-1.2,20.8-1.5,33.3-0.6c16,1.1,30.2,4,39.7,7.5"/>
				<path id="Stroke-120" class="st6" d="M725,306c0.3-3.7,8-6.6,20-8"/>
				<path id="Fill-122" class="st9" d="M817.9,312.7c-1.5,22-20.5,38.7-42.6,37.2c-22-1.5-38.7-20.5-37.2-42.6
					c1.5-22,20.5-38.7,42.6-37.2S819.4,290.6,817.9,312.7"/>
				<path id="Stroke-124" class="st6" d="M818,305c7.7,2.6,12.2,5.7,12,8.8c-0.5,6.7-24.3,10.7-53.3,8.8c-29-1.9-52.1-8.9-51.7-15.7
					"/>
				<path id="Fill-126" class="st10" d="M762,304.7c-0.1,1.9-1.8,3.4-3.7,3.3c-1.9-0.1-3.4-1.8-3.3-3.7c0.1-1.9,1.8-3.4,3.7-3.3
					S762.1,302.8,762,304.7"/>
				<path id="Fill-128" class="st10" d="M792,336.7c-0.1,1.9-1.8,3.4-3.7,3.3c-1.9-0.1-3.4-1.8-3.3-3.7c0.1-1.9,1.8-3.4,3.7-3.3
					C790.7,333.1,792.1,334.8,792,336.7"/>
				<path id="Fill-130" class="st10" d="M796,308.1c-0.1,1.1-1,1.9-2.1,1.9c-1.1-0.1-1.9-1-1.9-2.1c0.1-1.1,1-1.9,2.1-1.9
					C795.2,306.1,796.1,307,796,308.1"/>
				<path id="Fill-132" class="st10" d="M766,335.1c-0.1,1.1-1,1.9-2.1,1.9c-1.1-0.1-1.9-1-1.9-2.1c0.1-1.1,1-1.9,2.1-1.9
					C765.2,333.1,766.1,334,766,335.1"/>
				<path id="Fill-134" class="st10" d="M788,285.3c-0.2,2.8-2.6,4.8-5.3,4.7c-2.8-0.2-4.8-2.6-4.7-5.3c0.2-2.8,2.6-4.8,5.3-4.7
					C786.1,280.2,788.2,282.6,788,285.3"/>
				<path id="Fill-136" class="st11" d="M561,291.2c-6.2,0-11.2-5-11.2-11.1c0-3.2,1.4-6.1,3.6-8.1c-5.4,1.7-9.3,6.7-9.3,12.7
					c0,7.4,6,13.3,13.5,13.3c7.3,0,13.2-5.7,13.5-12.9C569.1,288.7,565.4,291.2,561,291.2"/>
				<polyline id="Stroke-138" class="st12" points="619,317 646.9,347 671.7,384 692.2,365.9 694,334.9 646.9,347 				"/>
				<path id="Stroke-140" class="st12" d="M640,272l-21,45"/>
				<path id="Fill-142" class="st0" d="M874.7,284.1c-5.5,5.1-12.1,14.7-10.4,22.6c0.6,2.9,2.6,5.4,5.1,7.1c2.5,1.7,5.4,2.7,8.3,3.3
					c4.3,0.9,8.8,1.1,13.2,0.6c1.7-0.2,3.4-0.5,4.8-1.5c2-1.3,3.1-4.7,1.9-6.9c-0.8-1.5-3.1-2.7-4.7-3.1c-0.7-0.2-1.4-0.4-2.2-0.6
					c-3-0.8-6.2-0.8-9.3-1.3c-2.1-0.4-4.3-1.1-5.8-2.7c-1.9-2-2.6-5.2-2.8-7.8C872.8,291.8,873.2,285.4,874.7,284.1
					C874.7,284,874.7,284,874.7,284.1"/>
				<path id="Fill-144" class="st0" d="M883,274.5c0,1.9-1.6,3.5-3.5,3.5s-3.5-1.6-3.5-3.5s1.6-3.5,3.5-3.5S883,272.6,883,274.5"/>
				<path id="Fill-146" class="st0" d="M569,220.5c0,3-2.5,5.5-5.5,5.5c-3,0-5.5-2.5-5.5-5.5c0-3,2.5-5.5,5.5-5.5
					C566.5,215,569,217.5,569,220.5"/>
				<path id="Fill-148" class="st0" d="M972,339.7c15.2,9.2,19,26.9,17.7,44.8c-0.1,1.7-0.6,3.2-0.8,4.9c-0.3,3.7-0.6,12.4,4.8,12.5
					c0.8,0,1.7,0.3,2.5,0c6.3-2.6,7.6-17.7,7.8-23.3c0.4-12.8-5.4-25.5-13.8-34.9c-2.6-2.8-27.8-22.4-29.1-11.2
					c-0.4,3.3,2.3,3.3,4.6,4.2C967.9,337.5,970.1,338.5,972,339.7"/>
				<path id="Fill-150" class="st0" d="M546.1,221.5c-1.5-1.2-3.5-1.6-5.4-1.9c-10.6-1.4-17.7,3.8-27.3,6.5
					c-7.7,2.2-15.6,3.5-23.6,4c-12.5,0.7-25.2-3.5-37.3-7.1c-12.2-3.6-20.4-8.8-30.5-16.2c-8.7-6.4-18.6-11.6-28.7-15.3
					c-5.8-2.2-12.2-4.2-18.5-4.5c-4.4,0.8-7.9,4.1-8.7,8c-1.1,5.1,2.6,10.9,8.7,12.4c2.9,0.2,7.4,0.5,12.9,1.6
					c4.2,0.9,8.4,2.1,12.5,3.5c20.8,6.9,39.8,18.2,60.8,24.5c21.6,6.5,45.6,6.5,67.5,1.2c4.5-1.1,9.4-2.1,13.4-4.7
					C545.6,231.1,550.9,225.3,546.1,221.5"/>
				<path id="Fill-156" class="st4" d="M1037,99.6l0.3,0.4c0,0,3.3-3.1,6.7-6C1041.7,95.8,1039.4,97.7,1037,99.6"/>
				<polygon id="Fill-160" class="st4" points="987,205.6 994.6,216 1010,205.8 997.5,208.5 992.2,201 				"/>
				<path id="Fill-168" class="st4" d="M906.2,236.6L900,240c2.2-0.8,4.3-1.7,6.3-2.9c6-3.6,9.8-9.6,15.7-13.4
					c3.9-2.5,8.7-4.8,13.4-5.2L937,201l-27.6,16l1.6,9.7C911.6,230.7,909.7,234.6,906.2,236.6"/>
				<path id="Fill-190" class="st4" d="M963.5,146.3c-2.1-0.3-4.6-0.3-7.4-0.2c-0.5,4.6,2.8,8.9,7.6,9.8c3.1,0.6,6.2-0.5,8.3-2.5
					c-0.7-1.3-1.5-2.6-2.4-3.9C967.9,147.8,965.8,146.6,963.5,146.3"/>
				<path id="Fill-198" class="st4" d="M965.7,134c0,0,5.4-1.1,5.3-1.8c-0.2-0.7-5.2,0.8-7.2,0.5c-2-0.2-4.8,0.7-4.8,0.7L965.7,134z
					"/>
				<path id="Fill-202" class="st13" d="M1101.5,54h-1.9c-3.6,0-6.5-2.8-6.5-6.3V30.5c0-0.3,0.2-0.5,0.5-0.5h13.9
					c0.3,0,0.5,0.2,0.5,0.5v17.2C1108,51.2,1105.1,54,1101.5,54"/>
				<g id="Group-206" transform="translate(987.000000, 0.000000)">
					<g id="Clip-205">
					</g>
					<defs>
						<filter id="Adobe_OpacityMaskFilter_1_" filterUnits="userSpaceOnUse" x="93.2" y="0.7" width="39.6" height="39.4">
							<feColorMatrix  type="matrix" values="1 0 0 0 0  0 1 0 0 0  0 0 1 0 0  0 0 0 1 0"/>
						</filter>
					</defs>
					<mask maskUnits="userSpaceOnUse" x="93.2" y="0.7" width="39.6" height="39.4" id="mask-4_1_">
						<g class="st14">
							<polygon id="path-3_1_" class="st4" points="93.2,0.7 132.8,0.7 132.8,40.1 93.2,40.1 							"/>
						</g>
					</mask>
					<path id="Fill-204" class="st15" d="M132.8,20.4c0,10.9-8.9,19.7-19.8,19.7c-10.9,0-19.8-8.8-19.8-19.7
						c0-10.9,8.9-19.7,19.8-19.7C124,0.7,132.8,9.5,132.8,20.4"/>
				</g>
				<path id="Fill-207" class="st10" d="M1108.9,46h-16.8c-0.6,0-1.1-0.6-1.1-1.3v-0.4c0-0.7,0.5-1.3,1.1-1.3h16.8
					c0.6,0,1.1,0.6,1.1,1.3v0.4C1110,45.4,1109.5,46,1108.9,46"/>
				<path id="Fill-209" class="st16" d="M1108.9,43h-16.8c-0.6,0-1.1-0.6-1.1-1.3v-0.4c0-0.7,0.5-1.3,1.1-1.3h16.8
					c0.6,0,1.1,0.6,1.1,1.3v0.4C1110,42.4,1109.5,43,1108.9,43"/>
				<path id="Fill-211" class="st10" d="M1108.9,41h-16.8c-0.6,0-1.1-0.6-1.1-1.3v-0.4c0-0.7,0.5-1.3,1.1-1.3h16.8
					c0.6,0,1.1,0.6,1.1,1.3v0.4C1110,40.4,1109.5,41,1108.9,41"/>
				<g id="Group-216" transform="translate(1003.000000, 20.000000)">
					<path id="Fill-213" class="st10" d="M94.5,0.8V19"/>
					<path id="Stroke-215" class="st17" d="M94.5,0.8V19"/>
				</g>
				<g id="Group-220" transform="translate(1008.000000, 20.000000)">
					<path id="Fill-217" class="st10" d="M94.1,0.8V19"/>
					<path id="Stroke-219" class="st17" d="M94.1,0.8V19"/>
				</g>
				<path id="Stroke-221" class="st18" d="M1101,17.5c0,1.9-1.6,3.5-3.5,3.5c-1.9,0-3.5-1.6-3.5-3.5s1.6-3.5,3.5-3.5
					C1099.5,14,1101,15.6,1101,17.5z"/>
				<path id="Stroke-223" class="st18" d="M1106,17.5c0,1.9-1.6,3.5-3.5,3.5s-3.5-1.6-3.5-3.5s1.6-3.5,3.5-3.5S1106,15.6,1106,17.5z
					"/>
				<path id="Stroke-225" class="st19" d="M1151.5,39v5"/>
				<path id="Stroke-227" class="st19" d="M1154,41.5h-5"/>
				<path id="Stroke-229" class="st19" d="M1048.5,16v5"/>
				<path id="Stroke-231" class="st19" d="M1051,18.5h-5"/>
				<path id="Stroke-233" class="st19" d="M1098.5,74v5"/>
				<path id="Stroke-235" class="st19" d="M1101,76.5h-5"/>
			</g>
		</g>
	</g>
</g>
</svg>
