<?xml version="1.0" encoding="UTF-8"?>
<svg width="1920px" height="564px" viewBox="0 0 1920 564" version="1.1" xmlns="http://www.w3.org/2000/svg" xmlns:xlink="http://www.w3.org/1999/xlink">
    <!-- Generator: Sketch 58 (84663) - https://sketch.com -->
    <title>Group</title>
    <desc>Created with Sketch.</desc>
    <defs>
        <polygon id="path-1" points="0.1586 0.1224 1.1586 0.1224 1.1586 1 0.1586 1"></polygon>
        <polygon id="path-3" points="0.175515152 0.664441176 39.7803636 0.664441176 39.7803636 40.0637529 0.175515152 40.0637529"></polygon>
    </defs>
    <g id="Web-PC" stroke="none" stroke-width="1" fill="none" fill-rule="evenodd">
        <g id="Courses" transform="translate(0.000000, -3063.000000)">
            <g id="Group" transform="translate(0.000000, 3063.000000)">
                <path d="M0,297 C399.36198,396.333333 713.134428,426 941.317343,386 C1169.50026,346 1495.72781,349.333333 1920,396 L1920,564 L0,564 L0,297 Z" id="Rectangle" fill="#152244"></path>
                <g id="Group-237" transform="translate(718.000000, 0.000000)">
                    <path d="M926.283043,331.483052 C905.179722,327.846943 859.005521,327.64861 850.95842,322.960734 C833.852761,312.997195 851.808525,284.097043 862.685297,267.724337 C875.718638,248.108582 925.299281,182.489142 951.804262,151.584021 C947.615145,147.07765 943.444091,142.556856 939.31518,138 C913.110024,167.461495 879.164816,193.42872 867.501757,204.125491 C846.894532,223.024842 826.240346,236.620883 797.409015,234.921228 C769.543384,233.279269 744.975824,217.3453 718.504558,210.28584 C692.315055,203.302108 664.242316,205.679702 638.068467,212.718727 C567.902273,231.590432 509.589388,275.25018 434.988439,241.275102 C429.259259,238.665518 417.946598,227.835323 400.521849,226.810001 C384.380686,225.860405 371.725437,232.966744 366.677787,235.886449 C315.918316,265.234955 276.383605,302.090071 228.311719,326.837247 C208.426822,337.074675 120.76198,395.12517 92.7522047,398 C64.7424296,400.87483 8.9471875,401.886511 5.68434189e-14,408 C17.9478969,408.012963 64.4173888,426.784425 82.5522414,427 C368.792328,430.402627 685.423262,407.794267 968.712446,408 C970.108015,403.694367 971.416888,399.375511 972.540327,395.12517 C978.441695,372.790448 965.955022,345.561103 944.0028,336.014665 C938.409686,333.582979 932.312047,332.522798 926.283043,331.483052 Z" id="Fill-1" fill="#152244"></path>
                    <path d="M664.181806,294.625182 C667.031521,291.775521 697,267 697,267 C697,267 672.224014,296.967915 669.374298,299.818784 C666.523376,302.668446 663.050852,303.816276 661.618149,302.382393 C660.183031,300.947303 661.332091,297.474844 664.181806,294.625182" id="Fill-3" fill="#FFD04F"></path>
                    <path d="M427.502264,309.044878 C428.848058,307.700299 443,296 443,296 C443,296 431.300499,310.151489 429.954704,311.498412 C428.60891,312.842991 426.96887,313.385746 426.291283,312.708182 C425.614869,312.031789 426.15647,310.390629 427.502264,309.044878" id="Fill-5" fill="#FFD04F"></path>
                    <path d="M565.501588,387.045296 C566.847339,385.700674 581,374 581,374 C581,374 569.299701,388.151942 567.955122,389.497736 C566.608198,390.84353 564.969383,391.385131 564.291818,390.708717 C563.614254,390.03113 564.157009,388.39109 565.501588,387.045296" id="Fill-7" fill="#FFD04F"></path>
                    <path d="M816.501588,380.04605 C817.847339,378.700299 832,367 832,367 C832,367 820.299701,381.151489 818.955122,382.498412 C817.608198,383.842991 815.968211,384.385746 815.291818,383.708182 C814.614254,383.031789 815.157009,381.390629 816.501588,380.04605" id="Fill-9" fill="#FFD04F"></path>
                    <polygon id="Fill-11" fill="#FEFEFE" points="399.5 255 401.039339 260.961147 407 262.500611 401.039339 264.038853 399.5 270 397.960661 264.038853 392 262.500611 397.960661 260.961147"></polygon>
                    <path d="M404,352.999338 C404,354.103608 403.104932,355 402.000662,355 C400.896392,355 400,354.103608 400,352.999338 C400,351.895068 400.896392,351 402.000662,351 C403.104932,351 404,351.895068 404,352.999338" id="Fill-13" fill="#FEFEFE"></path>
                    <path d="M489,293.999338 C489,295.103608 488.104932,296 487.000662,296 C485.896392,296 485,295.103608 485,293.999338 C485,292.895068 485.896392,292 487.000662,292 C488.104932,292 489,292.895068 489,293.999338" id="Fill-15" fill="#FEFEFE"></path>
                    <path d="M444,270 C444,270.552318 443.552318,271 443,271 C442.447682,271 442,270.552318 442,270 C442,269.447682 442.447682,269 443,269 C443.552318,269 444,269.447682 444,270" id="Fill-17" fill="#FEFEFE"></path>
                    <path d="M430,390 C430,390.552318 429.552318,391 429,391 C428.447682,391 428,390.552318 428,390 C428,389.447682 428.447682,389 429,389 C429.552318,389 430,389.447682 430,390" id="Fill-19" fill="#FEFEFE"></path>
                    <path d="M399.8775,389.4995 C399.8775,389.7085 399.7085,389.8775 399.5005,389.8775 C399.2915,389.8775 399.1225,389.7085 399.1225,389.4995 C399.1225,389.2915 399.2915,389.1225 399.5005,389.1225 C399.7085,389.1225 399.8775,389.2915 399.8775,389.4995" id="Fill-21" fill="#FEFEFE"></path>
                    <path d="M521.8775,277.4995 C521.8775,277.7085 521.7085,277.8775 521.5005,277.8775 C521.2915,277.8775 521.1225,277.7085 521.1225,277.4995 C521.1225,277.2915 521.2915,277.1225 521.5005,277.1225 C521.7085,277.1225 521.8775,277.2915 521.8775,277.4995" id="Fill-23" fill="#FEFEFE"></path>
                    <path d="M597.878,391.4995 C597.878,391.7085 597.709,391.8775 597.5,391.8775 C597.292,391.8775 597.122,391.7085 597.122,391.4995 C597.122,391.2915 597.292,391.1225 597.5,391.1225 C597.709,391.1225 597.878,391.2915 597.878,391.4995" id="Fill-25" fill="#FEFEFE"></path>
                    <path d="M623.8775,368.5 C623.8775,368.708 623.7085,368.878 623.5005,368.878 C623.2915,368.878 623.1225,368.708 623.1225,368.5 C623.1225,368.291 623.2915,368.122 623.5005,368.122 C623.7085,368.122 623.8775,368.291 623.8775,368.5" id="Fill-27" fill="#FEFEFE"></path>
                    <path d="M595.8775,353.4995 C595.8775,353.7085 595.7085,353.8775 595.5005,353.8775 C595.2915,353.8775 595.1225,353.7085 595.1225,353.4995 C595.1225,353.2915 595.2915,353.1225 595.5005,353.1225 C595.7085,353.1225 595.8775,353.2915 595.8775,353.4995" id="Fill-29" fill="#FEFEFE"></path>
                    <path d="M616.817729,264.7035 C616.705729,264.8795 616.471729,264.9305 616.296729,264.8175 C616.121729,264.7055 616.069729,264.4725 616.181729,264.2965 C616.294729,264.1205 616.527729,264.0695 616.703729,264.1825 C616.879729,264.2945 616.929729,264.5275 616.817729,264.7035" id="Fill-31" fill="#FEFEFE"></path>
                    <path d="M650.818354,258.703 C650.706354,258.879 650.472354,258.931 650.297354,258.818 C650.121354,258.706 650.069354,258.473 650.181354,258.297 C650.294354,258.121 650.527354,258.069 650.703354,258.182 C650.879354,258.294 650.930354,258.527 650.818354,258.703" id="Fill-33" fill="#FEFEFE"></path>
                    <path d="M635.817977,230.7035 C635.705977,230.8795 635.471977,230.9305 635.296977,230.8175 C635.120977,230.7055 635.069977,230.4725 635.181977,230.2965 C635.294977,230.1205 635.527977,230.0695 635.703977,230.1825 C635.878977,230.2945 635.929977,230.5275 635.817977,230.7035" id="Fill-35" fill="#FEFEFE"></path>
                    <path d="M777.5645,254.128126 C777.7695,254.163126 777.9075,254.358126 777.8725,254.565126 C777.8365,254.770126 777.6405,254.907126 777.4355,254.872126 C777.2305,254.836126 777.0925,254.641126 777.1275,254.436126 C777.1635,254.230126 777.3595,254.092126 777.5645,254.128126" id="Fill-37" fill="#FEFEFE"></path>
                    <path d="M760.5645,242.128485 C760.7695,242.163485 760.9075,242.358485 760.8725,242.564485 C760.8355,242.770485 760.6405,242.907485 760.4355,242.871485 C760.2305,242.836485 760.0925,242.641485 760.1275,242.435485 C760.1635,242.230485 760.3585,242.092485 760.5645,242.128485" id="Fill-39" fill="#FEFEFE"></path>
                    <path d="M747.564358,256.127842 C747.770358,256.163842 747.908358,256.358842 747.872358,256.564842 C747.836358,256.770842 747.641358,256.907842 747.435358,256.871842 C747.230358,256.836842 747.092358,256.641842 747.127358,256.435842 C747.164358,256.230842 747.359358,256.092842 747.564358,256.127842" id="Fill-41" fill="#FEFEFE"></path>
                    <path d="M755.564358,368.127985 C755.770358,368.163985 755.908358,368.358985 755.872358,368.564985 C755.836358,368.769985 755.641358,368.906985 755.435358,368.871985 C755.230358,368.835985 755.092358,368.640985 755.127358,368.435985 C755.164358,368.230985 755.359358,368.092985 755.564358,368.127985" id="Fill-43" fill="#FEFEFE"></path>
                    <path d="M730.564,351.127985 C730.77,351.162985 730.908,351.358985 730.872,351.564985 C730.836,351.769985 730.641,351.906985 730.436,351.871985 C730.23,351.836985 730.092,351.640985 730.128,351.435985 C730.164,351.230985 730.359,351.092985 730.564,351.127985" id="Fill-45" fill="#FEFEFE"></path>
                    <path d="M718.5645,382.128126 C718.7695,382.163126 718.9075,382.358126 718.8725,382.565126 C718.8365,382.770126 718.6405,382.907126 718.4355,382.872126 C718.2305,382.836126 718.0925,382.641126 718.1275,382.436126 C718.1645,382.230126 718.3595,382.092126 718.5645,382.128126" id="Fill-47" fill="#FEFEFE"></path>
                    <path d="M932.5645,360.127842 C932.7695,360.163842 932.9075,360.358842 932.8725,360.564842 C932.8365,360.770842 932.6405,360.907842 932.4355,360.871842 C932.2305,360.836842 932.0925,360.641842 932.1275,360.435842 C932.1645,360.230842 932.3595,360.092842 932.5645,360.127842" id="Fill-49" fill="#FEFEFE"></path>
                    <path d="M907.5645,343.127842 C907.7695,343.163842 907.9075,343.358842 907.8725,343.564842 C907.8365,343.770842 907.6415,343.907842 907.4355,343.871842 C907.2305,343.836842 907.0925,343.641842 907.1275,343.435842 C907.1645,343.230842 907.3595,343.092842 907.5645,343.127842" id="Fill-51" fill="#FEFEFE"></path>
                    <path d="M895.564642,374.127985 C895.769642,374.163985 895.907642,374.358985 895.872642,374.564985 C895.835642,374.769985 895.640642,374.906985 895.435642,374.871985 C895.229642,374.836985 895.091642,374.640985 895.127642,374.435985 C895.163642,374.230985 895.358642,374.092985 895.564642,374.127985" id="Fill-53" fill="#FEFEFE"></path>
                    <path d="M393,306.000662 C393,306.552614 392.552318,307 392,307 C391.447682,307 391,306.552614 391,306.000662 C391,305.448709 391.447682,305 392,305 C392.552318,305 393,305.448709 393,306.000662" id="Fill-55" fill="#FEFEFE"></path>
                    <path d="M276.502733,375.04605 C277.848487,373.700299 292,362 292,362 C292,362 280.300853,376.151489 278.955099,377.498412 C277.608174,378.842991 275.968183,379.385746 275.291789,378.708182 C274.614224,378.031789 275.15698,376.390629 276.502733,375.04605" id="Fill-57" fill="#FFD04F"></path>
                    <polygon id="Fill-59" fill="#FEFEFE" points="358.5 344 360.039339 349.961147 366 351.500611 360.039339 353.038853 358.5 359 356.960661 353.038853 351 351.500611 356.960661 349.961147"></polygon>
                    <path d="M330,375 C330,376.104636 329.104636,377 328,377 C326.895364,377 326,376.104636 326,375 C326,373.895364 326.895364,373 328,373 C329.104636,373 330,373.895364 330,375" id="Fill-61" fill="#FEFEFE"></path>
                    <g id="Group-65" transform="translate(325.000000, 411.000000)">
                        <mask id="mask-2" fill="white">
                            <use xlink:href="#path-1"></use>
                        </mask>
                        <g id="Clip-64"></g>
                        <path d="M1.0361,0.6229 C1.0361,0.8309 0.8671,0.9999 0.6591,0.9999 C0.4501,0.9999 0.2811,0.8309 0.2811,0.6229 C0.2811,0.4139 0.4501,0.2449 0.6591,0.2449 C0.8671,0.2449 1.0361,0.4139 1.0361,0.6229" id="Fill-63" fill="#FEFEFE" mask="url(#mask-2)"></path>
                    </g>
                    <path d="M336,295.000662 C336,295.552614 335.552318,296 335,296 C334.447682,296 334,295.552614 334,295.000662 C334,294.448709 334.447682,294 335,294 C335.552318,294 336,294.448709 336,295.000662" id="Fill-66" fill="#FEFEFE"></path>
                    <polygon id="Fill-68" fill="#FEFEFE" points="677.5 228 679.039339 233.961147 685 235.500611 679.039339 237.038853 677.5 243 675.960661 237.038853 670 235.500611 675.960661 233.961147"></polygon>
                    <polygon id="Fill-70" fill="#FEFEFE" points="626.5 383 628.039339 388.961147 634 390.500611 628.039339 392.038853 626.5 398 624.960661 392.038853 619 390.500611 624.960661 388.961147"></polygon>
                    <polygon id="Fill-72" fill="#FEFEFE" points="295.5 330 297.039339 335.961147 303 337.500611 297.039339 339.038853 295.5 345 293.960661 339.038853 288 337.500611 293.960661 335.961147"></polygon>
                    <polygon id="Fill-74" fill="#FEFEFE" points="913.5 355 915.039339 360.961147 921 362.500611 915.039339 364.038853 913.5 370 911.960661 364.038853 906 362.500611 911.960661 360.961147"></polygon>
                    <path d="M759,382.000662 C759,383.104932 758.104932,384 757.000662,384 C755.896392,384 755,383.104932 755,382.000662 C755,380.896392 755.896392,380 757.000662,380 C758.104932,380 759,380.896392 759,382.000662" id="Fill-76" fill="#FEFEFE"></path>
                    <path d="M737,241 C737,242.104636 736.104636,243 735,243 C733.895364,243 733,242.104636 733,241 C733,239.895364 733.895364,239 735,239 C736.104636,239 737,239.895364 737,241" id="Fill-78" fill="#FEFEFE"></path>
                    <path d="M694,366.000662 C694,367.104932 693.103608,368 691.999338,368 C690.895068,368 690,367.104932 690,366.000662 C690,364.896392 690.895068,364 691.999338,364 C693.103608,364 694,364.896392 694,366.000662" id="Fill-80" fill="#FEFEFE"></path>
                    <path d="M695,335 C695,336.104636 694.104932,337 693.000662,337 C691.896392,337 691,336.104636 691,335 C691,333.895364 691.896392,333 693.000662,333 C694.104932,333 695,333.895364 695,335" id="Fill-82" fill="#FEFEFE"></path>
                    <path d="M621,316.999338 C621,318.103608 620.104932,319 619.000662,319 C617.896392,319 617,318.103608 617,316.999338 C617,315.895068 617.896392,315 619.000662,315 C620.104932,315 621,315.895068 621,316.999338" id="Fill-84" fill="#FEFEFE"></path>
                    <path d="M815,257.000662 C815,258.104932 814.103608,259 812.999338,259 C811.895068,259 811,258.104932 811,257.000662 C811,255.896392 811.895068,255 812.999338,255 C814.103608,255 815,255.896392 815,257.000662" id="Fill-86" fill="#FEFEFE"></path>
                    <path d="M839,340.999338 C839,342.103608 838.104932,343 837.000662,343 C835.896392,343 835,342.103608 835,340.999338 C835,339.895068 835.896392,339 837.000662,339 C838.104932,339 839,339.895068 839,340.999338" id="Fill-88" fill="#FEFEFE"></path>
                    <path d="M642,272 C642,273.104636 641.104932,274 639.999338,274 C638.895068,274 638,273.104636 638,272 C638,270.895364 638.895068,270 639.999338,270 C641.104932,270 642,270.895364 642,272" id="Fill-90" fill="#FEFEFE"></path>
                    <path d="M880,382.000662 C880,383.104932 879.104932,384 878.000662,384 C876.896392,384 876,383.104932 876,382.000662 C876,380.896392 876.896392,380 878.000662,380 C879.104932,380 880,380.896392 880,382.000662" id="Fill-92" fill="#FEFEFE"></path>
                    <path d="M836,280.000662 C836,280.552614 835.551291,281 834.999338,281 C834.447386,281 834,280.552614 834,280.000662 C834,279.448709 834.447386,279 834.999338,279 C835.551291,279 836,279.448709 836,280.000662" id="Fill-94" fill="#FEFEFE"></path>
                    <path d="M672,385 C672,385.552318 671.552318,386 671,386 C670.447682,386 670,385.552318 670,385 C670,384.447682 670.447682,384 671,384 C671.552318,384 672,384.447682 672,385" id="Fill-96" fill="#FEFEFE"></path>
                    <path d="M647,347.000662 C647,347.552614 646.552614,348 646.000662,348 C645.448709,348 645,347.552614 645,347.000662 C645,346.448709 645.448709,346 646.000662,346 C646.552614,346 647,346.448709 647,347.000662" id="Fill-98" fill="#FEFEFE"></path>
                    <path d="M581,257 C581,257.552318 580.552318,258 580,258 C579.447682,258 579,257.552318 579,257 C579,256.447682 579.447682,256 580,256 C580.552318,256 581,256.447682 581,257" id="Fill-100" fill="#FEFEFE"></path>
                    <path d="M959,390 C959,390.552318 958.552318,391 958,391 C957.447682,391 957,390.552318 957,390 C957,389.447682 957.447682,389 958,389 C958.552318,389 959,389.447682 959,390" id="Fill-102" fill="#FEFEFE"></path>
                    <path d="M537,391 C537,391.552318 536.551291,392 535.999338,392 C535.447386,392 535,391.552318 535,391 C535,390.447682 535.447386,390 535.999338,390 C536.551291,390 537,390.447682 537,391" id="Fill-104" fill="#FEFEFE"></path>
                    <path d="M459,336.834238 C470.873744,334.436743 486.023252,333 502.52548,333 C523.530385,333 542.343859,335.328601 555,339" id="Stroke-106" stroke="#FEFEFE" stroke-width="2"></path>
                    <path d="M532,350.000603 C532,366.015447 519.016383,379 503,379 C486.983617,379 474,366.015447 474,350.000603 C474,333.984553 486.983617,321 503,321 C519.016383,321 532,333.984553 532,350.000603" id="Fill-108" fill="#E5A8A1"></path>
                    <path d="M555.35239,339.066222 C565.733161,341.919974 572,345.622203 572,349.670994 C572,358.688754 540.884235,366 502.5,366 C464.115765,366 433,358.688754 433,349.670994 C433,344.557424 443.001841,339.992376 458.661093,337" id="Stroke-110" stroke="#FEFEFE" stroke-width="2"></path>
                    <path d="M520.991264,332.947456 C523.060712,335.464341 523.622554,338.425313 522.247213,339.558379 C520.870702,340.691446 518.079053,339.568925 516.008433,337.052041 C513.940155,334.533984 513.377143,331.575356 514.752484,330.441118 C516.128995,329.309223 518.920644,330.430572 520.991264,332.947456" id="Fill-112" fill="#E58277"></path>
                    <path d="M517.883902,346.47414 C519.03376,347.733007 519.345827,349.213546 518.581845,349.779395 C517.817863,350.345243 516.266591,349.785228 515.115439,348.526361 C513.966877,347.268661 513.653515,345.788121 514.418791,345.221106 C515.182773,344.654091 516.734045,345.215273 517.883902,346.47414" id="Fill-114" fill="#E58277"></path>
                    <path d="M505.883459,326.47414 C507.033185,327.733007 507.346512,329.213546 506.581322,329.779395 C505.817428,330.345243 504.266333,329.785228 503.115312,328.526361 C501.96688,327.268661 501.653554,325.788121 502.418743,325.221106 C503.182638,324.654091 504.733733,325.215273 505.883459,326.47414" id="Fill-116" fill="#E58277"></path>
                    <path d="M745,298.126773 C754.15837,296.917453 765.766267,296.627879 778.33257,297.520837 C794.328452,298.658721 808.541001,301.476642 818,305" id="Stroke-118" stroke="#FEFEFE" stroke-width="2"></path>
                    <path d="M725,306 C725.261485,302.26996 733.037663,299.425617 745,298" id="Stroke-120" stroke="#FEFEFE" stroke-width="2"></path>
                    <path d="M817.908698,312.675548 C816.430662,334.717017 797.365815,351.386873 775.324385,349.908835 C753.282956,348.432004 736.613129,329.365916 738.091165,307.324446 C739.567994,285.284184 758.634047,268.613121 780.675477,270.091159 C802.716907,271.569197 819.38794,290.634078 817.908698,312.675548" id="Fill-122" fill="#6233F9"></path>
                    <path d="M817.961294,305 C825.654247,307.649044 830.199865,310.730368 829.993246,313.75751 C829.531957,320.502029 805.656654,324.424357 776.665129,322.518553 C747.673604,320.61275 724.545493,313.600852 725.006782,306.856333" id="Stroke-124" stroke="#FEFEFE" stroke-width="2"></path>
                    <path d="M761.991891,304.73348 C761.862704,306.662104 760.194782,308.120083 758.265928,307.99219 C756.337074,307.861739 754.877642,306.195295 755.008109,304.265392 C755.137296,302.336768 756.805218,300.87879 758.734072,301.007961 C760.662926,301.137133 762.122358,302.804856 761.991891,304.73348" id="Fill-126" fill="#470CA7"></path>
                    <path d="M791.991987,336.734205 C791.86353,338.663335 790.194751,340.122623 788.265588,339.991854 C786.336424,339.8634 784.879425,338.195807 785.007881,336.266677 C785.137495,334.338704 786.806274,332.879416 788.734281,333.00787 C790.663445,333.138639 792.121601,334.806232 791.991987,336.734205" id="Fill-128" fill="#470CA7"></path>
                    <path d="M795.995389,308.133645 C795.921048,309.235399 794.968964,310.068561 793.866895,309.995545 C792.763521,309.921225 791.931426,308.96811 792.004463,307.866355 C792.078803,306.764601 793.032191,305.931439 794.134261,306.004455 C795.23633,306.078775 796.06973,307.03189 795.995389,308.133645" id="Fill-130" fill="#470CA7"></path>
                    <path d="M765.995389,335.133645 C765.921048,336.235399 764.968964,337.068561 763.866895,336.995545 C762.763521,336.921225 761.931426,335.96811 762.004463,334.866355 C762.078803,333.764601 763.032191,332.931439 764.134261,333.004455 C765.23633,333.078775 766.06973,334.03189 765.995389,335.133645" id="Fill-132" fill="#470CA7"></path>
                    <path d="M787.988565,285.335374 C787.804668,288.091145 785.421177,290.174688 782.665117,289.988423 C779.909056,289.804546 777.825293,287.421306 778.011578,284.665536 C778.195475,281.910959 780.578965,279.827415 783.335026,280.011292 C786.089892,280.196364 788.173655,282.579604 787.988565,285.335374" id="Fill-134" fill="#470CA7"></path>
                    <path d="M561.007278,291.163471 C554.800732,291.163471 549.770806,286.20163 549.770806,280.079096 C549.770806,276.889599 551.143936,274.022784 553.331179,272 C547.915555,273.737427 544,278.749838 544,284.670094 C544,292.032787 550.047873,298 557.511595,298 C564.815424,298 570.749785,292.278411 571,285.133648 C569.134985,288.710846 565.364676,291.163471 561.007278,291.163471" id="Fill-136" fill="#CCD7F0"></path>
                    <polyline id="Stroke-138" stroke="#FEFEFE" stroke-width="0.5" points="619 317 646.859841 346.998714 671.673382 384 692.171736 365.936644 694 334.915002 646.859841 346.998714"></polyline>
                    <path d="M640,272 L619,317" id="Stroke-140" stroke="#FEFEFE" stroke-width="0.5"></path>
                    <path d="M874.701247,284.068099 C869.229227,289.133741 862.572519,298.752488 864.269538,306.68428 C864.895321,309.610166 866.882541,312.125066 869.337903,313.831136 C871.793266,315.538401 874.694081,316.50374 877.618782,317.123803 C881.932386,318.036574 886.395271,318.238483 890.77217,317.718777 C892.459635,317.518063 894.190092,317.190708 895.601687,316.244484 C897.555468,314.936258 898.689998,311.532481 897.537554,309.317458 C896.754131,307.810907 894.424164,306.580338 892.857318,306.209973 C892.12883,306.037932 891.417061,305.821687 890.695738,305.629336 C887.731628,304.842011 884.452238,304.852763 881.430804,304.316331 C879.303858,303.939992 877.143473,303.202845 875.651864,301.640143 C873.767349,299.667648 873.013782,296.484896 872.893164,293.823045 C872.802401,291.790814 873.206055,285.44323 874.774096,284 C874.749017,284.0227 874.725132,284.0454 874.701247,284.068099" id="Fill-142" fill="#152244"></path>
                    <path d="M883,274.5 C883,276.432648 881.433159,278 879.5,278 C877.566841,278 876,276.432648 876,274.5 C876,272.567352 877.566841,271 879.5,271 C881.433159,271 883,272.567352 883,274.5" id="Fill-144" fill="#152244"></path>
                    <path d="M569,220.500583 C569,223.537923 566.537923,226 563.500583,226 C560.463244,226 558,223.537923 558,220.500583 C558,217.462077 560.463244,215 563.500583,215 C566.537923,215 569,217.462077 569,220.500583" id="Fill-146" fill="#152244"></path>
                    <path d="M972.004192,339.716818 C987.170845,348.950129 991.039987,366.638475 989.728251,384.484645 C989.605726,386.136376 989.086797,387.680884 988.953461,389.339844 C988.65796,393.052926 988.312008,401.694699 993.739137,401.883847 C994.566781,401.911556 995.426857,402.156124 996.198043,401.839271 C1002.49005,399.230956 1003.82942,384.142492 1003.98438,378.559615 C1004.33874,365.758997 998.632924,353.027051 990.161893,343.647963 C987.610493,340.821586 962.404011,321.240556 961.03942,332.415947 C960.638212,335.698929 963.379405,335.74953 965.629297,336.610936 C967.946458,337.496437 970.067819,338.537354 972.004192,339.716818" id="Fill-148" fill="#152244"></path>
                    <path d="M546.105686,221.500917 C544.592458,220.302164 542.623453,219.861978 540.709913,219.615957 C530.095614,218.250778 523.021425,223.378641 513.425993,226.102968 C505.730837,228.289425 497.790913,229.607571 489.805169,230.065846 C477.271302,230.78341 464.597566,226.534712 452.546003,223.01202 C440.373863,219.45556 432.143351,214.181773 422.064409,206.81439 C413.331095,200.431093 403.486071,195.245343 393.356487,191.475423 C387.577283,189.32394 381.201228,187.314763 374.889079,187 C370.456708,187.846604 366.982915,191.056945 366.17988,194.993291 C365.128458,200.142862 368.771056,205.911104 374.889079,207.381204 C377.758786,207.531953 382.30691,207.855158 387.764176,209.002053 C392.008449,209.893278 396.192433,211.090825 400.283574,212.458416 C421.039514,219.396467 440.118242,230.620601 461.097247,236.95204 C482.647782,243.457142 506.731617,243.461966 528.554654,238.191796 C533.01958,237.112437 537.999366,236.081317 541.991635,233.487236 C545.600472,231.141588 550.858788,225.264807 546.105686,221.500917" id="Fill-150" fill="#152244"></path>
                    <path d="M940,94.5578181 C940,94.5578181 949.735249,89.1073419 953.107793,86.8442094 C956.480336,84.5822618 970.293512,69.7000922 970.949021,70.0046079 C971.606904,70.3091236 965.680016,76.9006451 965.680016,76.9006451 C965.680016,76.9006451 970.002571,82.3238689 969.468189,82.9542283 C968.934995,83.5834028 960.085632,89.3656471 957.78304,89.3324703 C955.47926,89.3004784 944.336805,100 944.336805,100 L940,94.5578181 Z" id="Fill-152" fill="#B77649"></path>
                    <path d="M903.330821,125.557685 C903.330821,125.557685 927.443684,117.240908 948,97.407301 L942.729119,91 C942.729119,91 919.021615,111.785946 903.038865,106.223037 C903.038865,106.223037 878.007911,129.462997 903.330821,125.557685" id="Fill-154" fill="#F8B1E4"></path>
                    <path d="M944,99.6246954 L944.303111,100 C944.303111,100 947.574231,96.9037368 951,94 C948.624602,95.8119415 946.323436,97.73355 944,99.6246954" id="Fill-156" fill="#B77649"></path>
                    <path d="M930.024232,109.136176 C921.376561,113.01095 914.759307,112.931922 907.587096,107.860795 C906.02236,107.75502 904.498642,107.46809 903.038865,106.953804 C903.038865,106.953804 878.007911,130.511262 903.330821,126.551381 C903.330821,126.551381 927.443684,118.122198 948,98.0164138 L947.17601,97 C941.756738,101.506993 936.483444,106.242557 930.024232,109.136176" id="Fill-158" fill="#F8A4E0"></path>
                    <polygon id="Fill-160" fill="#353460" points="987 205.571666 994.605435 216 1010 205.826768 997.480137 208.52373 992.229333 201"></polygon>
                    <path d="M916,170.344377 L884.72108,161.533553 C878.983142,159.918074 872.850563,162.048283 869.332482,166.877804 L827,225 L871.81463,186.703365 C874.887537,184.077759 879.27792,183.689899 882.758703,185.739153 L891.200173,190.706418 L916,170.344377 Z" id="Fill-162" fill="#9DA1F1"></path>
                    <path d="M891.096031,235.345038 C881.737769,241.761815 832,251 832,251 C832,251 858.383842,208.036119 867.742104,201.618139 C877.101576,195.200158 889.915514,197.547319 896.363607,206.861335 C902.81412,216.174148 900.454294,228.927057 891.096031,235.345038" id="Fill-164" fill="#FFD04F"></path>
                    <path d="M937,201 L934.045695,233.459937 C933.5025,239.414969 929.313,244.407877 923.535047,245.986872 L854,265 L905.874546,236.607062 C909.432536,234.659876 911.366989,230.681002 910.696766,226.688849 L909.070809,217.007243 L937,201 Z" id="Fill-166" fill="#9DA1F1"></path>
                    <path d="M906.19301,236.578016 L900,240 C902.180485,239.23527 904.295113,238.28358 906.304369,237.062908 C912.302201,233.42019 916.129126,227.432623 921.995243,223.624656 C925.916764,221.078372 930.727961,218.798658 935.426602,218.428355 L937,201 L909.355372,216.995392 L910.962298,226.667893 C911.626861,230.657996 909.712201,234.633625 906.19301,236.578016" id="Fill-168" fill="#8E93F1"></path>
                    <path d="M1068,89.3418369 C1018.98657,80.3105885 967.105889,119.825168 967.105889,119.825168 L871.048828,196.531006 L871.012641,197.90278 C870.583217,214.365276 881.133052,229.109432 896.8408,234 L1003.62019,172.870319 C1003.62019,172.870319 1058.97848,138.408118 1068,89.3418369" id="Fill-170" fill="#CCD7F0"></path>
                    <path d="M1019.62672,160 C1036.68173,145.784417 1061.24909,120.528854 1067,89.3385958 C1035.76061,83.5965065 1003.37587,97.526791 984,108.377775 C986.290719,130.522738 999.716747,149.978429 1019.62672,160" id="Fill-172" fill="#9DA1F1"></path>
                    <path d="M991.245391,105 C988.677573,106.285733 986.243054,107.566691 984,108.805865 L984,108.805865 C986.302432,130.767185 999.798321,150.061535 1019.80888,160 C1021.78291,158.375225 1023.86601,156.59048 1026,154.68516 C1006.80862,144.775347 993.811997,126.194895 991.245391,105" id="Fill-174" fill="#470CA7"></path>
                    <path d="M924.7496,188.360723 C924.7496,188.360723 916.873768,180.22014 887.246845,203.761467 C874.986306,213.503911 841,246 841,246 C841,246 883.507302,225.851485 896.988228,217.878315 C929.562407,198.611426 924.7496,188.360723 924.7496,188.360723" id="Fill-176" fill="#9DA1F1"></path>
                    <path d="M971.509909,174.350264 C964.688642,179.050143 955.349817,177.331985 950.64998,170.510657 C945.948949,163.689329 947.669478,154.350421 954.488359,149.649349 C961.309627,144.949469 970.649644,146.668821 975.350675,153.490149 C980.050512,160.310284 978.331176,169.650384 971.509909,174.350264" id="Fill-178" fill="#470CA7"></path>
                    <path d="M969.807982,171.880378 C964.352202,175.640479 956.880699,174.264948 953.120555,168.808043 C949.35922,163.352327 950.734767,155.879722 956.191736,152.119622 C961.648706,148.359521 969.120208,149.735052 972.880353,155.191957 C976.640498,160.648863 975.264951,168.120278 969.807982,171.880378" id="Fill-180" fill="#653CE9"></path>
                    <path d="M891.566058,94.1222731 C891.531528,97.5331334 890.061055,103.097904 892.001842,105.935673 C893.941439,108.774645 896.222757,105.201248 899.330398,103.707116 C898.754115,102.310505 901.110445,97.0984985 902.482094,96.4411283 C902.900018,96.2424725 903.370331,96.217189 903.835882,96.171438 C903.985906,96.1569903 904.134739,96.1401347 904.281191,96.1148512 C906.642284,95.7163356 908.023458,93.3011623 908.753337,91.0581575 C909.946385,87.3788108 910.291679,83.4297738 909.752307,79.5951144 L909.414157,79.2194743 L907.197135,76.7633659 C904.79675,75.6472814 901.984395,75.9278075 899.4066,76.5117352 C896.700214,77.1233544 893.903337,78.1623845 892.275695,80.3704741 C890.789743,82.3871317 891.591062,91.6228216 891.566058,94.1222731" id="Fill-182" fill="#B77649"></path>
                    <path d="M918.622687,140.837658 C918.785766,141.316959 919.991822,143.724328 919.995473,144.524773 C920.007644,144.599626 919.994256,144.656369 919.967482,144.704661 C917.561454,149.280354 913.051217,151.445055 908.404674,152.37951 C903.939466,153.274125 899.35134,153.035078 896.375752,152.689788 C896.283259,152.518351 896.187116,152.33484 896.093406,152.162195 C895.84757,150.590282 894.517378,148.735859 893.97946,147.186884 C891.303256,139.479438 888.83151,131.65609 887.466025,123.602147 C886.08837,115.463692 884.175231,105.059123 889.758871,98 L891.386013,98.5626049 L891.445646,98.5855438 L895.069901,99.830277 C895.069901,99.830277 899.985402,101.524128 900.007309,101.530165 C900.786195,107.077739 913.850792,112.558912 916.731454,117.254128 C918.116411,119.523865 917.039357,122.697874 916.489269,125.055744 C916.16311,126.445354 915.807744,127.850659 915.752978,129.265623 C915.572861,133.223174 917.40446,137.148128 918.622687,140.837658" id="Fill-184" fill="#F8B1E4"></path>
                    <path d="M990.118371,205.624974 C991.725502,204.611733 993.355522,203.638157 995,202.689822 C992.737488,200.55156 991.229146,197.696938 989.702734,194.916837 C986.670389,189.362644 984.030792,183.724316 981.763461,177.810741 C979.535886,172.000534 977.526371,166.112201 975.193983,160.339254 C973.6495,156.533893 971.939966,152.720118 969.596736,149.34265 C967.799255,147.576991 965.742755,146.330573 963.310373,145.985615 C954.448265,144.731985 937.193899,147.933969 931.121982,147.649108 C925.681351,147.396699 920.665995,144.662272 919.692561,144.112983 C919.569677,144.033654 919.510644,144 919.510644,144 C919.510644,144 915.708467,146.686349 907.068032,149.191205 C904.028459,150.077039 900.382899,150.946046 896.089186,151.66481 C896.068706,151.668416 896.048225,151.682839 896.042201,151.715291 C896.030154,151.706878 896.030154,151.706878 896.031358,151.717695 C895.547051,152.688868 900.823836,166.697548 901.420185,167.50165 C905.44765,173.045025 911.201514,174.88881 917.827615,173.87557 C925.482568,172.71449 933.465212,170.070209 940.647905,167.286502 C946.900534,164.854965 955.681924,159.376495 961.340614,165.903062 C965.374102,170.559401 966.262,176.981398 968.884731,182.370924 C972.326689,189.437165 976.974597,195.933683 982.538112,201.491481 L988.051028,207 C988.738937,206.530039 989.426847,206.06128 990.118371,205.624974" id="Fill-186" fill="#5232E2"></path>
                    <path d="M890.52695,104.354587 C894.193176,101.596172 896.169791,101.158597 895.636609,95.1933138 C895.102227,89.2292392 892.8314,86.1094021 896.759414,85.8821532 C900.687427,85.6561131 900.008941,88.7215555 904.357255,86.2423668 C908.705569,83.7619694 912.502689,87.6735513 914.371227,84.0363603 C916.240966,80.3991693 914.594587,68.0455329 900.363195,70.2648359 C886.133003,72.4853477 883.432269,79.8540138 883.157272,83.8864728 C882.883476,87.917723 876.78791,90.6700939 875.417729,94.2299235 C874.273309,97.2034994 875.553426,106.786633 872.659353,110.358551 C869.436245,114.335406 867.896742,124.669187 875.452554,127.994515 C883.362619,131.475775 890.184705,125.382362 888.523915,117.92062 C886.864327,110.458879 890.52695,104.354587 890.52695,104.354587" id="Fill-188" fill="#152244"></path>
                    <path d="M963.455453,146.275849 C961.371389,145.989017 958.808025,145.951155 956.04229,146.047531 C955.58666,150.69422 958.85773,154.987532 963.681493,155.84803 C966.827117,156.410222 969.891083,155.376477 972,153.344555 C971.275725,152.015945 970.508846,150.712578 969.630723,149.480344 C967.865007,147.794915 965.844849,146.606281 963.455453,146.275849" id="Fill-190" fill="#5852F9"></path>
                    <path d="M915.254325,149 C915.254325,149 918.326239,156.705102 912,160" id="Fill-192" fill="#5852F9"></path>
                    <path d="M943.807245,129 C943.807245,129 954.79306,132.113141 958.869344,132.918349 C962.114105,133.559577 970.51188,134.38314 973.805197,134.692741 C974.554175,134.762493 975.089506,135.437986 974.987538,136.18935 C974.704699,138.258659 974.118384,141.948172 973.51386,141.998345 C972.671412,142.06932 962.087399,139.843375 960.444989,138.142406 C958.803793,136.440212 943,136.134283 943,136.134283 L943.807245,129 Z" id="Fill-194" fill="#B77649"></path>
                    <path d="M896.633746,125.681051 C896.633746,125.681051 919.568154,136.580823 948.171104,137 L949,128.89159 C949,128.89159 917.495912,126.953931 910.161143,112.020617 C910.161143,112.020617 875.976395,110.874081 896.633746,125.681051" id="Fill-196" fill="#F8B1E4"></path>
                    <path d="M965.720966,134 C965.720966,134 971.169461,132.94671 970.995942,132.207337 C970.820109,131.467965 965.763768,132.960509 963.759046,132.743181 C961.753167,132.527004 959,133.480254 959,133.480254 L965.720966,134 Z" id="Fill-198" fill="#B77649"></path>
                    <path d="M916.145771,132.755881 L917,136 C910.112178,135.129861 897,126 897,126 C897,126 915.811038,132.592655 915.871026,132.608257 L916.145771,132.755881 Z" id="Fill-200" fill="#F8A4E0"></path>
                    <path d="M1008.46135,54 L1006.5411,54 C1002.92883,54 1000,51.169912 1000,47.6779678 L1000,30.5159632 C1000,30.2301077 1000.24049,30 1000.53497,30 L1014.46626,30 C1014.76196,30 1015,30.2301077 1015,30.5159632 L1015,47.6779678 C1015,51.169912 1012.07239,54 1008.46135,54" id="Fill-202" fill="#9DA1F1"></path>
                    <g id="Group-206" transform="translate(987.000000, 0.000000)">
                        <mask id="mask-4" fill="white">
                            <use xlink:href="#path-3"></use>
                        </mask>
                        <g id="Clip-205"></g>
                        <path d="M39.7803636,20.3644588 C39.7803636,31.2439294 30.9149091,40.0637529 19.9779394,40.0637529 C9.04218182,40.0637529 0.175515152,31.2439294 0.175515152,20.3644588 C0.175515152,9.48378235 9.04218182,0.663958824 19.9779394,0.663958824 C30.9149091,0.663958824 39.7803636,9.48378235 39.7803636,20.3644588" id="Fill-204" fill="#FFD04F" mask="url(#mask-4)"></path>
                    </g>
                    <path d="M1015.88919,46 L999.111999,46 C998.49791,46 998,45.4144981 998,44.6923792 L998,44.3090149 C998,43.5868959 998.49791,43 999.111999,43 L1015.88919,43 C1016.50328,43 1017,43.5868959 1017,44.3090149 L1017,44.6923792 C1017,45.4144981 1016.50328,46 1015.88919,46" id="Fill-207" fill="#470CA7"></path>
                    <path d="M1015.88919,43 L999.111999,43 C998.49791,43 998,42.4144981 998,41.6923792 L998,41.3090149 C998,40.5868959 998.49791,40 999.111999,40 L1015.88919,40 C1016.50328,40 1017,40.5868959 1017,41.3090149 L1017,41.6923792 C1017,42.4144981 1016.50328,43 1015.88919,43" id="Fill-209" fill="#7278D8"></path>
                    <path d="M1015.88919,41 L999.111999,41 C998.49791,41 998,40.4144981 998,39.6923792 L998,39.3090149 C998,38.5855019 998.49791,38 999.111999,38 L1015.88919,38 C1016.50328,38 1017,38.5855019 1017,39.3090149 L1017,39.6923792 C1017,40.4144981 1016.50328,41 1015.88919,41" id="Fill-211" fill="#470CA7"></path>
                    <g id="Group-216" transform="translate(1003.000000, 20.000000)">
                        <path d="M1.4341,0.777058824 L1.4341,18.99" id="Fill-213" fill="#470CA7"></path>
                        <path d="M1.4341,0.777058824 L1.4341,18.99" id="Stroke-215" stroke="#470CA7" stroke-width="0.75"></path>
                    </g>
                    <g id="Group-220" transform="translate(1008.000000, 20.000000)">
                        <path d="M1.0425,0.777058824 L1.0425,18.99" id="Fill-217" fill="#470CA7"></path>
                        <path d="M1.0425,0.777058824 L1.0425,18.99" id="Stroke-219" stroke="#470CA7" stroke-width="0.75"></path>
                    </g>
                    <path d="M1008,17.5 C1008,19.4334526 1006.43248,21 1004.49937,21 C1002.56752,21 1001,19.4334526 1001,17.5 C1001,15.5665474 1002.56752,14 1004.49937,14 C1006.43248,14 1008,15.5665474 1008,17.5 Z" id="Stroke-221" stroke="#FDFDFD" stroke-width="0.75"></path>
                    <path d="M1013,17.5 C1013,19.4334526 1011.43345,21 1009.5,21 C1007.56655,21 1006,19.4334526 1006,17.5 C1006,15.5665474 1007.56655,14 1009.5,14 C1011.43345,14 1013,15.5665474 1013,17.5 Z" id="Stroke-223" stroke="#FDFDFD" stroke-width="0.75"></path>
                    <path d="M1058.5,39 L1058.5,44" id="Stroke-225" stroke="#5232E2"></path>
                    <path d="M1061,41.5 L1056,41.5" id="Stroke-227" stroke="#5232E2"></path>
                    <path d="M955.5,16 L955.5,21" id="Stroke-229" stroke="#5232E2"></path>
                    <path d="M958,18.5 L953,18.5" id="Stroke-231" stroke="#5232E2"></path>
                    <path d="M1005.5,74 L1005.5,79" id="Stroke-233" stroke="#5232E2"></path>
                    <path d="M1008,76.5 L1003,76.5" id="Stroke-235" stroke="#5232E2"></path>
                </g>
            </g>
        </g>
    </g>
</svg>