<?xml version="1.0" encoding="UTF-8"?>
<svg width="46px" height="33px" viewBox="0 0 46 33" version="1.1" xmlns="http://www.w3.org/2000/svg" xmlns:xlink="http://www.w3.org/1999/xlink">
    <!-- Generator: Sketch 58 (84663) - https://sketch.com -->
    <title>icon / action / arrow / forward</title>
    <desc>Created with Sketch.</desc>
    <g id="Web-PC" stroke="none" stroke-width="1" fill="none" fill-rule="evenodd">
        <g id="Home" transform="translate(-1776.000000, -1436.000000)" fill="#37474F" fill-rule="nonzero">
            <g id="Section-/-Thumbnails" transform="translate(92.000000, 1421.000000)">
                <g id="Section-Title" transform="translate(0.000000, 2.000000)">
                    <g id="icon-/-action-/-arrow-/-forward" transform="translate(1684.000000, 13.000000)">
                        <path d="M30.5499563,1.22373769 C29.9420133,0.592087436 28.9301921,0.592087436 28.3009924,1.22373769 C27.6930494,1.83404841 27.6930494,2.84981032 28.3009924,3.4586984 L39.7045292,14.906648 L2.07441648,14.906648 C1.19722134,14.9080706 0.5,15.6080074 0.5,16.4886189 C0.5,17.3692304 1.19722134,18.0919294 2.07441648,18.0919294 L39.7045292,18.0919294 L28.3009924,29.5185394 C27.6930494,30.1501897 27.6930494,31.1673742 28.3009924,31.7762623 C28.9301921,32.4079126 29.9434305,32.4079126 30.5499563,31.7762623 L44.6531002,17.6181917 C45.2822999,17.007881 45.2822999,15.992119 44.6531002,15.383231 L30.5499563,1.22373769 Z" id="Path"></path>
                    </g>
                </g>
            </g>
        </g>
    </g>
</svg>