<?xml version="1.0" encoding="UTF-8"?>
<svg width="32px" height="26px" viewBox="0 0 32 26" version="1.1" xmlns="http://www.w3.org/2000/svg" xmlns:xlink="http://www.w3.org/1999/xlink">
    <!-- Generator: Sketch 58 (84663) - https://sketch.com -->
    <title>icon / social / facebook copy 2</title>
    <desc>Created with Sketch.</desc>
    <g id="Web-PC" stroke="none" stroke-width="1" fill="none" fill-rule="evenodd">
        <g id="Home" transform="translate(-1646.000000, -5202.000000)">
            <g id="icon-/-social-/-facebook-copy-2" transform="translate(1639.000000, 5193.000000)">
                <rect id="Background" x="0" y="0" width="44" height="44"></rect>
                <path d="M38.5,12.2052051 C37.3409896,12.7205128 36.1060104,13.0620769 34.8184375,13.2279231 C36.1430208,12.4263333 37.1539896,11.1666923 37.6292813,9.64841026 C36.3943021,10.3947179 35.0307604,10.9218718 33.5776146,11.2160513 C32.4049688,9.95048718 30.7336563,9.16666667 28.9104063,9.16666667 C25.3729896,9.16666667 22.5251354,12.0768718 22.5251354,15.6445385 C22.5251354,16.1578718 22.5679896,16.6514615 22.6731771,17.121359 C17.3612083,16.8587692 12.6608854,14.2782821 9.5033125,10.3473333 C8.95205208,11.3167436 8.62869792,12.4263333 8.62869792,13.6208205 C8.62869792,15.8636923 9.76822917,17.8518718 11.4668125,19.0029231 C10.4402604,18.9831795 9.4331875,18.6811026 8.58,18.2052821 C8.58,18.2250256 8.58,18.2506923 8.58,18.276359 C8.58,21.4234872 10.7947813,24.0375385 13.699125,24.6397179 C13.1790313,24.7838462 12.6121875,24.8529487 12.0239167,24.8529487 C11.6148542,24.8529487 11.2018958,24.8292564 10.8142604,24.7423846 C11.642125,27.3070769 13.9913125,29.1925897 16.784625,29.2537949 C14.61075,30.9774103 11.8505521,32.0159231 8.86244792,32.0159231 C8.33845833,32.0159231 7.83589583,31.9922308 7.33333333,31.9270769 C10.1636563,33.7770513 13.5179688,34.8333333 17.13525,34.8333333 C28.892875,34.8333333 35.321,24.9615385 35.321,16.4046667 C35.321,16.1183846 35.3112604,15.8419744 35.297625,15.5675385 C36.5657188,14.6553846 37.6312292,13.5161795 38.5,12.2052051 Z" id="Path" fill="#FFFFFF" fill-rule="nonzero"></path>
            </g>
        </g>
    </g>
</svg>