<?xml version="1.0" encoding="UTF-8"?>
<svg width="23px" height="23px" viewBox="0 0 23 23" version="1.1" xmlns="http://www.w3.org/2000/svg" xmlns:xlink="http://www.w3.org/1999/xlink">
    <!-- Generator: Sketch 59 (86127) - https://sketch.com -->
    <title>icon / social / google</title>
    <desc>Created with Sketch.</desc>
    <g id="Web-PC" stroke="none" stroke-width="1" fill="none" fill-rule="evenodd">
        <g id="Sign-Up" transform="translate(-1714.000000, -165.000000)">
            <g id="Button-/-Circle" transform="translate(1696.000000, 147.000000)">
                <g id="icon-/-social-/-google" transform="translate(13.000000, 13.000000)">
                    <rect id="Background" x="0" y="0" width="31" height="31"></rect>
                    <g id="google" transform="translate(5.166667, 5.166667)" fill-rule="nonzero">
                        <path d="M4.86642985,13.2696953 L4.10209115,16.1230778 L1.30845076,16.1821766 C0.473562337,14.6336423 0,12.8619222 0,10.9791667 C0,9.15855493 0.442769206,7.44168774 1.22760807,5.92995085 L1.2282085,5.92995085 L3.71533285,6.38592936 L4.80484359,8.85812891 C4.57681144,9.52292603 4.45252384,10.2365719 4.45252384,10.9791667 C4.45260962,11.7851061 4.59859823,12.5572932 4.86642985,13.2696953 Z" id="Path" fill="#FBBB00"></path>
                        <path d="M21.7664981,8.92812109 C21.892587,9.5922749 21.9583333,10.2781726 21.9583333,10.9791667 C21.9583333,11.7652064 21.8756894,12.5319468 21.7182498,13.2715395 C21.1837874,15.788299 19.787246,17.9859336 17.8526396,19.5411154 L17.8520392,19.540515 L14.7193742,19.3806737 L14.2760046,16.6129373 C15.5597093,15.8600924 16.5629307,14.6819335 17.0913888,13.2715395 L11.2205368,13.2715395 L11.2205368,8.92812109 L17.1770349,8.92812109 L21.7664981,8.92812109 L21.7664981,8.92812109 Z" id="Path" fill="#518EF8"></path>
                        <path d="M17.8519963,19.540515 L17.8525968,19.5411154 C15.971085,21.0534527 13.5809718,21.9583333 10.9791667,21.9583333 C6.7980341,21.9583333 3.16285775,19.6213577 1.30845076,16.1822195 L4.86642985,13.2697382 C5.7936119,15.7442537 8.18068001,17.5057666 10.9791667,17.5057666 C12.1820287,17.5057666 13.3089373,17.1805946 14.2759188,16.6129373 L17.8519963,19.540515 Z" id="Path" fill="#28B446"></path>
                        <path d="M17.9871344,2.52761003 L14.4303562,5.43949089 C13.4295794,4.81393571 12.2465742,4.45256673 10.9791667,4.45256673 C8.11733537,4.45256673 5.6856215,6.29487948 4.80488647,8.85812891 L1.2282085,5.92995085 L1.22760807,5.92995085 C3.05486735,2.40696785 6.7358903,0 10.9791667,0 C13.6431156,0 16.08568,0.948925944 17.9871344,2.52761003 Z" id="Path" fill="#F14336"></path>
                    </g>
                </g>
            </g>
        </g>
    </g>
</svg>