<?xml version="1.0" encoding="UTF-8"?>
<svg width="31px" height="31px" viewBox="0 0 31 31" version="1.1" xmlns="http://www.w3.org/2000/svg" xmlns:xlink="http://www.w3.org/1999/xlink">
    <!-- Generator: Sketch 58 (84663) - https://sketch.com -->
    <title>icon/social/facebook_24px copy 2</title>
    <desc>Created with Sketch.</desc>
    <defs>
        <path d="M15.5,7.69758065 C11.266129,7.69758065 7.75806452,11.1451613 7.75806452,15.4395161 C7.75806452,19.733871 11.2056452,23.1814516 15.5,23.1814516 C19.7943548,23.1814516 23.2419355,19.6733871 23.2419355,15.4395161 C23.2419355,11.2056452 19.733871,7.69758065 15.5,7.69758065 Z M15.5,20.3991935 C12.7782258,20.3991935 10.5403226,18.1612903 10.5403226,15.4395161 C10.5403226,12.7177419 12.7782258,10.4798387 15.5,10.4798387 C18.2217742,10.4798387 20.4596774,12.7177419 20.4596774,15.4395161 C20.4596774,18.1612903 18.2217742,20.3991935 15.5,20.3991935 Z M23.5443548,9.27016129 C24.5130801,9.27016129 25.2983871,8.4848543 25.2983871,7.51612903 C25.2983871,6.54740377 24.5130801,5.76209677 23.5443548,5.76209677 C22.5756296,5.76209677 21.7903226,6.54740377 21.7903226,7.51612903 C21.7903226,8.4848543 22.5756296,9.27016129 23.5443548,9.27016129 Z M28.0806452,2.97983871 C26.5080645,1.34677419 24.2701613,0.5 21.7298387,0.5 L9.27016129,0.5 C4.00806452,0.5 0.5,4.00806452 0.5,9.27016129 L0.5,21.6693548 C0.5,24.2701613 1.34677419,26.5080645 3.04032258,28.141129 C4.6733871,29.7137097 6.85080645,30.5 9.33064516,30.5 L21.6693548,30.5 C24.2701613,30.5 26.4475806,29.6532258 28.0201613,28.141129 C29.6532258,26.5685484 30.5,24.3306452 30.5,21.7298387 L30.5,9.27016129 C30.5,6.72983871 29.6532258,4.55241935 28.0806452,2.97983871 Z M27.8387097,21.7298387 C27.8387097,23.6048387 27.1733871,25.1169355 26.0846774,26.1451613 C24.9959677,27.1733871 23.483871,27.7177419 21.6693548,27.7177419 L9.33064516,27.7177419 C7.51612903,27.7177419 6.00403226,27.1733871 4.91532258,26.1451613 C3.8266129,25.0564516 3.28225806,23.5443548 3.28225806,21.6693548 L3.28225806,9.27016129 C3.28225806,7.45564516 3.8266129,5.94354839 4.91532258,4.85483871 C5.94354839,3.8266129 7.51612903,3.28225806 9.33064516,3.28225806 L21.7903226,3.28225806 C23.6048387,3.28225806 25.1169355,3.8266129 26.2056452,4.91532258 C27.233871,6.00403226 27.8387097,7.51612903 27.8387097,9.27016129 L27.8387097,21.7298387 L27.8387097,21.7298387 Z" id="path-1"></path>
    </defs>
    <g id="Web-PC" stroke="none" stroke-width="1" fill="none" fill-rule="evenodd">
        <g id="Article" transform="translate(-1427.000000, -1624.000000)">
            <g id="Share" transform="translate(1278.000000, 1550.000000)">
                <g id="icon/social/facebook_24px-copy-2" transform="translate(149.000000, 74.000000)">
                    <mask id="mask-2" fill="white">
                        <use xlink:href="#path-1"></use>
                    </mask>
                    <g id="icon/social/instagram_24px" fill-rule="nonzero"></g>
                    <g id="✱-/-Color-/-Icons-/-Primary-/-Purple-/-300" mask="url(#mask-2)" fill="#BA68C8">
                        <g transform="translate(-7.000000, -7.000000)" id="Rectangle">
                            <rect x="0" y="0" width="45" height="45"></rect>
                        </g>
                    </g>
                </g>
            </g>
        </g>
    </g>
</svg>