<?xml version="1.0" encoding="UTF-8"?>
<svg width="794px" height="487px" viewBox="0 0 794 487" version="1.1" xmlns="http://www.w3.org/2000/svg" xmlns:xlink="http://www.w3.org/1999/xlink">
    <!-- Generator: Sketch 58 (84663) - https://sketch.com -->
    <title>Group 293</title>
    <desc>Created with Sketch.</desc>
    <defs>
        <polygon id="path-1" points="0.0985164154 0 726.410485 0 726.410485 448.902122 0.0985164154 448.902122"></polygon>
        <polygon id="path-3" points="0 0.764872727 11.44536 0.764872727 11.44536 12.0382364 0 12.0382364"></polygon>
    </defs>
    <g id="Web-PC" stroke="none" stroke-width="1" fill="none" fill-rule="evenodd">
        <g id="Startup-Jobs" transform="translate(-1034.000000, -218.000000)">
            <g id="Group-293" transform="translate(1034.000000, 218.000000)">
                <g id="Group-3" transform="translate(50.000000, 0.000000)">
                    <mask id="mask-2" fill="white">
                        <use xlink:href="#path-1"></use>
                    </mask>
                    <g id="Clip-2"></g>
                    <path d="M654.372944,24.6421216 C647.558384,24.6421216 642.034645,19.1253649 642.034645,12.3218514 C642.034645,5.51590541 647.558384,-0.000851351351 654.372944,-0.000851351351 C661.185068,-0.000851351351 666.710024,5.51590541 666.710024,12.3218514 C666.710024,19.1253649 661.185068,24.6421216 654.372944,24.6421216 M130.516471,320.062257 L66.2713472,320.062257 L64.6005868,320.062257 C29.1237174,320.062257 0.0985164154,349.051986 0.0985164154,384.482797 C0.0985164154,419.913608 29.1237174,448.902122 64.6005868,448.902122 L252.906982,448.902122 L285.339463,448.902122 L621.9636,448.902122 C679.411213,448.902122 726.410485,401.962257 726.410485,344.588473 C726.410485,287.214689 679.411213,240.273608 621.964818,240.273608 L621.9636,240.273608 C597.673032,240.273608 577.801699,220.426176 577.801699,196.167527 C577.801699,171.907662 597.67425,152.06023 621.964818,152.06023 L675.113754,152.06023 C700.367567,152.06023 721.028006,131.424689 721.028006,106.204014 C721.028006,80.9821216 700.367567,60.3477973 675.113754,60.3477973 L607.904614,60.3477973 C598.073674,60.3477973 590.029181,52.3122568 590.029181,42.4949595 C590.029181,32.6752297 598.073674,24.6421216 607.904614,24.6421216 L619.752156,24.6421216 C626.53749,24.6421216 632.088019,19.0973919 632.088019,12.3218514 L632.088019,12.3206351 C632.088019,5.54387838 626.53749,-0.000851351351 619.752156,-0.000851351351 L575.347922,-0.000851351351 L542.009431,-0.000851351351 C525.636709,-0.000851351351 523.813729,19.317527 482.456319,19.317527 L363.294078,19.317527 C354.43856,19.317527 347.195351,26.5540135 347.195351,35.3946892 L347.195351,35.3946892 C347.195351,44.2365811 354.439778,51.4730676 363.294078,51.4730676 L378.752265,51.4730676 C391.581319,51.4730676 402.077153,61.9568514 402.077153,74.7672568 L402.077153,74.7672568 C402.077153,87.5800946 391.581319,98.0638784 378.752265,98.0638784 L355.488265,98.0638784 C292.661826,98.0638784 283.788042,114.460905 272.784404,147.074959 C261.780766,179.689014 204.633939,182.318473 204.633939,182.318473 L126.493007,182.318473 C107.16114,182.318473 91.3424963,198.115905 91.3424963,217.424554 L91.3424963,217.424554 C91.3424963,236.733203 107.159922,252.530635 126.493007,252.530635 L130.516471,252.530635 C149.111597,252.530635 164.326233,267.726041 164.326233,286.296446 C164.326233,304.868068 149.111597,320.062257 130.516471,320.062257" id="Fill-1" fill="#BFC5FF" mask="url(#mask-2)"></path>
                </g>
                <path d="M210.826302,347 L154.173698,347 C151.876462,347 150,348.864746 150,351.147641 L150,390.852359 C150,393.134045 151.876462,395 154.173698,395 L210.826302,395 C213.123538,395 215,393.134045 215,390.852359 L215,351.147641 C215,348.864746 213.123538,347 210.826302,347" id="Fill-4" fill="#90A9D5"></path>
                <path d="M247.826302,347 L191.173698,347 C188.877678,347 187,348.864746 187,351.147641 L187,390.852359 C187,393.134045 188.877678,395 191.173698,395 L247.826302,395 C250.123538,395 252,393.134045 252,390.852359 L252,351.147641 C252,348.864746 250.123538,347 247.826302,347" id="Fill-6" fill="#B6C7E6"></path>
                <path d="M240.600443,363 L198.398334,363 C197.07925,363 196,364.047838 196,365.325892 L196,376.672921 C196,377.953349 197.07925,379 198.398334,379 L240.600443,379 C241.919526,379 243,377.953349 243,376.672921 L243,365.325892 C243,364.047838 241.919526,363 240.600443,363" id="Fill-8" fill="#90A9D5"></path>
                <path d="M222.472721,365 L201.528514,365 C201.238325,365 201,365.259776 201,365.582115 L201,368.420605 C201,368.738864 201.238325,369 201.528514,369 L222.472721,369 C222.76291,369 223,368.738864 223,368.420605 L223,365.582115 C223,365.259776 222.76291,365 222.472721,365" id="Fill-10" fill="#E6E4EB"></path>
                <path d="M211.491336,371 L201.509855,371 C201.22872,371 201,371.259776 201,371.580755 L201,374.419245 C201,374.738864 201.22872,375 201.509855,375 L211.491336,375 C211.77128,375 212,374.738864 212,374.419245 L212,371.580755 C212,371.259776 211.77128,371 211.491336,371" id="Fill-12" fill="#E6E4EB"></path>
                <path d="M191.008727,395 L258.988837,395 C261.744672,395 264,397.255515 264,400.011849 L264,447.985714 C264,450.743267 261.744672,453 258.988837,453 L191.008727,453 C188.252892,453 186,450.743267 186,447.985714 L186,400.011849 C186,397.255515 188.252892,395 191.008727,395" id="Fill-14" fill="#90A9D5"></path>
                <path d="M146.008884,395 L213.991116,395 C216.747037,395 219,397.255515 219,400.011849 L219,447.985714 C219,450.743267 216.747037,453 213.991116,453 L146.008884,453 C143.252963,453 141,450.743267 141,447.985714 L141,400.011849 C141,397.255515 143.252963,395 146.008884,395" id="Fill-16" fill="#B6C7E6"></path>
                <path d="M154.857913,414 L205.142087,414 C206.714,414 208,415.308492 208,416.907898 L208,431.09334 C208,432.692746 206.714,434 205.142087,434 L154.857913,434 C153.286,434 152,432.692746 152,431.09334 L152,416.907898 C152,415.308492 153.286,414 154.857913,414" id="Fill-18" fill="#90A9D5"></path>
                <path d="M176.624789,418 L201.376429,418 C201.71988,418 202,418.260919 202,418.581963 L202,421.419172 C202,421.739081 201.71988,422 201.376429,422 L176.624789,422 C176.28012,422 176,421.739081 176,421.419172 L176,418.581963 C176,418.260919 176.28012,418 176.624789,418" id="Fill-20" fill="#E6E4EB"></path>
                <path d="M189.602657,425 L201.397343,425 C201.729803,425 202,425.260919 202,425.581963 L202,428.419172 C202,428.739081 201.729803,429 201.397343,429 L189.602657,429 C189.271372,429 189,428.739081 189,428.419172 L189,425.581963 C189,425.260919 189.271372,425 189.602657,425" id="Fill-22" fill="#E6E4EB"></path>
                <path d="M265.378905,150.378905 C265.378905,149.61774 264.761166,149 264,149 C263.238834,149 262.621095,149.61774 262.621095,150.378905 L262.621095,153.621095 L259.378905,153.621095 C258.616481,153.621095 258,154.238834 258,155 C258,155.761166 258.616481,156.378905 259.378905,156.378905 L262.621095,156.378905 L262.621095,159.622353 C262.621095,160.38226 263.238834,161 264,161 C264.761166,161 265.378905,160.38226 265.378905,159.622353 L265.378905,156.378905 L268.622353,156.378905 C269.383519,156.378905 270,155.761166 270,155 C270,154.238834 269.383519,153.621095 268.622353,153.621095 L265.378905,153.621095 L265.378905,150.378905 Z" id="Fill-24" fill="#BFCCE8"></path>
                <path d="M785.378132,28.3789054 C785.378132,27.6177396 784.761715,27 783.999371,27 C783.238285,27 782.621868,27.6177396 782.621868,28.3789054 L782.621868,31.6210946 L779.378761,31.6210946 C778.617675,31.6210946 778,32.237576 778,33 C778,33.7611659 778.617675,34.3789054 779.378761,34.3789054 L782.621868,34.3789054 L782.621868,37.6223527 C782.621868,38.3835186 783.238285,39 783.999371,39 C784.761715,39 785.378132,38.3835186 785.378132,37.6223527 L785.378132,34.3789054 L788.621239,34.3789054 C789.382325,34.3789054 790,33.7611659 790,33 C790,32.237576 789.382325,31.6210946 788.621239,31.6210946 L785.378132,31.6210946 L785.378132,28.3789054 Z" id="Fill-26" fill="#BFCCE8"></path>
                <g id="Group-30" transform="translate(0.000000, 375.000000)">
                    <mask id="mask-4" fill="white">
                        <use xlink:href="#path-3"></use>
                    </mask>
                    <g id="Clip-29"></g>
                    <path d="M7.03776,2.06132727 C7.03776,1.34632727 6.44976,0.764872727 5.72256,0.764872727 C4.99656,0.764872727 4.40856,1.34632727 4.40856,2.06132727 L4.40856,5.10687273 L1.31496,5.10687273 C0.58896,5.10687273 -0.00024,5.68596364 -0.00024,6.40214545 C-0.00024,7.11714545 0.58896,7.6986 1.31496,7.6986 L4.40856,7.6986 L4.40856,10.7441455 C4.40856,11.4579636 4.99656,12.0382364 5.72256,12.0382364 C6.44976,12.0382364 7.03776,11.4579636 7.03776,10.7441455 L7.03776,7.6986 L10.13136,7.6986 C10.85736,7.6986 11.44536,7.11714545 11.44536,6.40214545 C11.44536,5.68596364 10.85736,5.10687273 10.13136,5.10687273 L7.03776,5.10687273 L7.03776,2.06132727 Z" id="Fill-28" fill="#BFCCE8" mask="url(#mask-4)"></path>
                </g>
                <path d="M384.378905,114.378905 C384.378905,113.61774 383.761166,113 383,113 C382.237576,113 381.621095,113.61774 381.621095,114.378905 L381.621095,117.621095 L378.378905,117.621095 C377.616481,117.621095 377,118.238834 377,119 C377,119.761166 377.616481,120.380164 378.378905,120.380164 L381.621095,120.380164 L381.621095,123.622353 C381.621095,124.383519 382.237576,125 383,125 C383.761166,125 384.378905,124.383519 384.378905,123.622353 L384.378905,120.380164 L387.621095,120.380164 C388.383519,120.380164 389,119.761166 389,119 C389,118.238834 388.383519,117.621095 387.621095,117.621095 L384.378905,117.621095 L384.378905,114.378905 Z" id="Fill-31" fill="#BFCCE8"></path>
                <path d="M272.37939,196.378761 C272.37939,195.617675 271.761715,195 271.000629,195 C270.239543,195 269.621868,195.617675 269.621868,196.378761 L269.621868,199.62061 L266.378761,199.62061 C265.617675,199.62061 265,200.238285 265,200.999371 C265,201.761715 265.617675,202.37939 266.378761,202.37939 L269.621868,202.37939 L269.621868,205.621239 C269.621868,206.382325 270.239543,207 271.000629,207 C271.761715,207 272.37939,206.382325 272.37939,205.621239 L272.37939,202.37939 L275.621239,202.37939 C276.382325,202.37939 277,201.761715 277,200.999371 C277,200.238285 276.382325,199.62061 275.621239,199.62061 L272.37939,199.62061 L272.37939,196.378761 Z" id="Fill-33" fill="#BFCCE8"></path>
                <path d="M716.378132,188.378905 C716.378132,187.61774 715.761715,187 714.999371,187 C714.238285,187 713.62061,187.61774 713.62061,188.378905 L713.62061,191.621095 L710.378761,191.621095 C709.617675,191.621095 709,192.238834 709,193 C709,193.761166 709.617675,194.380164 710.378761,194.380164 L713.62061,194.380164 L713.62061,197.621095 C713.62061,198.383519 714.238285,199 714.999371,199 C715.761715,199 716.378132,198.383519 716.378132,197.621095 L716.378132,194.380164 L719.619981,194.380164 C720.382325,194.380164 721,193.761166 721,193 C721,192.238834 720.382325,191.621095 719.619981,191.621095 L716.378132,191.621095 L716.378132,188.378905 Z" id="Fill-35" fill="#BFCCE8"></path>
                <path d="M519.898874,287 C519.898874,287 527.896709,289.635055 534.205309,297.249194 C537.772424,301.554903 581.424261,384.68455 584.228219,390.094692 C587.029728,395.50727 587.024828,409.187881 580.409985,417.606905 C577.843671,420.87637 570.461997,430.028436 562.395564,440 L536.244885,440 C545.74086,425.837189 558.13879,407.315092 559.026894,405.823437 C560.479709,403.386863 561.208567,401.029439 558.556505,396.91247 C555.901993,392.794284 520.958474,350.445885 520.958474,350.445885 C520.958474,350.445885 503.780707,302.706826 519.898874,287" id="Fill-37" fill="#0F1630"></path>
                <path d="M519.898874,287 C519.898874,287 527.896709,289.635055 534.205309,297.249194 C537.772424,301.554903 581.424261,384.68455 584.228219,390.094692 C587.029728,395.50727 587.024828,409.187881 580.409985,417.606905 C577.843671,420.87637 570.461997,430.028436 562.395564,440 L536.244885,440 C545.74086,425.837189 558.13879,407.315092 559.026894,405.823437 C560.479709,403.386863 561.208567,401.029439 558.556505,396.91247 C555.901993,392.794284 520.958474,350.445885 520.958474,350.445885 C520.958474,350.445885 503.780707,302.706826 519.898874,287 Z" id="Stroke-39" stroke="#0E1632" stroke-width="0.216"></path>
                <path d="M474.667942,280 C474.667942,280 518.427785,286.230851 520.313019,286.699354 C522.199471,287.167857 525.393896,291.577157 527.11472,294.551666 C528.836762,297.526174 530.859614,340.317368 531.838766,352.299586 C532.819137,364.281804 528.960983,416.517489 530.109417,430.546969 C530.30062,432.874845 530.65745,436.150708 531.120234,440 L400.221893,440 C398.542476,424.485706 386.868151,375.943145 385.914573,364.279363 C384.934202,352.298366 379.975111,309.748744 381.190527,306.532663 C382.405942,303.317803 384.840428,298.44488 386.625798,297.675022 C388.409951,296.906383 431.085906,283.579659 431.085906,283.579659 L452.963391,285.996599 L474.667942,280 Z" id="Fill-41" fill="#CEC9D0"></path>
                <path d="M474.740986,280 C474.740986,280 477.651192,280.418314 482,281.043324 C481.799549,282.113715 481.295977,283.118898 480.496618,284.042879 C463.43384,303.728233 445.995827,305.167724 425.97762,288.540983 C425.032811,287.75726 424.370345,286.84066 424,285.80964 C428.197248,284.488261 431.001117,283.609802 431.001117,283.609802 L452.957832,286.047095 L474.740986,280 Z" id="Fill-43" fill="#FFFFFF"></path>
                <path d="M467.273627,238 L467.651093,248.826012 C467.651093,248.826012 469.490471,270.917371 469.769575,274.273496 C469.904823,275.894069 471.810596,278.09558 475,279.888015 C460.556698,296.183312 447.945398,297.201162 431,283.437785 C433.850053,281.157605 435.367294,278.680149 435.232046,277.058365 C434.954172,273.704661 433.113564,251.612092 433.113564,251.612092 L431.695915,240.869589 C431.695915,240.869589 440.565752,241.552191 449.763874,242.777001 C458.633712,240.093796 467.273627,238 467.273627,238" id="Fill-45" fill="#E8685B"></path>
                <path d="M478.143332,281 C478.143332,281 473.101009,302.839891 472.725931,307.2845 C472.352065,311.730326 466.427276,356.474429 467.045124,364.037807 C467.326737,367.478912 474.149774,402.4422 481.576093,440 L541,440 C539.543383,430.845613 538.291906,422.9526 537.619435,418.495827 C535.205092,402.471392 533.585819,369.166015 534.112629,348.597229 C534.640653,328.028443 529.538851,297.161884 528.931928,294.231653 C528.32379,291.302639 522.499749,287.64137 520.694758,286.96142 L478.143332,281 Z" id="Fill-47" fill="#0F1630"></path>
                <path d="M471.713797,316.55515 C469.895393,331.310603 466.569676,358.278473 467.04619,364 C467.04619,364 496.440634,332.4403 495.994983,329.328763 C495.549332,326.217226 483.589592,303 483.589592,303 C483.589592,303 478.451644,308.826219 471.713797,316.55515" id="Fill-49" fill="#3D4155"></path>
                <path d="M476.407256,281.174532 C476.407256,281.174532 477.682416,280.038945 478.138522,280 C478.594628,279.964204 486.410125,282.59944 486.410125,282.59944 C486.410125,282.59944 497.810347,300.460216 497.99908,302.741033 C498.185394,305.021851 470,328 470,328 L472.499507,306.989236 C472.499507,306.989236 476.583891,286.449826 477.851792,281.380673 L476.407256,281.174532 Z" id="Fill-51" fill="#545A6C"></path>
                <path d="M386.559061,298 C386.559061,298 379.201927,301.891711 374.293547,310.421106 C371.517407,315.243761 342.469412,404.272436 340.616236,410.061326 C338.76306,415.851433 340.978656,429.340995 348.774319,436.571935 C349.617551,437.355632 350.900519,438.528743 352.515706,440 L384.701052,440 C376.175717,430.790347 368.458578,422.430104 367.678167,421.494292 C365.870897,419.326957 364.782428,417.119464 366.698423,412.629028 C368.614419,408.141026 395.775411,360.731026 395.775411,360.731026 C395.775411,360.731026 404.779142,310.881102 386.559061,298" id="Fill-53" fill="#0F1630"></path>
                <path d="M427.337903,285 C427.337903,285 435.922203,305.745644 437.022441,310.075212 C438.120234,314.402346 451.329201,357.623757 451.953891,365.195631 C452.230173,368.562126 451.224067,402.692175 450.02603,440 L390.822231,440 C390.796559,436.106311 390.767219,432.837219 390.736657,430.504415 C390.514164,414.28558 386.673112,381.128344 382.781937,360.900154 C378.891985,340.671964 378.911545,309.354429 379.036239,306.361719 C379.15971,303.369009 384.347942,298.80202 386.031306,297.836512 L427.337903,285 Z" id="Fill-55" fill="#0F1630"></path>
                <path d="M439.665489,318.561217 C443.859419,332.945237 451.527479,359.232892 452,365 C452,365 418.072751,338.365018 418.000526,335.197342 C417.925853,332.029667 425.826501,307 425.826501,307 C425.826501,307 431.806462,311.963223 439.665489,318.561217" id="Fill-57" fill="#3D4155"></path>
                <path d="M428.9182,284.879174 C428.9182,284.879174 427.464909,283.963773 427.006489,284.001112 C426.54563,284.038451 419.208463,287.90361 419.208463,287.90361 C419.208463,287.90361 410.811809,307.358285 411.003224,309.638356 C411.190981,311.917222 443,330 443,330 L437.056383,309.692557 C437.056383,309.692557 429.611927,290.107799 427.517335,285.315194 L428.9182,284.879174 Z" id="Fill-59" fill="#545A6C"></path>
                <path d="M413.007414,245.027137 C412.787039,245.077607 412.572752,245.135463 412.359682,245.201935 L412.353594,245.204397 L412.353594,245.203166 C408.433112,246.419369 405.716777,250.242775 406.023598,254.554878 C406.382772,259.568636 410.691651,263.33788 415.647043,262.975973 C420.604871,262.614067 424.334199,258.25888 423.976242,253.247583 C423.770478,250.335098 422.226636,247.841144 419.998535,246.334431 C420.468506,248.989643 420.345535,252.337893 416.998514,252.981693 L416.625946,247.748821 C416.474971,245.630314 414.436807,244.837567 413.007414,245.027137" id="Fill-61" fill="#E8685B"></path>
                <path d="M477.37277,239 C477.598004,239.009745 477.819587,239.026798 478.039952,239.051159 L478.047257,239.053595 L478.047257,239.052377 C482.118529,239.526206 485.476355,242.756529 485.945087,247.008813 C486.489303,251.950525 482.92694,256.400136 477.988817,256.944614 C473.04826,257.491528 468.600784,253.926235 468.055351,248.984523 C467.737587,246.112313 468.808974,243.406979 470.730167,241.537241 C470.743559,244.206033 471.463093,247.443664 474.869619,247.463154 L474.301053,242.303407 C474.069731,240.214416 475.932484,239.073084 477.37277,239" id="Fill-63" fill="#E8685B"></path>
                <path d="M440.939901,197.128402 L440.936258,197.128402 C424.108967,198.67663 411.591414,213.82234 413.127571,230.785535 L415.665569,258.840897 C417.200512,275.805316 432.23056,288.417561 449.059066,286.871781 L449.061495,286.870557 C465.891215,285.323553 478.407553,270.177843 476.87261,253.213424 L474.334612,225.158062 C472.798455,208.194867 457.768407,195.581397 440.939901,197.128402" id="Fill-65" fill="#F4AD85"></path>
                <path d="M415.01131,217.121121 C413.394917,221.384039 412.690614,226.068364 413.126726,230.901707 L415.651585,258.900162 C417.091601,274.843965 430.435906,286.936484 445.969228,287 C428.269842,285.624629 424.992357,264.473714 423.64053,253.338825 C422.289912,242.199051 426.413044,239.707259 428.054806,239.155156 C429.694153,238.601832 455.398189,234.290055 461.084559,233.625577 C466.772137,232.962321 469.631631,236.152791 469.631631,236.152791 L472.021187,232.630082 L469.724652,225.110734 C469.724652,225.110734 471.686552,225.176693 474,225.118063 C473.807917,223.111193 473.426168,221.166618 472.876498,219.298996 C469.591765,218.126388 465.898705,216.714373 462.833839,214.714832 C456.054169,210.291902 423.679189,215.821481 418.430139,215.821481 C417.643687,215.821481 416.459782,216.299074 415.01131,217.121121" id="Fill-67" fill="#ED9072"></path>
                <path d="M472.867992,239.643641 C472.867992,239.643641 473.054116,241.705714 473.229292,243.619709 C473.402035,245.533705 475.36303,247.506442 476.821612,247.373049 L476.427466,243.028622 C476.427466,243.028622 476.755921,239.768467 480.690076,239.407451 C491.491365,224.343916 487.89053,202.33664 473.967707,192.032394 C460.044884,181.726924 432.311155,183.529555 427.628853,185.592852 C422.945335,187.656148 418.716787,196.35724 418.716787,196.35724 C418.716787,196.35724 414.28265,193.053028 410.650186,195.315801 C407.018939,197.578575 396.473115,222.896181 397.020539,228.934323 C397.567964,234.972464 410.270639,245.869021 410.270639,245.869021 C414.202362,245.508005 415.111086,248.655573 415.111086,248.655573 L415.506448,253 C416.965029,252.865384 418.537961,250.568345 418.365219,248.654349 C418.192476,246.73913 418.003919,244.678281 418.003919,244.678281 C418.1426,244.601183 418.275198,244.521637 418.409013,244.442091 C422.126631,242.011659 421.389433,234.58942 421.389433,234.58942 L417.962558,229.766495 L424.762783,220.768024 L432.5873,218.179725 L450.361557,218.865043 C450.361557,218.865043 471.321823,221.48516 469.487343,227.622428 C467.652864,233.759696 472.867992,239.643641 472.867992,239.643641" id="Fill-69" fill="#0E1632"></path>
                <path d="M397.800009,223.393845 C397.217995,225.674789 396.916075,227.544919 397.020352,228.706238 C397.4411,233.368685 412.789299,255.88259 416.197719,261 C417.97165,260.8369 418.208093,247.499506 417.935274,244.481546 C418.073502,244.404288 418.204456,244.325804 418.339046,244.244867 C422.044536,241.809407 421.309744,234.371811 421.309744,234.371811 L417.894048,229.540132 L424.672088,220.521817 L432.112169,218.047114 C428.366665,216.520353 427.285089,214.912655 427.285089,214.912655 C411.909002,230.64872 402.983572,229.789074 397.800009,223.393845 M472.620355,239.437715 C472.83376,241.804502 474.400349,252.380237 477.126115,252.128842 C485.2537,234.813284 492.759258,216.739863 480.650938,199 C479.226216,210.41576 467.983642,217.378773 456.724093,219.774991 C462.681251,221.087147 470.391726,223.552039 469.250736,227.390403 C467.422241,233.541596 472.620355,239.437715 472.620355,239.437715" id="Fill-71" fill="#010518"></path>
                <path d="M410.19944,240 C410.19944,240 397.326724,211.839335 423.222728,207.02541 C423.222728,207.02541 430.076195,193.370232 443.80863,196.794747 C457.541064,200.219263 466.135827,200.123695 472.295934,194 C472.295934,194 475.827096,200.706904 471.539429,206.57085 C484.538431,216.748828 480.022477,229.796292 474.703876,236.838909 C472.572792,222.245206 434.467077,238.491743 429.486049,224.46287 C428.990617,237.868101 415.061467,234.533028 410.19944,240" id="Fill-73" fill="#0E1632"></path>
                <path d="M410.105508,240 C410.105508,240 407.535013,234.368785 407,227.707575 C412.012101,227.227565 418.513727,223.592503 426.95964,214.964603 C426.95964,214.964603 430.409259,220.083889 446.335629,220.743135 C456.008424,221.144576 468.306432,217.530384 475.239716,210 C483.528773,219.535131 479.432274,230.560625 474.697408,236.833899 C472.563435,222.208945 434.407267,238.488767 429.417053,224.432213 C428.922165,237.863895 414.974128,234.521013 410.105508,240" id="Fill-75" fill="#010518"></path>
                <path d="M785.282646,242.991385 C779.846589,222.516155 760.854334,233.776253 752.72692,251.30644 C744.598294,268.836628 725.974586,337.215687 709.873722,354.920044 C703.632683,361.783283 705.542092,362.359381 711.278805,359.017282 C739.895692,342.35185 792.765104,271.176341 785.282646,242.991385" id="Fill-77" fill="#8FBEDC"></path>
                <path d="M706.027627,360.252005 C705.830816,361.172151 706.694596,361.214751 708.329825,360.536812 C751.80554,323.700523 774.89313,241.349842 774.967237,241.086943 C775.096015,240.634173 774.833601,240.161928 774.38288,240.032913 C773.930944,239.903898 773.459571,240.16558 773.329579,240.61835 C773.255471,240.883683 749.852012,324.35777 706.027627,360.252005" id="Fill-79" fill="#0076BD"></path>
                <path d="M737.331163,254.375646 C727.938657,239.497485 715.754467,253.239483 713.709955,269.212537 C711.664241,285.185591 714.007863,344.177495 705.713292,362.306347 C702.49877,369.333326 704.148074,369.309049 707.843092,365.203807 C726.274938,344.732225 750.262525,274.855726 737.331163,254.375646" id="Fill-81" fill="#818CF6"></path>
                <path d="M704,367.508808 C704.07558,368.29573 704.776528,368.108775 705.910234,367.150783 C731.335724,326.643882 728.945189,254.925282 728.936656,254.695559 C728.925684,254.300877 728.596544,253.989285 728.202795,254 C727.809045,254.012502 727.499409,254.342422 727.510381,254.737105 C727.517695,254.968049 729.941144,327.666635 704,367.508808" id="Fill-83" fill="#05304B"></path>
                <path d="M784.133226,305.08151 C800.537802,306.800887 794.200525,322.923242 781.71654,331.37613 C769.232555,339.827798 718.939755,362.640955 707.293296,377.305074 C702.780368,382.989144 702.104279,381.577279 703.972325,376.713238 C713.29192,352.458929 761.55281,302.715385 784.133226,305.08151" id="Fill-85" fill="#8FB2E5"></path>
                <path d="M703.665873,380.942729 C702.981554,381.207139 702.842989,380.544288 703.166308,379.196653 C726.239887,341.064443 786.861059,313.15281 787.054321,313.061424 C787.38858,312.907896 787.783613,313.051677 787.93798,313.386757 C788.092347,313.719401 787.948919,314.115406 787.614661,314.271371 C787.420183,314.361538 725.97248,342.655773 703.665873,380.942729" id="Fill-87" fill="#05304B"></path>
                <path d="M549.079736,284 L545,320.003099 C545,320.003099 551.167637,404.320461 554.201598,440 L599.994354,440 L601,296.495531 L549.079736,284 Z" id="Fill-89" fill="#0E1632"></path>
                <path d="M574.019049,315.229585 L572,327.954482 L576.018614,440 L631.926067,440 C632.857654,432.245651 633.700346,425.613369 634.381075,420.834512 C638.581136,391.362858 640.018095,350.405587 640,340.711125 C639.980344,331.017883 628.783023,316.631252 624.933677,315.578781 C621.084332,314.52753 574.019049,315.229585 574.019049,315.229585" id="Fill-91" fill="#0E1632"></path>
                <path d="M555.033535,142.978104 C555.033535,142.978104 553.123869,139.416478 551.613929,140.083138 C550.105207,140.75224 499.446045,215.436507 497.730149,221.862575 C496.014252,228.288643 496.718647,239.680475 506.524118,255.488627 C516.32837,271.298 537.307886,310.099826 538.047622,310.937425 C538.788578,311.773803 550.252667,303.987553 551.475,301.811749 C551.475,301.811749 551.977095,301.096249 551.243451,299.643272 C550.507371,298.186631 525.567157,239.000384 523.987752,234.752562 C522.409566,230.503518 566.84251,177.811715 568.963007,173.59808 C571.083504,169.383224 579.249855,147.275987 555.033535,142.978104" id="Fill-93" fill="#171C3A"></path>
                <path d="M596.014559,122 L573.918794,137.763798 C573.918794,137.763798 558.156156,199.406089 558.096351,202.207513 C558.034106,205.008937 552,239.001494 552,239.001494 C552,239.001494 574.094545,247.759295 577.250734,239.352586 C580.406923,230.944658 615.829227,170.692107 617.583072,161.234559 C619.335697,151.775793 615.127445,129.35587 613.023319,126.90432 C610.919192,124.45155 596.014559,122 596.014559,122" id="Fill-95" fill="#C9C4D1"></path>
                <path d="M573,132 C573,132 553.09765,139.018703 551.268372,140.066035 C549.436666,141.114583 538.686775,180.36823 537.816442,184.038149 C536.943681,187.708067 542.699776,254.992736 542.699776,260.93613 C542.699776,266.879524 535.200586,341.154918 535.025791,342.37863 C534.85221,343.602341 535.548962,345 537.293271,345 C539.037579,345 558.569704,308.12444 560.139217,303.930248 C561.70873,299.736056 556.628751,236.472848 556.628751,236.472848 L569.908314,145.93766 L573,132 Z" id="Fill-97" fill="#171C3A"></path>
                <path d="M632.445758,142 C632.445758,142 660.929287,170.902551 661.97292,172.656033 C663.018976,174.409514 633.414239,273.113325 633.066362,277.672133 C632.717272,282.229721 647.69661,349.376964 648.219032,351.130446 C648.219032,351.130446 648.305092,351.830862 647.78267,352.882707 C647.26146,353.935772 646.04207,354.549552 645.433588,354.987617 C644.822681,355.425682 575.162337,344.117739 569.589025,340.610776 C564.016924,337.106253 552,282.57993 552,275.217015 C552,267.854101 556.212105,239.67149 556.212105,239.67149 L590.48834,181.245286 C590.48834,181.245286 615.248247,143.859642 632.445758,142" id="Fill-99" fill="#1C2344"></path>
                <path d="M628.006455,138 C628.006455,138 660.931654,171.362011 661.97304,173.111116 C663.015635,174.860221 633.474636,273.317652 633.127508,277.865081 C632.77917,282.411292 647.727466,349.390925 648.247554,351.14003 C648.247554,351.14003 648.334639,351.838698 647.813341,352.887917 C647.292044,353.938354 646.07528,354.550602 645.468107,354.987573 C645.154845,355.212754 626.665112,352.34505 608,349.030637 C624.19167,325.546137 623.345015,286.637382 621.93352,284.269944 C620.29101,281.514222 611.640616,275.564588 612.954141,275.123965 C614.268875,274.682124 623.13698,274.46303 623.793742,272.258695 C624.450505,270.055578 636.926569,200.332394 636.926569,200.332394 L645.256444,194.680973 C645.256444,194.680973 648.979306,167.571676 646.351048,163.606065 C643.732465,159.65506 626.390554,144.637347 626.249041,144.515628 C628.404383,143.450585 626.005931,138.21666 628.006455,138" id="Fill-101" fill="#101937"></path>
                <path d="M658.304674,168 C658.304674,168 662.649708,171.454113 665.656306,175.363579 C668.661683,179.271828 706.108603,257.310185 706.880403,264.625063 C707.654644,271.939942 704.914268,284.260058 691.422435,299.83583 C677.930602,315.410385 648.204117,354.171448 647.246695,354.957968 C646.289273,355.744488 635.051777,345.264049 634.085807,342.675595 C634.085807,342.675595 633.657165,341.808719 634.715947,340.346474 C635.774729,338.883011 673.368193,278.541352 675.83502,274.174097 C678.301847,269.805624 638.631119,204.592655 637.031345,199.623943 C635.431571,194.655232 630.982734,168.51623 658.304674,168" id="Fill-103" fill="#383D5D"></path>
                <path d="M617.130265,95 C617.332781,105.819821 614.498789,116.995954 615.214912,127.831477 C615.361308,130.041822 616.430002,130.776188 619.184696,132.548088 C622.999543,138.168162 612.566356,155.941511 605.705242,157 C605.251413,157.069633 594.075263,148.392518 586.157654,146.377843 C582.095153,145.345141 578.749993,150.48208 578.445001,150.262253 C576.798041,149.077363 580.338395,139.884501 579.184303,136.396262 C580.577509,136.026664 581.818219,132.946674 582.805175,132.04925 C589.21856,126.192439 587.126311,111.573965 581.873118,106.050518 C577.949693,101.928164 617.130265,95 617.130265,95" id="Fill-105" fill="#ED9072"></path>
                <path d="M623.944702,136.698391 C623.075776,139.183316 601.96757,167.616454 601.96757,167.616454 C601.96757,167.616454 601.212881,168.63937 600.109406,167.344167 C599.007147,166.05019 586,147.728466 586,147.728466 L614.883571,126.008061 L614.223673,121.011227 C614.647806,120.554962 624.836717,134.143554 623.944702,136.698391" id="Fill-107" fill="#FFFFFF"></path>
                <path d="M585.24602,127.061815 C585.254429,127.04713 585.215989,127.018985 585.136706,127.012867 C575.37778,126.311692 573.900247,154.4786 575.614426,160 C575.626438,160.036602 581.544979,150.781831 585.625614,147.099746 C587.473131,145.435527 581.695135,132.707922 585.24602,127.061815" id="Fill-109" fill="#FFFFFF"></path>
                <path d="M621.574969,128 C621.574969,128 584.342305,173.816995 581.701908,177.661736 C579.062736,181.506476 558.816832,228.86453 556,239 C556,239 587.160363,200.379882 591.561433,196.885437 C595.961278,193.389776 612.24965,179.933794 612.24965,179.933794 C612.24965,179.933794 612.688287,179.05927 612.467743,178.447469 C612.24965,177.836884 607.716253,167.65641 607.716253,167.65641 C607.716253,167.65641 621.272334,169.666963 622.503703,169.579389 C623.736297,169.491815 629.82085,139.469757 629.997285,138.595233 C630.174945,137.721926 621.574969,128 621.574969,128" id="Fill-111" fill="#383D5D"></path>
                <path d="M585,127 C585,127 575.234988,129.257547 573.664179,130.129285 C572.094585,130.999811 559.700625,151.555371 559.351961,153.297635 C559.351961,153.297635 559.177022,154.125726 559.874349,154.473694 C560.574106,154.821661 563.148386,156.432983 563.410795,156.694868 C563.670774,156.95554 559.089552,157.478098 559.089552,157.478098 C559.089552,157.478098 558.567164,157.674512 558.654634,158.479567 C558.742103,159.285833 557,236 557,236 C557,236 572.235509,151.172243 574.490281,145.588997 C576.743839,140.005751 582.8084,131.173189 582.8084,131.173189 L585,127 Z" id="Fill-113" fill="#383D5D"></path>
                <path d="M568.452554,79 C573.146103,78.9752134 576.973771,82.7589966 577,87.4525485 C577.025961,92.1461004 573.240994,95.9737708 568.546259,96 C563.853897,96.0259609 560.026229,92.2409915 560,87.5474396 C559.974039,82.8538878 563.759006,79.0262173 568.452554,79" id="Fill-115" fill="#E8685B"></path>
                <path d="M626.453144,78 C631.14702,77.9740373 634.973769,81.758082 635,86.4519581 C635.025963,91.1470204 631.241918,94.973769 626.546856,95 C621.85298,95.0259627 618.026231,91.241918 618,86.5468557 C617.974037,81.8541659 621.758082,78.0250448 626.453144,78" id="Fill-117" fill="#E8685B"></path>
                <path d="M594.756177,33 L594.757396,33 C611.214656,32.9004603 624.754498,47.5151266 624.848373,65.4778179 L625,95.1585969 C625.089764,113.121288 611.698657,127.898231 595.241397,127.998282 L595.241397,128 C578.784137,128.098332 565.243076,113.484886 565.15164,95.5234145 L565,65.8414154 C564.90903,47.8787241 578.297698,33.100561 594.756177,33" id="Fill-119" fill="#F4AD85"></path>
                <path d="M623.684088,56.9165924 C624.426548,59.7155061 624.831305,62.6652523 624.848373,65.7123096 L625,95.3034328 C625.082449,111.769706 613.76877,125.55019 599.149984,127.738476 C597.715049,127.888092 596.793374,127.979321 596.594653,128 L596.581243,128 C612.923901,126.387067 616.383839,104.966436 616.383839,98.5074044 L616.383839,81.735817 C616.383839,65.8862534 607.592574,64.2319628 601.577305,64.2319628 L571.735037,64.2319628 C567.878877,64.2319628 566.490269,67.7716581 566.490269,67.7716581 L565.00291,66.6440644 L565,66.0760102 C564.951706,56.5930326 568.684733,48.001669 574.650016,42 C589.633327,44.9205528 614.550243,49.8882901 616.26802,50.9599298 C617.201886,51.5413643 620.252191,54.0373969 623.684088,56.9165924" id="Fill-121" fill="#ED9072"></path>
                <path d="M560.542564,57.5471148 L565.861227,63 C565.861227,63 568.41018,52.860541 589.856129,55.9886195 C611.303284,59.1142341 570.080933,35.6333168 565.412476,38.1959018 C560.74402,40.7609508 556.67631,48.2996325 560.542564,57.5471148" id="Fill-123" fill="#01020E"></path>
                <path d="M617.031318,58.2117825 C617.031318,58.2117825 595.778251,60.5591049 584.962218,53.6407452 C574.14497,46.7211616 564.989485,43.5134806 562.216237,47.2731128 C559.586328,50.8393786 570.163057,60.467317 565.907828,76.8447255 C565.677027,77.7332324 565.120677,92.880683 564.796342,93.8095765 C564.693089,87.8825261 562.807815,72.7387469 560.859374,68.9485187 C555.041991,57.6341306 545.942384,49.129676 557.760576,32.1636012 C565.01621,21.7511821 577.337304,16.8717375 583.061152,22.1403628 C601.714678,39.3071472 627.393038,17.0026883 627.550954,45.4495933 C627.550954,45.4495933 641.385613,50.1430144 628.528819,78.660902 C625.618305,78.6780358 624.718184,80.8968552 624.729116,82.7742237 L624.843302,98 C614.454857,98.0012238 614.243493,70.561538 617.031318,58.2117825" id="Fill-125" fill="#0E1632"></path>
                <path d="M608.307864,429 L668.692136,429 C671.610729,429 674,426.620899 674,423.710814 L674,320.287971 C674,317.380316 671.610729,315 668.692136,315 L608.307864,315 C605.388051,315 603,317.380316 603,320.287971 L603,423.710814 C603,426.619684 605.388051,429 608.307864,429" id="Fill-127" fill="#E2E1E7"></path>
                <path d="M669.483482,429 L718.516518,429 C720.982311,429 723,426.998785 723,424.550425 L723,319.449575 C723,317.00243 720.982311,315 718.516518,315 L669.483482,315 C667.017689,315 665,317.003645 665,319.449575 L665,424.550425 C665,426.99757 667.016465,429 669.483482,429" id="Fill-129" fill="#FFFFFF"></path>
                <path d="M590,358 L652.858473,358 C652.858473,347.194474 665,346 665,346 L602.141527,346 C602.141527,346 590,347.194474 590,358" id="Fill-131" fill="#FFFFFF"></path>
                <path d="M602.507567,410 L667.492433,410 C669.421901,410 671,411.589192 671,413.529484 L671,436.469284 C671,438.410808 669.421901,440 667.492433,440 L602.507567,440 C600.578099,440 599,438.410808 599,436.469284 L599,413.529484 C599,411.58796 600.578099,410 602.507567,410" id="Fill-133" fill="#B92F6D"></path>
                <path d="M665.468589,410 L679.558444,410 L679.560865,410 L679.568129,410 L679.581446,410 C679.899854,410.003696 683.338176,410.135512 685.265573,414.411547 C687.288614,418.897011 687.073114,423.381242 693.069595,423.381242 L695.651968,423.381242 C701.64966,423.381242 701.480166,418.792296 703.45599,414.411547 C705.431814,410.030798 708.82292,410.003696 709.140117,410 L709.153434,410 L709.161909,410 L709.16433,410 L722.531411,410 C724.439438,410 726,411.589192 726,413.529484 L726,436.469284 C726,438.410808 724.438227,440 722.531411,440 L665.468589,440 C663.560562,440 662,438.410808 662,436.469284 L662,413.529484 C662,411.58796 663.560562,410 665.468589,410" id="Fill-135" fill="#E74D91"></path>
                <path d="M590,397 L652.858473,397 C652.858473,386.193416 665,385 665,385 L602.141527,385 C602.141527,385 590,386.193416 590,397" id="Fill-137" fill="#FFFFFF"></path>
                <path d="M733,378 L676.065623,378 C676.065623,367.193416 665,366 665,366 L721.933156,366 C721.933156,366 733,367.193416 733,378" id="Fill-139" fill="#ACABBB"></path>
                <path d="M673.902761,327 L717.096031,327 C718.143456,327 719,327.899746 719,329 C719,330.100254 718.143456,331 717.096031,331 L673.902761,331 C672.856544,331 672,330.100254 672,329 C672,327.899746 672.856544,327 673.902761,327" id="Fill-141" fill="#E2E1E7"></path>
                <path d="M673.902761,348 L717.096031,348 C718.143456,348 719,348.899746 719,350 C719,351.098985 718.143456,352 717.096031,352 L673.902761,352 C672.856544,352 672,351.100254 672,350 C672,348.899746 672.856544,348 673.902761,348" id="Fill-143" fill="#E2E1E7"></path>
                <path d="M673.902761,392 L717.096031,392 C718.143456,392 719,392.899746 719,394 C719,395.100254 718.143456,396 717.096031,396 L673.902761,396 C672.856544,396 672,395.100254 672,394 C672,392.899746 672.856544,392 673.902761,392" id="Fill-145" fill="#E2E1E7"></path>
                <path d="M611.923532,325 L654.076468,325 C655.134655,325 656,325.899746 656,327 C656,328.100254 655.134655,329 654.076468,329 L611.923532,329 C610.866566,329 610,328.100254 610,327 C610,325.899746 610.865345,325 611.923532,325" id="Fill-147" fill="#ACABBB"></path>
                <path d="M611.923532,373 L654.076468,373 C655.134655,373 656,373.899746 656,375 L656,375.001269 C656,376.100254 655.134655,377 654.076468,377 L611.923532,377 C610.866566,377 610,376.100254 610,375.001269 L610,375 C610,373.899746 610.865345,373 611.923532,373" id="Fill-149" fill="#ACABBB"></path>
                <path d="M611.923532,403 L654.076468,403 C655.134655,403 656,403.899746 656,405 C656,406.100254 655.134655,407 654.076468,407 L611.923532,407 C610.866566,407 610,406.100254 610,405 C610,403.899746 610.865345,403 611.923532,403" id="Fill-151" fill="#ACABBB"></path>
                <path d="M577.21493,433 L613.78507,433 C615.553647,433 617,431.559918 617,429.799007 L617,367.199778 C617,365.440082 615.553647,364 613.78507,364 L577.21493,364 C575.447573,364 574,365.440082 574,367.199778 L574,429.799007 C574,431.559918 575.447573,433 577.21493,433" id="Fill-153" fill="#E2E1E7"></path>
                <path d="M614.705456,433 L644.295765,433 C645.78401,433 647,431.788386 647,430.306985 L647,366.6918 C647,365.212829 645.782789,364 644.295765,364 L614.705456,364 C613.217211,364 612,365.212829 612,366.6918 L612,430.306985 C612,431.788386 613.217211,433 614.705456,433" id="Fill-155" fill="#FFFFFF"></path>
                <path d="M567,391 L604.714459,391 C604.714459,383.795337 612,383 612,383 L574.284326,383 C574.284326,383 567,383.795337 567,391" id="Fill-157" fill="#FFFFFF"></path>
                <path d="M574.093818,422 L612.904973,422 C614.0576,422 615,422.951547 615,424.116857 L615,437.881922 C615,439.04601 614.0576,440 612.904973,440 L574.093818,440 C572.9424,440 572,439.047231 572,437.881922 L572,424.116857 C572,422.951547 572.9424,422 574.093818,422" id="Fill-159" fill="#B92F6D"></path>
                <path d="M612.113841,422 L620.699644,422 L620.700863,422 L620.705739,422 L620.714272,422 C620.906883,422.001221 623.003657,422.080619 624.177607,424.646987 C625.410071,427.337948 625.279632,430.028909 628.93314,430.028909 L630.506939,430.028909 C634.160446,430.028909 634.059265,427.27443 635.262472,424.646987 C636.465679,422.018322 638.533196,422.001221 638.725806,422 L638.73434,422 L638.739216,422 L638.740435,422 L646.886159,422 C648.049137,422 649,422.951547 649,424.116857 L649,437.881922 C649,439.04601 648.049137,440 646.886159,440 L612.113841,440 C610.952082,440 610,439.047231 610,437.881922 L610,424.116857 C610,422.951547 610.952082,422 612.113841,422" id="Fill-161" fill="#E74D91"></path>
                <path d="M567,414 L604.714459,414 C604.714459,406.795337 612,406 612,406 L574.284326,406 C574.284326,406 567,406.795337 567,414" id="Fill-163" fill="#FFFFFF"></path>
                <path d="M653,403 L618.671393,403 C618.671393,395.795337 612,395 612,395 L646.328607,395 C646.328607,395 653,395.795337 653,403" id="Fill-165" fill="#ACABBB"></path>
                <path d="M617.175076,372 L643.824924,372 C644.471585,372 645,372.450734 645,373 C645,373.550314 644.471585,374 643.824924,374 L617.175076,374 C616.529647,374 616,373.550314 616,373 C616,372.450734 616.529647,372 617.175076,372" id="Fill-167" fill="#E2E1E7"></path>
                <path d="M617.175076,384 L643.824924,384 C644.471585,384 645,384.449921 645,384.999476 C645,385.550079 644.471585,386 643.824924,386 L617.175076,386 C616.529647,386 616,385.551127 616,384.999476 C616,384.448873 616.529647,384 617.175076,384" id="Fill-169" fill="#E2E1E7"></path>
                <path d="M617.175076,411 L643.824924,411 C644.471585,411 645,411.450734 645,412 C645,412.550314 644.471585,413 643.824924,413 L617.175076,413 C616.529647,413 616,412.550314 616,412 C616,411.450734 616.529647,411 617.175076,411" id="Fill-171" fill="#E2E1E7"></path>
                <path d="M579.171168,371 L604.828832,371 C605.473343,371 606,371.450734 606,372 L606,372.001048 C606,372.550314 605.473343,373 604.828832,373 L579.171168,373 C578.526657,373 578,372.550314 578,372.001048 L578,372 C578,371.450734 578.526657,371 579.171168,371" id="Fill-173" fill="#ACABBB"></path>
                <path d="M579.171168,400 L604.828832,400 C605.473343,400 606,400.450734 606,400.998952 L606,401 C606,401.550314 605.473343,402 604.828832,402 L579.171168,402 C578.526657,402 578,401.550314 578,401 L578,400.998952 C578,400.450734 578.526657,400 579.171168,400" id="Fill-175" fill="#ACABBB"></path>
                <path d="M579.171168,418 L604.828832,418 C605.473343,418 606,418.450734 606,419 C606,419.550314 605.473343,420 604.828832,420 L579.171168,420 C578.526657,420 578,419.550314 578,419 C578,418.450734 578.526657,418 579.171168,418" id="Fill-177" fill="#ACABBB"></path>
                <path d="M472.585343,46.981 C472.26164,46.981 472,46.766 472,46.5 C472,46.235 472.26164,46.019 472.585343,46.019 L525.41344,46.019 C525.737143,46.019 526,46.235 526,46.5 C526,46.766 525.737143,46.981 525.41344,46.981 L472.585343,46.981 Z" id="Fill-183" fill="#FFFFFF"></path>
                <path d="M485.632037,52.962 C485.308334,52.962 485.047911,52.746 485.047911,52.481 C485.047911,52.215 485.308334,52 485.632037,52 L525.41344,52 C525.737143,52 526,52.215 526,52.481 C526,52.746 525.737143,52.962 525.41344,52.962 L485.632037,52.962 Z M472.585343,52.962 C472.262857,52.962 472,52.746 472,52.481 C472,52.215 472.262857,52 472.585343,52 L478.181998,52 C478.505702,52 478.766124,52.215 478.766124,52.481 C478.766124,52.746 478.505702,52.962 478.181998,52.962 L472.585343,52.962 Z" id="Fill-185" fill="#FFFFFF"></path>
                <path d="M472.585343,57.9805 C472.26164,57.9805 472,57.7655 472,57.4995 C472,57.2345 472.26164,57.0195 472.585343,57.0195 L525.41344,57.0195 C525.737143,57.0195 526,57.2345 526,57.4995 C526,57.7655 525.737143,57.9805 525.41344,57.9805 L472.585343,57.9805 Z" id="Fill-187" fill="#FFFFFF"></path>
                <path d="M487.580774,65.981 C487.259598,65.981 487,65.765 487,65.5 C487,65.234 487.259598,65.019 487.580774,65.019 L525.419226,65.019 C525.740402,65.019 526,65.234 526,65.5 C526,65.765 525.740402,65.981 525.419226,65.981 L487.580774,65.981 Z" id="Fill-189" fill="#FFFFFF"></path>
                <path d="M504.57686,71.981 C504.258385,71.981 504,71.765 504,71.5 C504,71.234 504.258385,71.019 504.57686,71.019 L525.421938,71.019 C525.740413,71.019 526,71.234 526,71.5 C526,71.765 525.740413,71.981 525.421938,71.981 L504.57686,71.981 Z" id="Fill-191" fill="#FFFFFF"></path>
                <path d="M492.604271,71.981 C492.270101,71.981 492,71.765 492,71.5 C492,71.234 492.270101,71.019 492.604271,71.019 L500.394472,71.019 C500.728643,71.019 501,71.234 501,71.5 C501,71.765 500.728643,71.981 500.394472,71.981 L492.604271,71.981 Z" id="Fill-193" fill="#FFFFFF"></path>
                <path d="M779.37939,445.378905 C779.37939,444.61774 778.761715,444 777.999371,444 C777.238285,444 776.621868,444.61774 776.621868,445.378905 L776.621868,448.621095 L773.380019,448.621095 C772.617675,448.621095 772,449.238834 772,450.001258 C772,450.761166 772.617675,451.378905 773.380019,451.378905 L776.621868,451.378905 L776.621868,454.622353 C776.621868,455.38226 777.238285,456 777.999371,456 C778.761715,456 779.37939,455.38226 779.37939,454.622353 L779.37939,451.378905 L782.621239,451.378905 C783.383583,451.378905 784,450.761166 784,450.001258 C784,449.238834 783.383583,448.621095 782.621239,448.621095 L779.37939,448.621095 L779.37939,445.378905 Z" id="Fill-195" fill="#BFCCE8"></path>
                <path d="M258.210798,425 L212.789202,425 C210.921254,425 209.224565,425.787027 207.993946,427.055856 C206.763326,428.324685 206,430.074054 206,432 C206,433.925946 206.763326,435.677838 207.993946,436.944144 C209.224565,438.212973 210.921254,439 212.789202,439 L258.210798,439 C260.078746,439 261.776658,438.212973 263.006054,436.944144 C264.236674,435.677838 265,433.925946 265,432 C265,430.074054 264.236674,428.324685 263.006054,427.055856 C261.776658,425.787027 260.078746,425 258.210798,425" id="Fill-197" fill="#0076BD"></path>
                <path d="M157,426 L215.010117,426 C218.303759,426 221,428.699296 221,431.998165 C221,435.29948 218.303759,438 215.010117,438 L157,438 L157,426 Z" id="Fill-199" fill="#FFFFFF"></path>
                <path d="M157.782228,425 C157.349944,425 157,425.365766 157,425.816036 C157,426.266306 157.349944,426.630811 157.782228,426.630811 L215.27962,426.630811 C216.696349,426.630811 217.984724,427.234955 218.919523,428.208649 C219.853111,429.182342 220.434333,430.524324 220.434333,432 C220.434333,433.476937 219.853111,434.818919 218.919523,435.792613 C217.984724,436.765045 216.696349,437.369189 215.27962,437.369189 L157.782228,437.369189 C157.349944,437.369189 157,437.734955 157,438.185225 C157,438.635495 157.349944,439 157.782228,439 L215.27962,439 C217.128633,439 218.808122,438.212973 220.026267,436.944144 C221.244411,435.677838 222,433.925946 222,432 C222,430.074054 221.244411,428.324685 220.026267,427.055856 C218.808122,425.787027 217.128633,425 215.27962,425 L157.782228,425 Z" id="Fill-201" fill="#004A82"></path>
                <path d="M256.952207,432 C256.952207,430.075315 256.170553,428.324685 254.910387,427.055856 C253.651474,425.787027 251.912796,425 250,425 L256.046541,425 C257.959337,425 259.698015,425.787027 260.956928,427.055856 C262.217094,428.324685 263,430.075315 263,432 C263,433.925946 262.217094,435.677838 260.956928,436.944144 C259.698015,438.212973 257.959337,439 256.046541,439 L250,439 C251.912796,439 253.651474,438.212973 254.910387,436.944144 C256.170553,435.677838 256.952207,433.925946 256.952207,432" id="Fill-203" fill="#004A82"></path>
                <path d="M247.952207,432 C247.952207,430.075315 247.1693,428.324685 245.910387,427.055856 C244.651474,425.787027 242.912796,425 241,425 L247.046541,425 C248.959337,425 250.698015,425.787027 251.958181,427.055856 C253.217094,428.324685 254,430.075315 254,432 C254,433.925946 253.217094,435.677838 251.958181,436.944144 C250.698015,438.212973 248.959337,439 247.046541,439 L241,439 C242.912796,439 244.651474,438.212973 245.910387,436.944144 C247.1693,435.677838 247.952207,433.925946 247.952207,432" id="Fill-205" fill="#004A82"></path>
                <path d="M169.868731,413 L209.131269,413 C210.745774,413 212.212956,413.675309 213.276815,414.762963 C214.339466,415.849383 215,417.349383 215,419 C215,420.650617 214.339466,422.150617 213.276815,423.238272 C212.212956,424.325926 210.745774,425 209.131269,425 L169.868731,425 C168.254226,425 166.787044,424.325926 165.723185,423.238272 C164.660534,422.150617 164,420.650617 164,419 C164,417.349383 164.660534,415.849383 165.723185,414.762963 C166.787044,413.675309 168.254226,413 169.868731,413" id="Fill-207" fill="#E74D91"></path>
                <path d="M258,414 L207.24073,414 C204.359732,414 202,416.249651 202,419 C202,421.750349 204.359732,424 207.24073,424 L258,424 L258,414 Z" id="Fill-209" fill="#FFFFFF"></path>
                <path d="M257.313647,413 C257.69199,413 258,413.31358 258,413.698765 C258,414.085185 257.69199,414.398765 257.313647,414.398765 L206.892203,414.398765 C205.650463,414.398765 204.520285,414.916049 203.701755,415.750617 C202.882013,416.583951 202.372705,417.735802 202.372705,419 C202.372705,420.265432 202.882013,421.416049 203.701755,422.250617 C204.520285,423.083951 205.650463,423.602469 206.892203,423.602469 L257.313647,423.602469 C257.69199,423.602469 258,423.916049 258,424.301235 C258,424.687654 257.69199,425 257.313647,425 L206.892203,425 C205.270907,425 203.797553,424.325926 202.730433,423.238272 C201.6621,422.150617 201,420.650617 201,419 C201,417.349383 201.6621,415.849383 202.730433,414.762963 C203.797553,413.675309 205.270907,413 206.892203,413 L257.313647,413 Z" id="Fill-211" fill="#B92F6D"></path>
                <path d="M171.117518,419.000617 C171.117518,417.34983 171.778389,415.848441 172.84474,414.76191 C173.911092,413.675378 175.381712,413 177,413 L171.882482,413 C170.265405,413 168.793574,413.675378 167.728433,414.76191 C166.662082,415.848441 166,417.34983 166,419.000617 C166,420.651404 166.662082,422.151559 167.728433,423.239325 C168.793574,424.325857 170.265405,425 171.882482,425 L177,425 C175.381712,425 173.911092,424.325857 172.84474,423.239325 C171.778389,422.151559 171.117518,420.651404 171.117518,419.000617" id="Fill-213" fill="#B92F6D"></path>
                <path d="M178.11687,419.000617 C178.11687,417.34983 178.779025,415.848441 179.844283,414.76191 C180.910752,413.675378 182.381534,413 184,413 L178.88313,413 C177.264664,413 175.793881,413.675378 174.727413,414.76191 C173.662155,415.848441 173,417.34983 173,419.000617 C173,420.651404 173.662155,422.151559 174.727413,423.239325 C175.793881,424.325857 177.264664,425 178.88313,425 L184,425 C182.381534,425 180.910752,424.325857 179.844283,423.239325 C178.779025,422.151559 178.11687,420.651404 178.11687,419.000617" id="Fill-215" fill="#B92F6D"></path>
                <path d="M527.178128,440 L332.561751,440 C329.161583,440 326.21477,437.300473 326.011248,434 L326.011248,433.998817 C325.806506,430.699527 328.421833,428 331.820783,428 L526.438378,428 C529.837328,428 532.785359,430.699527 532.988881,433.998817 L532.988881,434 C533.192404,437.300473 530.577077,440 527.178128,440" id="Fill-217" fill="#A8A6B5"></path>
                <path d="M526.93746,440 L332.412143,440 C330.210986,440 328.199856,438.797992 327,436.998745 C327.990338,435.202008 329.862601,434 332.06254,434 L526.587857,434 C528.789014,434 530.800144,435.202008 532,436.998745 C531.009662,438.797992 529.138617,440 526.93746,440" id="Fill-219" fill="#96929F"></path>
                <path d="M531.034245,428 L375.580383,428 C371.139261,428 367.735091,424.360926 368.016236,419.912628 L374.380343,319.086154 C374.660271,314.637855 378.52328,311 382.965619,311 L538.418264,311 C542.86182,311 546.26599,314.637855 545.983628,319.086154 L539.620738,419.912628 C539.339593,424.360926 535.476584,428 531.034245,428" id="Fill-221" fill="#96929F"></path>
                <path d="M531.071311,428 L380.562289,428 C376.131768,428 372.735723,424.360926 373.016197,419.912628 L379.3639,319.086154 C379.644374,314.637855 383.498162,311 387.928684,311 L538.437705,311 C542.869441,311 546.264272,314.637855 545.983797,319.086154 L539.636095,419.912628 C539.355621,424.360926 535.501832,428 531.071311,428" id="Fill-223" fill="#FFFFFF"></path>
                <path d="M397.64503,311 L538.018825,423.357926 C538.579833,422.311053 538.932745,421.143527 539.010629,419.912628 L540,404.233899 L423.517131,311 L397.64503,311 Z M522.205933,428 L506.682672,428 L378,324.998125 L378.3736,319.086154 C378.485558,317.32024 379.162176,315.681072 380.216044,314.347802 L522.205933,428 Z" id="Fill-225" fill="#F0EEF0"></path>
                <path d="M368.147956,440 L332.596847,440 C329.177835,440 326.215753,437.300473 326.011176,434 L326.011176,433.998817 C325.806599,430.699527 328.435477,428 331.852039,428 L367.404373,428 C370.82216,428 373.784242,430.699527 373.988819,433.998817 L373.988819,434 C374.193396,437.300473 371.565743,440 368.147956,440" id="Fill-227" fill="#FFFFFF"></path>
                <path d="M529.091487,431 L367.277479,431 C365.579993,431 364.107783,429.650237 364.005495,428.001183 L364.005495,428 C363.904425,426.34858 365.209809,425 366.908513,425 L528.721304,425 C530.420007,425 531.893435,426.34858 531.994505,428 L531.994505,428.001183 C532.095575,429.650237 530.790191,431 529.091487,431" id="Fill-229" fill="#D2CED6"></path>
                <path d="M344.845923,302.293272 C343.649299,296.377068 343.948455,293.065207 345.093795,287.451185 L319.523907,285.305575 L355.112463,269.804514 C355.112463,269.804514 362.664621,260.593439 366.225187,251.547412 C369.784531,242.498957 360.130955,219.494329 356.50079,213.786861 C352.873068,208.079393 345.335561,208.93254 340.370795,212.021102 C340.370795,212.021102 332.91632,200.857377 324.017349,200.109811 C315.117158,199.36346 286.832889,201.954453 278.616482,222.586532 C270.400075,243.216183 283.6191,263.838553 270.386643,285.061645 C270.386643,285.061645 269.220546,287.746085 270.938555,290.006985 C272.656565,292.269098 293.520548,316.435123 341.070454,306.698568 C341.070454,306.698568 344.860575,305.823577 344.845923,302.292058 L344.845923,302.293272 Z" id="Fill-231" fill="#0E1632"></path>
                <path d="M311.515161,309 C314.145727,280.601322 316,255.91726 316,255.91726 L313.563201,247.915617 C313.563201,247.915617 291.571914,265.491824 275.957756,247 C276.699711,259.686449 278.533136,272.460214 270.387579,285.459549 C270.387579,285.459549 269.217621,288.142125 270.943125,290.401455 L271.011802,290.492411 L271.037555,290.523942 L271.097648,290.599132 L271.161419,290.676747 L271.199436,290.725256 L271.312263,290.858657 L271.319621,290.865934 L271.454522,291.024802 L271.493766,291.069674 L271.606592,291.197011 L271.702249,291.306158 L271.775831,291.387411 L271.940165,291.569322 L271.962239,291.591151 L272.163364,291.807018 L272.20874,291.855528 L272.384111,292.039864 L272.505522,292.167201 L272.619574,292.283624 L272.701741,292.36609 L272.873433,292.539512 L273.143235,292.807527 L273.330869,292.988225 L273.473129,293.126477 C278.041361,297.498396 288.685036,305.582505 306.618261,308.38878 L306.670995,308.396057 C308.226033,308.638604 309.836259,308.841131 311.501671,308.998787 L311.515161,309 Z" id="Fill-233" fill="#010518"></path>
                <path d="M345.240616,302.308629 C343.63107,294.288598 344.757269,291.064361 347,280.349192 L306.732346,274 L289.137301,277.416747 C289.137301,277.416747 287.599048,287.296496 283,299.249055 C293.71339,305.893671 312.638849,312.662994 341.504343,306.703665 C341.504343,306.703665 345.255117,305.830711 345.240616,302.307418 L345.240616,302.308629 Z" id="Fill-235" fill="#010518"></path>
                <path d="M331.513863,318.490016 C332.431088,318.941762 330.562442,322.47393 331.413714,322.946432 C332.710774,323.664342 334.867656,325.337024 337.238272,327.68 C343.439001,333.809099 356.055417,381.77845 354.929343,386.557193 C353.116879,394.245427 337.177205,415.366397 337.177205,415.366397 C334.011498,421.478402 330.08612,430.380246 326.232801,440 L247.062048,440 C252.576386,422.080324 254.629454,409.941779 254.776015,399.000972 C259.003064,361.807601 239,353.716459 239,353.716459 L259.717546,304.977918 C267.778373,302.124591 283.852394,303.197793 283.852394,303.197793 C288.100205,303.194131 287.776551,303.018316 291.582238,304.212391 C302.84419,307.744559 318.240369,311.966555 331.513863,318.490016 Z" id="Fill-237" fill="#E74D91"></path>
                <path d="M326.137039,440 L315.050263,440 C317.116386,434.435135 326.725975,408.113642 328.782403,402.496325 C319.43941,400.859313 306.577345,398.614826 304.310063,398.072001 C302.04157,397.527957 293.357798,402.523161 293.357798,402.523161 L294.322392,396.842413 L285,406.293656 L300.941254,376.32853 C300.941254,376.32853 326.953793,382.241047 332.47961,383.254726 C338.005427,384.268404 334.636617,383.497472 335.663014,383.414523 C338.736143,374.712256 333.704742,372.276255 334.30216,368.064182 C334.899579,363.852109 335.07529,323 335.07529,323 C338.43804,324.752896 339.955216,328.563645 341.857745,334.576187 C343.108325,338.532096 349.751423,364.532774 352.499789,379.911171 C353.154162,383.569442 353.671602,386.30674 354,388.490236 C347.836776,404.307773 334.000421,420.233874 326.137039,440" id="Fill-239" fill="#B92F6D"></path>
                <path d="M310.627389,260 L306.71994,271.852126 C306.71994,271.852126 300.808794,299.820711 299.440885,303.44807 C298.966452,304.706218 297.403473,305.091564 295,305.033216 C298.458303,310.032989 305.175022,317.660896 314.88404,319.518337 C321.084181,320.704765 325.419101,319.536571 328.363235,317.783672 C326.289698,316.678689 324.306472,315.365838 324.316105,314.287599 C324.400395,304.742687 326.024786,287.943058 331.148421,284.837193 C337.017422,281.279124 310.627389,260 310.627389,260" id="Fill-241" fill="#E8685B"></path>
                <path d="M296.678063,305.219962 C295.265269,305.405896 293.339176,305.273433 291,305 C293.424726,308.47564 297.338018,312.379051 303.613707,316.333503 C319.151996,326.122412 326.633937,320.788641 329,318.271841 C327.546876,317.531748 326.071752,316.677421 325.212588,315.854691 C310.711897,322.900761 296.679285,305.219962 296.679285,305.219962 L296.678063,305.219962 Z" id="Fill-243" fill="#FFFFFF"></path>
                <path d="M330.742905,319.019475 C330.742905,319.019475 336.915524,380.891475 336.166774,386.117704 C335.41559,391.345145 325.602708,417.090687 317,440 L331.791154,440 C334.714322,434.391808 336.945961,430.014387 337.352599,428.95944 C337.615575,428.277969 338.638257,426.299035 340.043228,423.706535 C342.571932,419.044157 346.347335,412.40042 349.192584,407.747742 C358.260369,392.919076 358.237236,396.382211 355.097358,379.013185 C352.334898,363.726163 343.85759,335.440262 342.601152,331.507858 C340.689709,325.529828 332.34389,318.584158 330.742905,319.019475" id="Fill-245" fill="#1C2344"></path>
                <path d="M329.841337,404.936112 C327.810942,410.653536 325.449848,417.164638 323,423.848439 C327.491185,424.240379 331.077812,424.69356 332.348328,425.195733 C336.839514,426.972936 337.308815,429 337.308815,429 C337.571429,428.311655 338.592705,426.312762 339.995745,423.694113 C342.520973,418.985934 346.28997,412.273963 349.132523,407.574358 C351.855927,403.069498 353.756231,400.236507 355,398 C353.257751,399.540814 350.478419,401.866733 349.125228,402.279494 C347.48997,402.779218 334.902736,404.326156 329.841337,404.936112" id="Fill-247" fill="#0E1632"></path>
                <path d="M288.815304,302.862447 C288.815304,302.862447 300.157689,357.897222 301.712192,373.895504 C303.267914,389.892565 298.27034,401.343285 292.650964,413.363062 C290.757518,417.414836 284.683374,427.754311 277.202253,440 L242.278973,440 L246.014657,353.548707 L236,351.22486 C236.593759,346.88123 237.081446,343.284944 237.414293,340.764491 L257.132705,305.846937 C257.132705,305.846937 264.563839,299.808352 288.815304,302.862447" id="Fill-249" fill="#1C2344"></path>
                <path d="M267.584108,329.486372 C262.013454,351.871086 265.882065,361.154041 265.882065,361.154041 L268.865517,347.22534 C268.865517,347.22534 271.689249,367.7842 274.828762,370.406504 C276.388155,371.707898 294.953343,375.269352 301.91026,376.567087 C302.390636,385.288991 300.8983,392.661933 298.490324,399.595791 C293.497585,400.109275 263.458239,395.876999 262.023208,405.58562 C261.307521,410.426515 261.468459,394.848812 261.468459,394.848812 L259.690824,440 L242.280245,440 L246.01596,353.653033 L236,351.33199 L236.028042,351.128304 L236.056084,350.928277 L236.082908,350.72703 L236.11095,350.527003 L236.137773,350.329416 L236.164596,350.131828 L236.191419,349.93668 L236.218242,349.740312 L236.245065,349.546384 L236.270669,349.354895 L236.296272,349.163406 L236.297492,349.163406 L236.323095,348.973136 L236.348699,348.782867 L236.374303,348.596256 L236.374303,348.595037 L236.399907,348.409646 L236.425511,348.223035 L236.449895,348.040084 L236.475499,347.857133 L236.499884,347.674181 L236.524268,347.494889 L236.548653,347.314377 L236.549872,347.314377 L236.573037,347.136304 L236.573037,347.136304 L236.597422,346.959451 L236.597422,346.958231 L236.621806,346.783818 L236.644972,346.609404 L236.669356,346.43621 L236.692522,346.265455 L236.692522,346.264236 L236.715687,346.093481 L236.737633,345.925166 L236.760798,345.75807 L236.782745,345.590974 L236.782745,345.589755 L236.80591,345.425098 L236.827856,345.262882 L236.827856,345.261662 L236.849802,345.099445 L236.871748,344.938448 L236.893694,344.77867 L236.893694,344.77745 L236.914421,344.620112 L236.914421,344.618893 L236.936367,344.462774 L236.936367,344.461554 L236.957094,344.306656 L236.957094,344.306656 L236.977821,344.151757 L236.998548,343.999297 L237.019275,343.848057 L237.038782,343.698037 L237.038782,343.696817 L237.059509,343.549237 L237.079017,343.402876 L237.079017,343.401656 L237.098525,343.256514 L237.118032,343.112593 L237.118032,343.111373 L237.13754,342.968671 L237.155828,342.827188 L237.175336,342.686926 L237.193624,342.549102 L237.193624,342.547883 L237.211913,342.412499 L237.230201,342.275895 L237.230201,342.274675 L237.24849,342.14173 L237.265559,342.010005 L237.265559,342.008786 L237.282628,341.87828 L237.300917,341.748995 L237.317986,341.620929 L237.317986,341.619709 L237.333836,341.495302 L237.333836,341.494083 L237.350905,341.369676 L237.350905,341.368456 L237.366755,341.246488 L237.366755,341.245269 L237.382605,341.124521 L237.382605,341.123301 L237.399674,341.003773 L237.399674,341.002553 L237.414305,340.885464 L248.092306,322 L267.584108,329.486372 Z" id="Fill-251" fill="#0E1632"></path>
                <path d="M239.934045,330.316148 C233.582435,347.807853 231.855572,407.795977 237.088233,440 L264.952972,440 C253.556403,376.072885 277.49271,330.346664 272.233407,314.147612 C263.814647,288.213994 244.109518,318.820205 239.934045,330.316148" id="Fill-253" fill="#383D5D"></path>
                <path d="M352.758277,271 L355.865036,269.674216 C355.865036,269.674216 361.119276,263.394433 364.901892,256.187544 C364.164263,257.558151 359.268543,265.892663 352.103011,260.798301 C344.313704,255.25808 344,264.032555 344,264.032555 C344,264.032555 348.711616,269.246049 351.448956,270.464496 C351.80263,270.622552 352.248356,270.804199 352.758277,271 L352.758277,271 Z" id="Fill-255" fill="#010518"></path>
                <path d="M348.925859,266.048305 C343.983622,265.537907 339.560393,269.13032 339.048746,274.073568 C338.535873,279.016816 342.128443,283.439851 347.071907,283.951476 C352.016598,284.4631 356.439827,280.870687 356.951474,275.927439 C357.463121,270.984191 353.870551,266.561156 348.925859,266.048305" id="Fill-257" fill="#E8685B"></path>
                <path d="M286.566668,260 C286.342145,260.011049 286.120076,260.029463 285.900461,260.056471 L285.8931,260.057699 L285.894327,260.057699 C281.823474,260.557345 278.489988,263.811798 278.048304,268.066772 C277.537914,273.01413 281.130276,277.439744 286.073454,277.951667 C291.016632,278.462362 295.439605,274.867855 295.951223,269.922952 C296.249359,267.047837 295.161099,264.349501 293.226279,262.493321 C293.231186,265.160966 292.534307,268.404371 289.127207,268.447338 L289.660908,263.282689 C289.87807,261.192031 288.007048,260.062609 286.566668,260" id="Fill-259" fill="#E8685B"></path>
                <path d="M325.580448,218.163396 L325.580448,218.163396 C308.856245,216.427481 293.757617,228.724057 292.024968,245.49034 L289.163176,273.195452 C287.430527,289.961736 299.696565,305.100675 316.420768,306.83659 C333.143755,308.572506 348.242382,296.27715 349.975032,279.509646 L352.836823,251.804534 C354.569473,235.038251 342.303435,219.899312 325.580448,218.163396" id="Fill-261" fill="#F4AD85"></path>
                <path d="M291.523647,250.138772 L289.163129,273.086242 C287.712749,287.183823 296.074336,300.133357 308.648353,305 C290.856862,297.578737 299.977708,266.43933 299.977708,266.43933 C303.58054,265.820585 309.262818,259.0585 312.56511,255.123037 C315.868618,251.1888 318.426252,247.217806 324.125564,247.334203 C329.826093,247.450601 341.873253,250.464685 341.873253,250.464685 C344.39195,256.459771 349.024162,260.822841 351.669402,262.959655 L352.837494,251.601705 C353.185488,248.209023 352.96647,244.883729 352.258315,241.720166 C351.520957,241.283981 350.764132,240.842896 349.963502,240.389558 C325.481037,226.528448 304.701178,237.74182 291.523647,250.138772" id="Fill-263" fill="#ED9072"></path>
                <path d="M348,242.913438 L343.025308,245 C343.025308,245 338.39222,242.183262 332.993889,243.406669 C332.993889,243.406669 322.071116,239.442684 316.284654,241.651345 C310.496967,243.860007 313.900769,235.924783 314.962314,235.57662 C316.023859,235.229665 326.984589,234.54301 331.7695,235.450894 C336.553188,236.358779 343.75137,237.46734 343.75137,237.46734 L348,242.913438 Z" id="Fill-265" fill="#010518"></path>
                <path d="M289.7734,258 L292.656289,258.523715 C292.656289,258.523715 294.65803,267.925889 289,268 L289.520788,262.803607 C289.556704,262.4417 289.53276,262.109437 289.462124,261.806818 L289.7734,258 Z" id="Fill-267" fill="#010518"></path>
                <path d="M333.054425,243.769796 C328.564222,237.759032 321.227288,236.531652 315.521599,244.971706 C310.30993,252.681639 302.568242,266.02636 289.542739,264.937242 L289.476707,264.699528 L289.5085,264.703167 L290.240971,256.09453 C290.240971,256.09453 289.144099,256.378331 287.812446,256.688815 C287.117882,252.190444 286.633645,246.486525 287.362447,241.259247 C288.87141,230.439629 304.047857,214.635297 321.168592,214.026459 C338.288105,213.416407 350.672849,223.501053 353.127053,229.252272 C355.580035,235.003492 358,248.048645 358,248.048645 L354.988189,252.320217 L351.742818,260.813635 C343.867843,253.216495 344.676128,246.030503 341.254671,242.409005 C339.400873,240.450292 336.628735,240.444228 333.054425,243.769796" id="Fill-269" fill="#0E1632"></path>
                <path d="M314,248 C308.882843,255.594361 301.540784,265.890048 290.032329,264.938526 L289.968137,264.705694 L289.999627,264.709258 L290.725113,256.277414 C290.725113,256.277414 289.638701,256.555387 288.319747,256.859494 C288.205897,256.1313 288.098104,255.368657 288,254.581067 C300.995761,258.280244 313.957609,248.032074 314,248" id="Fill-271" fill="#010518"></path>
                <path d="M327.0554,316.91503 C327.0554,316.91503 335.115157,382.488114 334.956107,384.616785 C334.797057,386.745456 332.655433,397 332.655433,397 C332.655433,397 336.546605,390.530846 337.500904,385.16821 C338.455203,379.806796 341,343.532584 341,343.532584 L336.706888,341.244966 L340.6819,341.00899 L334.118938,320.638064 C334.118938,320.638064 333.368075,319.125619 332.333635,318.533846 C331.299194,317.942073 327.53255,316.068941 327.473368,316.039597 C327.414187,316.010253 326.468519,315.908771 326,316.216884 C326,316.216884 326.780454,316.743856 327.0554,316.91503" id="Fill-273" fill="#484E6A"></path>
                <path d="M288.934339,303.763516 C288.934339,303.763516 300.174356,358.469626 301.714829,374.372368 C302.346725,380.89078 301.887604,386.649318 300.741009,392 C302.81068,375.733101 280.026175,337.457761 280.026175,337.457761 L285.947633,334.639184 L278,331.03767 C278,331.03767 281.662097,310.448227 281.896491,307.004514 C282.123635,303.655483 280.357226,303.032774 280.258152,303 C282.873936,303.120172 285.756735,303.362943 288.934339,303.763516" id="Fill-275" fill="#484E6A"></path>
                <path d="M30.7050542,438 C33.8553157,438 36.4101083,440.575781 36.4101083,443.753151 C36.4101083,446.926837 33.8553157,449.503846 30.7050542,449.503846 C27.5547927,449.503846 25,446.926837 25,443.753151 C25,440.575781 27.5547927,438 30.7050542,438 M62.4025056,463.994763 L72.3196798,463.994763 C76.2724238,463.994763 79.5079262,460.735136 79.5079262,456.748691 C79.5079262,452.763474 76.2724238,449.502618 72.3196798,449.502618 L46.1202688,449.502618 C42.98462,449.502618 40.4152147,446.915788 40.4152147,443.753151 C40.4152147,440.588058 42.9834023,438 46.1202688,438 L738.296164,438 C741.43303,438 744,440.588058 744,443.753151 C744,446.915788 741.429377,449.502618 738.296164,449.502618 L702.364673,449.502618 C698.410711,449.502618 695.177644,452.763474 695.177644,456.748691 C695.177644,460.735136 698.410711,463.994763 702.364673,463.994763 L710.78526,463.994763 C717.060211,463.994763 722.192933,469.172108 722.192933,475.497382 C722.192933,481.823883 717.05534,487 710.78526,487 L62.4025056,487 C56.1336435,487 50.9948327,481.823883 50.9948327,475.497382 C50.9948327,469.172108 56.1287726,463.994763 62.4025056,463.994763" id="Fill-277" fill="#01020E"></path>
                <path d="M417.415861,147.9805 C417.739571,147.9805 418,147.7645 418,147.5005 C418,147.2345 417.739571,147.0195 417.415861,147.0195 L364.585356,147.0195 C364.262863,147.0195 364,147.2345 364,147.5005 C364,147.7645 364.262863,147.9805 364.585356,147.9805 L417.415861,147.9805 Z" id="Fill-281" fill="#1A293D"></path>
                <path d="M404.368873,153.962 C404.692583,153.962 404.953012,153.747 404.953012,153.481 C404.953012,153.216 404.692583,153 404.368873,153 L364.585356,153 C364.261646,153 364,153.216 364,153.481 C364,153.747 364.261646,153.962 364.585356,153.962 L404.368873,153.962 Z M417.415861,153.962 C417.738354,153.962 418,153.747 418,153.481 C418,153.216 417.738354,153 417.415861,153 L411.819079,153 C411.496586,153 411.23494,153.216 411.23494,153.481 C411.23494,153.747 411.496586,153.962 411.819079,153.962 L417.415861,153.962 Z" id="Fill-283" fill="#1A293D"></path>
                <path d="M417.415861,159.981 C417.739571,159.981 418,159.765 418,159.5 C418,159.234 417.739571,159.019 417.415861,159.019 L364.585356,159.019 C364.262863,159.019 364,159.234 364,159.5 C364,159.765 364.262863,159.981 364.585356,159.981 L417.415861,159.981 Z" id="Fill-285" fill="#1A293D"></path>
                <path d="M402.420433,166.9805 C402.74161,166.9805 403,166.7645 403,166.4995 C403,166.2335 402.74161,166.0195 402.420433,166.0195 L364.580774,166.0195 C364.259598,166.0195 364,166.2335 364,166.4995 C364,166.7645 364.259598,166.9805 364.580774,166.9805 L402.420433,166.9805 Z" id="Fill-287" fill="#1A293D"></path>
                <path d="M385.42197,173.981 C385.741629,173.981 386,173.765 386,173.5 C386,173.234 385.741629,173.019 385.42197,173.019 L364.57803,173.019 C364.258371,173.019 364,173.234 364,173.5 C364,173.765 364.258371,173.981 364.57803,173.981 L385.42197,173.981 Z" id="Fill-289" fill="#1A293D"></path>
                <path d="M397.396901,173.981 C397.729862,173.981 398,173.765 398,173.5 C398,173.234 397.729862,173.019 397.396901,173.019 L389.604356,173.019 C389.271395,173.019 389,173.234 389,173.5 C389,173.765 389.271395,173.981 389.604356,173.981 L397.396901,173.981 Z" id="Fill-291" fill="#1A293D"></path>
            </g>
        </g>
    </g>
</svg>