<?xml version="1.0" encoding="UTF-8"?>
<svg width="58px" height="51px" viewBox="0 0 58 51" version="1.1" xmlns="http://www.w3.org/2000/svg" xmlns:xlink="http://www.w3.org/1999/xlink">
    <!-- Generator: Sketch 59 (86127) - https://sketch.com -->
    <title>icon5</title>
    <desc>Created with Sketch.</desc>
    <g id="Web-PC" stroke="none" stroke-width="1" fill="none" fill-rule="evenodd">
        <g id="Home" transform="translate(-485.000000, -1098.000000)" fill="#77CDA9" fill-rule="nonzero">
            <g id="Icon5" transform="translate(388.000000, 1019.000000)">
                <g id="Jobs" transform="translate(83.000000, 65.000000)">
                    <path d="M69.9974772,21.0525207 C69.9939779,21.0525207 69.9904785,21.0520833 69.9869792,21.0520833 L54.7578125,21.0520833 L54.7578125,19.3723958 C54.7578125,16.5939128 52.4972331,14.3333333 49.71875,14.3333333 L36.28125,14.3333333 C33.5027669,14.3333333 31.2421875,16.5939128 31.2421875,19.3723958 L31.2421875,21.0520833 L16.0130208,21.0520833 C15.0778199,21.0520833 14.3333333,21.8184408 14.3333333,22.7317708 L14.3333333,59.6848958 C14.3333333,62.4633789 16.5939128,64.7239583 19.3723958,64.7239583 L66.6276042,64.7239583 C69.4060872,64.7239583 71.6666667,62.4633789 71.6666667,59.6848958 L71.6666667,22.7672017 C71.6666667,22.7650146 71.6666667,22.7628276 71.6666667,22.7606404 C71.6023661,21.6574707 70.9239299,21.0586446 69.9974772,21.0525207 Z M34.6015625,19.3723958 C34.6015625,18.4463806 35.3552348,17.6927083 36.28125,17.6927083 L49.71875,17.6927083 C50.6447652,17.6927083 51.3984375,18.4463806 51.3984375,19.3723958 L51.3984375,21.0520833 L34.6015625,21.0520833 L34.6015625,19.3723958 Z M67.6564128,24.4114583 L62.4401957,40.0596721 C62.2114258,40.7468567 61.5710449,41.2083333 60.8471171,41.2083333 L51.3984375,41.2083333 L51.3984375,39.5286458 C51.3984375,38.600881 50.6465149,37.8489583 49.71875,37.8489583 L36.28125,37.8489583 C35.3534851,37.8489583 34.6015625,38.600881 34.6015625,39.5286458 L34.6015625,41.2083333 L25.1528829,41.2083333 C24.4289551,41.2083333 23.7885742,40.7468567 23.5598043,40.0596721 L18.3435872,24.4114583 L67.6564128,24.4114583 Z M48.0390625,41.2083333 L48.0390625,44.5677083 L37.9609375,44.5677083 L37.9609375,41.2083333 L48.0390625,41.2083333 Z M68.3072917,59.6848958 C68.3072917,60.610911 67.5536194,61.3645833 66.6276042,61.3645833 L19.3723958,61.3645833 C18.4463806,61.3645833 17.6927083,60.610911 17.6927083,59.6848958 L17.6927083,33.0824077 L20.3727722,41.1221619 C21.0595194,43.1832784 22.980662,44.5677083 25.1528829,44.5677083 L34.6015625,44.5677083 L34.6015625,46.2473958 C34.6015625,47.1751607 35.3534851,47.9270833 36.28125,47.9270833 L49.71875,47.9270833 C50.6465149,47.9270833 51.3984375,47.1751607 51.3984375,46.2473958 L51.3984375,44.5677083 L60.8471171,44.5677083 C63.019338,44.5677083 64.9404806,43.1832784 65.6272278,41.1221619 L68.3072917,33.0824077 L68.3072917,59.6848958 Z" id="icon5"></path>
                </g>
            </g>
        </g>
    </g>
</svg>