<?xml version="1.0" encoding="UTF-8"?>
<svg width="68px" height="69px" viewBox="0 0 68 69" version="1.1" xmlns="http://www.w3.org/2000/svg" xmlns:xlink="http://www.w3.org/1999/xlink">
    <!-- Generator: Sketch 58 (84663) - https://sketch.com -->
    <title>rocket</title>
    <desc>Created with Sketch.</desc>
    <g id="Web-PC" stroke="none" stroke-width="1" fill="none" fill-rule="evenodd">
        <g id="Home" transform="translate(-1666.000000, -1094.000000)" fill="#A09EFF" fill-rule="nonzero">
            <g id="Card-/-Small-Thumbnail-Copy-5" transform="translate(1573.000000, 1019.000000)">
                <g id="rocket" transform="translate(93.000000, 75.000000)">
                    <path d="M8.11573948,53.8937781 C12.1770714,53.8937781 15.481479,57.1981857 15.481479,61.2595176 C15.481479,65.3208495 12.1773016,68.6250269 8.11573948,68.6250269 C4.05417736,68.6250269 0.75,65.3208495 0.75,61.2595176 C0.75,57.1981857 4.05417736,53.8937781 8.11573948,53.8937781 Z M34.3829481,53.8937781 C38.44428,53.8937781 41.7486876,57.1981857 41.7486876,61.2595176 C41.7486876,65.3208495 38.44428,68.6250269 34.3829481,68.6250269 C30.3216162,68.6250269 27.0172086,65.3208495 27.0172086,61.2595176 C27.0172086,57.1981857 30.321386,53.8937781 34.3829481,53.8937781 Z M60.6501567,53.8937781 C64.7117188,53.8937781 68.0158962,57.1981857 68.0158962,61.2595176 C68.0158962,65.3208495 64.7114886,68.6250269 60.6501567,68.6250269 C56.5888248,68.6250269 53.2844172,65.3208495 53.2844172,61.2595176 C53.2844172,57.1981857 56.5885946,53.8937781 60.6501567,53.8937781 Z M8.11573948,56.6562758 C5.57746459,56.6562758 3.51249762,58.7212427 3.51249762,61.2595176 C3.51249762,63.7975623 5.5776948,65.8625293 8.11573948,65.8625293 C10.6540144,65.8625293 12.7189813,63.7975623 12.7189813,61.2595176 C12.7189813,58.7212427 10.6540144,56.6562758 8.11573948,56.6562758 Z M34.3829481,56.6562758 C31.8446732,56.6562758 29.7797062,58.7212427 29.7797062,61.2595176 C29.7797062,63.7975623 31.8446732,65.8625293 34.3829481,65.8625293 C36.921223,65.8625293 38.9861899,63.7975623 38.9861899,61.2595176 C38.9861899,58.7212427 36.921223,56.6562758 34.3829481,56.6562758 Z M60.6501567,56.6562758 C58.1118818,56.6562758 56.0469148,58.7212427 56.0469148,61.2595176 C56.0469148,63.7975623 58.1118818,65.8625293 60.6501567,65.8625293 C63.1882014,65.8625293 65.2533985,63.7975623 65.2533985,61.2595176 C65.2533985,58.7212427 63.1882014,56.6562758 60.6501567,56.6562758 Z M8.11573948,27.321774 C12.1770714,27.321774 15.481479,30.6261815 15.481479,34.6875134 C15.481479,38.7488454 12.1773016,42.0532529 8.11573948,42.0532529 C4.05417736,42.0532529 0.75,38.7488454 0.75,34.6875134 C0.75,30.6261815 4.05417736,27.321774 8.11573948,27.321774 Z M34.3829481,27.321774 C35.1456276,27.321774 35.7641969,27.9403432 35.7641969,28.7030228 C35.7641969,29.4657023 35.1456276,30.0842716 34.3829481,30.0842716 C31.8446732,30.0842716 29.7797062,32.1494688 29.7797062,34.6875134 C29.7797062,37.2255581 31.8446732,39.2907553 34.3829481,39.2907553 C36.921223,39.2907553 38.9861899,37.2255581 38.9861899,34.6875134 C38.9861899,33.9248339 39.6047592,33.3062646 40.3674388,33.3062646 C41.1301183,33.3062646 41.7486876,33.9246037 41.7486876,34.6875134 C41.7486876,38.7488454 38.44428,42.0532529 34.3829481,42.0532529 C30.3216162,42.0532529 27.0172086,38.7488454 27.0172086,34.6875134 C27.0172086,30.6261815 30.321386,27.321774 34.3829481,27.321774 Z M60.6501567,27.321774 C64.7117188,27.321774 68.0158962,30.6261815 68.0158962,34.6875134 C68.0158962,38.7488454 64.7114886,42.0532529 60.6501567,42.0532529 C56.5888248,42.0532529 53.2844172,38.7488454 53.2844172,34.6875134 C53.2844172,30.6261815 56.5885946,27.321774 60.6501567,27.321774 Z M8.11573948,30.0842716 C5.57746459,30.0842716 3.51249762,32.1492386 3.51249762,34.6875134 C3.51249762,37.2257883 5.5776948,39.2907553 8.11573948,39.2907553 C10.6540144,39.2907553 12.7189813,37.2257883 12.7189813,34.6875134 C12.7189813,32.1492386 10.6540144,30.0842716 8.11573948,30.0842716 Z M60.6501567,30.0842716 C58.1118818,30.0842716 56.0469148,32.1492386 56.0469148,34.6875134 C56.0469148,37.2257883 58.1118818,39.2907553 60.6501567,39.2907553 C63.1882014,39.2907553 65.2533985,37.2257883 65.2533985,34.6875134 C65.2533985,32.1492386 63.1882014,30.0842716 60.6501567,30.0842716 Z M8.11573948,0.75 C12.1770714,0.75 15.481479,4.05417736 15.481479,8.11550927 C15.481479,12.1768412 12.1773016,15.4812488 8.11573948,15.4812488 C7.35305993,15.4812488 6.73449067,14.8626795 6.73449067,14.0999999 C6.73449067,13.3373204 7.35305993,12.7187511 8.11573948,12.7187511 C10.6540144,12.7187511 12.7189813,10.653554 12.7189813,8.11550927 C12.7189813,5.57746459 10.6540144,3.51249762 8.11573948,3.51249762 C5.57746459,3.51249762 3.51249762,5.57746459 3.51249762,8.11550927 C3.51249762,8.87818882 2.89392836,9.49675808 2.13124881,9.49675808 C1.36856926,9.49675808 0.75,8.87818882 0.75,8.11550927 C0.75,4.05417736 4.05417736,0.75 8.11573948,0.75 Z M34.3829481,0.75 C38.44428,0.75 41.7486876,4.05417736 41.7486876,8.11550927 C41.7486876,12.1768412 38.44428,15.4812488 34.3829481,15.4812488 C30.3216162,15.4812488 27.0172086,12.1768412 27.0172086,8.11550927 C27.0172086,4.05417736 30.321386,0.75 34.3829481,0.75 Z M60.6501567,0.75 C64.7117188,0.75 68.0158962,4.05417736 68.0158962,8.11550927 C68.0158962,12.1768412 64.7117188,15.4812488 60.6501567,15.4812488 C56.5885946,15.4812488 53.2844172,12.1768412 53.2844172,8.11550927 C53.2844172,4.05417736 56.5885946,0.75 60.6501567,0.75 Z M34.3829481,3.51249762 C31.8446732,3.51249762 29.7797062,5.57746459 29.7797062,8.11550927 C29.7797062,10.6537842 31.8446732,12.7187511 34.3829481,12.7187511 C36.921223,12.7187511 38.9861899,10.6537842 38.9861899,8.11550927 C38.9861899,5.57746459 36.921223,3.51249762 34.3829481,3.51249762 Z M60.6501567,3.51249762 C58.1118818,3.51249762 56.0469148,5.57746459 56.0469148,8.11550927 C56.0469148,10.6537842 58.1118818,12.7187511 60.6501567,12.7187511 C63.1884316,12.7187511 65.2533985,10.6537842 65.2533985,8.11550927 C65.2533985,5.57746459 63.1882014,3.51249762 60.6501567,3.51249762 Z" id="Combined-Shape"></path>
                </g>
            </g>
        </g>
    </g>
</svg>