<?xml version="1.0" encoding="UTF-8"?>
<svg width="68px" height="69px" viewBox="0 0 68 69" version="1.1" xmlns="http://www.w3.org/2000/svg" xmlns:xlink="http://www.w3.org/1999/xlink">
    <!-- Generator: Sketch 59 (86127) - https://sketch.com -->
    <title>icon1</title>
    <desc>Created with Sketch.</desc>
    <g id="Web-PC" stroke="none" stroke-width="1" fill="none" fill-rule="evenodd">
        <g id="Home" transform="translate(-1666.000000, -1094.000000)" fill="#A09EFF" fill-rule="nonzero">
            <g id="Icon1" transform="translate(1573.000000, 1019.000000)">
                <g id="Others" transform="translate(83.000000, 65.000000)">
                    <path d="M18.1157395,63.8937781 C22.1770714,63.8937781 25.481479,67.1981857 25.481479,71.2595176 C25.481479,75.3208495 22.1773016,78.6250269 18.1157395,78.6250269 C14.0541774,78.6250269 10.75,75.3208495 10.75,71.2595176 C10.75,67.1981857 14.0541774,63.8937781 18.1157395,63.8937781 Z M44.3829481,63.8937781 C48.44428,63.8937781 51.7486876,67.1981857 51.7486876,71.2595176 C51.7486876,75.3208495 48.44428,78.6250269 44.3829481,78.6250269 C40.3216162,78.6250269 37.0172086,75.3208495 37.0172086,71.2595176 C37.0172086,67.1981857 40.321386,63.8937781 44.3829481,63.8937781 Z M70.6501567,63.8937781 C74.7117188,63.8937781 78.0158962,67.1981857 78.0158962,71.2595176 C78.0158962,75.3208495 74.7114886,78.6250269 70.6501567,78.6250269 C66.5888248,78.6250269 63.2844172,75.3208495 63.2844172,71.2595176 C63.2844172,67.1981857 66.5885946,63.8937781 70.6501567,63.8937781 Z M18.1157395,66.6562758 C15.5774646,66.6562758 13.5124976,68.7212427 13.5124976,71.2595176 C13.5124976,73.7975623 15.5776948,75.8625293 18.1157395,75.8625293 C20.6540144,75.8625293 22.7189813,73.7975623 22.7189813,71.2595176 C22.7189813,68.7212427 20.6540144,66.6562758 18.1157395,66.6562758 Z M44.3829481,66.6562758 C41.8446732,66.6562758 39.7797062,68.7212427 39.7797062,71.2595176 C39.7797062,73.7975623 41.8446732,75.8625293 44.3829481,75.8625293 C46.921223,75.8625293 48.9861899,73.7975623 48.9861899,71.2595176 C48.9861899,68.7212427 46.921223,66.6562758 44.3829481,66.6562758 Z M70.6501567,66.6562758 C68.1118818,66.6562758 66.0469148,68.7212427 66.0469148,71.2595176 C66.0469148,73.7975623 68.1118818,75.8625293 70.6501567,75.8625293 C73.1882014,75.8625293 75.2533985,73.7975623 75.2533985,71.2595176 C75.2533985,68.7212427 73.1882014,66.6562758 70.6501567,66.6562758 Z M18.1157395,37.321774 C22.1770714,37.321774 25.481479,40.6261815 25.481479,44.6875134 C25.481479,48.7488454 22.1773016,52.0532529 18.1157395,52.0532529 C14.0541774,52.0532529 10.75,48.7488454 10.75,44.6875134 C10.75,40.6261815 14.0541774,37.321774 18.1157395,37.321774 Z M44.3829481,37.321774 C45.1456276,37.321774 45.7641969,37.9403432 45.7641969,38.7030228 C45.7641969,39.4657023 45.1456276,40.0842716 44.3829481,40.0842716 C41.8446732,40.0842716 39.7797062,42.1494688 39.7797062,44.6875134 C39.7797062,47.2255581 41.8446732,49.2907553 44.3829481,49.2907553 C46.921223,49.2907553 48.9861899,47.2255581 48.9861899,44.6875134 C48.9861899,43.9248339 49.6047592,43.3062646 50.3674388,43.3062646 C51.1301183,43.3062646 51.7486876,43.9246037 51.7486876,44.6875134 C51.7486876,48.7488454 48.44428,52.0532529 44.3829481,52.0532529 C40.3216162,52.0532529 37.0172086,48.7488454 37.0172086,44.6875134 C37.0172086,40.6261815 40.321386,37.321774 44.3829481,37.321774 Z M70.6501567,37.321774 C74.7117188,37.321774 78.0158962,40.6261815 78.0158962,44.6875134 C78.0158962,48.7488454 74.7114886,52.0532529 70.6501567,52.0532529 C66.5888248,52.0532529 63.2844172,48.7488454 63.2844172,44.6875134 C63.2844172,40.6261815 66.5885946,37.321774 70.6501567,37.321774 Z M18.1157395,40.0842716 C15.5774646,40.0842716 13.5124976,42.1492386 13.5124976,44.6875134 C13.5124976,47.2257883 15.5776948,49.2907553 18.1157395,49.2907553 C20.6540144,49.2907553 22.7189813,47.2257883 22.7189813,44.6875134 C22.7189813,42.1492386 20.6540144,40.0842716 18.1157395,40.0842716 Z M70.6501567,40.0842716 C68.1118818,40.0842716 66.0469148,42.1492386 66.0469148,44.6875134 C66.0469148,47.2257883 68.1118818,49.2907553 70.6501567,49.2907553 C73.1882014,49.2907553 75.2533985,47.2257883 75.2533985,44.6875134 C75.2533985,42.1492386 73.1882014,40.0842716 70.6501567,40.0842716 Z M18.1157395,10.75 C22.1770714,10.75 25.481479,14.0541774 25.481479,18.1155093 C25.481479,22.1768412 22.1773016,25.4812488 18.1157395,25.4812488 C17.3530599,25.4812488 16.7344907,24.8626795 16.7344907,24.0999999 C16.7344907,23.3373204 17.3530599,22.7187511 18.1157395,22.7187511 C20.6540144,22.7187511 22.7189813,20.653554 22.7189813,18.1155093 C22.7189813,15.5774646 20.6540144,13.5124976 18.1157395,13.5124976 C15.5774646,13.5124976 13.5124976,15.5774646 13.5124976,18.1155093 C13.5124976,18.8781888 12.8939284,19.4967581 12.1312488,19.4967581 C11.3685693,19.4967581 10.75,18.8781888 10.75,18.1155093 C10.75,14.0541774 14.0541774,10.75 18.1157395,10.75 Z M44.3829481,10.75 C48.44428,10.75 51.7486876,14.0541774 51.7486876,18.1155093 C51.7486876,22.1768412 48.44428,25.4812488 44.3829481,25.4812488 C40.3216162,25.4812488 37.0172086,22.1768412 37.0172086,18.1155093 C37.0172086,14.0541774 40.321386,10.75 44.3829481,10.75 Z M70.6501567,10.75 C74.7117188,10.75 78.0158962,14.0541774 78.0158962,18.1155093 C78.0158962,22.1768412 74.7117188,25.4812488 70.6501567,25.4812488 C66.5885946,25.4812488 63.2844172,22.1768412 63.2844172,18.1155093 C63.2844172,14.0541774 66.5885946,10.75 70.6501567,10.75 Z M44.3829481,13.5124976 C41.8446732,13.5124976 39.7797062,15.5774646 39.7797062,18.1155093 C39.7797062,20.6537842 41.8446732,22.7187511 44.3829481,22.7187511 C46.921223,22.7187511 48.9861899,20.6537842 48.9861899,18.1155093 C48.9861899,15.5774646 46.921223,13.5124976 44.3829481,13.5124976 Z M70.6501567,13.5124976 C68.1118818,13.5124976 66.0469148,15.5774646 66.0469148,18.1155093 C66.0469148,20.6537842 68.1118818,22.7187511 70.6501567,22.7187511 C73.1884316,22.7187511 75.2533985,20.6537842 75.2533985,18.1155093 C75.2533985,15.5774646 73.1882014,13.5124976 70.6501567,13.5124976 Z" id="icon1"></path>
                </g>
            </g>
        </g>
    </g>
</svg>