<?xml version="1.0" encoding="UTF-8"?>
<svg width="82px" height="74px" viewBox="0 0 82 74" version="1.1" xmlns="http://www.w3.org/2000/svg" xmlns:xlink="http://www.w3.org/1999/xlink">
    <!-- Generator: Sketch 58 (84663) - https://sketch.com -->
    <title>icon/image/photo_24px</title>
    <desc>Created with Sketch.</desc>
    <defs>
        <path d="M46.2043943,26.9737023 C55.8943943,26.9737023 63.7587422,34.8380501 63.7587422,44.5280501 C63.7587422,54.2180501 55.8943943,62.082398 46.2043943,62.082398 C36.5143943,62.082398 28.6500465,54.2180501 28.6500465,44.5280501 C28.6500465,34.8380501 36.5143943,26.9737023 46.2043943,26.9737023 Z M46.2043943,33.9954414 C42.4414556,33.9954414 38.9643568,36.0029452 37.0828874,39.2617457 C35.2014181,42.5205462 35.2014181,46.535554 37.0828874,49.7943545 C38.9643568,53.053155 42.4414556,55.0606588 46.2043943,55.0606588 C49.967333,55.0606588 53.4444318,53.053155 55.3259012,49.7943545 C57.2073706,46.535554 57.2073706,42.5205462 55.3259012,39.2617457 C53.4444318,36.0029452 49.967333,33.9954414 46.2043943,33.9954414 Z M14.6684783,0.135869741 C16.5350906,0.135869741 18.0736316,1.61219039 18.174127,3.45485728 L18.1793478,3.64673931 L18.1793478,10.6684784 L25.201087,10.6684784 C27.1320652,10.6684784 28.7119565,12.2483697 28.7119565,14.179348 C28.7119565,16.0459603 27.2356359,17.5845014 25.392969,17.6849968 L25.201087,17.6902176 L18.1793478,17.6902176 L18.1793478,24.7119567 C18.1793478,26.642935 16.5994565,28.2228263 14.6684783,28.2228263 C12.8018659,28.2228263 11.2633249,26.7465056 11.1628295,24.9038387 L11.1576087,24.7119567 L11.1576087,17.6902176 L4.13586957,17.6902176 C2.2048913,17.6902176 0.625,16.1103263 0.625,14.179348 C0.625,12.3127357 2.10132065,10.7741946 3.94398754,10.6736992 L4.13586957,10.6684784 L11.1576087,10.6684784 L11.1576087,3.64673931 C11.1576087,1.71576105 12.7375,0.135869741 14.6684783,0.135869741 Z M58.0524731,22.4401811 L53.6899094,17.6902176 L39.2750645,17.6902176 C37.3360648,17.6902176 35.7641949,16.1183477 35.7641949,14.179348 C35.7641949,12.2403483 37.3360648,10.6684784 39.2750645,10.6684784 L53.7093478,10.6684784 C55.6754348,10.6684784 57.5713043,11.5110871 58.8703261,12.9505437 L63.2238043,17.6902176 L74.3532609,17.6902176 C78.2152174,17.6902176 81.375,20.8500002 81.375,24.7119567 L81.375,66.8423915 C81.375,70.704348 78.2152174,73.8641306 74.3532609,73.8641306 L18.1793478,73.8641306 C14.3173913,73.8641306 11.1576087,70.704348 11.1576087,66.8423915 L11.1576087,38.9508284 C11.1576087,37.0118287 12.7294785,35.4399588 14.6684783,35.4399588 C16.607478,35.4399588 18.1793478,37.0118287 18.1793478,38.9508284 L18.1793478,66.8423915 L74.3532609,66.8423915 L74.3532609,24.7119567 L63.2238043,24.7119567 C61.2580231,24.7119567 59.3822561,23.8879287 58.0524731,22.4401811 Z" id="path-1"></path>
    </defs>
    <g id="Web-PC" stroke="none" stroke-width="1" fill="none" fill-rule="evenodd">
        <g id="Article-Input" transform="translate(-592.000000, -1015.000000)">
            <g id="Group-7" transform="translate(88.000000, 702.000000)">
                <g id="Group-4" transform="translate(0.000000, 98.000000)">
                    <g id="Group-2" transform="translate(440.000000, 215.000000)">
                        <g id="icon/image/photo_24px" transform="translate(64.000000, 0.000000)">
                            <mask id="mask-2" fill="white">
                                <use xlink:href="#path-1"></use>
                            </mask>
                            <g id="icon/image/add_a_photo_24px" fill-rule="nonzero"></g>
                            <g id="✱-/-Color-/-Icons-/-Black-/-Normal" mask="url(#mask-2)" fill="#37474F">
                                <g transform="translate(-10.000000, -15.029269)" id="Rectangle">
                                    <rect x="0" y="0" width="102" height="102"></rect>
                                </g>
                            </g>
                        </g>
                    </g>
                </g>
            </g>
        </g>
    </g>
</svg>