<?xml version="1.0" encoding="UTF-8"?>
<svg width="66px" height="66px" viewBox="0 0 66 66" version="1.1" xmlns="http://www.w3.org/2000/svg" xmlns:xlink="http://www.w3.org/1999/xlink">
    <!-- Generator: Sketch 59 (86127) - https://sketch.com -->
    <title>icon6</title>
    <desc>Created with Sketch.</desc>
    <g id="Web-PC" stroke="none" stroke-width="1" fill="none" fill-rule="evenodd">
        <g id="Home" transform="translate(-185.000000, -1094.000000)" fill="#829AE0" fill-rule="nonzero">
            <g id="Icon6" transform="translate(92.000000, 1019.000000)">
                <g id="rocket" transform="translate(83.000000, 65.000000)">
                    <path d="M30.1584945,64.8587694 C30.6370605,64.3803898 31.4129843,64.3803898 31.8911827,64.8588919 C32.3696262,65.337394 32.3696262,66.1132904 31.8910602,66.5917925 L31.8910602,66.5917925 L23.5915055,74.8911387 C23.1129395,75.3697634 22.3370157,75.3695183 21.8588173,74.8910162 C21.3803738,74.4125141 21.3803738,73.6366177 21.8589398,73.1581156 L21.8589398,73.1581156 Z M19.4084945,64.8587694 C19.8869379,64.3803898 20.6628618,64.3803898 21.1411827,64.8588919 C21.6196262,65.337394 21.6196262,66.1132904 21.1410602,66.5917925 L21.1410602,66.5917925 L12.8415055,74.8911387 C12.3629395,75.3697634 11.5870157,75.3695183 11.1088173,74.8910162 C10.6303738,74.4125141 10.6303738,73.6366177 11.1089398,73.1581156 L11.1089398,73.1581156 Z M38.1495514,61.1340694 C38.4393071,60.844298 38.9092695,60.8441496 39.1992478,61.133921 C39.4890778,61.4236182 39.489152,61.8934857 39.1993963,62.1833314 L39.1993963,62.1833314 L37.1004486,64.2825972 C36.8106929,64.5724428 36.3407305,64.5724428 36.0507522,64.2827456 C35.7609222,63.9930484 35.760848,63.5231809 36.0506037,63.2333353 L36.0506037,63.2333353 Z M19.4081335,54.1088469 C19.8866315,53.6304048 20.6626438,53.6304048 21.1410193,54.1087244 C21.6196398,54.587289 21.6196398,55.3629656 21.1411418,55.8415302 L21.1411418,55.8415302 L12.8418665,64.1410612 C12.3633685,64.6196258 11.5874787,64.6196258 11.1089807,64.1411837 C10.6303602,63.6626191 10.6303602,62.8869425 11.1088582,62.4083779 L11.1088582,62.4083779 Z M74.0007804,10.750856 C74.3367681,10.7381932 74.6599723,10.8665099 74.896828,11.1032446 C75.133563,11.3400999 75.261277,11.6646303 75.2492171,11.9992909 C75.2394486,12.2718434 74.9785938,18.7643804 72.2506534,26.4824386 C70.0670951,32.6662436 66.9409381,37.8209822 62.9587722,41.8031423 C62.0661013,42.6958119 61.119764,43.5641206 60.1372472,44.3945614 C62.4549112,48.3319795 61.728184,51.4870755 60.6607658,53.4814118 C58.2029662,58.0739205 51.5296424,60.9166667 46.7563497,60.9166667 C46.2685283,60.9166667 45.8288258,60.6227683 45.6422598,60.172092 C45.4555731,59.7215362 45.5588055,59.2028424 45.903597,58.8579309 C48.3254581,56.4361939 48.1739863,53.4488502 48.04579,52.4728471 L48.04579,52.4728471 L47.6234537,52.0505114 C45.6453953,52.8817964 43.6789145,53.5511177 41.7669442,54.0420739 C41.1104054,54.2103087 40.3803015,54.1759381 39.6709405,53.8969939 C39.1358445,55.0578744 38.3502652,56.1779926 37.3752255,57.1530309 C34.2708968,60.2573551 26.7050228,60.887723 26.3844717,60.9129281 C26.3527542,60.9154607 26.3210368,60.9166667 26.28944,60.9166667 C25.9710597,60.9166667 25.663895,60.7904001 25.4368078,60.5634339 C25.1872893,60.3139157 25.059696,59.967557 25.0874337,59.6157714 C25.1127594,59.2952208 25.7431283,51.729599 28.847457,48.6251542 C29.8228585,47.6497542 30.9430989,46.8640554 32.1042223,46.3289602 C31.8407143,45.6589153 31.7808974,44.9264004 31.9581774,44.2341655 C32.4492549,42.3213538 33.1188183,40.3546346 33.9499839,38.3768204 L33.9499839,38.3768204 L33.5276476,37.9544847 C32.5517637,37.826168 29.5644157,37.6746963 27.1424339,40.0966746 C26.9117288,40.3272588 26.6033581,40.4499074 26.28944,40.4499074 C26.134109,40.4499074 25.9773308,40.4198784 25.8281503,40.3580114 C25.3775939,40.1714456 25.0833333,39.7316231 25.0833333,39.2439231 C25.0833333,34.4706373 27.925963,27.7972027 32.5184785,25.3394067 C34.5130588,24.27199 37.6681595,23.5452639 41.6054627,25.8629245 C42.4362665,24.8799267 43.3045764,23.9337114 44.1968855,23.0414036 C48.1789308,19.0592435 53.333677,15.9329705 59.5179734,13.7494153 C67.2356811,11.0215995 73.7281069,10.7606245 74.0007804,10.750856 Z M33.6405279,48.3014681 C32.558276,48.6979957 31.4815717,49.4020493 30.5529624,50.3306572 C28.8948522,51.988765 28.0201505,55.8785467 27.6629375,58.3373075 C30.1215812,57.9802155 34.0114892,57.1056357 35.66972,55.4474073 C36.5984499,54.5187994 37.3023839,53.4420967 37.6989121,52.3598464 L37.6989121,52.3598464 Z M58.2316687,45.9210963 C55.662436,47.874429 52.8948186,49.5725755 49.9723527,50.9880393 C49.9865833,51.0110736 50.2410464,51.2071666 50.339093,51.5971819 C50.7614293,53.2762738 50.5066045,56.0453343 49.3506669,58.2205682 C52.9761021,57.4715314 56.9544089,55.2954533 58.5344918,52.3433244 C59.5900913,50.3708165 59.4867383,48.2141548 58.2316687,45.9210963 Z M35.8003283,40.2271621 C35.185999,41.7854144 34.6808115,43.3288331 34.2945341,44.8331779 C34.2054118,45.1815867 34.336623,45.5857121 34.637396,45.8870875 C36.5395977,47.7894071 37.4007924,48.6506005 37.7519755,49.0017831 C37.9434861,49.1931728 38.5538356,49.8035215 40.1140198,51.3637034 C40.4145515,51.6637522 40.818798,51.7949633 41.1678104,51.7055999 C42.6715544,51.3195643 44.2147341,50.8144981 45.7732299,50.2000491 L45.7732299,50.2000491 Z M20.2333724,46.8006327 C20.5232922,46.5108755 20.9930855,46.5108755 21.2827827,46.8007811 C21.5724799,47.0906868 21.5724057,47.5606516 21.2825601,47.8504088 L21.2825601,47.8504088 L19.1832943,49.9493673 C18.8933002,50.2392729 18.4235069,50.2389761 18.1338839,49.9492188 C17.8441867,49.6593132 17.8442609,49.1893484 18.1341065,48.8995912 L18.1341065,48.8995912 Z M59.6114373,16.2837913 C54.086574,18.3305878 49.475607,21.1740576 45.9028734,24.7469066 C44.8166417,25.8330161 43.7669515,27.0033032 42.7823845,28.2253271 C40.418893,31.1605722 38.416715,34.3916453 36.8228839,37.839072 L36.8228839,37.839072 L48.1615646,49.177495 C51.6087551,47.5836662 54.8398329,45.5814911 57.7754442,43.2177619 C58.9966256,42.2340405 60.1667939,41.1842312 61.2535079,40.0976394 C64.8266033,36.5246697 67.6700772,31.9137094 69.7166355,26.3889748 L69.7166355,26.3889748 Z M43.5240625,39.9421386 C44.2246042,39.2415094 45.3587292,39.2415094 46.0592708,39.9421386 C46.7580208,40.640976 46.7580208,41.7752427 46.0592708,42.475872 C45.3587292,43.1747093 44.2246042,43.1747093 43.5240625,42.475872 C42.8253125,41.7752427 42.8253125,40.640976 43.5240625,39.9421386 Z M48.3748426,36.1407303 C48.7849152,35.7308677 49.449302,35.7308677 49.8592697,36.1407303 C50.2691323,36.550698 50.2691323,37.2152948 49.8592697,37.6251574 L49.8592697,37.6251574 L48.3751574,39.1092697 C47.9651898,39.5191323 47.300698,39.5191323 46.8907303,39.1092697 C46.4808677,38.699302 46.4808677,38.0347052 46.8907303,37.6248426 L46.8907303,37.6248426 Z M40.0791668,27.7687414 C37.7863461,26.5136736 35.6299225,26.4102001 33.6570499,27.4659188 C30.7047961,29.0459994 28.5288355,33.0244209 27.7796769,36.6499715 C31.0171465,34.9293937 34.2080649,35.6157194 34.373888,35.6532255 C34.7771697,35.7441567 34.9942472,36.0170709 35.0122164,36.028166 C36.4276822,33.1054631 38.1258312,30.3377292 40.0791668,27.7687414 Z M52.2620537,23.6008245 C55.0633576,20.7996535 59.5979691,20.7997968 62.3991296,23.6008245 C65.2005768,26.4021389 65.2000034,30.9369108 62.3991296,33.7377951 C59.6045634,36.5323717 55.0573367,36.5312249 52.2624838,33.7380818 C49.468061,30.9419282 49.4682043,26.3946844 52.2620537,23.6008245 Z M60.3718004,25.6281613 C58.6909608,23.9473153 55.9700792,23.947602 54.2895262,25.6281613 C52.6131306,27.3044199 52.6132739,30.0330529 54.2898129,31.7106016 C55.9669254,33.3867169 58.6955482,33.3867169 60.3718004,31.7103149 C62.0526401,30.0296123 62.0523534,27.3085772 60.3718004,25.6281613 Z M72.7370276,13.2635243 C70.7428091,13.455517 66.7474979,13.9896474 62.1549825,15.4160856 L62.1549825,15.4160856 L70.5843425,23.8454334 C72.0106622,19.253407 72.544914,15.2581017 72.7370276,13.2635243 Z" id="icon6"></path>
                </g>
            </g>
        </g>
    </g>
</svg>