<?xml version="1.0" encoding="UTF-8"?>
<svg width="16px" height="16px" viewBox="0 0 16 16" version="1.1" xmlns="http://www.w3.org/2000/svg" xmlns:xlink="http://www.w3.org/1999/xlink">
    <!-- Generator: Sketch 58 (84663) - https://sketch.com -->
    <title>Shape</title>
    <desc>Created with Sketch.</desc>
    <g id="Icons" stroke="none" stroke-width="1" fill="none" fill-rule="evenodd">
        <g id="search" transform="translate(-4.000000, -4.000000)" fill="#636363" fill-rule="nonzero">
            <path d="M19.8616101,19.1840355 L15.9724994,15.2957871 C17.0157463,14.0966741 17.6473719,12.5321508 17.6473719,10.8221729 C17.6473719,7.05809313 14.5850521,4 10.823686,4 C7.05877135,4 4,7.0616408 4,10.8221729 C4,14.5827051 7.0623198,17.6443459 10.823686,17.6443459 C12.534043,17.6443459 14.0989133,17.0128603 15.2982923,15.9698448 L19.187403,19.8580931 C19.2796629,19.9503326 19.4038589,20 19.5245065,20 C19.6451541,20 19.7693502,19.9538803 19.8616101,19.8580931 C20.04613,19.6736142 20.04613,19.3685144 19.8616101,19.1840355 Z M4.95453537,10.8221729 C4.95453537,7.58669623 7.58749168,4.9578714 10.8201375,4.9578714 C14.0563318,4.9578714 16.6857396,7.5902439 16.6857396,10.8221729 C16.6857396,14.054102 14.0563318,16.6900222 10.8201375,16.6900222 C7.58749168,16.6900222 4.95453537,14.0576497 4.95453537,10.8221729 Z" id="Shape"></path>
        </g>
    </g>
</svg>