<?xml version="1.0" encoding="UTF-8"?>
<svg width="718px" height="703px" viewBox="0 0 718 703" version="1.1" xmlns="http://www.w3.org/2000/svg" xmlns:xlink="http://www.w3.org/1999/xlink">
    <!-- Generator: Sketch 58 (84663) - https://sketch.com -->
    <title>Group 146</title>
    <desc>Created with Sketch.</desc>
    <defs>
        <polygon id="path-1" points="0.160815 0.579902411 163.401175 0.579902411 163.401175 43.4960937 0.160815 43.4960937"></polygon>
        <polygon id="path-3" points="0 0.783836475 226.18031 0.783836475 226.18031 8.26373402 0 8.26373402"></polygon>
    </defs>
    <g id="Web-PC" stroke="none" stroke-width="1" fill="none" fill-rule="evenodd">
        <g id="Sign-Up" transform="translate(-126.000000, -206.000000)">
            <g id="Group-146" transform="translate(126.000000, 206.000000)">
                <g id="Group-42" transform="translate(9.000000, 0.000000)">
                    <path d="M0.85768,218.662997 L198.74178,218.045099 L148.26433,207.739702 C148.26433,207.739702 150.325105,151.06179 125.599355,162.397017 C100.87538,173.732244 99.84588,198.465909 99.84588,198.465909 C99.84588,198.465909 90.57328,175.793679 77.18268,184.037642 C63.790305,192.283381 57.60798,206.709872 57.60798,206.709872 C57.60798,206.709872 52.80128,190.397727 44.215605,189.472656 C36.87598,188.680753 22.912055,204.197443 15.59373,212.924361 L0.85768,218.662997 Z" id="Fill-1" fill="#E5CBCB"></path>
                    <g id="Group-5" transform="translate(544.925000, 267.110795)">
                        <mask id="mask-2" fill="white">
                            <use xlink:href="#path-1"></use>
                        </mask>
                        <g id="Clip-4"></g>
                        <path d="M0.160815,43.4960937 L163.40224,43.0379972 L121.76074,35.3799716 C121.76074,35.3799716 123.459415,-6.72940341 103.064665,1.69389205 C82.66814,10.1154119 81.81969,28.490767 81.81969,28.490767 C81.81969,28.490767 74.16944,11.6459517 63.123615,17.7716619 C52.076015,23.8955966 46.97644,34.6147017 46.97644,34.6147017 C46.97644,34.6147017 43.01109,22.4946733 35.92884,21.809304 C29.87254,21.2215909 18.354565,32.7485795 12.31779,39.2329545 L0.160815,43.4960937 Z" id="Fill-3" fill="#E5CBCB" mask="url(#mask-2)"></path>
                    </g>
                    <path d="M279.523273,76.6063565 L442.762923,76.0967685 L401.121423,67.595348 C401.121423,67.595348 402.821873,20.8410866 382.425348,30.1912287 C362.030598,39.5431463 361.180373,59.9462003 361.180373,59.9462003 C361.180373,59.9462003 353.533673,41.2423651 342.484298,48.0445668 C331.438473,54.8449929 326.338898,66.7466264 326.338898,66.7466264 C326.338898,66.7466264 322.373548,53.2895952 315.291298,52.5261009 C309.234998,51.8744673 297.717023,64.6727628 291.680248,71.8726918 L279.523273,76.6063565 Z" id="Fill-6" fill="#E5CBCB"></path>
                    <path d="M543.12373,157.023615 L552.06973,182.803089 C552.447805,183.893288 551.801705,185.011896 550.69943,185.393643 L538.35963,189.678089 C537.417105,190.00657 536.206555,189.534268 535.826705,188.44407 L526.880705,162.664595 C517.30813,162.320135 508.395855,156.28853 505.030455,146.590376 C500.703005,134.120561 507.323755,120.438033 519.830405,116.094993 C532.32818,111.755504 545.997455,118.390803 550.32668,130.860618 C553.69208,140.558771 550.431405,150.816229 543.12373,157.023615 L543.12373,157.023615 Z M468.607455,65.0118963 C463.165305,49.3318537 471.475855,32.1443537 487.15088,26.7022372 C502.815255,21.2618963 519.99193,29.5964134 525.43408,45.2782315 L530.81588,60.7913707 L473.99103,80.5250355 L468.607455,65.0118963 Z M566.68153,48.3375355 L554.26718,52.6486151 L548.883605,37.1354759 C538.954255,8.5221946 507.59178,-6.67134233 479.012505,3.25230824 C450.41903,13.1812855 435.24988,44.5342685 445.177455,73.1475497 L450.562805,88.6606889 L438.10763,92.985973 C428.42323,96.3488991 423.21893,107.06978 426.586105,116.769709 L461.61928,217.717862 C465.036155,227.563388 475.767805,232.77468 485.452205,229.411754 L614.026105,184.761541 C623.86848,181.343572 629.074555,170.597834 625.65768,160.754084 L590.624505,59.8041548 C587.25733,50.1060014 576.52213,44.9195668 566.68153,48.3375355 L566.68153,48.3375355 Z" id="Fill-8" fill="#B7AEEF"></path>
                    <path d="M481.638263,547.045277 C478.583488,541.090021 485.736738,534.713956 492.323763,533.536754 C498.909013,532.359553 506.371113,533.259766 511.618013,529.104936 C518.620388,523.556286 518.261838,511.454013 526.022138,507.025746 C532.250613,503.469283 540.495488,506.862393 547.094938,504.051669 C555.291888,500.560902 557.597613,489.136896 565.640138,485.301669 C572.051438,482.244141 580.434763,485.699396 583.707863,492.004439 C586.979188,498.311257 585.473988,506.461115 580.937088,511.926314 C577.388863,516.201882 572.134863,519.197266 569.930313,524.296697 C566.477938,532.283203 571.927188,541.96005 568.749938,550.058416 C562.883563,565.017578 535.166938,560.514737 530.351363,575.844993 C529.281038,579.257635 529.731888,582.936612 529.451438,586.503729 C528.622513,597.110973 521.146213,606.379439 511.910888,611.66353 C502.677338,616.947621 491.874688,618.780007 481.261963,619.522195 C476.927413,619.825817 472.356788,619.916371 468.490838,617.927734 C464.853863,616.05451 462.322713,612.570845 460.347138,608.989524 C447.602638,585.859197 442.348638,555.718928 481.638263,547.045277" id="Fill-10" fill="#4ABB9A"></path>
                    <path d="M277.224647,534.75142 C284.077922,530.221946 280.266997,519.092685 273.930247,513.863636 C267.591722,508.636364 259.068172,505.106534 255.960147,497.501776 C251.810197,487.347301 259.478197,474.620028 253.844347,465.207741 C249.323422,457.652699 238.460422,456.312145 233.094597,449.334162 C226.427697,440.660511 230.838572,427.050781 224.546197,418.103693 C219.530047,410.96946 208.480672,409.616477 201.185422,414.389205 C193.888397,419.161932 190.592222,428.787287 192.154222,437.366832 C193.375422,444.07848 197.191672,450.447443 196.479897,457.230114 C195.365197,467.849787 183.710547,474.921875 182.231972,485.498935 C179.500247,505.03196 211.860272,516.912287 207.779547,536.210938 C206.872522,540.506037 204.174522,544.17081 202.326747,548.153409 C196.827797,560.001776 199.245347,574.419389 205.940647,585.632102 C212.637722,596.848366 223.088922,605.316051 233.992747,612.503551 C238.447997,615.440341 243.283097,618.290128 248.615197,618.490767 C253.633122,618.678977 258.436272,616.477273 262.706922,613.835227 C290.262022,596.773793 314.027497,567.698864 277.224647,534.75142" id="Fill-12" fill="#FFAB27"></path>
                    <path d="M457.023982,559.246982 C466.607207,555.111683 475.239032,547.462536 482.394057,540.074396 C501.693632,520.147195 513.658907,494.122692 519.951282,467.334695 C525.645482,443.092862 526.916382,418.027166 525.725357,393.217152 C525.624182,391.116655 522.347532,391.104226 522.446932,393.217152 C525.121857,448.955788 514.058282,517.356001 464.189657,551.283558 C461.402907,553.178089 458.475932,555.074396 455.367908,556.41495 C453.436707,557.249467 455.105207,560.074396 457.023982,559.246982" id="Fill-14" fill="#FC816C"></path>
                    <path d="M520.40231,457.956499 C520.40231,457.956499 523.560035,439.89897 547.476385,437.040305 C547.476385,437.040305 538.75226,458.409268 520.40231,457.956499" id="Fill-16" fill="#FC816C"></path>
                    <path d="M512.562135,484.643643 C512.562135,484.643643 519.846735,467.823686 543.770185,470.629084 C543.770185,470.629084 530.29971,489.370206 512.562135,484.643643" id="Fill-18" fill="#FC816C"></path>
                    <path d="M502.402745,508.168324 C502.402745,508.168324 513.27107,493.408026 535.95557,501.504616 C535.95557,501.504616 518.63157,516.749645 502.402745,508.168324" id="Fill-20" fill="#FC816C"></path>
                    <path d="M524.075318,429.916726 C524.075318,429.916726 527.179793,412.166371 550.689668,409.355646 C550.689668,409.355646 542.114643,430.362393 524.075318,429.916726" id="Fill-22" fill="#FC816C"></path>
                    <path d="M524.394285,399.069602 C524.394285,399.069602 511.00901,387.009943 521.114085,365.591264 C521.114085,365.591264 534.352035,384.016335 524.394285,399.069602" id="Fill-24" fill="#FC816C"></path>
                    <path d="M524.475758,417.3663 C524.475758,417.3663 506.761258,414.093928 504.171533,390.551669 C504.171533,390.551669 525.089908,399.324751 524.475758,417.3663" id="Fill-26" fill="#FC816C"></path>
                    <path d="M522.709455,444.409091 C522.709455,444.409091 504.994955,441.138494 502.403455,417.596236 C502.403455,417.596236 523.32183,426.369318 522.709455,444.409091" id="Fill-28" fill="#FC816C"></path>
                    <path d="M518.10901,469.738636 C518.10901,469.738636 500.66786,465.23402 499.732435,441.567472 C499.732435,441.567472 519.98696,451.785866 518.10901,469.738636" id="Fill-30" fill="#FC816C"></path>
                    <path d="M510.071278,495.042259 C510.071278,495.042259 492.628353,490.537642 491.692928,466.871094 C491.692928,466.871094 511.949228,477.091264 510.071278,495.042259" id="Fill-32" fill="#FC816C"></path>
                    <path d="M460.066155,622.775568 L280.571055,622.775568 C259.84083,622.775568 243.03513,605.964489 243.03513,585.227628 L243.03513,160.996449 C243.03513,140.259588 259.84083,123.446733 280.571055,123.446733 L460.066155,123.446733 C480.798155,123.446733 497.603855,140.259588 497.603855,160.996449 L497.603855,585.227628 C497.603855,605.964489 480.798155,622.775568 460.066155,622.775568" id="Fill-34" fill="#6D55B1"></path>
                    <path d="M459.563475,605.127486 L281.0748,605.127486 C266.5553,605.127486 254.785275,593.353693 254.785275,578.829545 L254.785275,164.427912 C254.785275,149.903764 266.5553,138.129972 281.0748,138.129972 L459.563475,138.129972 C474.082975,138.129972 485.853,149.903764 485.853,164.427912 L485.853,578.829545 C485.853,593.353693 474.082975,605.127486 459.563475,605.127486" id="Fill-36" fill="#F1ECEC"></path>
                    <path d="M439.461245,138.129616 L424.434095,138.129616 C419.82442,138.129616 416.08627,141.868963 416.08627,146.481889 L416.08627,152.449574 C416.08627,157.0625 412.34812,160.800071 407.73667,160.800071 L340.725095,160.800071 C336.113645,160.800071 332.37727,157.0625 332.37727,152.449574 L332.37727,146.481889 C332.37727,141.868963 328.63912,138.129616 324.02767,138.129616 L281.358445,138.129616 L281.358445,133.84517 L439.461245,133.84517 L439.461245,138.129616 Z" id="Fill-38" fill="#6D55B1"></path>
                    <path d="M376.740023,210.10174 C377.721598,209.577947 378.396098,208.55522 378.396098,207.367365 C378.396098,205.646839 377.002723,204.254794 375.286298,204.254794 C373.566323,204.254794 372.172948,205.646839 372.172948,207.367365 C372.172948,208.55522 372.850998,209.577947 373.829023,210.10174 C371.865873,210.723189 370.431673,212.568004 370.431673,214.730646 L370.431673,217.179155 L380.139148,217.179155 L380.139148,214.730646 C380.139148,212.568004 378.703173,210.723189 376.740023,210.10174" id="Fill-40" fill="#34336C"></path>
                </g>
                <text id="Create-Account" font-family="LucidaGrande, Lucida Grande" font-size="6.0268" font-weight="normal" letter-spacing="-0.0180804" fill="#34336C">
                    <tspan x="343" y="227">C</tspan>
                    <tspan x="347.15183" y="227" letter-spacing="-0.060268">r</tspan>
                    <tspan x="349.557606" y="227">e</tspan>
                    <tspan x="352.91531" y="227" letter-spacing="-0.0241072">a</tspan>
                    <tspan x="356.21948" y="227" letter-spacing="-0.0361608">t</tspan>
                    <tspan x="358.437483" y="227">e </tspan>
                    <tspan x="363.702105" y="227" letter-spacing="-0.0723216">A</tspan>
                    <tspan x="367.787922" y="227" letter-spacing="-0.03676348">c</tspan>
                    <tspan x="370.838128" y="227" letter-spacing="-0.0361608">c</tspan>
                    <tspan x="373.888937" y="227">ou</tspan>
                    <tspan x="381.331211" y="227" letter-spacing="-0.02470988">n</tspan>
                    <tspan x="385.046766" y="227">t</tspan>
                </text>
                <path d="M424.265018,537 L331.734982,537 C330.777995,537 330,536.209505 330,535.229074 L330,516.769117 C330,515.790495 330.777995,515 331.734982,515 L424.265018,515 C425.222005,515 426,515.790495 426,516.769117 L426,535.229074 C426,536.209505 425.222005,537 424.265018,537" id="Fill-43" fill="#BD3D61"></path>
                <text id="Register" font-family="LucidaGrande, Lucida Grande" font-size="4.4893" font-weight="normal" letter-spacing="0.01840613" fill="#F3F4E9">
                    <tspan x="361" y="523">R</tspan>
                    <tspan x="363.857099" y="523">e</tspan>
                    <tspan x="366.358218" y="523" letter-spacing="-0.02738473">g</tspan>
                    <tspan x="369.13007" y="523">is</tspan>
                    <tspan x="372.716249" y="523" letter-spacing="-0.0269358">t</tspan>
                    <tspan x="374.368416" y="523">er</tspan>
                </text>
                <text id="Email-Address" font-family="LucidaGrande, Lucida Grande" font-size="4.1015" font-weight="normal" fill="#34336C">
                    <tspan x="297" y="259">Email </tspan>
                    <tspan x="308.986073" y="259" letter-spacing="-0.049218">A</tspan>
                    <tspan x="311.76665" y="259">dd</tspan>
                    <tspan x="316.929573" y="259" letter-spacing="-0.04142515">r</tspan>
                    <tspan x="318.566398" y="259">ess</tspan>
                </text>
                <text id="youremail@gmail.c" font-family="LucidaGrande, Lucida Grande" font-size="4.1015" font-weight="normal" letter-spacing="-0.041015" fill="#34336C">
                    <tspan x="305" y="282">y</tspan>
                    <tspan x="307.101859" y="282">ou</tspan>
                    <tspan x="312.16665" y="282" letter-spacing="-0.04142515">r</tspan>
                    <tspan x="313.803476" y="282">email@</tspan>
                    <tspan x="328.074613" y="282" letter-spacing="-0.02501915">g</tspan>
                    <tspan x="330.607023" y="282">mai</tspan>
                    <tspan x="337.886785" y="282">l</tspan>
                    <tspan x="339.03136" y="282">.c</tspan>
                </text>
                <g id="Group-49" transform="translate(295.000000, 270.000000)">
                    <path d="M172.035224,27.02682 L5.487744,27.02682 C2.775024,27.02682 0.576724,24.8449867 0.576724,22.1525867 L0.576724,5.52472 C0.576724,2.83408667 2.775024,0.650486667 5.487744,0.650486667 L172.035224,0.650486667 C174.747944,0.650486667 176.946244,2.83408667 176.946244,5.52472 L176.946244,22.1525867 C176.946244,24.8449867 174.747944,27.02682 172.035224,27.02682 Z" id="Stroke-46" stroke="#34336C" stroke-width="0.5"></path>
                    <text id="Country" font-family="LucidaGrande, Lucida Grande" font-size="4.1015" font-weight="normal" letter-spacing="-0.04470635" fill="#34336C">
                        <tspan x="0.576546" y="46.9514163">C</tspan>
                        <tspan x="3.36964507" y="46.9514163">ou</tspan>
                        <tspan x="8.43443682" y="46.9514163" letter-spacing="-0.01681615">n</tspan>
                        <tspan x="10.963034" y="46.9514163">t</tspan>
                        <tspan x="12.4970911" y="46.9514163" letter-spacing="0.10212735">r</tspan>
                        <tspan x="14.277469" y="46.9514163">y</tspan>
                    </text>
                </g>
                <text id="Your-text" font-family="LucidaGrande, Lucida Grande" font-size="4.1015" font-weight="normal" letter-spacing="-0.311714" fill="#34336C">
                    <tspan x="304" y="341">Y</tspan>
                    <tspan x="306.243713" y="341">our </tspan>
                    <tspan x="314.284495" y="341" letter-spacing="-0.024609">t</tspan>
                    <tspan x="315.793943" y="341" letter-spacing="-0.01189435">e</tspan>
                    <tspan x="318.067113" y="341" letter-spacing="0.05290935">x</tspan>
                    <tspan x="320.635396" y="341">t</tspan>
                </text>
                <g id="Group-53" transform="translate(295.000000, 330.000000)">
                    <path d="M172.035224,26.8927719 L5.487744,26.8927719 C2.775024,26.8927719 0.576724,24.6929281 0.576724,21.9783031 L0.576724,5.21317813 C0.576724,2.49855313 2.775024,0.298709375 5.487744,0.298709375 L172.035224,0.298709375 C174.747944,0.298709375 176.946244,2.49855313 176.946244,5.21317813 L176.946244,21.9783031 C176.946244,24.6929281 174.747944,26.8927719 172.035224,26.8927719 Z" id="Stroke-50" stroke="#34336C" stroke-width="0.5"></path>
                    <text id="City" font-family="LucidaGrande, Lucida Grande" font-size="4.1015" font-weight="normal" letter-spacing="-0.003" fill="#34336C">
                        <tspan x="0.576546" y="50.02504">C</tspan>
                        <tspan x="3.41135142" y="50.02504" letter-spacing="0.00971465">i</tspan>
                        <tspan x="4.60665591" y="50.02504" letter-spacing="0.046218">t</tspan>
                        <tspan x="6.18693104" y="50.02504">y</tspan>
                    </text>
                </g>
                <text id="Your-City" font-family="LucidaGrande, Lucida Grande" font-size="4.1015" font-weight="normal" letter-spacing="-0.311714" fill="#34336C">
                    <tspan x="304" y="403">Y</tspan>
                    <tspan x="306.243713" y="403">our </tspan>
                    <tspan x="314.284495" y="403" letter-spacing="-0.01189435">C</tspan>
                    <tspan x="317.110406" y="403">i</tspan>
                    <tspan x="318.295996" y="403" letter-spacing="0.03568305">t</tspan>
                    <tspan x="319.865736" y="403">y</tspan>
                </text>
                <g id="Group-57" transform="translate(295.000000, 392.000000)">
                    <path d="M172.035224,27.0509469 L5.487744,27.0509469 C2.775024,27.0509469 0.576724,24.8528844 0.576724,22.1364781 L0.576724,5.37313437 C0.576724,2.65850937 2.775024,0.458665625 5.487744,0.458665625 L172.035224,0.458665625 C174.747944,0.458665625 176.946244,2.65850937 176.946244,5.37313437 L176.946244,22.1364781 C176.946244,24.8528844 174.747944,27.0509469 172.035224,27.0509469 Z" id="Stroke-54" stroke="#34336C" stroke-width="0.5"></path>
                    <text id="Password" font-family="LucidaGrande, Lucida Grande" font-size="4.1015" font-weight="normal" letter-spacing="-0.106639" fill="#34336C">
                        <tspan x="0.576546" y="50.4876306">P</tspan>
                        <tspan x="2.73694704" y="50.4876306">ass</tspan>
                        <tspan x="9.18359181" y="50.4876306" letter-spacing="-0.041015">w</tspan>
                        <tspan x="12.3028146" y="50.4876306">o</tspan>
                        <tspan x="14.822193" y="50.4876306" letter-spacing="-0.04142515">r</tspan>
                        <tspan x="16.4590184" y="50.4876306">d</tspan>
                    </text>
                </g>
                <text id="Entry-password" font-family="LucidaGrande, Lucida Grande" font-size="4.1015" font-weight="normal" fill="#34336C">
                    <tspan x="304" y="466">E</tspan>
                    <tspan x="306.222981" y="466" letter-spacing="-0.016406">n</tspan>
                    <tspan x="308.751988" y="466">t</tspan>
                    <tspan x="310.286045" y="466" letter-spacing="0.10212735">r</tspan>
                    <tspan x="312.066423" y="466">y pass</tspan>
                    <tspan x="324.535143" y="466" letter-spacing="-0.041015">w</tspan>
                    <tspan x="327.654366" y="466">o</tspan>
                    <tspan x="330.173745" y="466" letter-spacing="-0.04142515">r</tspan>
                    <tspan x="331.81057" y="466">d</tspan>
                </text>
                <g id="Group-145" transform="translate(0.000000, 271.000000)">
                    <path d="M467.016385,211.188119 L301.001711,211.188119 C298.297669,211.188119 296.106402,208.9965 296.106402,206.292025 L296.106402,189.589582 C296.106402,186.886882 298.297669,184.693488 301.001711,184.693488 L467.016385,184.693488 C469.720426,184.693488 471.911694,186.886882 471.911694,189.589582 L471.911694,206.292025 C471.911694,208.9965 469.720426,211.188119 467.016385,211.188119 Z" id="Stroke-58" stroke="#34336C" stroke-width="0.5"></path>
                    <path d="M376.305013,7.79914631 L376.305013,17.1494619" id="Stroke-60" stroke="#00C4E4" stroke-width="0.5"></path>
                    <path d="M467.108116,427.483686 C467.108116,425.418064 416.476533,423.744625 354.019203,423.744625 C291.560099,423.744625 240.928516,425.418064 240.928516,427.483686 C240.928516,429.551084 291.560099,431.224523 354.019203,431.224523 C416.476533,431.224523 467.108116,429.551084 467.108116,427.483686" id="Fill-62" fill="#6D55B1"></path>
                    <path d="M365.962409,188.163522 C365.962409,188.163522 377.20086,205.519014 379.745214,197.9983 C382.289568,190.477587 383.845634,185.8743 383.845634,185.8743 C383.845634,185.8743 380.653659,180.641034 378.96452,182.250587 C377.197311,183.934673 374.904909,180.87528 374.904909,180.87528 L365.962409,188.163522 Z" id="Fill-64" fill="#FFBB9A"></path>
                    <path d="M421.508109,98.4029766 L426.151466,71.4345299 C429.199723,70.451407 432.336695,68.0965258 431.261466,64.4515176 C430.723852,62.6325627 429.299084,61.6671857 427.620591,61.033657 C426.988939,60.7940873 423.743734,59.8624275 423.516623,61.1135135 C423.520171,61.0957676 425.283831,51.3940832 425.283831,51.3940832 L393.660383,36.1308332 C393.660383,36.1308332 390.778911,55.4880627 390.743425,55.7134357 C390.789557,55.4117553 387.670327,54.7125668 387.248043,54.7569316 C385.660039,54.9255176 384.112845,56.4073004 383.488289,57.7985791 C381.843508,61.4684316 385.026612,66.1072102 389.001057,66.1693209 C389.001057,66.1693209 389.54222,74.8541652 391.556057,77.9348537 C393.569893,81.0155422 402.867255,83.1450504 402.867255,83.1450504 L401.847029,94.8875135 L421.508109,98.4029766 Z" id="Fill-66" fill="#FFBB9A"></path>
                    <path d="M432.188718,100.613406 C417.898461,96.6028324 397.829291,93.0731725 397.829291,93.0731725 L384.514902,187.91082 L440.606024,186.17882 L432.188718,100.613406 Z" id="Fill-68" fill="#FFAB27"></path>
                    <path d="M432.188718,100.613406 C450.847316,105.502402 469.266382,109.19355 488.453722,111.181091 C484.181194,91.7440045 481.840885,76.8835865 476.25892,60.3727996 C481.590708,59.0223365 491.993461,56.3622258 497.32525,55.0135373 C497.32525,55.0135373 514.990236,116.568746 509.628284,124.776226 C500.504805,138.74225 455.057743,129.546324 455.057743,129.546324 L433.558482,125.714984 L432.188718,100.613406 Z" id="Fill-70" fill="#FFAB27"></path>
                    <path d="M336.123202,121.492524 C336.123202,121.492524 396.334261,92.0343275 399.100404,93.1203766 C401.86832,94.2064258 404.219275,107.860123 404.219275,107.860123 C404.219275,107.860123 382.391768,121.748065 348.640928,137.440766 L379.339963,179.235914 L364.045449,190.204655 C364.045449,190.204655 321.891498,142.819549 323.49547,133.02736 C324.732161,125.469381 336.123202,121.492524 336.123202,121.492524" id="Fill-72" fill="#FFAB27"></path>
                    <path d="M496.41716,55.2435242 C496.41716,55.2435242 493.926035,37.8223725 493.627952,37.3254873 C493.329868,36.828602 493.329868,33.7532373 488.85507,34.495016 C488.85507,34.495016 488.556986,28.974266 485.973598,28.8748889 C483.388434,28.7755119 480.506962,29.4711512 480.506962,29.4711512 C480.506962,29.4711512 477.598875,15.3170201 475.70924,12.8645365 C473.647497,10.1849053 470.766025,17.2424504 475.237275,34.495016 C475.237275,34.495016 477.71598,46.2268316 476.977868,46.6598316 C474.976452,47.8257373 472.226278,47.6145611 468.418618,41.1035898 C464.374976,34.1880119 459.335948,36.5304709 461.819976,41.8986061 C464.304004,47.2667414 467.827775,54.2107127 470.11308,56.1006512 C472.398386,57.9888152 477.228045,57.7048807 477.228045,57.7048807 L477.935993,59.9479627 L496.41716,55.2435242 Z" id="Fill-74" fill="#FFBB9A"></path>
                    <path d="M440.606201,186.179352 C433.849646,288.805676 410.913198,415.461725 410.913198,415.461725 L433.377681,424.971754 L385.53708,424.971754 L416.913899,201.00073 L406.166931,201.00073 L326.795146,425.115496 L279.007774,425.115496 L306.193684,415.200861 L385.53708,180.621336 L440.606201,186.179352 Z" id="Fill-76" fill="#5F4456"></path>
                    <path d="M429.099298,61.7491717 C431.773176,56.400557 434.901277,43.4229791 426.782055,39.8152373 C422.569853,37.9412701 418.201513,35.2456676 414.975825,33.0859914 C410.029061,29.7728316 403.879318,28.4578602 398.141214,30.0496676 C397.22035,30.3052086 396.320777,30.6317332 395.477982,31.0469873 C389.81085,33.8295447 385.983673,48.8887168 385.983673,48.8887168 L391.553218,50.2853193 C391.553218,50.2853193 397.765061,77.9085898 407.981513,83.5872783 L418.187318,85.7487291 L424.22528,87.104516 L429.099298,61.7491717 Z" id="Fill-78" fill="#D06940"></path>
                    <path d="M421.698847,37.8995672 C421.74143,36.2438746 421.677555,34.5988295 421.508996,32.9520098 C421.439798,32.2812148 420.382312,32.275891 420.45151,32.9520098 C420.621843,34.5988295 420.685718,36.2438746 420.643135,37.8995672 C420.625392,38.5792352 421.681103,38.5792352 421.698847,37.8995672" id="Fill-80" fill="#D06940"></path>
                    <path d="M421.698847,38.1084365 C422.399697,37.6647889 422.630357,36.859125 423.013607,36.1599365 C423.503315,35.2708668 424.06577,34.4314857 424.681454,33.6275963 C425.094867,33.0863463 424.175777,32.5610676 423.769461,33.0934447 C423.283301,33.728748 422.829079,34.3835717 422.419215,35.0721127 C422.073225,35.6541783 421.748527,36.8254078 421.166555,37.1962971 C420.593454,37.5583135 421.123972,38.474002 421.698847,38.1084365" id="Fill-82" fill="#D06940"></path>
                    <g id="Group-86" transform="translate(0.000000, 395.733607)">
                        <mask id="mask-4" fill="white">
                            <use xlink:href="#path-3"></use>
                        </mask>
                        <g id="Clip-85"></g>
                        <path d="M226.18031,4.52289795 C226.18031,2.457275 175.548727,0.783836475 113.089623,0.783836475 C50.6322931,0.783836475 -0.00106458333,2.457275 -0.00106458333,4.52289795 C-0.00106458333,6.59029549 50.6322931,8.26373402 113.089623,8.26373402 C175.548727,8.26373402 226.18031,6.59029549 226.18031,4.52289795" id="Fill-84" fill="#6D55B1" mask="url(#mask-4)"></path>
                    </g>
                    <path d="M151.999079,7.57998443 C149.87701,7.09374672 147.89511,7.01921393 145.182197,6.76722213 C141.133232,6.38923443 137.440902,9.01207869 134.378451,11.6846115 C131.314225,14.3571443 129.106989,17.8619598 127.123315,21.4111402 C125.097058,25.0366279 123.207423,29.2370828 124.403305,33.2157139 C124.708485,34.2290049 125.210614,35.2121279 125.196419,36.2697836 C125.152062,39.5580992 120.618711,40.8003123 119.201041,43.7692016 C117.449801,47.4355049 121.026801,52.3777385 118.601326,55.6394352 C117.391249,57.268509 115.061586,57.7813656 113.915385,59.4548041 C113.014037,60.7697754 113.051298,62.4875787 113.12227,64.0793861 C113.138239,64.4076852 113.168402,64.7714762 113.409708,64.9950746 C113.610204,65.179632 113.902965,65.2151238 114.174433,65.239968 C127.126864,66.4857303 139.947996,63.6836525 152.900426,64.9294148 C154.465364,65.0802549 156.042722,65.2293205 157.602336,65.0465377 C159.84151,64.7821238 161.938739,63.8451402 163.989836,62.9081566 C175.187478,57.8062098 186.395767,56.4823656 197.336135,50.851591 C197.793906,50.6155705 198.280065,50.3511566 198.510725,49.8897631 C198.686381,49.5348451 198.682833,49.119591 198.642024,48.7274066 C198.349263,45.8436975 196.218322,43.2315008 193.453954,42.3637262 C190.602645,41.4693328 187.185333,42.2501525 184.804215,40.4436197 C183.088461,39.1410705 182.46568,36.8536238 182.238569,34.7099189 C181.779024,30.3533 182.275829,25.3152385 179.122888,22.2753656 C176.654829,19.8956402 172.692805,19.63655 170.212326,17.2674721 C168.801753,15.9187836 168.040576,14.0394926 166.899697,12.453009 C163.564003,7.80713197 157.880902,5.11152951 151.999079,7.57998443" id="Fill-87" fill="#5F4456"></path>
                    <path d="M130.351309,157.284943 L58.1477191,385.818439 L29.728667,396.778308 L71.9021358,396.778308 L153.426153,181.472607 C153.949573,180.090201 155.273205,179.174513 156.749427,179.174513 C158.862625,179.174513 160.510955,181.007664 160.285618,183.108779 L138.804101,396.778308 L181.493893,396.778308 L152.989674,387.353459 C152.989674,387.353459 179.54748,263.107304 185.457691,224.233132 C191.367903,185.357185 182.801556,157.890078 182.801556,157.890078 C182.801556,157.890078 155.125938,149.112955 130.351309,157.284943" id="Fill-89" fill="#49648F"></path>
                    <path d="M131.197831,75.0325115 C137.81599,68.1187082 164.125393,67.3219172 173.635671,71.2277902 C183.147723,75.1354377 200.647699,125.665118 200.647699,125.665118 L183.243535,132.499065 L172.443338,90.2549459 L138.596685,85.591323 L131.197831,75.0325115 Z" id="Fill-91" fill="#FC816C"></path>
                    <path d="M175.666364,96.4601553 C175.666364,96.4601553 178.631228,89.4647209 179.262881,84.0664176 C179.896308,78.6681143 172.55778,73.386934 172.55778,73.386934 L132.735266,83.709725 L135.210423,107.434221 L129.367634,155.36945 L179.96728,157.248741 L174.88212,96.6589094" id="Fill-93" fill="#FC816C"></path>
                    <path d="M135.767909,97.8267672 C135.597576,97.8267672 135.427243,97.7735295 135.28175,97.6652795 C134.925114,97.3955418 134.852368,96.888009 135.118514,96.5313164 L137.948531,92.7620869 C138.218225,92.4036197 138.725677,92.3290869 139.082312,92.6005992 C139.440722,92.8685623 139.511694,93.3743205 139.242,93.7327877 L136.415531,97.5020172 C136.255843,97.714968 136.012764,97.8267672 135.767909,97.8267672" id="Fill-95" fill="#3196BD"></path>
                    <path d="M110.490088,163.535937 C113.533022,161.763121 116.575956,159.99208 119.620664,158.221039" id="Fill-97" fill="#6DCBEE"></path>
                    <path d="M149.907705,69.3266717 C149.354122,64.0366184 152.058164,58.6702578 143.525528,55.2523971 C131.761882,50.5390857 129.240594,9.97017992 150.487903,9.87944696 C171.736986,9.78917172 170.693695,36.5677373 170.608528,44.5179012 C170.525136,52.4680652 163.5255,54.4928725 161.776035,57.3712578 C160.02657,60.2478684 161.536504,69.3266717 161.536504,69.3266717 L149.907705,69.3266717 Z" id="Fill-99" fill="#FFBB9A"></path>
                    <path d="M137.852364,38.6023049 C137.852364,41.2074033 136.026603,43.3209402 133.773235,43.3209402 C131.519867,43.3209402 129.694107,41.2074033 129.694107,38.6023049 C129.694107,35.995432 131.519867,33.8836697 133.773235,33.8836697 C136.026603,33.8836697 137.852364,35.995432 137.852364,38.6023049" id="Fill-101" fill="#FFBB9A"></path>
                    <path d="M175.972964,34.9569418 C175.972964,37.5620402 174.145429,39.675577 171.893835,39.675577 C169.640467,39.675577 167.812932,37.5620402 167.812932,34.9569418 C167.812932,32.3500689 169.640467,30.2383066 171.893835,30.2383066 C174.145429,30.2383066 175.972964,32.3500689 175.972964,34.9569418" id="Fill-103" fill="#FFBB9A"></path>
                    <path d="M45.0686031,221.853051 C31.4880684,221.853051 20.4785024,210.841719 20.4785024,197.259006 C20.4785024,183.676293 31.4880684,172.664961 45.0686031,172.664961 C58.6491378,172.664961 69.6587038,183.676293 69.6587038,197.259006 C69.6587038,210.841719 58.6491378,221.853051 45.0686031,221.853051 L45.0686031,221.853051 Z M259.869582,120.854027 L253.569023,104.886264 L75.4287455,174.831736 C68.5533115,165.536432 57.5171309,159.50815 45.0686031,159.50815 C24.2222872,159.50815 7.32380104,176.411121 7.32380104,197.259006 C7.32380104,218.108666 24.2222872,235.009863 45.0686031,235.009863 C65.9149191,235.009863 82.8134052,218.108666 82.8134052,197.259006 C82.8134052,195.709789 82.7087212,194.183641 82.527742,192.684113 L218.191145,137.735703 L225.641454,154.125818 L242.188627,146.542994 L236.363582,133.501531 L241.723759,130.662186 L248.03319,143.210314 L259.869582,136.887449 L253.313523,123.510588 L259.869582,120.854027 Z" id="Fill-105" fill="#B7AEEF"></path>
                    <path d="M131.197831,75.0325115 C131.197831,75.0325115 86.2830597,115.029999 86.0346569,122.45311 C85.7898028,129.877995 112.498424,168.927852 112.498424,168.927852 L125.850074,160.484352 L107.150667,125.475237 L137.574685,96.4606877 C137.574685,96.4606877 138.57007,103.202356 141.004417,105.035507 L142.358213,78.3438967 L131.197831,75.0325115 Z" id="Fill-107" fill="#FC816C"></path>
                    <path d="M166.346114,19.2092287 C160.506874,19.5091344 134.630402,22.1426262 134.630402,22.1426262 C134.630402,22.1426262 138.413222,6.60608934 150.487371,5.99563033 C166.346114,5.19529016 166.346114,19.2092287 166.346114,19.2092287" id="Fill-109" fill="#5F4456"></path>
                    <path d="M134.661452,35.6163795 C134.661452,35.6163795 155.630195,33.6519082 159.304782,23.7514697 C159.304782,23.7514697 166.267157,32.6545885 170.344511,32.2073918 C170.344511,32.2073918 171.013425,20.4950967 168.477942,18.9103877 C165.942459,17.3256787 133.772525,20.5926992 133.772525,20.5926992 C133.772525,20.5926992 132.94215,28.0832443 134.661452,35.6163795" id="Fill-111" fill="#5F4456"></path>
                    <path d="M113.060524,168.452439 C113.060524,168.452439 118.789757,180.533849 119.118003,180.826656 C119.44625,181.119464 120.138229,183.351898 123.216649,181.804455 C123.216649,181.804455 124.675128,185.744045 126.573635,185.234738 C128.470368,184.723656 130.406135,183.571947 130.406135,183.571947 C130.406135,183.571947 132.705635,186.63489 134.410743,185.016464 C136.403288,183.122976 134.518976,181.020086 133.095983,178.739738 C133.095983,178.739738 128.658444,170.782476 129.096698,170.305111 C130.285483,169.006111 132.329483,168.541168 136.559427,172.408 C141.04842,176.516177 144.180069,173.680382 141.167299,170.345927 C138.156302,167.011472 134.038139,162.763103 131.95333,161.90775 C129.870295,161.052398 126.429917,162.346074 126.429917,162.346074 L125.409691,160.876714 L113.060524,168.452439 Z" id="Fill-113" fill="#FFBB9A"></path>
                    <path d="M204.887757,143.123004 C204.887757,143.123004 201.670941,152.267467 196.053489,153.804262 C190.434264,155.339282 158.931468,161.73668 158.931468,161.73668 L158.931468,149.275508 L204.887757,143.123004 Z" id="Fill-115" fill="#FC816C"></path>
                    <path d="M158.931823,150.769003 L156.531188,150.769003 C156.531188,150.769003 155.991799,149.083142 155.651132,148.52947 C154.668167,146.932339 141.479754,145.255351 141.721059,146.980253 C141.964139,148.706929 144.132341,149.132831 148.781021,149.993507 C148.781021,149.993507 131.389278,154.213482 133.025188,155.592339 C134.661098,156.969421 145.510976,153.803552 145.510976,153.803552 C145.510976,153.803552 133.742007,157.631343 134.574157,160.241765 C135.053219,161.737745 146.980101,158.220507 146.980101,158.220507 C146.980101,158.220507 134.833205,162.566478 136.985438,164.03229 C139.139445,165.496327 152.570938,162.197364 153.862632,161.737745 C155.154327,161.276351 155.651132,158.779503 155.651132,158.779503 L158.931823,158.220507 L158.931823,150.769003 Z" id="Fill-117" fill="#FFBB9A"></path>
                    <path d="M149.029247,1.24753689 C149.490566,3.17119262 149.683965,5.56688934 150.787583,7.24742623 C151.245354,7.94484016 152.370264,7.29534016 151.910719,6.59260246 C150.892267,5.03983607 150.709514,2.68140574 150.283681,0.901491803 C150.088507,0.0887295082 148.834073,0.433 149.029247,1.24753689" id="Fill-119" fill="#5F4456"></path>
                    <path d="M151.85536,7.36845328 C152.518951,6.18657623 153.228673,5.03486721 153.986301,3.91332623 C154.456492,3.21768689 153.331583,2.5646377 152.863166,3.25672787 C152.105538,4.37826885 151.395815,5.52997787 150.732225,6.71185492 C150.32236,7.44298607 151.445496,8.09958443 151.85536,7.36845328" id="Fill-121" fill="#5F4456"></path>
                    <path d="M154.371148,34.7143553 C154.323242,36.2103348 154.358728,37.6956668 154.534384,39.184548 C154.6231,39.9458471 154.550353,41.3051832 155.079096,41.8854742 C155.380728,42.215548 156.014155,42.1942529 156.397405,42.2545889 C157.822173,42.4746381 159.25936,42.6379004 160.68945,42.8295561 C160.613155,42.6432242 160.53686,42.4586668 160.458791,42.2741094 C159.243391,43.427593 157.93218,44.2776217 156.393857,44.9288963 C156.010607,45.0921586 156.340627,45.6529291 156.722103,45.4896668 C158.31543,44.8153225 159.66745,43.9209291 160.918336,42.7337283 C161.145447,42.5172283 160.948499,42.2137734 160.68945,42.1782816 C159.199034,41.9795275 156.163197,42.1481135 155.3896,40.574052 C154.663909,39.0958184 154.969089,36.2901914 155.020544,34.7143553 C155.034739,34.295552 154.383568,34.295552 154.371148,34.7143553" id="Fill-123" fill="#FFA077"></path>
                    <path d="M161.045731,39.1863225 C161.232033,37.7045398 160.289877,34.2316668 162.15822,33.5147324 C163.81897,32.8758799 164.867585,34.2582857 165.128408,35.6602119 C165.293418,36.538634 165.447783,37.4188307 165.609245,38.2990275 C165.683766,38.7107324 166.310095,38.5368225 166.235575,38.1268922 C165.843453,35.9707652 165.751189,32.2831668 162.536148,32.7214906 C159.544668,33.1296463 160.637641,37.2786381 160.396335,39.1863225 C160.343106,39.599802 160.994276,39.5962529 161.045731,39.1863225" id="Fill-125" fill="#55433D"></path>
                    <path d="M144.26772,40.0745049 C144.454022,38.5909475 143.511866,35.1198492 145.38021,34.4029148 C147.04096,33.7640623 148.089574,35.146468 148.350397,36.5483943 C148.515408,37.4268164 148.669772,38.3070131 148.831234,39.1872098 C148.905755,39.5971402 149.532085,39.4232303 149.457564,39.0150746 C149.065442,36.857173 148.973178,33.1713492 145.759911,33.609673 C142.766658,34.0178287 143.85963,38.1668205 143.618324,40.0745049 C143.565095,40.4879844 144.216265,40.4844352 144.26772,40.0745049" id="Fill-127" fill="#55433D"></path>
                    <path d="M148.699226,43.845509 C149.398302,49.2562344 158.557267,50.3422836 161.923125,47.0575172 C162.224757,46.7647098 161.763438,46.305091 161.46358,46.5978984 C158.65308,49.3396402 149.976726,48.6990131 149.350396,43.845509 C149.297167,43.4373533 148.645997,43.4320295 148.699226,43.845509" id="Fill-129" fill="#FFA077"></path>
                    <path d="M148.569169,44.7544541 C148.755471,44.1812615 149.333895,43.8085975 149.937159,43.9097492 C150.345249,43.9789582 150.52268,43.3507533 150.109266,43.2833189 C149.147593,43.1218311 148.24802,43.6453352 147.942839,44.5805443 C147.813315,44.979827 148.439645,45.1519623 148.569169,44.7544541" id="Fill-131" fill="#FFA077"></path>
                    <path d="M147.75565,41.6897369 C148.044862,42.4155443 146.762039,43.6009705 144.806754,44.0197738 C143.862824,44.23095 142.874535,44.1990074 142.320952,44.0215484 C141.781563,43.8458639 141.401862,43.6542082 141.20314,43.3117123 C141.116199,43.1378025 141.121522,42.9195279 141.258143,42.6870566 C141.391216,42.4563598 141.655588,42.2238885 141.978511,42.0393311 C142.636778,41.6790893 143.326983,41.4324213 144.207039,41.238991 C145.912147,40.8769746 147.466438,40.9550566 147.75565,41.6897369" id="Fill-133" fill="#FF837A"></path>
                    <path d="M169.086351,40.2019205 C169.375563,40.9277279 168.09274,42.1131541 166.13923,42.5319574 C165.193525,42.7431336 164.205237,42.711191 163.651653,42.533732 C163.114039,42.3580475 162.732563,42.1663918 162.533841,41.8238959 C162.4469,41.6499861 162.452223,41.4317115 162.588844,41.1992402 C162.721917,40.9685434 162.986289,40.7378467 163.310987,40.5515148 C163.96748,40.1930475 164.657685,39.9446049 165.53774,39.7511746 C167.242848,39.3891582 168.79714,39.4672402 169.086351,40.2019205" id="Fill-135" fill="#FF837A"></path>
                    <path d="M133.500524,36.1562098 C132.223024,36.2005746 131.541691,37.3930992 131.655247,38.5873984 C131.770576,39.7976689 132.620469,40.7240049 133.846514,40.8091852 C134.263476,40.8393533 134.261701,40.1880787 133.846514,40.1596852 C132.127212,40.0390131 131.578951,36.8731443 133.500524,36.8074844 C133.917486,36.7915131 133.91926,36.1420131 133.500524,36.1562098" id="Fill-137" fill="#FFA077"></path>
                    <path d="M131.763479,37.9308 C132.380938,38.7062959 133.321319,39.1144516 134.309608,39.0505664 C134.723021,39.0239475 134.726569,38.3744475 134.309608,38.4010664 C133.472135,38.4543041 132.74467,38.1242303 132.223024,37.4711811 C131.962201,37.1446566 131.504431,37.60605 131.763479,37.9308" id="Fill-139" fill="#FFA077"></path>
                    <path d="M171.571089,37.2740242 C172.978113,37.6094217 173.755259,36.3299422 173.93269,35.1107988 C174.127863,33.7656594 173.301037,32.4613357 171.870947,32.3317906 C171.455759,32.2927496 171.457533,32.9440242 171.870947,32.9812906 C172.784714,33.0646963 173.395075,33.9786102 173.31878,34.8304135 C173.246033,35.655598 172.830846,36.9049094 171.744971,36.6475939 C171.336881,36.5499914 171.164773,37.1764217 171.571089,37.2740242" id="Fill-141" fill="#FFA077"></path>
                    <path d="M171.964452,35.3555148 C172.578362,34.8018426 172.965161,34.090232 173.084039,33.2703713 C173.142591,32.860441 172.516261,32.682982 172.457709,33.0964615 C172.353025,33.8151705 172.044296,34.4096582 171.504907,34.8958959 C171.19263,35.1762811 171.653949,35.6359 171.964452,35.3555148" id="Fill-143" fill="#FFA077"></path>
                </g>
            </g>
        </g>
    </g>
</svg>