<?xml version="1.0" encoding="UTF-8"?>
<svg width="17px" height="12px" viewBox="0 0 17 12" version="1.1" xmlns="http://www.w3.org/2000/svg" xmlns:xlink="http://www.w3.org/1999/xlink">
    <!-- Generator: Sketch 59 (86127) - https://sketch.com -->
    <title>icon / action / arrow / forward</title>
    <desc>Created with Sketch.</desc>
    <g id="Web-PC" stroke="none" stroke-width="1" fill="none" fill-rule="evenodd">
        <g id="Courses" transform="translate(-1569.000000, -2899.000000)">
            <g id="Section-/-Thumbnails-Copy-2" transform="translate(92.000000, 2278.000000)">
                <g id="Card-Copy-3" transform="translate(1328.000000, 110.000000)">
                    <g id="icon-/-action-/-arrow-/-forward" transform="translate(145.000000, 505.000000)">
                        <rect id="Background" x="0" y="0" width="24" height="24"></rect>
                        <path d="M15.4476024,6.1804715 C15.2160051,5.93984283 14.8305494,5.93984283 14.5908542,6.1804715 C14.3592569,6.41297082 14.3592569,6.79992774 14.5908542,7.03188511 L18.9350587,11.3930088 L4.59977771,11.3930088 C4.26560813,11.3935507 4,11.6601933 4,11.9956643 C4,12.3311354 4.26560813,12.6064493 4.59977771,12.6064493 L18.9350587,12.6064493 L14.5908542,16.9594436 C14.3592569,17.2000723 14.3592569,17.5875711 14.5908542,17.8195285 C14.8305494,18.0601572 15.2165449,18.0601572 15.4476024,17.8195285 L20.8202286,12.4259778 C21.0599238,12.1934785 21.0599238,11.8065215 20.8202286,11.5745642 L15.4476024,6.1804715 Z" id="Path" fill="#6F6F6F" fill-rule="nonzero"></path>
                    </g>
                </g>
            </g>
        </g>
    </g>
</svg>