<?xml version="1.0" encoding="UTF-8"?>
<svg width="333px" height="311px" viewBox="0 0 333 311" version="1.1" xmlns="http://www.w3.org/2000/svg" xmlns:xlink="http://www.w3.org/1999/xlink">
    <!-- Generator: Sketch 58 (84663) - https://sketch.com -->
    <title>undraw_mail_2_tqip</title>
    <desc>Created with Sketch.</desc>
    <defs>
        <linearGradient x1="50.003653%" y1="100.013831%" x2="50.003653%" y2="0.00485949042%" id="linearGradient-1">
            <stop stop-color="#808080" stop-opacity="0.25" offset="0%"></stop>
            <stop stop-color="#808080" stop-opacity="0.12" offset="54%"></stop>
            <stop stop-color="#808080" stop-opacity="0.1" offset="100%"></stop>
        </linearGradient>
        <linearGradient x1="49.9976804%" y1="100.001505%" x2="49.9976804%" y2="-0.0135056733%" id="linearGradient-2">
            <stop stop-color="#808080" stop-opacity="0.25" offset="0%"></stop>
            <stop stop-color="#808080" stop-opacity="0.12" offset="54%"></stop>
            <stop stop-color="#808080" stop-opacity="0.1" offset="100%"></stop>
        </linearGradient>
        <linearGradient x1="50.0031015%" y1="99.9982817%" x2="50.0031015%" y2="-0.00171833116%" id="linearGradient-3">
            <stop stop-color="#808080" stop-opacity="0.25" offset="0%"></stop>
            <stop stop-color="#808080" stop-opacity="0.12" offset="54%"></stop>
            <stop stop-color="#808080" stop-opacity="0.1" offset="100%"></stop>
        </linearGradient>
        <linearGradient x1="49.9948145%" y1="99.9986356%" x2="49.9948145%" y2="-0.00919346259%" id="linearGradient-4">
            <stop stop-color="#808080" stop-opacity="0.25" offset="0%"></stop>
            <stop stop-color="#808080" stop-opacity="0.12" offset="54%"></stop>
            <stop stop-color="#808080" stop-opacity="0.1" offset="100%"></stop>
        </linearGradient>
        <linearGradient x1="50.0067568%" y1="99.9710145%" x2="50.0067568%" y2="-0.0289855072%" id="linearGradient-5">
            <stop stop-color="#808080" stop-opacity="0.25" offset="0%"></stop>
            <stop stop-color="#808080" stop-opacity="0.12" offset="54%"></stop>
            <stop stop-color="#808080" stop-opacity="0.1" offset="100%"></stop>
        </linearGradient>
        <linearGradient x1="49.9964552%" y1="99.9928459%" x2="49.9964552%" y2="-0.00802762243%" id="linearGradient-6">
            <stop stop-color="#000000" stop-opacity="0.12" offset="0%"></stop>
            <stop stop-color="#000000" stop-opacity="0.09" offset="55%"></stop>
            <stop stop-color="#000000" stop-opacity="0.02" offset="100%"></stop>
        </linearGradient>
        <linearGradient x1="49.9922122%" y1="99.9530713%" x2="49.9922122%" y2="-0.0400799968%" id="linearGradient-7">
            <stop stop-color="#808080" stop-opacity="0.25" offset="0%"></stop>
            <stop stop-color="#808080" stop-opacity="0.12" offset="54%"></stop>
            <stop stop-color="#808080" stop-opacity="0.1" offset="100%"></stop>
        </linearGradient>
        <linearGradient x1="49.870761%" y1="89.2666772%" x2="50.0723805%" y2="10.733941%" id="linearGradient-8">
            <stop stop-color="#000000" stop-opacity="0.12" offset="0%"></stop>
            <stop stop-color="#000000" stop-opacity="0.09" offset="55%"></stop>
            <stop stop-color="#000000" stop-opacity="0.02" offset="100%"></stop>
        </linearGradient>
        <linearGradient x1="49.9970588%" y1="100.004697%" x2="49.9970588%" y2="0.00260124142%" id="linearGradient-9">
            <stop stop-color="#808080" stop-opacity="0.25" offset="0%"></stop>
            <stop stop-color="#808080" stop-opacity="0.12" offset="54%"></stop>
            <stop stop-color="#808080" stop-opacity="0.1" offset="100%"></stop>
        </linearGradient>
        <linearGradient x1="49.9957633%" y1="100.001834%" x2="49.9957633%" y2="0.00626914661%" id="linearGradient-10">
            <stop stop-color="#808080" stop-opacity="0.25" offset="0%"></stop>
            <stop stop-color="#808080" stop-opacity="0.12" offset="54%"></stop>
            <stop stop-color="#808080" stop-opacity="0.1" offset="100%"></stop>
        </linearGradient>
        <linearGradient x1="50.0096072%" y1="99.9912419%" x2="50.0096072%" y2="-0.0265487848%" id="linearGradient-11">
            <stop stop-color="#808080" stop-opacity="0.25" offset="0%"></stop>
            <stop stop-color="#808080" stop-opacity="0.12" offset="54%"></stop>
            <stop stop-color="#808080" stop-opacity="0.1" offset="100%"></stop>
        </linearGradient>
        <linearGradient x1="50%" y1="100%" x2="50%" y2="0%" id="linearGradient-12">
            <stop stop-color="#000000" stop-opacity="0.12" offset="0%"></stop>
            <stop stop-color="#000000" stop-opacity="0.09" offset="55%"></stop>
            <stop stop-color="#000000" stop-opacity="0.02" offset="100%"></stop>
        </linearGradient>
        <linearGradient x1="33.4478857%" y1="83.9072176%" x2="70.2468561%" y2="44.7229661%" id="linearGradient-13">
            <stop stop-color="#808080" stop-opacity="0.25" offset="0%"></stop>
            <stop stop-color="#808080" stop-opacity="0.12" offset="54%"></stop>
            <stop stop-color="#808080" stop-opacity="0.1" offset="100%"></stop>
        </linearGradient>
    </defs>
    <g id="Web-PC" stroke="none" stroke-width="1" fill="none" fill-rule="evenodd">
        <g id="Home" transform="translate(-1361.000000, -4238.000000)">
            <g id="undraw_mail_2_tqip" transform="translate(1366.000000, 4238.000000)">
                <path d="M8,185 C8,185 7.61797753,184.300699 7,183" id="Path" stroke="#69F0AE" stroke-width="9"></path>
                <path d="M5.84075922,178 C-4.18893963,139.24337 -35.4580007,-39.3766627 278,72.1314619" id="Path" stroke="#69F0AE" stroke-width="9" stroke-dasharray="12.04"></path>
                <path d="M281,73 L283,74" id="Path" stroke="#69F0AE" stroke-width="9"></path>
                <path d="M244,210.425715 C244.004211,193.179555 230.87902,178.763173 213.703243,177.148514 C196.527467,175.533856 180.943945,187.251394 177.731946,204.195996 L75,201.410316 L76.1277917,219.054329 C76.1277917,219.054329 61.4788476,252.844588 138.469154,261.847643 L138.469154,296 L227.474146,296 L227.474146,239.216564 C237.701602,233.229744 243.990271,222.273812 244,210.425715 Z" id="Path" fill="url(#linearGradient-1)" fill-rule="nonzero"></path>
                <path d="M80.0945885,219.971845 C80.0945885,219.971845 66.0706877,252.469189 139.782582,261.139004 L139.782582,294 L225,294 L225,206.971255 L79,203 L80.0945885,219.971845 Z" id="Path" fill="#F6B9AD" fill-rule="nonzero"></path>
                <path d="M122.612231,84.6307362 L122.612231,84.6307362 C117.989609,91.9960344 108.343812,94.209219 101.022776,89.5843389 L55.2983677,59.160997 C48.0039274,54.4934707 45.8120348,44.7539748 50.3924212,37.3618233 L50.3924212,37.3618233 C55.014369,30.0066362 64.6478213,27.7945988 71.9654267,32.4082206 L117.689835,62.8315626 C124.990077,67.493628 127.189578,77.2342744 122.612231,84.6307362 L122.612231,84.6307362 Z" id="Path" fill="url(#linearGradient-2)" fill-rule="nonzero"></path>
                <path d="M119.767805,83.2259081 L119.767805,83.2259081 C115.446252,89.9962035 106.42881,92.0307255 99.5844815,87.7796847 L56.823132,59.8123515 C50.003824,55.5218591 47.9545733,46.5692281 52.2363889,39.7740919 L52.2363889,39.7740919 C56.5579418,33.0037965 65.5753841,30.9692745 72.4197128,35.2203153 L115.17279,63.1917547 C121.992496,67.479381 124.045286,76.4294968 119.767805,83.2259081 Z" id="Path" fill="#F6B9AD" fill-rule="nonzero"></path>
                <circle id="Oval" fill="#F6B9AD" fill-rule="nonzero" cx="209" cy="212" r="32"></circle>
                <rect id="Rectangle" fill="url(#linearGradient-3)" fill-rule="nonzero" x="75" y="0" width="133" height="240" rx="12.25"></rect>
                <rect id="Rectangle" fill="#FFFFFF" fill-rule="nonzero" x="77" y="3" width="129" height="234" rx="13.64"></rect>
                <path d="M174.03017,9 C173.256128,14.1216697 168.861537,17.9130389 163.681444,17.9282131 L118.959426,17.9282131 C113.780899,17.9110062 109.38863,14.120128 108.614828,9 L84.9204969,9 C83.6158802,9 82.3643222,9.51636638 81.4414315,10.4384306 C80.5185408,11.3604948 80,12.6115471 80,13.9160904 L80,226.079782 C80,227.384325 80.5163956,228.635812 81.4385121,229.55865 C82.3606286,230.481489 83.6117518,231 84.916369,231 L198.079503,231 C199.38412,231 200.635678,230.483634 201.558568,229.561569 C202.481459,228.639505 203,227.388453 203,226.08391 L203,13.9202181 C203,12.6156753 202.483604,11.3641882 201.561488,10.4413498 C200.639371,9.51851142 199.388248,9 198.083631,9 L174.03017,9 Z" id="Path" fill="#A5A1EF" fill-rule="nonzero"></path>
                <rect id="Rectangle" fill="#DBDBDB" fill-rule="nonzero" x="127" y="12" width="29" height="2" rx="1"></rect>
                <circle id="Oval" fill="#DBDBDB" fill-rule="nonzero" cx="162" cy="13" r="1"></circle>
                <path d="M229.495889,217.566702 L229.495889,217.566702 C220.22998,219.713081 213.870702,213.660456 211.727678,204.38415 L190.437025,125.206602 C188.318637,115.894303 194.10495,106.616195 203.389592,104.43771 L203.389592,104.43771 C212.687332,102.316004 221.950935,108.111378 224.126014,117.410558 L241.500106,198.619353 C243.64313,207.912107 238.757692,215.420322 229.495889,217.566702 Z" id="Path" fill="url(#linearGradient-4)" fill-rule="nonzero"></path>
                <path d="M217.384654,106.333489 C225.447742,106.332976 231.984583,112.868984 231.985097,120.932072 C231.985097,120.932692 231.985097,120.933312 231.985097,120.933932 L231.97953,208.36217 C231.979017,216.426586 225.441644,222.963958 217.377228,222.964472 C209.31414,222.964986 202.777299,216.428977 202.776786,208.365889 C202.776786,208.365269 202.776786,208.36465 202.776786,208.36403 L202.782352,120.935791 C202.782866,112.871376 209.320238,106.334003 217.384654,106.333489 Z" id="Rectangle" fill="#F6B9AD" fill-rule="nonzero" transform="translate(217.380941, 164.648981) rotate(-13.010000) translate(-217.380941, -164.648981) "></path>
                <rect id="Rectangle" fill="url(#linearGradient-5)" fill-rule="nonzero" x="119" y="283" width="122" height="28"></rect>
                <rect id="Rectangle" fill="#FF8976" fill-rule="nonzero" x="122" y="287" width="116" height="22"></rect>
                <path d="M168.581847,75.2545476 L159.124744,68.1069185 L163.247282,62.7265375 L156.366766,57.304769 L152.066959,62.7762026 L142.341891,55.4299132 C141.580978,54.8566956 140.534464,54.8566956 139.77355,55.4299132 L113.995319,74.6958158 C113.018278,75.5235667 112.103074,76.4713415 112.094829,78.6400489 L112.065971,78.6400489 L112,108.323197 L112,108.323197 L112,109.643459 C111.997821,110.501835 112.335375,111.325927 112.938414,111.934442 C113.541453,112.542958 114.360578,112.88605 115.21559,112.888243 L116.485332,112.888243 L140.927861,112.942047 L166.644254,113 C167.499266,113.002188 168.320129,112.663306 168.92626,112.057895 C169.532392,111.452484 169.87414,110.630136 169.876324,109.771761 L169.946407,78.8221541 L170,78.8221541 C170,76.6493079 169.558888,76.0822985 168.581847,75.2545476 Z" id="Path" fill="url(#linearGradient-6)" fill-rule="nonzero"></path>
                <path d="M168,79.7476405 C168,77.7663903 167.587099,77.2607155 166.70349,76.4939137 L142.726318,58.3932451 C142.030274,57.8689183 141.072955,57.8689183 140.37691,58.3932451 L116.820897,76.0006736 C115.669368,76.8263792 115.015826,78.1837834 115.086712,79.6025698 L115.061938,79.6025698 L115,106.726631 L115,106.726631 L115,107.93279 C114.997718,109.565629 116.313274,110.891803 117.939859,110.896375 L119.100112,110.896375 L141.438066,110.946114 L164.936273,111 C166.562864,111.00229 167.883962,109.681681 167.888517,108.048846 L167.950452,79.7683648 L168,79.7476405 Z" id="Path" fill="url(#linearGradient-7)" fill-rule="nonzero"></path>
                <path d="M115.214662,79.2978004 L167.129448,79.2978004 L167.129448,107.868946 C167.129448,108.326465 166.947752,108.765246 166.624331,109.088761 C166.30091,109.412276 165.862257,109.594024 165.40487,109.594024 L117.133172,109.594024 C116.628734,109.594024 116.144956,109.393546 115.788264,109.03675 C115.431572,108.679955 115.231184,108.196036 115.231183,107.691451 L115.231165,79.2978004 L115.214662,79.2978004 Z" id="Path" fill="#A5A1EF" fill-rule="nonzero" transform="translate(141.172055, 94.445912) rotate(0.130000) translate(-141.172055, -94.445912) "></path>
                <path d="M115.214662,79.2978004 L167.129448,79.2978004 L167.129448,107.868946 C167.129448,108.326465 166.947752,108.765246 166.624331,109.088761 C166.30091,109.412276 165.862257,109.594024 165.40487,109.594024 L117.133172,109.594024 C116.628734,109.594024 116.144956,109.393546 115.788264,109.03675 C115.431572,108.679955 115.231184,108.196036 115.231183,107.691451 L115.231165,79.2978004 L115.214662,79.2978004 Z" id="Path" fill="#FFFFFF" fill-rule="nonzero" opacity="0.2" transform="translate(141.172055, 94.445912) rotate(0.130000) translate(-141.172055, -94.445912) "></path>
                <path d="M115.05792,79 L115,104.912795 C114.997812,105.968691 115.421492,106.982198 116.177844,107.730357 C116.934196,108.478516 117.961263,108.900041 119.0331,108.9022 L163,109" id="Path" fill="#F5F5F5" fill-rule="nonzero"></path>
                <path d="M167,79 L166.942179,105.013893 C166.93999,106.073241 166.512764,107.088341 165.754485,107.83588 C164.996206,108.583419 163.96899,109.002162 162.898813,109 L119,108.901872" id="Path" fill="#FFFFFF" fill-rule="nonzero"></path>
                <path d="M139.839739,58.3818519 L116.710563,75.3615033 C115.58136,76.1519378 114.937598,77.463046 115.004786,78.8355482 L167,79 C167,77.0882475 166.586979,76.5866694 165.727895,75.8630814 L142.165047,58.3900745 C141.477981,57.8730371 140.530478,57.8696866 139.839739,58.3818519 L139.839739,58.3818519 Z" id="Path" fill="#A5A1EF" fill-rule="nonzero"></path>
                <path d="M139.839739,58.3818519 L116.710563,75.3615033 C115.58136,76.1519378 114.937598,77.463046 115.004786,78.8355482 L167,79 C167,77.0882475 166.586979,76.5866694 165.727895,75.8630814 L142.165047,58.3900745 C141.477981,57.8730371 140.530478,57.8696866 139.839739,58.3818519 L139.839739,58.3818519 Z" id="Path" fill="#000000" fill-rule="nonzero" opacity="0.2"></path>
                <polygon id="Path" fill="url(#linearGradient-8)" fill-rule="nonzero" points="162 64.9517057 155.669992 60 140.37074 79.3340468 132.149626 72.9723077 127 79.5040803 138.965919 88.6236789 138.965919 88.6236789 141.9335 91"></polygon>
                <polygon id="Path" fill="#FFFFFF" fill-rule="nonzero" points="161 64.4089457 155.226652 60 139.927279 79.8735936 131.430417 73.3851924 127 79.1359911 138.383536 87.8205306 138.383536 87.8205306 141.303679 90"></polygon>
                <path d="M112.62261,127.67318 L112.62261,127.67318 C108.027563,134.996103 98.4414512,137.196419 91.1651886,132.598336 L52.2527667,107.003331 C45.0038573,102.361367 42.8257809,92.6773768 47.3773902,85.3268205 L47.3773902,85.3268205 C51.9724373,78.0038967 61.5585488,75.8035812 68.8348114,80.4016644 L107.747233,105.996669 C114.996143,110.638633 117.174219,120.322623 112.62261,127.67318 Z" id="Path" fill="url(#linearGradient-9)" fill-rule="nonzero"></path>
                <path d="M110.758515,126.18692 L110.758515,126.18692 C106.427113,132.996182 97.3891212,135.042413 90.529195,130.766906 L53.8386812,106.966671 C47.0038327,102.651485 44.949912,93.6473265 49.2414854,86.8130805 L49.2414854,86.8130805 C53.5728867,80.0038184 62.6108788,77.9575865 69.470805,82.2330944 L106.161319,106.033329 C112.996167,110.348515 115.050088,119.352674 110.758515,126.18692 Z" id="Path" fill="#F6B9AD" fill-rule="nonzero"></path>
                <path d="M104.622984,169.752148 L104.622984,169.752148 C100.024803,176.995706 90.428142,179.172741 83.144459,174.624623 L52.2620919,154.684259 C45.0043019,150.095095 42.8229903,140.517252 47.3800443,133.247852 L47.3800443,133.247852 C51.9782249,126.004294 61.5748862,123.827259 68.8585692,128.375377 L99.7367954,148.319874 C106.993523,152.907511 109.176463,162.482537 104.622984,169.752148 Z" id="Path" fill="url(#linearGradient-10)" fill-rule="nonzero"></path>
                <path d="M96.6289343,211.726894 L96.6289343,211.726894 C92.0379539,218.995297 82.4544956,221.180229 75.1808814,216.616835 L56.2529951,202.76885 C49.0046903,198.16514 46.8257994,188.555109 51.376575,181.261327 L51.376575,181.261327 C55.9729411,173.998718 65.5552671,171.821387 72.8246279,176.387823 L91.7525142,190.231698 C98.9933324,194.834906 101.171373,204.435681 96.6289343,211.726894 L96.6289343,211.726894 Z" id="Path" fill="url(#linearGradient-11)" fill-rule="nonzero"></path>
                <path d="M95.7662859,211.215303 L95.7662859,211.215303 C91.4499019,217.996198 82.4432451,220.033905 75.6071027,215.776209 L57.8149711,202.854328 C51.0038195,198.557118 48.9570198,189.590471 53.2337141,182.784697 L53.2337141,182.784697 C57.5500981,176.003802 66.5567549,173.966095 73.3928973,178.223791 L91.1850289,191.145672 C97.9961805,195.442882 100.04298,204.409529 95.7662859,211.215303 Z" id="Path" fill="#F6B9AD" fill-rule="nonzero"></path>
                <rect id="Rectangle" fill="url(#linearGradient-12)" fill-rule="nonzero" x="100" y="134" width="84" height="25"></rect>
                <rect id="Rectangle" fill="#69F0AE" fill-rule="nonzero" x="103" y="136" width="78" height="18"></rect>
                <polygon id="Path" fill="url(#linearGradient-13)" fill-rule="nonzero" points="326.522478 88.7667414 328 89 327.769523 88.7792374 327.892993 88.7792374 327.699557 88.7125921 300.910722 63 294.407978 73.3841717 289 82.8561359 291.506437 83.2518424 290.395209 88.3835309"></polygon>
                <polygon id="Path" fill="#A5A1EF" fill-rule="nonzero" points="295.909091 73.7552572 291 82.1910312 327 88 303.812727 72"></polygon>
                <polygon id="Path" fill="#000000" fill-rule="nonzero" opacity="0.2" points="295.909091 73.7552572 291 82.1910312 327 88 303.812727 72"></polygon>
                <polygon id="Path" fill="#A5A1EF" fill-rule="nonzero" points="301.894079 64 327 88 296 73.4442527"></polygon>
                <polygon id="Path" fill="#A5A1EF" fill-rule="nonzero" points="292 87.3104925 327 88 294.32726 76"></polygon>
                <path d="M102.764726,169.181809 L102.764726,169.181809 C98.463182,175.996179 89.4874909,178.043945 82.6748517,173.765231 L53.7915406,155.00172 C47.0038063,150.683297 44.9640437,141.672385 49.2260344,134.833013 L49.2260344,134.833013 C53.5208096,128.011356 62.4979274,125.95403 69.3159086,130.228927 L98.1992197,148.992438 C105,153.311693 107.040693,162.338139 102.764726,169.181809 L102.764726,169.181809 Z" id="Path" fill="#F6B9AD" fill-rule="nonzero"></path>
            </g>
        </g>
    </g>
</svg>