<?xml version="1.0" encoding="UTF-8"?>
<svg width="23px" height="19px" viewBox="0 0 23 19" version="1.1" xmlns="http://www.w3.org/2000/svg" xmlns:xlink="http://www.w3.org/1999/xlink">
    <!-- Generator: Sketch 58 (84663) - https://sketch.com -->
    <title>icon / social / google</title>
    <desc>Created with Sketch.</desc>
    <g id="Web-PC" stroke="none" stroke-width="1" fill="none" fill-rule="evenodd">
        <g id="Sign-In" transform="translate(-1790.000000, -166.000000)" fill="#829AE0" fill-rule="nonzero">
            <g id="Button-/-Circle-Copy" transform="translate(1772.000000, 147.000000)">
                <g id="icon-/-social-/-google" transform="translate(18.000000, 19.000000)">
                    <path d="M22.125,2.59912179 C21.3084245,2.96217949 20.4383255,3.20282692 19.5311719,3.31967308 C20.464401,2.75491667 21.1766745,1.86744231 21.5115391,0.79774359 C20.6414401,1.32355128 19.680763,1.69495513 18.6569557,1.90221795 C17.8307734,1.01057051 16.6532578,0.458333333 15.3686953,0.458333333 C12.8764245,0.458333333 10.8699818,2.50870513 10.8699818,5.02228846 C10.8699818,5.38395513 10.9001745,5.73171154 10.9742839,6.06277564 C7.23176042,5.87776923 3.92016927,4.05969872 1.69551562,1.29016667 C1.3071276,1.97316026 1.0793099,2.75491667 1.0793099,3.59648718 C1.0793099,5.17669231 1.88216146,6.57745513 3.07889062,7.38842308 C2.35563802,7.37451282 1.64610937,7.1616859 1.045,6.82644872 C1.045,6.84035897 1.045,6.85844231 1.045,6.87652564 C1.045,9.09382051 2.60541406,10.9355385 4.65165625,11.3598013 C4.28522656,11.4613462 3.88585937,11.5100321 3.47139583,11.5100321 C3.18319271,11.5100321 2.89224479,11.4933397 2.61913802,11.4321346 C3.20240625,13.2390769 4.85751562,14.5675064 6.82553125,14.6106282 C5.2939375,15.8249936 3.3492526,16.5566731 1.2439974,16.5566731 C0.874822917,16.5566731 0.520744792,16.5399808 0.166666667,16.4940769 C2.16075781,17.7974679 4.52402344,18.5416667 7.0725625,18.5416667 C15.3563437,18.5416667 19.88525,11.5865385 19.88525,5.55783333 C19.88525,5.35613462 19.878388,5.16139103 19.8687812,4.96803846 C20.7622109,4.32538462 21.5129115,3.52276282 22.125,2.59912179 Z" id="Path"></path>
                </g>
            </g>
        </g>
    </g>
</svg>