<?xml version="1.0" encoding="UTF-8"?>
<svg width="31px" height="27px" viewBox="0 0 31 27" version="1.1" xmlns="http://www.w3.org/2000/svg" xmlns:xlink="http://www.w3.org/1999/xlink">
    <!-- Generator: Sketch 58 (84663) - https://sketch.com -->
    <title>icon/social/facebook_24px copy</title>
    <desc>Created with Sketch.</desc>
    <defs>
        <path d="M15.1434543,9.74475337 C15.1434543,9.74475337 10.5079117,10.8197657 5.33526145,4.77331926 C5.33526145,4.77331926 3.31991211,8.7370787 6.81350306,11.1552588 C6.81350306,11.1552588 5.67194991,11.3568735 4.73041758,10.6854888 C4.73041758,10.6854888 4.32718834,14.1113436 8.4925624,15.4549098 L6.27559843,15.4549098 C6.27559843,15.4549098 6.88084075,18.20938 10.7768641,18.8138254 C10.7768641,18.8138254 9.16474396,20.9634517 3.92435754,20.8291747 C3.92435754,20.8291747 6.88084075,23.1130779 11.3821064,23.0457403 C11.3821064,23.0457403 19.7116591,23.4489695 23.6754186,14.0436075 C24.6500221,11.7306176 24.5488163,9.54313874 24.4814786,8.46772794 L27.0343342,6.18422318 L24.4814786,6.65439167 C24.4814786,6.65439167 26.2282741,5.37816313 26.4302872,4.16887384 L23.6084793,5.31082544 C23.6084793,5.31082544 21.4923227,3.39628341 17.8979244,4.16887384 C17.897526,4.16887384 14.6063466,4.84065695 15.1434543,9.74475337 Z M17.7706184,0.897473408 C20.2014839,0.419516129 22.3846614,0.766244773 24.223261,1.65360526 C24.3235171,1.70199172 24.4203832,1.75077457 24.5138576,1.79975476 L26.3155574,1.07062857 C28.1711038,0.319711335 30.1320662,1.89035297 29.8059755,3.86406965 C30.6895827,4.83474427 30.8297712,6.45661287 29.6356344,7.52475675 L27.7877388,9.17768164 C27.8104124,11.2101529 27.5316588,13.0324188 26.6757677,15.0636729 C25.1498938,18.6843257 22.9618499,21.4073395 20.284958,23.3013908 C18.39288,24.6401423 16.3684504,25.4902125 14.3282364,25.947656 C13.0095498,26.2433234 11.8908559,26.3355702 11.0677294,26.3150285 C8.55501654,26.3433937 6.24052912,25.8119831 4.17552394,24.9080274 C2.94685999,24.3701799 2.04423183,23.8145322 1.50179141,23.3954933 C-0.459213625,21.8806037 0.657209748,18.7413462 3.13438603,18.8048201 C3.60993829,18.8170054 4.05536283,18.8100335 4.47194982,18.7858644 C3.68315395,17.8506554 3.26445498,16.9102382 3.09441801,16.1363964 C3.03536335,15.8676374 3.02062483,15.6012799 3.044747,15.3441083 C2.88104678,15.1466112 2.72845385,14.9416933 2.58701115,14.7297082 C1.5847077,13.2275213 1.28897829,11.6832396 1.37199163,10.364637 C1.38157413,10.2344614 1.38157413,10.2344614 1.39020525,10.1565094 C1.43528341,9.77352319 1.55832532,9.42782176 1.73900571,9.12841103 C1.20821313,7.43749243 1.32870478,5.73716296 1.82876895,4.13627582 C1.99141219,3.61559568 2.16263945,3.20836394 2.30159501,2.9350682 C3.1295226,1.3067124 5.34652246,1.04243472 6.53402766,2.43054066 C8.40376766,4.61612875 10.250587,5.91562461 12.0119471,6.5453066 C12.2304666,6.62342682 12.4404015,6.68905073 12.6412299,6.74345525 C13.2018975,3.20439385 15.5314478,1.08770573 17.7706184,0.897473408 Z M5.80063528,8.42634149 C5.80114843,8.42629644 5.79846693,8.42660882 5.79506272,8.4270524 L5.80063528,8.42634149 Z" id="path-1"></path>
    </defs>
    <g id="Web-PC" stroke="none" stroke-width="1" fill="none" fill-rule="evenodd">
        <g id="Article" transform="translate(-1356.000000, -1626.000000)">
            <g id="Share" transform="translate(1278.000000, 1550.000000)">
                <g id="icon/social/facebook_24px-copy" transform="translate(78.000000, 76.000000)">
                    <mask id="mask-2" fill="white">
                        <use xlink:href="#path-1"></use>
                    </mask>
                    <g id="icon/social/twitter_24px" fill-rule="nonzero"></g>
                    <g id="✱-/-Color-/-Icons-/-Asset" mask="url(#mask-2)" fill="#6D96E6">
                        <g transform="translate(-7.000000, -9.000000)" id="Rectangle">
                            <rect x="0" y="0" width="45" height="45"></rect>
                        </g>
                    </g>
                </g>
            </g>
        </g>
    </g>
</svg>