<?xml version="1.0" encoding="UTF-8"?>
<svg width="39px" height="29px" viewBox="0 0 39 29" version="1.1" xmlns="http://www.w3.org/2000/svg" xmlns:xlink="http://www.w3.org/1999/xlink">
    <!-- Generator: Sketch 58 (84663) - https://sketch.com -->
    <title>icon/social/facebook_24px copy 3</title>
    <desc>Created with Sketch.</desc>
    <defs>
        <path d="M33.302802,1.67582174 C35.41293,2.26196841 36.851668,3.70070632 37.4378146,5.81083432 C37.6906322,6.72486317 37.8607325,7.88798195 37.9707847,9.35710179 C38.0901362,10.7211184 38.1477273,11.9526813 38.1433955,12.946738 L38.25,14.5 C38.25,18.2793823 37.9775315,21.2038774 37.4378146,23.1891657 C36.851668,25.2992937 35.41293,26.7380316 33.300999,27.324678 C32.3418467,27.5899755 30.7900491,27.7535553 28.4211959,27.8611706 C26.2505319,27.9780525 24.1900444,28.0340909 22.274504,28.0328786 L19.5,28.1363636 C12.3424079,28.1363636 7.70420954,27.8698005 5.69719796,27.3241783 C3.58706995,26.7380316 2.14833205,25.2992937 1.56168559,23.1873626 C1.30936783,22.2751368 1.13926745,21.1120181 1.02921525,19.6428982 C0.909863797,18.2788816 0.852272727,17.0473187 0.856604489,16.053262 L0.75,14.5 C0.75,10.7206177 1.02246849,7.79612258 1.56218538,5.81083432 C2.14833205,3.70070632 3.58706995,2.26196841 5.69900104,1.67532195 C6.65815327,1.41002453 8.20995085,1.24644473 10.5788041,1.13882936 C12.7494681,1.02194745 14.8099556,0.965909091 16.725496,0.967121428 L19.5,0.863636364 C26.6575921,0.863636364 31.2957905,1.13019949 33.302802,1.67582174 Z M19.5642767,4.27151494 L16.7897727,4.375 C14.8714255,4.375 12.8720528,4.42937625 10.747854,4.54369638 C8.61232973,4.64076566 7.2444128,4.78496203 6.60962022,4.96054189 C5.65156641,5.22666795 5.11303159,5.76520278 4.84939721,6.71418962 C4.40614348,8.34473013 4.15909091,10.9964277 4.15475915,14.3785562 L4.26136364,15.9318182 C4.26136364,16.9443771 4.31434225,18.0773045 4.42704428,19.3668353 C4.52365337,20.6549565 4.66426121,21.6164101 4.84690553,22.2767434 C5.11303159,23.2347972 5.65156641,23.773332 6.60055326,24.0369664 C8.1934852,24.4699965 12.6700921,24.7272727 19.4357233,24.7284851 L22.2102273,24.625 C24.1285745,24.625 26.1279472,24.5706238 28.252146,24.4563036 C30.3876703,24.3592343 31.7555872,24.215038 32.3903798,24.0394581 C33.3484336,23.773332 33.8869684,23.2347972 34.1506028,22.2858104 C34.5938565,20.6552699 34.8409091,18.0035723 34.8452409,14.6214438 L34.7386364,13.0681818 C34.7386364,12.0556229 34.6856577,10.9226955 34.5729557,9.63316468 C34.4763905,8.34562802 34.3358664,7.38446251 34.152844,6.72235504 C33.8866305,5.76486494 33.3481359,5.22658525 32.3994467,4.96303357 C30.8065148,4.53000353 26.3299079,4.27272727 19.5642767,4.27151494 Z M16.0632218,10.5946593 C16.0632218,9.99362568 16.7251196,9.62844066 17.2348571,9.95558557 L17.2348571,9.95558557 L23.4277863,13.8889325 C23.8994836,14.1932534 23.8994836,14.8779753 23.4277863,15.1746881 L23.4277863,15.1746881 L17.2348571,19.1156431 C16.7251196,19.442788 16.0632218,19.0776029 16.0632218,18.4765693 L16.0632218,18.4765693 Z" id="path-1"></path>
    </defs>
    <g id="Web-PC" stroke="none" stroke-width="1" fill="none" fill-rule="evenodd">
        <g id="Article" transform="translate(-1494.000000, -1625.000000)">
            <g id="Share" transform="translate(1278.000000, 1550.000000)">
                <g id="icon/social/facebook_24px-copy-3" transform="translate(216.000000, 75.000000)">
                    <mask id="mask-2" fill="white">
                        <use xlink:href="#path-1"></use>
                    </mask>
                    <g id="social_youtube" fill-rule="nonzero"></g>
                    <g id="✱-/-Color-/-Icons-/-Primary-/-Red-/-400" mask="url(#mask-2)" fill="#EF5350">
                        <g transform="translate(-3.000000, -8.250033)" id="Rectangle">
                            <rect x="0" y="0" width="45" height="45"></rect>
                        </g>
                    </g>
                </g>
            </g>
        </g>
    </g>
</svg>